<svg xmlns="http://www.w3.org/2000/svg" viewBox="0 0 123.24 339.25"><g id="Layer_5" data-name="Layer 5"><path d="M77.53,334.51c0,.1.08.05.22-.09C77.6,334.45,77.53,334.47,77.53,334.51Z" fill="#d67fc5" stroke="#3e0079" stroke-miterlimit="10" stroke-width="1.94"/><path d="M115.6,310.61l5.09-6.05V102.93l-11.77-20.5H98.15V5H24.83L24.27,82.4H13.69L2.3,101.82V323l8.62,11.24H75.51l5.62-4.58s-2.59,4-3.38,4.8c3-.52,34.37.09,34.37.09l9.44-10.7V306.94Zm-5,11.17-4.75,4.75h-25V314.91a3.25,3.25,0,0,1,3.26-3.25h26.49Z" fill="#d67fc5" stroke="#3e0079" stroke-miterlimit="10" stroke-width="1.94"/><rect x="34.77" y="37.88" width="15.92" height="13.29" rx="1.52" fill="none" stroke="#3e0079" stroke-miterlimit="10" stroke-width="1.94"/><line x1="42.73" y1="37.88" x2="42.73" y2="51.17" fill="none" stroke="#3e0079" stroke-miterlimit="10" stroke-width="1.94"/><line x1="40.69" y1="51.17" x2="40.69" y2="37.88" fill="none" stroke="#3e0079" stroke-miterlimit="10" stroke-width="1.94"/><line x1="38.65" y1="37.88" x2="38.65" y2="51.17" fill="none" stroke="#3e0079" stroke-miterlimit="10" stroke-width="1.94"/><line x1="36.61" y1="37.88" x2="36.61" y2="51.17" fill="none" stroke="#3e0079" stroke-miterlimit="10" stroke-width="1.94"/><rect x="72.62" y="37.88" width="15.92" height="13.29" rx="1.52" fill="none" stroke="#3e0079" stroke-miterlimit="10" stroke-width="1.94"/><line x1="80.58" y1="37.88" x2="80.58" y2="51.17" fill="none" stroke="#3e0079" stroke-miterlimit="10" stroke-width="1.94"/><line x1="82.62" y1="51.17" x2="82.62" y2="37.88" fill="none" stroke="#3e0079" stroke-miterlimit="10" stroke-width="1.94"/><line x1="84.66" y1="37.88" x2="84.66" y2="51.17" fill="none" stroke="#3e0079" stroke-miterlimit="10" stroke-width="1.94"/><line x1="86.7" y1="37.88" x2="86.7" y2="51.17" fill="none" stroke="#3e0079" stroke-miterlimit="10" stroke-width="1.94"/><rect x="87.95" y="57.21" width="4.96" height="13.38" rx="2.48" fill="none" stroke="#3e0079" stroke-linejoin="bevel" stroke-width="1.94"/><rect x="29.81" y="57.21" width="4.96" height="13.38" rx="2.48" fill="none" stroke="#3e0079" stroke-linejoin="bevel" stroke-width="1.94"/><path d="M74.83,70.18a3.28,3.28,0,0,0-1.65-.5,1.49,1.49,0,0,0-1.68,1.54c0,1.12,1,1.6,1.92,1.6H74v.8h-.56c-.73,0-1.66.41-1.66,1.35a1.15,1.15,0,0,0,1.3,1.2,2.64,2.64,0,0,0,1.49-.52l.27.78a3.37,3.37,0,0,1-1.95.61,1.9,1.9,0,0,1-2.13-1.9,2,2,0,0,1,1.37-1.87v0a2,2,0,0,1-1.66-2,2.43,2.43,0,0,1,2.72-2.39,3.55,3.55,0,0,1,1.93.54Z" fill="#3e0079"/><path d="M69.19,69v.66l-.79.82c-1.9,1.93-2.76,3-2.77,4.16a1.38,1.38,0,0,0,1.48,1.56,2.46,2.46,0,0,0,1.58-.68l.32.76A3.14,3.14,0,0,1,66.9,77a2.17,2.17,0,0,1-2.28-2.31c0-1.47,1-2.66,2.57-4.28l.59-.59v0H64.44V69Z" fill="#3e0079"/><path d="M57.09,69.31a6.75,6.75,0,0,1,2.37-.45A3.81,3.81,0,0,1,62.34,70,4.4,4.4,0,0,1,63.42,73a4,4,0,0,1-4.18,4.27,4.56,4.56,0,0,1-1.93-.38l.25-.87a3.83,3.83,0,0,0,1.7.35,3,3,0,0,0,3.1-3.32c0-2.09-1.18-3.33-3-3.33a3.09,3.09,0,0,0-1.33.22v2.46h1.57v.86H57.09Z" fill="#3e0079"/><path d="M55.56,77.09a8.93,8.93,0,0,1-1.82.17,3,3,0,0,1-2.12-.6A1.78,1.78,0,0,1,51,75.2a2,2,0,0,1,1.3-1.81v0a2.1,2.1,0,0,1-1.59-2.07,2.33,2.33,0,0,1,.66-1.66A3.69,3.69,0,0,1,54,68.87a10.69,10.69,0,0,1,1.55.1Zm-1-3.38h-.9c-1.06,0-1.67.59-1.67,1.38,0,1,.68,1.35,1.69,1.35a3.84,3.84,0,0,0,.88-.07Zm0-4a6,6,0,0,0-.83,0c-1,0-2,.4-2,1.6s.9,1.59,2,1.59h.82Z" fill="#3e0079"/><line x1="24.27" y1="82.4" x2="98.15" y2="82.4" fill="none" stroke="#3e0079" stroke-miterlimit="10" stroke-width="1.94"/><polyline points="34.77 261.78 34.77 103.82 17.82 103.82 17.82 261.78 12.76 261.78 12.76 103.82 6.63 103.82 6.34 266.69 12.8 266.69 12.8 323.96 17.86 323.96 17.86 266.69 34.77 266.69 34.77 323.96 19.98 323.96" fill="none" stroke="#3e0079" stroke-linejoin="bevel" stroke-width="1.94"/><polyline points="88.73 261.78 88.73 103.82 105.68 103.82 105.68 261.78 110.74 261.78 110.74 103.82 116.49 103.82 116.58 266.88 110.75 266.82 110.75 304.63 105.7 304.53 105.7 266.72 88.73 266.69 88.73 304.3 102.36 304.3" fill="none" stroke="#3e0079" stroke-linejoin="bevel" stroke-width="1.94"/><rect x="39.71" y="103.82" width="44.07" height="157.96" fill="none" stroke="#3e0079" stroke-linejoin="bevel" stroke-width="1.89"/><path d="M83.63,266.69H39.56V324H75.37V307A2.73,2.73,0,0,1,78,304.16h5.59Z" fill="none" stroke="#3e0079" stroke-linejoin="bevel" stroke-width="1.89"/></g></svg>