<svg xmlns="http://www.w3.org/2000/svg" viewBox="0 0 1288.44 825.65"><g id="Layer_3" data-name="Layer 3"><path d="M6.61,58.32C8,94.88,10.67,529.58,10.67,529.58s-6.5,4-7,5.7-3,198.49,0,202.4a95.36,95.36,0,0,0,7,7.78s.18,9.06.85,38.88c.68,30.3,30,30.34,46.21,30.3h145l21.35,4.51,850.76-5.41,11.73-5.42H1250s26.18-2.71,27.08-26.18,0-37.92,0-37.92l8.13-7.22V536.58l-8.47-8.47,3-475c-1.8-40.17-19.41-46-42.43-46s-1182-2.94-1182-2.94C12,4.15,5.26,21.76,6.61,58.32Zm338,722.83-12.26-6-6.95-8.49L322,751.49l4.77-3.54,13.34-4,10.34,1.43,11.32,6.9,6.83,10.59,1.66,12.3-10.37,5.22Zm617.78-35.52c.75,4.21-1.1,17.56-1.1,17.56l-6.75,9.91-12.23,6.77H923.77C920.14,759.05,930.75,737.1,962.41,745.63Zm-120.1-15.51-1.55,18.6-5.83,6.65-8.32,2-15.43-.91-8-6.43-3-6.29,3.32-8.52,7.24-5.6Zm-357.93-1.71,7.47,5,4.22,6.49v6l-3.35,5.56L486.33,756l-6.7,1.35-14.45-.11L459,755.16l-5-4.74-2.51-6.67.49-13.63,4.81-1.71Zm437.47-411,18.6,5.73,7.93,7.8-8.47,8.35,3.94,7,7.5,7.51,10.94-8.24,7.91,18.93,1.67,20.29-1,5.35-11.51-3.35-5.76,17.15,10.14,3.71-6.91,12L948,428.1l-15.42,8.51-2.3-10-19.08,6.24,2.6,7.11-6.48,1.65-21.91-4.66-13.84-7.85,7.11-7.72-9.87-12.7-3-.49-8,6.7-9.31-20-1.71-22.5,12,2.61,4.56-9.59,1.93-8-13-5,11.87-17.18L882.65,322h4.22l2.79,12.62,9.58-.37,8.06-3.3-3-14.66Zm-526-.07,6.4,2.78-6.94,11.68,3.33,2.69,8.32,4.28,5,1.36,2.62-3.9,4.77-8,8.22,6,8.52,10.45s4.83,11,4.94,11.29S444,366.23,444,366.23l-10.09,1.11-3.05.94-1.15,2.11,1.9,15.86,6.15.91,7.64-.93-7.86,24.5-13.3,15.82-7.63-9.75-14.66,9.75,5.36,10.35-17.64,4.38H377.29l-12-2.37-1.91-.61,2.27-4.38,1.32-4.23-3.59-4.42-6.68-3.57-5.29-.63-3.16,3.84-2.47,3.41-6.06-4.5-8.35-10s-6.67-9.95-6.35-10.63-2.73-10.31-2.73-10.31l7.46.53,3.66-.53v-2.83l-1-13.92s-.55-2.18-1.31-2.17-5.79.18-5.79.18l-4.39-.58,1.76-10.38,6-16.14L339.36,335l4.39,4.52,4,5.57,7.88-6,6.95-4.85-6.66-11.18,23.9-7.46Z" fill="#00a8eb" stroke="#0009b5" stroke-miterlimit="10" stroke-width="3"/><path d="M1086.58,808.32H1250s26.18-2.71,27.08-26.18,0-37.92,0-37.92l8.13-7.22V536.58l-8.47-8.47,3-475c-1.8-40.17-19.41-46-42.43-46s-1182-2.94-1182-2.94C12,4.15,5.26,21.76,6.61,58.32s4.06,471.26,4.06,471.26-6.5,4-7,5.7-3,198.49,0,202.4a95.36,95.36,0,0,0,7,7.78s.18,9.06.85,38.88c.68,30.3,30,30.34,46.21,30.3h145l21.35,4.51,850.76-5.41Z" fill="none" stroke="#0009b5" stroke-miterlimit="10" stroke-width="3"/><circle cx="140.32" cy="737.27" r="10.25" fill="none" stroke="#0009b5" stroke-miterlimit="10" stroke-width="3"/><circle cx="141.18" cy="736.41" r="23.71" fill="none" stroke="#0009b5" stroke-miterlimit="10" stroke-width="3"/><circle cx="140.68" cy="735.9" r="55.86" fill="none" stroke="#0009b5" stroke-miterlimit="10" stroke-width="3"/><circle cx="341.48" cy="772.81" r="28.88" fill="none" stroke="#0009b5" stroke-miterlimit="10" stroke-width="3"/><path d="M370.36,774.23A28.88,28.88,0,0,1,322,752.94c0-.48,0-1,0-1.45" fill="none" stroke="#0009b5" stroke-miterlimit="10" stroke-width="3"/><circle cx="646.92" cy="668.84" r="22.57" fill="none" stroke="#0009b5" stroke-miterlimit="10" stroke-width="3"/><circle cx="950.26" cy="770.85" r="27.99" fill="none" stroke="#0009b5" stroke-miterlimit="10" stroke-width="3"/><path d="M962.41,745.63A28,28,0,0,1,923.19,778" fill="none" stroke="#0009b5" stroke-miterlimit="10" stroke-width="3"/><circle cx="1146.17" cy="732.48" r="11.06" fill="none" stroke="#0009b5" stroke-miterlimit="10" stroke-width="3"/><circle cx="1146.17" cy="732.48" r="26.18" fill="none" stroke="#0009b5" stroke-miterlimit="10" stroke-width="3"/><circle cx="1143.35" cy="729.66" r="54.51" fill="none" stroke="#0009b5" stroke-miterlimit="10" stroke-width="3"/><circle cx="1236.89" cy="772.97" r="18.51" fill="none" stroke="#0009b5" stroke-miterlimit="10" stroke-width="3"/><circle cx="48.89" cy="776.75" r="18.51" fill="none" stroke="#0009b5" stroke-miterlimit="10" stroke-width="3"/><circle cx="44.75" cy="43.11" r="18.51" fill="none" stroke="#0009b5" stroke-miterlimit="10" stroke-width="3"/><rect x="446.14" y="724.13" width="46.74" height="55.3" rx="17.57" transform="translate(-282.27 1221.29) rotate(-90)" fill="none" stroke="#0009b5" stroke-miterlimit="10" stroke-width="3"/><path d="M496.89,742.93a17.54,17.54,0,0,1-17.26,14.45H467a15.71,15.71,0,0,1-15.71-15.72v-6.81a17.54,17.54,0,0,1,.64-4.73" fill="none" stroke="#0009b5" stroke-miterlimit="10" stroke-width="3"/><rect x="802.18" y="726.4" width="46.74" height="50.75" rx="16.83" transform="translate(73.77 1577.33) rotate(-90)" fill="none" stroke="#0009b5" stroke-miterlimit="10" stroke-width="3"/><path d="M800.42,742.93c1.34,8.21,7.92,14.45,15.84,14.45h11.63c8,0,14.42-7,14.42-15.72v-6.81a19.27,19.27,0,0,0-.59-4.73" fill="none" stroke="#0009b5" stroke-miterlimit="10" stroke-width="3"/><circle cx="1240.59" cy="43.01" r="20.12" fill="none" stroke="#0009b5" stroke-miterlimit="10" stroke-width="3"/><path d="M33,497.31c19.47,51.91,54.59,107,84.45,132.26,15.08,12.75.57,40.21-20.8,25.27-12.36-8.63-55.36-65.34-56-70.92s1.86-39.78-.17-44.69-14-28.61-14.73-34.36-1.86-11.17,1.52-13S33,497.31,33,497.31Z" fill="none" stroke="#0009b5" stroke-miterlimit="10" stroke-width="3"/><path d="M1253.75,497.31c-18.76,51.91-52.6,107-81.38,132.26-14.53,12.75-.55,40.21,20.05,25.27,11.9-8.63,53.33-65.34,54-70.92s-1.8-39.78.16-44.69,13.54-28.61,14.19-34.36,1.79-11.17-1.47-13S1253.75,497.31,1253.75,497.31Z" fill="none" stroke="#0009b5" stroke-miterlimit="10" stroke-width="3"/><path d="M1086.58,808.32S1055.1,644.69,1048,625.05c-5.9-16.3-24.94-15.74-37.92-15.57-12.21.16-721.74,3.52-743.45,3.38-22.81-.13-25.68,12.86-28.44,28.44-2.5,14.07-38.6,173.34-38.6,173.34" fill="none" stroke="#0009b5" stroke-miterlimit="10" stroke-width="3"/><path d="M1071.42,813.76l-36.5-183.25s-1.87-9.13-19.22-7.46" fill="none" stroke="#0009b5" stroke-miterlimit="10" stroke-width="3"/><path d="M1178.6,509.52l-716.81-2.71a5.88,5.88,0,0,0-5.91,5.88v62.6a4.62,4.62,0,0,0,4.63,4.62H1180.4" fill="none" stroke="#0009b5" stroke-miterlimit="10" stroke-width="3"/><path d="M1160.58,595.28c13.89-.41,19.82-3.93,19.82-17.91l1.3-486.14c0-17.19-12-14.62-32.82-14.29-26.41.42-994.66-3.72-1018-3.72s-24-1.69-25.39,19.63.13,461.68.73,479.66,4.33,21.23,19.81,21.4c0,0,1015.19,1.58,1034.57,1.37" fill="none" stroke="#0009b5" stroke-miterlimit="10" stroke-width="3"/><path d="M549.09-11.24H744.57A17.78,17.78,0,0,1,762.35,6.53V745.72a17.78,17.78,0,0,1-17.78,17.78H545.09a17.78,17.78,0,0,1-17.78-17.78V10.53A21.77,21.77,0,0,1,549.09-11.24Z" transform="translate(268.7 1020.96) rotate(-90)" fill="none" stroke="#0009b5" stroke-miterlimit="10" stroke-width="3"/><path d="M547.64.53H746.29a8.14,8.14,0,0,1,8.14,8.14V741.44a8.14,8.14,0,0,1-8.14,8.14H552.73a13.24,13.24,0,0,1-13.24-13.24V8.67A8.14,8.14,0,0,1,547.64.53Z" transform="translate(271.91 1022.02) rotate(-90)" fill="none" stroke="#0009b5" stroke-miterlimit="10" stroke-width="3"/><rect x="554.11" y="14.8" width="183.76" height="720.25" rx="10.27" transform="translate(271.06 1020.92) rotate(-90)" fill="none" stroke="#0009b5" stroke-miterlimit="10" stroke-width="3"/><polyline points="494.72 298.15 479.73 283.05 479.73 466.81 493.43 456.9" fill="none" stroke="#0009b5" stroke-linejoin="bevel" stroke-width="3"/><line x1="815.35" y1="466.81" x2="815.35" y2="283.05" fill="none" stroke="#0009b5" stroke-miterlimit="10" stroke-width="3"/><line x1="807.41" y1="283.05" x2="807.41" y2="466.81" fill="none" stroke="#0009b5" stroke-miterlimit="10" stroke-width="3"/><path d="M786.41,466.81h2.68a10.74,10.74,0,0,0,10.73-10.73V293.78a10.73,10.73,0,0,0-10.73-10.73h-7.81" fill="none" stroke="#0009b5" stroke-miterlimit="10" stroke-width="3"/><path d="M798.49,461.24a142.81,142.81,0,0,1,1.32-161.33" fill="none" stroke="#0009b5" stroke-miterlimit="10" stroke-width="3"/><path d="M799.81,439.93a123.93,123.93,0,0,1,0-116.79" fill="none" stroke="#0009b5" stroke-miterlimit="10" stroke-width="3"/><polyline points="785.45 389.47 799.82 388.64 799.81 421.12 792.9 424.46" fill="none" stroke="#0009b5" stroke-miterlimit="10" stroke-width="3"/><circle cx="916.72" cy="376.59" r="88.45" fill="none" stroke="#0009b5" stroke-miterlimit="10" stroke-width="3"/><circle cx="909.14" cy="378.85" r="62.73" fill="none" stroke="#0009b5" stroke-miterlimit="10" stroke-width="3"/><ellipse cx="915.55" cy="374.86" rx="78.72" ry="80" fill="none" stroke="#0009b5" stroke-miterlimit="10" stroke-width="3"/><circle cx="375.88" cy="376.59" r="88.45" fill="none" stroke="#0009b5" stroke-miterlimit="10" stroke-width="3"/><circle cx="383.46" cy="378.85" r="62.73" fill="none" stroke="#0009b5" stroke-miterlimit="10" stroke-width="3"/><ellipse cx="377.05" cy="374.86" rx="78.72" ry="80" fill="none" stroke="#0009b5" stroke-miterlimit="10" stroke-width="3"/><path d="M593.33,466.81a330.08,330.08,0,0,1,2.4-184.14" fill="none" stroke="#0009b5" stroke-miterlimit="10" stroke-width="3"/><path d="M494.72,298.15a135.09,135.09,0,0,1-1.29,158.75Z" fill="none" stroke="#0009b5" stroke-linejoin="bevel" stroke-width="3"/><line x1="637.53" y1="372.92" x2="511.34" y2="372.92" fill="none" stroke="#0009b5" stroke-linecap="round" stroke-miterlimit="10" stroke-width="3"/><line x1="783.23" y1="372.92" x2="656.27" y2="372.92" fill="none" stroke="#0009b5" stroke-linecap="round" stroke-miterlimit="10" stroke-width="3"/><line x1="548.01" y1="387" x2="548.01" y2="359.22" fill="none" stroke="#0009b5" stroke-linecap="round" stroke-miterlimit="10" stroke-width="3"/><line x1="572.57" y1="387" x2="572.57" y2="359.22" fill="none" stroke="#0009b5" stroke-linecap="round" stroke-miterlimit="10" stroke-width="3"/><line x1="597.15" y1="387" x2="597.15" y2="359.22" fill="none" stroke="#0009b5" stroke-linecap="round" stroke-miterlimit="10" stroke-width="3"/><line x1="622.17" y1="387" x2="622.17" y2="359.22" fill="none" stroke="#0009b5" stroke-linecap="round" stroke-miterlimit="10" stroke-width="3"/><line x1="697.02" y1="387" x2="697.02" y2="359.22" fill="none" stroke="#0009b5" stroke-linecap="round" stroke-miterlimit="10" stroke-width="3"/><line x1="722.26" y1="387" x2="722.26" y2="359.22" fill="none" stroke="#0009b5" stroke-linecap="round" stroke-miterlimit="10" stroke-width="3"/><line x1="747.07" y1="387" x2="747.07" y2="359.22" fill="none" stroke="#0009b5" stroke-linecap="round" stroke-miterlimit="10" stroke-width="3"/><line x1="672.64" y1="387" x2="672.64" y2="359.22" fill="none" stroke="#0009b5" stroke-linecap="round" stroke-miterlimit="10" stroke-width="3"/><ellipse cx="647.4" cy="372.68" rx="8.46" ry="7.97" fill="none" stroke="#0009b5" stroke-linecap="round" stroke-miterlimit="10" stroke-width="3"/><line x1="647.4" y1="364.71" x2="647.4" y2="317.99" fill="none" stroke="#0009b5" stroke-linecap="round" stroke-miterlimit="10" stroke-width="3"/><line x1="647.4" y1="380.65" x2="647.4" y2="427.34" fill="none" stroke="#0009b5" stroke-linecap="round" stroke-miterlimit="10" stroke-width="3"/><line x1="1032.2" y1="478.54" x2="1178.83" y2="478.54" fill="none" stroke="#0009b5" stroke-miterlimit="10" stroke-width="3"/><line x1="1032.2" y1="469.21" x2="1178.83" y2="469.21" fill="none" stroke="#0009b5" stroke-miterlimit="10" stroke-width="3"/><line x1="1032.2" y1="459.88" x2="1178.83" y2="459.88" fill="none" stroke="#0009b5" stroke-miterlimit="10" stroke-width="3"/><line x1="1032.2" y1="450.55" x2="1178.83" y2="450.55" fill="none" stroke="#0009b5" stroke-miterlimit="10" stroke-width="3"/><line x1="1032.2" y1="441.22" x2="1178.83" y2="441.22" fill="none" stroke="#0009b5" stroke-miterlimit="10" stroke-width="3"/><line x1="1032.2" y1="311.3" x2="1178.83" y2="311.3" fill="none" stroke="#0009b5" stroke-miterlimit="10" stroke-width="3"/><line x1="1032.2" y1="301.97" x2="1178.83" y2="301.97" fill="none" stroke="#0009b5" stroke-miterlimit="10" stroke-width="3"/><line x1="1032.2" y1="292.64" x2="1178.83" y2="292.64" fill="none" stroke="#0009b5" stroke-miterlimit="10" stroke-width="3"/><line x1="1032.2" y1="283.31" x2="1178.83" y2="283.31" fill="none" stroke="#0009b5" stroke-miterlimit="10" stroke-width="3"/><line x1="1032.2" y1="273.98" x2="1178.83" y2="273.98" fill="none" stroke="#0009b5" stroke-miterlimit="10" stroke-width="3"/><line x1="105.21" y1="477.14" x2="257.46" y2="477.14" fill="none" stroke="#0009b5" stroke-miterlimit="10" stroke-width="3"/><line x1="105.21" y1="467.81" x2="257.46" y2="467.81" fill="none" stroke="#0009b5" stroke-miterlimit="10" stroke-width="3"/><line x1="105.21" y1="458.48" x2="257.46" y2="458.48" fill="none" stroke="#0009b5" stroke-miterlimit="10" stroke-width="3"/><line x1="105.21" y1="449.15" x2="257.46" y2="449.15" fill="none" stroke="#0009b5" stroke-miterlimit="10" stroke-width="3"/><line x1="105.21" y1="439.82" x2="257.46" y2="439.82" fill="none" stroke="#0009b5" stroke-miterlimit="10" stroke-width="3"/><line x1="105.21" y1="309.53" x2="257.46" y2="309.53" fill="none" stroke="#0009b5" stroke-miterlimit="10" stroke-width="3"/><line x1="105.21" y1="299.94" x2="257.46" y2="299.94" fill="none" stroke="#0009b5" stroke-miterlimit="10" stroke-width="3"/><line x1="105.21" y1="290.36" x2="257.46" y2="290.36" fill="none" stroke="#0009b5" stroke-miterlimit="10" stroke-width="3"/><line x1="105.21" y1="280.77" x2="257.46" y2="280.77" fill="none" stroke="#0009b5" stroke-miterlimit="10" stroke-width="3"/><line x1="105.21" y1="271.18" x2="257.46" y2="271.18" fill="none" stroke="#0009b5" stroke-miterlimit="10" stroke-width="3"/><line x1="105.21" y1="203.9" x2="1180.85" y2="206.61" fill="none" stroke="#0009b5" stroke-miterlimit="10" stroke-width="3"/><path d="M105.71,506.79h62A5.29,5.29,0,0,1,173,512l1,61.14a5.15,5.15,0,0,1-5.14,5.23H107.5" fill="none" stroke="#0009b5" stroke-miterlimit="10" stroke-width="3"/><path d="M555.2,817.05V739.29a6.82,6.82,0,0,1,6.8-6.82L741.36,732a5.69,5.69,0,0,1,5.71,5.69v76.95" fill="none" stroke="#0009b5" stroke-miterlimit="10" stroke-width="3"/><polyline points="193.3 394.09 177.51 353.51 161.39 394.09" fill="none" stroke="#0009b5" stroke-linejoin="bevel" stroke-width="3"/><line x1="187.56" y1="379.35" x2="167.24" y2="379.35" fill="none" stroke="#0009b5" stroke-linejoin="bevel" stroke-width="3"/><path d="M322.44,393.41l9-.43a2,2,0,0,0,1.94-2.17l-1-15a2,2,0,0,0-2.05-1.85l-9.42.34" fill="none" stroke="#0009b5" stroke-miterlimit="10" stroke-width="3"/><path d="M339.36,334.24l6.56,9a2.08,2.08,0,0,0,2.85.5l12.57-8.51a1.83,1.83,0,0,0,.53-2.47l-6.23-10.13" fill="none" stroke="#0009b5" stroke-miterlimit="10" stroke-width="3"/><path d="M401.94,318.9l-5.87,11.6a2.4,2.4,0,0,0,1,3.22l12.45,6.42a2.6,2.6,0,0,0,3.48-1.08l6.29-11.67" fill="none" stroke="#0009b5" stroke-miterlimit="10" stroke-width="3"/><path d="M444.91,366.23l-12.86,1.28a2.66,2.66,0,0,0-2.39,2.81l.88,13.77a3.28,3.28,0,0,0,3.54,3.06l11.67-1" fill="none" stroke="#0009b5" stroke-miterlimit="10" stroke-width="3"/><path d="M424.19,426.55l-6.49-8.9a2.41,2.41,0,0,0-3.31-.57l-11.17,7.64a3.32,3.32,0,0,0-.91,4.56l4.95,7.62" fill="none" stroke="#0009b5" stroke-miterlimit="10" stroke-width="3"/><path d="M363.39,438.3l4.07-7.87a1.51,1.51,0,0,0-.6-2l-14.27-8a1.41,1.41,0,0,0-1.91.5l-4.89,8.1" fill="none" stroke="#0009b5" stroke-miterlimit="10" stroke-width="3"/><path d="M963.73,407.61,955.05,405a2,2,0,0,1-1.36-2.56l4.55-14.34a2,2,0,0,1,2.43-1.31l9.07,2.58" fill="none" stroke="#0009b5" stroke-miterlimit="10" stroke-width="3"/><path d="M961.42,346.11l-8.51,7.17a2.08,2.08,0,0,1-2.89-.2l-10.18-11.26a1.83,1.83,0,0,1,.07-2.53l8.47-8.35" fill="none" stroke="#0009b5" stroke-miterlimit="10" stroke-width="3"/><path d="M904.3,316.28,907.24,329a2.39,2.39,0,0,1-1.78,2.87l-13.62,3.26a2.58,2.58,0,0,1-3.12-1.87l-3.33-12.83" fill="none" stroke="#0009b5" stroke-miterlimit="10" stroke-width="3"/><path d="M851.29,352l12.17,4.31a2.66,2.66,0,0,1,1.65,3.3L861,372.76a3.28,3.28,0,0,1-4.17,2.13l-11.11-3.71" fill="none" stroke="#0009b5" stroke-miterlimit="10" stroke-width="3"/><path d="M857,415.51l8.42-7.09a2.42,2.42,0,0,1,3.36.23l9,10.08a3.34,3.34,0,0,1-.21,4.65L871,429.6" fill="none" stroke="#0009b5" stroke-miterlimit="10" stroke-width="3"/><path d="M913.25,441.43l-2.07-8.61a1.5,1.5,0,0,1,1.06-1.8L928,426.63a1.42,1.42,0,0,1,1.74.95l2.81,9" fill="none" stroke="#0009b5" stroke-miterlimit="10" stroke-width="3"/><path d="M1126.4,552.71a4.48,4.48,0,0,0,2.26,4.06,5,5,0,0,0,2.45.59,5.46,5.46,0,0,0,4.33-2.12q1.8-2.12,2.55-8.6a6.56,6.56,0,0,1-2.93,2.63,9.26,9.26,0,0,1-3.76.76,8.38,8.38,0,0,1-6.45-2.54,9.21,9.21,0,0,1-2.37-6.54,10.49,10.49,0,0,1,2.34-6.76q2.34-2.93,6.92-2.92a8.5,8.5,0,0,1,8.51,5.56,19.51,19.51,0,0,1,1.3,7.65,25.38,25.38,0,0,1-1.55,9.18q-2.6,6.66-8.75,6.66-4.14,0-6.29-2.17a7.42,7.42,0,0,1-2.15-5.44Zm9.23-7.18q1.74-1.39,1.74-4.86a6.24,6.24,0,0,0-1.56-4.64,5.49,5.49,0,0,0-4-1.53,5.22,5.22,0,0,0-4.13,1.75,6.8,6.8,0,0,0-1.53,4.66,6.68,6.68,0,0,0,1.34,4.38,5.21,5.21,0,0,0,4.28,1.63A6.07,6.07,0,0,0,1135.63,545.53Z" fill="#0009b5"/><path d="M1162.32,535.82q1.89,3.49,1.89,9.56a23.07,23.07,0,0,1-1.71,9.52q-2.48,5.4-8.12,5.4a8.14,8.14,0,0,1-7.57-4.41q-2.07-3.69-2.07-9.9a24.36,24.36,0,0,1,1.25-8.25q2.33-6.43,8.41-6.43A8.33,8.33,0,0,1,1162.32,535.82Zm-3.56,18.8q1.63-2.45,1.63-9.1a22.43,22.43,0,0,0-1.18-7.91,4.5,4.5,0,0,0-4.59-3.11,4.8,4.8,0,0,0-4.58,3c-1,2-1.45,4.86-1.45,8.68a21.56,21.56,0,0,0,.92,6.94c1,2.66,2.57,4,4.85,4A5.06,5.06,0,0,0,1158.76,554.62Z" fill="#0009b5"/></g></svg>