<svg id="Layer_2" data-name="Layer 2" xmlns="http://www.w3.org/2000/svg" viewBox="0 0 1181.9 825.65"><path d="M1179.35,413.55C1178.23,194,1000.08,16.43,780.45,16.43c-4.89,0-14.59.27-14.59.27V810.41q7.26.26,14.59.26C1000.08,810.67,1178.23,633.06,1179.35,413.55ZM786.84,399c7.3,0,13.23,6.67,13.23,14.88s-5.93,14.88-13.23,14.88Z" fill="#ffc533" stroke="#7d3600" stroke-miterlimit="10" stroke-width="3"/><path d="M1179.37,411.48c0,.69,0,1.38,0,2.07s0,1.38,0,2.07Z" fill="#ffc533" stroke="#7d3600" stroke-miterlimit="10" stroke-width="3"/><path d="M787.39,284.52c68.47,3.59,122.88,60,122.88,129.05S855.86,539,787.39,542.62L788,426.9c6.16,0,11.15-6,11.15-13.39v.08c0-7.39-5-13.39-11.15-13.39Z" fill="none" stroke="#7d3600" stroke-miterlimit="10" stroke-width="3"/><path d="M779,57.72c196,0,356.44,160.36,356.44,355.85S974.55,770.2,778.49,770.2" fill="none" stroke="#7d3600" stroke-miterlimit="10" stroke-width="3"/><path d="M1152.42,413.55c0,199.49-170.13,374.63-378,370.74" fill="none" stroke="#7d3600" stroke-miterlimit="10" stroke-width="3"/><path d="M1152.42,413.55c0-199.49-170.13-374.62-378-370.73" fill="none" stroke="#7d3600" stroke-miterlimit="10" stroke-width="3"/><path d="M784.53,749.75c188.09-5.23,332-155.64,332-336.18h0c0-180.54-144-330.95-332-336.18" fill="none" stroke="#7d3600" stroke-miterlimit="10" stroke-width="3"/><path d="M770.31,797.08C981.88,805.72,1167,627.61,1167,414v-1C1167,199.3,981.88,21.19,770.31,29.83" fill="none" stroke="#7d3600" stroke-miterlimit="10" stroke-width="3"/><path d="M786.08,101.93c171.34,2.94,309.33,141.34,309.33,311.64s-138,308.7-309.34,311.64" fill="none" stroke="#7d3600" stroke-miterlimit="10" stroke-width="3"/><path d="M786.07,705.57c169.27-5.22,287.33-138.31,289.35-291.35v-.65c-2-153-120.08-286.13-289.35-291.35" fill="none" stroke="#7d3600" stroke-miterlimit="10" stroke-width="3"/><path d="M786.53,142.26c147.76,3.22,266.54,123.45,266.54,271.31S934.29,681.66,786.53,684.88" fill="none" stroke="#7d3600" stroke-miterlimit="10" stroke-width="3"/><path d="M786.84,186.68c123,3.37,221.63,103.66,221.63,226.89S909.82,637.09,786.84,640.46" fill="none" stroke="#7d3600" stroke-miterlimit="10" stroke-width="3"/><path d="M786.08,209.75c110.47,3,199.09,93.12,199.09,203.82s-88.62,200.79-199.1,203.82" fill="none" stroke="#7d3600" stroke-miterlimit="10" stroke-width="3"/><path d="M787.13,162c141,7.95,243,119,243,251.14v.41c0,132.15-102,243.19-243,251.15" fill="none" stroke="#7d3600" stroke-miterlimit="10" stroke-width="3"/><path d="M787.13,234.36c96.4,3.5,173.47,82.39,173.47,179.21S883.53,589.28,787.12,592.78" fill="none" stroke="#7d3600" stroke-miterlimit="10" stroke-width="3"/><path d="M788,279c71.4,3.75,128.13,62.56,128.13,134.57S859.37,544.39,788,548.13" fill="none" stroke="#7d3600" stroke-miterlimit="10" stroke-width="2"/><path d="M788,272.81c74.68,3.92,134,65.44,134,140.76S862.65,550.41,788,554.33" fill="none" stroke="#7d3600" stroke-miterlimit="10" stroke-width="2"/><path d="M787.52,266.13c78.23,4.1,140.69,68.54,140.69,147.44S865.75,556.91,787.52,561" fill="none" stroke="#7d3600" stroke-miterlimit="10" stroke-width="2"/><path d="M786.07,259.11c82,4.3,148.44,71.81,148.44,154.46S868,563.73,786.07,568" fill="none" stroke="#7d3600" stroke-miterlimit="10" stroke-width="2"/><path d="M787.54,253.15c85,4.46,153.2,74.51,153.2,160.28s-68.16,155.82-153.2,160.28" fill="none" stroke="#7d3600" stroke-miterlimit="10" stroke-width="2"/><path d="M788,247.38c88.17,4.62,159.21,77.26,159.21,166.19S876.14,575.13,788,579.76" fill="none" stroke="#7d3600" stroke-miterlimit="10" stroke-width="2"/><path d="M788,240.26c91.94,4.82,165.86,80.57,165.86,173.31S879.91,582.06,788,586.88" fill="none" stroke="#7d3600" stroke-miterlimit="10" stroke-width="2"/><path d="M785.75,743.7c.66-5.74,1.56-167,2.22-330.15-.66-163.16-1.56-324.4-2.22-330.15-1.34-11.68-24.11-80.19-24.11-80.19S32,5.07,30.93,6.3,8.87,106.18,4.11,128.45a42.69,42.69,0,0,0-1,8.94v544.7a114.67,114.67,0,0,0,2.54,24C12.4,737.42,30.1,819.8,30.93,820.8c1,1.24,730.71,3.09,730.71,3.09S784.41,755.38,785.75,743.7Zm-518.52-325V408.44c0-76.51,57.62-140,134.35-140a136.48,136.48,0,0,1,17.61,1.13l2.33.37A370,370,0,0,0,392.8,412.53v2A370.12,370.12,0,0,0,421.52,557.2l-2.33.37a138.29,138.29,0,0,1-17.61,1.13C324.85,558.7,267.23,495.18,267.23,418.67Z" fill="#ffc533" stroke="#7d3600" stroke-miterlimit="10" stroke-width="3"/><path d="M788,413.53v0Z" fill="#ffc533" stroke="#7d3600" stroke-miterlimit="10" stroke-width="3"/><path d="M541.46,418.26c0,76.73-62.23,140.43-139,140.43S268.16,495,268.16,418.26v-9.42c0-76.72,57.62-140.43,134.35-140.43s139,63.71,139,140.43Z" fill="none" stroke="#7d3600" stroke-miterlimit="10" stroke-width="3"/><path d="M761.64,3.21,734.11,39.82a35.33,35.33,0,0,1-28.23,14.09H91.71A35.36,35.36,0,0,1,66.2,43L30.93,6.3" fill="none" stroke="#7d3600" stroke-miterlimit="10" stroke-width="3"/><path d="M761.64,823.89l-27.53-36.6a35.33,35.33,0,0,0-28.23-14.09H91.69a35.32,35.32,0,0,0-25.47,10.85L30.93,820.8" fill="none" stroke="#7d3600" stroke-miterlimit="10" stroke-width="3"/><path d="M456.63,281.71a348.53,348.53,0,0,0,0,263.69" fill="none" stroke="#7d3600" stroke-miterlimit="10" stroke-width="3"/><path d="M478.77,291.64a330.34,330.34,0,0,0,0,243.83" fill="none" stroke="#7d3600" stroke-miterlimit="10" stroke-width="3"/><path d="M434,272.18a373.69,373.69,0,0,0,0,282.75" fill="none" stroke="#7d3600" stroke-miterlimit="10" stroke-width="3"/><path d="M498.63,305.58a293.29,293.29,0,0,0,0,213.59" fill="none" stroke="#7d3600" stroke-miterlimit="10" stroke-width="3"/><path d="M515.45,327.39A267.41,267.41,0,0,0,516,499" fill="none" stroke="#7d3600" stroke-miterlimit="10" stroke-width="3"/><path d="M531.07,355.83a264.09,264.09,0,0,0,0,115.44" fill="none" stroke="#7d3600" stroke-miterlimit="10" stroke-width="3"/></svg>