<svg id="start_knapp" class="btn_r" data-name="Layer 1" title="Tillbaka knapp" desc="knapp som låter dig gå tillbaks till föregående format" xmlns="http://www.w3.org/2000/svg" viewBox="0 0 425.2 141.73"><path d="M406.29,7A11.93,11.93,0,0,1,418.2,18.91V122.82a11.93,11.93,0,0,1-11.91,11.91H18.91A11.92,11.92,0,0,1,7,122.82V18.91A11.92,11.92,0,0,1,18.91,7H406.29m0-7H18.91A18.91,18.91,0,0,0,0,18.91V122.82a18.91,18.91,0,0,0,18.91,18.91H406.29a18.91,18.91,0,0,0,18.91-18.91V18.91A18.91,18.91,0,0,0,406.29,0Z"/><path d="M135.76,81.52a8,8,0,0,0-2.07-2.46,17.58,17.58,0,0,0-3.32-1.85,34.17,34.17,0,0,0-4.27-1.49,38.82,38.82,0,0,1-6.67-2.52,24,24,0,0,1-5.18-3.35,14.39,14.39,0,0,1-3.36-4.31,11.88,11.88,0,0,1-1.21-5.43,12.35,12.35,0,0,1,1.4-5.89,14.09,14.09,0,0,1,3.8-4.48,17.46,17.46,0,0,1,5.57-2.8,23.09,23.09,0,0,1,6.7-1,20.58,20.58,0,0,1,6.94,1.14,17.51,17.51,0,0,1,5.61,3.18,15.26,15.26,0,0,1,3.78,4.94,14.28,14.28,0,0,1,1.39,6.34H136.5a12.25,12.25,0,0,0-.82-3.53,8.53,8.53,0,0,0-1.81-2.76,8.72,8.72,0,0,0-2.9-1.77,10.85,10.85,0,0,0-3.92-.65,11.94,11.94,0,0,0-3.57.51,9,9,0,0,0-2.83,1.42,6.46,6.46,0,0,0-2.53,5.27,5.56,5.56,0,0,0,.91,3.08,8.23,8.23,0,0,0,2.36,2.3,17.44,17.44,0,0,0,3.46,1.72c1.3.5,2.66,1,4.09,1.38a39.73,39.73,0,0,1,5.29,1.91A24.34,24.34,0,0,1,139,73.22a16.23,16.23,0,0,1,4.34,4.87A12.8,12.8,0,0,1,145,84.61a12.27,12.27,0,0,1-1.42,6A12.9,12.9,0,0,1,139.74,95a17.38,17.38,0,0,1-5.63,2.69,24.78,24.78,0,0,1-6.75.89,24.22,24.22,0,0,1-7.42-1.17,19.1,19.1,0,0,1-6.36-3.43,16,16,0,0,1-4-5,14.33,14.33,0,0,1-1.5-6.54h8.44a11.59,11.59,0,0,0,1,4.1,7.82,7.82,0,0,0,2.27,2.86,9.22,9.22,0,0,0,3.32,1.73,15.08,15.08,0,0,0,4.2.56,13.47,13.47,0,0,0,3.61-.46,8.55,8.55,0,0,0,2.9-1.37,6.78,6.78,0,0,0,1.91-2.18,6.07,6.07,0,0,0,.72-3A6.47,6.47,0,0,0,135.76,81.52Z"/><path d="M170.11,59.83h14.31v6.29H170.11V84.3a10.58,10.58,0,0,0,.51,3.53,5.23,5.23,0,0,0,3.6,3.43,10.58,10.58,0,0,0,2.78.35c.73,0,1.48,0,2.25-.11s1.53-.16,2.25-.28,1.37-.2,2-.33l1.56-.34.92,5.8a9.57,9.57,0,0,1-2.2,1A25.28,25.28,0,0,1,181,98c-1,.18-2,.33-3.08.44s-2.12.15-3.18.15a16.82,16.82,0,0,1-5.29-.79,10.39,10.39,0,0,1-4.13-2.48,11.15,11.15,0,0,1-2.69-4.25,18.1,18.1,0,0,1-1-6.26V66.12h-9.21V59.83h9.21V50.55h8.44Z"/><path d="M220.12,96.16c-.15-.67-.29-1.36-.4-2.09a16.21,16.21,0,0,1-2,1.74,12.43,12.43,0,0,1-2.48,1.42,14.4,14.4,0,0,1-2.95,1,16,16,0,0,1-3.41.35,16.27,16.27,0,0,1-5.4-.86,12.52,12.52,0,0,1-4.16-2.38,10.14,10.14,0,0,1-2.73-3.56,10.72,10.72,0,0,1-1-4.52,11.9,11.9,0,0,1,1.24-5.54,10.76,10.76,0,0,1,3.64-4A17,17,0,0,1,206,75.47a32.24,32.24,0,0,1,7.36-.77h6.12V72.13a6.76,6.76,0,0,0-.51-2.67,5.82,5.82,0,0,0-1.46-2.07A7.06,7.06,0,0,0,215,66a11,11,0,0,0-3.35-.47,9.72,9.72,0,0,0-3,.42,6.12,6.12,0,0,0-2.13,1.16,4,4,0,0,0-1.24,1.63,5.3,5.3,0,0,0-.41,2.06h-8.44a10.17,10.17,0,0,1,1.09-4.39,11.16,11.16,0,0,1,3.1-3.73,14.77,14.77,0,0,1,4.87-2.62,21,21,0,0,1,6.62-1,22.68,22.68,0,0,1,6.24.83,14.82,14.82,0,0,1,5,2.44,11.27,11.27,0,0,1,3.31,4.1,13.1,13.1,0,0,1,1.19,5.71V89.11a27.07,27.07,0,0,0,.37,4.63,14.58,14.58,0,0,0,1.07,3.53v.6h-8.57A6.44,6.44,0,0,1,220.12,96.16Zm-6.54-4.76a12.37,12.37,0,0,0,2.59-1.09,9.8,9.8,0,0,0,2-1.51,6.88,6.88,0,0,0,1.3-1.76V80h-5.41a19.46,19.46,0,0,0-4.75.51,8.34,8.34,0,0,0-3.2,1.46,5,5,0,0,0-1.56,1.93,6,6,0,0,0-.51,2.53,5.54,5.54,0,0,0,.42,2.16,4.57,4.57,0,0,0,1.23,1.71,5.93,5.93,0,0,0,2,1.11,9.13,9.13,0,0,0,2.82.4A10.8,10.8,0,0,0,213.58,91.4Z"/><path d="M269.9,59.41a16.76,16.76,0,0,1,3,.66l-1.2,8.3a37.79,37.79,0,0,0-3.81-.63,33.8,33.8,0,0,0-3.75-.21,15.7,15.7,0,0,0-3.79.42,9.2,9.2,0,0,0-3,1.3A8.44,8.44,0,0,0,255,71.39a12.46,12.46,0,0,0-1.65,3V97.87h-8.41v-38h7.88l.35,5.27,0,.88a17.31,17.31,0,0,1,5.57-5A14.4,14.4,0,0,1,266,59.12,26.7,26.7,0,0,1,269.9,59.41Z"/><path d="M299.73,59.83H314v6.29H299.73V84.3a10.58,10.58,0,0,0,.51,3.53,5.22,5.22,0,0,0,3.61,3.43,10.5,10.5,0,0,0,2.77.35c.73,0,1.48,0,2.25-.11s1.53-.16,2.25-.28,1.37-.2,2-.33l1.56-.34.92,5.8a9.57,9.57,0,0,1-2.2,1,24.18,24.18,0,0,1-2.76.69c-1,.18-2,.33-3.08.44s-2.12.15-3.18.15a16.82,16.82,0,0,1-5.29-.79A10.39,10.39,0,0,1,295,95.33a11.15,11.15,0,0,1-2.69-4.25,18.11,18.11,0,0,1-1-6.26V66.12h-9.22V59.83h9.22V50.55h8.43Z"/></svg>