<svg id="Layer_1" data-name="Layer 1" xmlns="http://www.w3.org/2000/svg" viewBox="0 0 141.73 141.73"><path d="M122.82,7a11.92,11.92,0,0,1,11.91,11.91V122.82a11.92,11.92,0,0,1-11.91,11.91H18.91A11.92,11.92,0,0,1,7,122.82V18.91A11.92,11.92,0,0,1,18.91,7H122.82m0-7H18.91A18.91,18.91,0,0,0,0,18.91V122.82a18.91,18.91,0,0,0,18.91,18.91H122.82a18.9,18.9,0,0,0,18.91-18.91V18.91A18.91,18.91,0,0,0,122.82,0Z"/><path d="M92.38,119.71a4,4,0,0,1-2.83-1.17L44.71,73.69a4,4,0,0,1,0-5.65L89.55,23.19a4,4,0,0,1,5.66,5.66l-42,42,42,42a4,4,0,0,1-2.83,6.82Z"/></svg>