<svg xmlns="http://www.w3.org/2000/svg" viewBox="0 0 1682.45 1468.8"><g id="Layer_4" data-name="Layer 4"><path d="M1682.45,43V1416c0,45.22-12.74,52.79-54.66,52.79H186.58v-35.7H170.87v35.7H40.67A40.67,40.67,0,0,1,0,1428.13V40.67A40.67,40.67,0,0,1,40.67,0L1641.78,2.31A40.67,40.67,0,0,1,1682.45,43" fill="#ffa4ba" stroke="#c1006f" stroke-miterlimit="10" stroke-width="2"/><circle cx="895" cy="742.68" r="168.74" fill="none" stroke="#c1006f" stroke-miterlimit="10" stroke-width="2"/><path d="M958.37,885.24a147.08,147.08,0,0,1-127.4-.32" fill="none" stroke="#c1006f" stroke-miterlimit="10" stroke-width="2"/><path d="M210.89,449.65H192.51a11.22,11.22,0,0,1-11.23-11.24l.08-51.59c57.8-12.9,69.1-63.82,69.1-74.92,0-44.43-36.31-80.45-101.26-80.45V753.66" fill="none" stroke="#c1006f" stroke-miterlimit="10" stroke-width="2"/><path d="M280,322.34c20.73.82,39.4-35.19,39.4-35.19-10.27,20.41-23,29.65-34.13,28.16-56.87-7.61-11.8-186.87,32.54-227.06l-2.72,2.59C359.2,52.76,538.79,29.7,539.86,85.22c.21,10.9-10.21,22.07-31.23,29.63,0,0,37-13,37-37.3" fill="none" stroke="#c1006f" stroke-linejoin="bevel" stroke-width="2"/><path d="M539.43,81.13c25.06-14.73,67.2-36.8,125.31-56.84" fill="none" stroke="#c1006f" stroke-linejoin="bevel" stroke-width="2"/><path d="M191.2,253c26.21,5.44,46,29.45,46,58.25s-19.77,52.85-46,58.27Z" fill="none" stroke="#c1006f" stroke-miterlimit="10" stroke-width="2"/><rect x="19.13" y="179.31" width="110.46" height="1110.21" fill="none" stroke="#c1006f" stroke-linejoin="bevel" stroke-width="2"/><path d="M15.29,125.53H152.75V13.11H47A31.72,31.72,0,0,0,15.29,44.83Z" fill="none" stroke="#c1006f" stroke-linejoin="bevel" stroke-width="2"/><line x1="9.18" y1="109.62" x2="20.47" y2="109.62" fill="none" stroke="#c1006f" stroke-linejoin="bevel" stroke-width="2"/><line x1="9.18" y1="100.62" x2="20.47" y2="100.62" fill="none" stroke="#c1006f" stroke-linejoin="bevel" stroke-width="2"/><line x1="9.18" y1="91.63" x2="20.47" y2="91.63" fill="none" stroke="#c1006f" stroke-linejoin="bevel" stroke-width="2"/><line x1="9.18" y1="82.64" x2="20.47" y2="82.64" fill="none" stroke="#c1006f" stroke-linejoin="bevel" stroke-width="2"/><line x1="9.18" y1="73.65" x2="20.47" y2="73.65" fill="none" stroke="#c1006f" stroke-linejoin="bevel" stroke-width="2"/><line x1="9.18" y1="64.66" x2="20.47" y2="64.66" fill="none" stroke="#c1006f" stroke-linejoin="bevel" stroke-width="2"/><line x1="9.18" y1="55.67" x2="20.47" y2="55.67" fill="none" stroke="#c1006f" stroke-linejoin="bevel" stroke-width="2"/><line x1="9.18" y1="46.68" x2="20.47" y2="46.68" fill="none" stroke="#c1006f" stroke-linejoin="bevel" stroke-width="2"/><line x1="42.69" y1="13.11" x2="51.32" y2="0.02" fill="none" stroke="#c1006f" stroke-linejoin="bevel" stroke-width="2"/><line x1="53.73" y1="13.11" x2="62.37" y2="0.02" fill="none" stroke="#c1006f" stroke-linejoin="bevel" stroke-width="2"/><line x1="64.78" y1="13.11" x2="73.41" y2="0.02" fill="none" stroke="#c1006f" stroke-linejoin="bevel" stroke-width="2"/><line x1="75.82" y1="13.11" x2="84.46" y2="0.02" fill="none" stroke="#c1006f" stroke-linejoin="bevel" stroke-width="2"/><line x1="86.87" y1="13.11" x2="95.5" y2="0.02" fill="none" stroke="#c1006f" stroke-linejoin="bevel" stroke-width="2"/><line x1="97.91" y1="13.11" x2="106.55" y2="0.02" fill="none" stroke="#c1006f" stroke-linejoin="bevel" stroke-width="2"/><line x1="108.96" y1="13.11" x2="117.59" y2="0.02" fill="none" stroke="#c1006f" stroke-linejoin="bevel" stroke-width="2"/><line x1="120" y1="13.11" x2="128.64" y2="0.02" fill="none" stroke="#c1006f" stroke-linejoin="bevel" stroke-width="2"/><line x1="131.05" y1="13.11" x2="139.68" y2="0.02" fill="none" stroke="#c1006f" stroke-linejoin="bevel" stroke-width="2"/><line x1="142.09" y1="13.11" x2="150.73" y2="0.02" fill="none" stroke="#c1006f" stroke-linejoin="bevel" stroke-width="2"/><line x1="153.14" y1="13.11" x2="161.77" y2="0.02" fill="none" stroke="#c1006f" stroke-linejoin="bevel" stroke-width="2"/><path d="M306.08,35.72H214.15V157.07H15.29V145H170.8s.07-16.65.07-15.65V104H160.68V92.81h10.19V46.91l-10.19-.16V35.68h10.19c0-14.56,8.12-20.79,26.84-20.79V24.2l467,.09H1634a21.61,21.61,0,0,1,21.61,21.62V1429.07a15.47,15.47,0,0,1-15.45,15.48l-51.2.07-467-.09" fill="none" stroke="#c1006f" stroke-miterlimit="10" stroke-width="2"/><rect x="155.31" y="200.74" width="15.13" height="10.66" fill="none" stroke="#c1006f" stroke-miterlimit="10" stroke-width="2"/><rect x="155.31" y="179.31" width="15.13" height="10.66" fill="none" stroke="#c1006f" stroke-miterlimit="10" stroke-width="2"/><path d="M286,1153.31c-36.67-40-55.88-91.13-66-113.3H195.24c-5,0-5-11,0-11h33C202,967.4,165.71,929.41,165.71,753.66c0-179.73,36.31-252.24,62.53-313.89h-33c-5,0-5-10.95,0-10.95H220c10.13-22.18,29.34-73.26,66-113.31" fill="none" stroke="#c1006f" stroke-miterlimit="10" stroke-width="2"/><path d="M210.89,1019.17H192.51a11.22,11.22,0,0,0-11.23,11.24l.08,51.59c57.8,12.9,69.1,63.82,69.1,74.92,0,44.43-36.31,80.45-101.26,80.45V715.17" fill="none" stroke="#c1006f" stroke-miterlimit="10" stroke-width="2"/><path d="M280,1146.49c20.73-.83,39.4,35.18,39.4,35.18-10.27-20.41-23-29.65-34.13-28.16-56.87,7.61-11.8,186.87,32.54,227.06l-2.72-2.59c44.08,38.08,223.67,61.15,224.74,5.62.21-10.9-10.21-22.07-31.23-29.63,0,0,37,13,37,37.3" fill="none" stroke="#c1006f" stroke-linejoin="bevel" stroke-width="2"/><path d="M539.43,1387.69c25.06,14.73,67.2,36.8,125.31,56.84" fill="none" stroke="#c1006f" stroke-linejoin="bevel" stroke-width="2"/><line x1="172.62" y1="388.6" x2="187.22" y2="385.17" fill="none" stroke="#c1006f" stroke-linejoin="bevel" stroke-width="2"/><line x1="187.22" y1="1083.65" x2="172.62" y2="1080.22" fill="none" stroke="#c1006f" stroke-linejoin="bevel" stroke-width="2"/><path d="M191.2,1215.82c26.21-5.44,46-29.45,46-58.25s-19.77-52.85-46-58.27Z" fill="none" stroke="#c1006f" stroke-miterlimit="10" stroke-width="2"/><path d="M15.29,1343.29H152.75v112.42H47A31.72,31.72,0,0,1,15.29,1424Z" fill="none" stroke="#c1006f" stroke-linejoin="bevel" stroke-width="2"/><line x1="9.18" y1="1359.21" x2="20.47" y2="1359.21" fill="none" stroke="#c1006f" stroke-linejoin="bevel" stroke-width="2"/><line x1="9.18" y1="1368.2" x2="20.47" y2="1368.2" fill="none" stroke="#c1006f" stroke-linejoin="bevel" stroke-width="2"/><line x1="9.18" y1="1377.19" x2="20.47" y2="1377.19" fill="none" stroke="#c1006f" stroke-linejoin="bevel" stroke-width="2"/><line x1="9.18" y1="1386.18" x2="20.47" y2="1386.18" fill="none" stroke="#c1006f" stroke-linejoin="bevel" stroke-width="2"/><line x1="9.18" y1="1395.17" x2="20.47" y2="1395.17" fill="none" stroke="#c1006f" stroke-linejoin="bevel" stroke-width="2"/><line x1="9.18" y1="1404.16" x2="20.47" y2="1404.16" fill="none" stroke="#c1006f" stroke-linejoin="bevel" stroke-width="2"/><line x1="9.18" y1="1413.15" x2="20.47" y2="1413.15" fill="none" stroke="#c1006f" stroke-linejoin="bevel" stroke-width="2"/><line x1="9.18" y1="1422.15" x2="20.47" y2="1422.15" fill="none" stroke="#c1006f" stroke-linejoin="bevel" stroke-width="2"/><line x1="42.69" y1="1455.71" x2="51.32" y2="1468.8" fill="none" stroke="#c1006f" stroke-linejoin="bevel" stroke-width="2"/><line x1="53.73" y1="1455.71" x2="62.37" y2="1468.8" fill="none" stroke="#c1006f" stroke-linejoin="bevel" stroke-width="2"/><line x1="64.78" y1="1455.71" x2="73.41" y2="1468.8" fill="none" stroke="#c1006f" stroke-linejoin="bevel" stroke-width="2"/><line x1="75.82" y1="1455.71" x2="84.46" y2="1468.8" fill="none" stroke="#c1006f" stroke-linejoin="bevel" stroke-width="2"/><line x1="86.87" y1="1455.71" x2="95.5" y2="1468.8" fill="none" stroke="#c1006f" stroke-linejoin="bevel" stroke-width="2"/><line x1="97.91" y1="1455.71" x2="106.55" y2="1468.8" fill="none" stroke="#c1006f" stroke-linejoin="bevel" stroke-width="2"/><line x1="108.96" y1="1455.71" x2="117.59" y2="1468.8" fill="none" stroke="#c1006f" stroke-linejoin="bevel" stroke-width="2"/><line x1="120" y1="1455.71" x2="128.64" y2="1468.8" fill="none" stroke="#c1006f" stroke-linejoin="bevel" stroke-width="2"/><line x1="131.05" y1="1455.71" x2="139.68" y2="1468.8" fill="none" stroke="#c1006f" stroke-linejoin="bevel" stroke-width="2"/><line x1="142.09" y1="1455.71" x2="150.73" y2="1468.8" fill="none" stroke="#c1006f" stroke-linejoin="bevel" stroke-width="2"/><line x1="153.14" y1="1455.71" x2="161.77" y2="1468.8" fill="none" stroke="#c1006f" stroke-linejoin="bevel" stroke-width="2"/><line x1="170.87" y1="1376.01" x2="170.87" y2="1421.92" fill="none" stroke="#c1006f" stroke-miterlimit="10" stroke-width="2"/><path d="M306.08,1433.1H214.15V1311.75H15.29v12H170.8s.07,16.65.07,15.65v25.38H160.68" fill="none" stroke="#c1006f" stroke-miterlimit="10" stroke-width="2"/><rect x="155.31" y="1257.42" width="15.13" height="10.66" fill="none" stroke="#c1006f" stroke-miterlimit="10" stroke-width="2"/><rect x="155.31" y="1278.85" width="15.13" height="10.66" fill="none" stroke="#c1006f" stroke-miterlimit="10" stroke-width="2"/><path d="M1575.81,449.65h18.38a11.22,11.22,0,0,0,11.22-11.24l-.07-51.59c-57.81-12.9-69.1-63.82-69.1-74.92,0-44.43,36.3-80.45,101.26-80.45V753.66" fill="none" stroke="#c1006f" stroke-miterlimit="10" stroke-width="2"/><path d="M1506.67,322.34c-20.74.82-39.41-35.19-39.41-35.19,10.27,20.41,23,29.65,34.13,28.16,56.88-7.61,11.8-186.87-32.53-227.06l2.72,2.59c-44.09-38.08-223.68-61.14-224.74-5.62-.21,10.9,10.2,22.07,31.22,29.63,0,0-37-13-37-37.3" fill="none" stroke="#c1006f" stroke-linejoin="bevel" stroke-width="2"/><path d="M1247.27,81.13c-25.06-14.73-67.2-36.8-125.32-56.84" fill="none" stroke="#c1006f" stroke-linejoin="bevel" stroke-width="2"/><line x1="1614.07" y1="388.6" x2="1599.47" y2="385.17" fill="none" stroke="#c1006f" stroke-linejoin="bevel" stroke-width="2"/><path d="M1595.49,253c-26.2,5.44-45.94,29.45-45.94,58.25s19.76,52.85,46,58.27Z" fill="none" stroke="#c1006f" stroke-miterlimit="10" stroke-width="2"/><path d="M1500.69,1153.31c36.67-40,55.88-91.13,66-113.3h24.75c5,0,5-11,0-11h-33c26.22-61.65,55.62-99.64,55.62-275.39,0-179.73-29.4-252.24-55.62-313.89h33c5,0,5-10.95,0-10.95H1566.7c-10.13-22.18-29.34-73.26-66-113.31" fill="none" stroke="#c1006f" stroke-miterlimit="10" stroke-width="2"/><path d="M1575.81,1019.17h18.38a11.22,11.22,0,0,1,11.22,11.24l-.07,51.59c-57.81,12.9-69.1,63.82-69.1,74.92,0,44.43,36.3,80.45,101.26,80.45V715.17" fill="none" stroke="#c1006f" stroke-miterlimit="10" stroke-width="2"/><path d="M1506.67,1146.49c-20.74-.83-39.41,35.18-39.41,35.18,10.27-20.41,23-29.65,34.13-28.16,56.88,7.61,11.8,186.87-32.53,227.06l2.72-2.59c-44.09,38.08-223.68,61.15-224.74,5.62-.21-10.9,10.2-22.07,31.22-29.63,0,0-37,13-37,37.3" fill="none" stroke="#c1006f" stroke-linejoin="bevel" stroke-width="2"/><path d="M1247.27,1387.69c-25.06,14.73-67.2,36.8-125.32,56.84" fill="none" stroke="#c1006f" stroke-linejoin="bevel" stroke-width="2"/><line x1="1614.07" y1="1080.22" x2="1599.47" y2="1083.65" fill="none" stroke="#c1006f" stroke-linejoin="bevel" stroke-width="2"/><path d="M1595.49,1215.82c-26.2-5.44-45.94-29.45-45.94-58.25s19.76-52.85,46-58.27Z" fill="none" stroke="#c1006f" stroke-miterlimit="10" stroke-width="2"/><polyline points="1555.13 24.3 1555.13 38.51 1623.71 38.51 1623.71 24.3" fill="none" stroke="#c1006f" stroke-miterlimit="10" stroke-width="2"/><polyline points="1555.13 1444.62 1555.13 1430.4 1623.71 1430.4 1623.71 1444.62" fill="none" stroke="#c1006f" stroke-miterlimit="10" stroke-width="2"/><path d="M1592.66,1246.21a112.51,112.51,0,0,0,44.84,6v27.08h-44.84Z" fill="none" stroke="#c1006f" stroke-miterlimit="10" stroke-width="2"/><path d="M1592.66,222.44a112.51,112.51,0,0,1,44.84-6V189.35h-44.84Z" fill="none" stroke="#c1006f" stroke-miterlimit="10" stroke-width="2"/><path d="M866.88,833c-4.49,7.36-16.77,27-26.68,19.56-6.47-4.89,5.3-19.5,12.32-28.7C841.61,816.53,831,805.52,831,805.52s-10.7-9.7-18-20.61c-9.2,7-23.81,18.79-28.7,12.33-7.49-9.92,12.19-22.19,19.56-26.69,15.75-10.51,40-21.37,50-21.37,17.84,0,34.46,14.51,34.46,32.35C888.36,792.31,876.64,815.9,866.88,833Z" fill="none" stroke="#c1006f" stroke-miterlimit="10" stroke-width="2"/><path d="M857.5,805.52A74.43,74.43,0,0,1,831,780.29" fill="none" stroke="#c1006f" stroke-miterlimit="10" stroke-width="2"/><path d="M783.42,851.78c-34.49-37.26-31.36-42.59-7.52-66.08,1.78-1.64-1.86,4.54-1.86,7.13a14.61,14.61,0,0,0,14.61,14.62,13.59,13.59,0,0,0,5-.86l.2-.08c40.74-18.76,53.1-52.51,69.93-35.06l1.68,2c17.45,16.83-16.29,29.2-35.06,69.93l-.07.21a13.29,13.29,0,0,0-.86,4.95A14.61,14.61,0,0,0,844,863.17c2.59,0,8.77-3.64,7.13-1.85-23.48,23.83-28.82,27-66.08-7.53Z" fill="none" stroke="#c1006f" stroke-miterlimit="10" stroke-width="2"/><path d="M856,805.91a145.71,145.71,0,0,1-25.62-24.14" fill="none" stroke="#c1006f" stroke-miterlimit="10" stroke-width="2"/><path d="M922.46,833c4.5,7.36,16.77,27,26.69,19.56,6.46-4.89-5.31-19.5-12.33-28.7,10.91-7.28,21.55-18.29,21.55-18.29s10.71-9.7,18-20.61c9.21,7,23.82,18.79,28.7,12.33,7.5-9.92-12.19-22.19-19.56-26.69-15.75-10.51-40-21.37-50-21.37-17.84,0-34.46,14.51-34.46,32.35C901,792.31,912.7,815.9,922.46,833Z" fill="none" stroke="#c1006f" stroke-miterlimit="10" stroke-width="2"/><path d="M931.84,805.52a74.35,74.35,0,0,0,26.53-25.23" fill="none" stroke="#c1006f" stroke-miterlimit="10" stroke-width="2"/><path d="M1005.92,851.78c34.5-37.26,31.36-42.59,7.53-66.08-1.79-1.64,1.86,4.54,1.86,7.13a14.62,14.62,0,0,1-14.62,14.62,13.5,13.5,0,0,1-5-.86l-.21-.08c-40.73-18.76-53.1-52.51-69.93-35.06l-1.68,2c-17.45,16.83,16.3,29.2,35.06,69.93l.08.21a13.5,13.5,0,0,1,.86,4.95,14.61,14.61,0,0,1-14.62,14.61c-2.59,0-8.77-3.64-7.13-1.85,23.49,23.83,28.82,27,66.08-7.53Z" fill="none" stroke="#c1006f" stroke-miterlimit="10" stroke-width="2"/><path d="M933.4,805.91A146,146,0,0,0,959,781.77" fill="none" stroke="#c1006f" stroke-miterlimit="10" stroke-width="2"/><ellipse cx="895" cy="836.6" rx="4.78" ry="7.96" fill="none" stroke="#c1006f" stroke-miterlimit="10" stroke-width="2"/><path d="M883.9,839.05c0-10.2,5-18.48,11.1-18.48s11.09,8.28,11.09,18.48" fill="none" stroke="#c1006f" stroke-miterlimit="10" stroke-width="2"/><path d="M958.37,598.34a147.08,147.08,0,0,0-127.4.32" fill="none" stroke="#c1006f" stroke-miterlimit="10" stroke-width="2"/><path d="M751.22,805.49a147.08,147.08,0,0,1,.32-127.4" fill="none" stroke="#c1006f" stroke-miterlimit="10" stroke-width="2"/><path d="M1038.12,805.49a147.08,147.08,0,0,0-.32-127.4" fill="none" stroke="#c1006f" stroke-miterlimit="10" stroke-width="2"/><path d="M866.88,650.63c-4.49-7.36-16.77-27-26.68-19.56-6.47,4.89,5.3,19.5,12.32,28.7C841.61,667.05,831,678.06,831,678.06s-10.7,9.7-18,20.61c-9.2-7-23.81-18.79-28.7-12.33-7.49,9.92,12.19,22.19,19.56,26.69,15.75,10.51,40,21.37,50,21.37,17.84,0,34.46-14.51,34.46-32.35C888.36,691.27,876.64,667.68,866.88,650.63Z" fill="none" stroke="#c1006f" stroke-miterlimit="10" stroke-width="2"/><path d="M857.5,678.06A74.37,74.37,0,0,0,831,703.3" fill="none" stroke="#c1006f" stroke-miterlimit="10" stroke-width="2"/><path d="M783.42,631.8c-34.49,37.26-31.36,42.59-7.52,66.08,1.78,1.64-1.86-4.54-1.86-7.13a14.61,14.61,0,0,1,14.61-14.62,13.59,13.59,0,0,1,5,.86l.2.08c40.74,18.76,53.1,52.51,69.93,35.06l1.68-2c17.45-16.83-16.29-29.2-35.06-69.93l-.07-.21a13.29,13.29,0,0,1-.86-5A14.61,14.61,0,0,1,844,620.41c2.59,0,8.77,3.64,7.13,1.85-23.48-23.83-28.82-27-66.08,7.53Z" fill="none" stroke="#c1006f" stroke-miterlimit="10" stroke-width="2"/><path d="M856,677.67a145.71,145.71,0,0,0-25.62,24.14" fill="none" stroke="#c1006f" stroke-miterlimit="10" stroke-width="2"/><path d="M922.46,650.63c4.5-7.36,16.77-27,26.69-19.56,6.46,4.89-5.31,19.5-12.33,28.7,10.91,7.28,21.55,18.29,21.55,18.29s10.71,9.7,18,20.61c9.21-7,23.82-18.79,28.7-12.33,7.5,9.92-12.19,22.19-19.56,26.69-15.75,10.51-40,21.37-50,21.37-17.84,0-34.46-14.51-34.46-32.35C901,691.27,912.7,667.68,922.46,650.63Z" fill="none" stroke="#c1006f" stroke-miterlimit="10" stroke-width="2"/><path d="M931.84,678.06a74.29,74.29,0,0,1,26.53,25.24" fill="none" stroke="#c1006f" stroke-miterlimit="10" stroke-width="2"/><path d="M1005.92,631.8c34.5,37.26,31.36,42.59,7.53,66.08-1.79,1.64,1.86-4.54,1.86-7.13a14.62,14.62,0,0,0-14.62-14.62,13.5,13.5,0,0,0-5,.86l-.21.08c-40.73,18.76-53.1,52.51-69.93,35.06l-1.68-2c-17.45-16.83,16.3-29.2,35.06-69.93l.08-.21a13.5,13.5,0,0,0,.86-5,14.61,14.61,0,0,0-14.62-14.61c-2.59,0-8.77,3.64-7.13,1.85,23.49-23.83,28.82-27,66.08,7.53Z" fill="none" stroke="#c1006f" stroke-miterlimit="10" stroke-width="2"/><path d="M933.4,677.67A146,146,0,0,1,959,701.81" fill="none" stroke="#c1006f" stroke-miterlimit="10" stroke-width="2"/><ellipse cx="895" cy="646.98" rx="4.78" ry="7.96" fill="none" stroke="#c1006f" stroke-miterlimit="10" stroke-width="2"/><path d="M883.9,644.53c0,10.21,5,18.48,11.1,18.48s11.09-8.27,11.09-18.48" fill="none" stroke="#c1006f" stroke-miterlimit="10" stroke-width="2"/><ellipse cx="800.19" cy="741.79" rx="7.96" ry="4.78" fill="none" stroke="#c1006f" stroke-miterlimit="10" stroke-width="2"/><path d="M797.73,730.69c10.21,0,18.49,5,18.49,11.1s-8.28,11.1-18.49,11.1" fill="none" stroke="#c1006f" stroke-miterlimit="10" stroke-width="2"/><ellipse cx="989.8" cy="741.79" rx="7.96" ry="4.78" fill="none" stroke="#c1006f" stroke-miterlimit="10" stroke-width="2"/><path d="M992.26,730.69c-10.21,0-18.48,5-18.48,11.1s8.27,11.1,18.48,11.1" fill="none" stroke="#c1006f" stroke-miterlimit="10" stroke-width="2"/><ellipse cx="890.22" cy="738.57" rx="723.77" ry="723.68" fill="none" stroke="#c1006f" stroke-miterlimit="10" stroke-width="2"/><ellipse cx="890.22" cy="738.57" rx="703.63" ry="703.55" fill="none" stroke="#c1006f" stroke-miterlimit="10" stroke-width="2"/><circle cx="895" cy="742.68" r="185.05" fill="none" stroke="#c1006f" stroke-miterlimit="10" stroke-width="2"/><circle cx="895" cy="742.68" r="262.93" fill="none" stroke="#c1006f" stroke-miterlimit="10" stroke-width="2"/><circle cx="895" cy="742.68" r="230.31" fill="none" stroke="#c1006f" stroke-miterlimit="10" stroke-width="2"/></g></svg>