<svg id="Layer_2" data-name="Layer 2" xmlns="http://www.w3.org/2000/svg" viewBox="0 0 1058.47 739.71"><path d="M1056.29,369.64C1055.29,173.05,895.74,14,699,14c-4.37,0-13.06.23-13.06.23V725.05q6.49.24,13.06.23C895.74,725.28,1055.29,566.22,1056.29,369.64Zm-351.52-13c6.54,0,11.84,6,11.84,13.32s-5.3,13.33-11.84,13.33Z" fill="#ffc533" stroke="#a84800" stroke-miterlimit="10" stroke-width="2"/><path d="M1056.31,367.78c0,.62,0,1.24,0,1.86s0,1.23,0,1.85Z" fill="#ffc533" stroke="#a84800" stroke-miterlimit="10" stroke-width="2"/><path d="M705.26,254.08c61.32,3.21,110,53.73,110,115.57S766.58,482,705.26,485.23l.52-103.64c5.51,0,10-5.37,10-12v.07c0-6.62-4.47-12-10-12Z" fill="none" stroke="#a84800" stroke-miterlimit="10" stroke-width="2"/><path d="M697.74,51C873.33,51,1017,194.58,1017,369.65S872.88,689,697.29,689" fill="none" stroke="#a84800" stroke-miterlimit="10" stroke-width="2"/><path d="M1032.17,369.64c0,178.66-152.36,335.5-338.53,332" fill="none" stroke="#a84800" stroke-miterlimit="10" stroke-width="2"/><path d="M1032.17,369.64c0-178.66-152.36-335.51-338.53-332" fill="none" stroke="#a84800" stroke-miterlimit="10" stroke-width="2"/><path d="M702.7,670.73c168.44-4.69,297.38-139.39,297.38-301.08h0C1000.08,208,871.14,73.26,702.7,68.58" fill="none" stroke="#a84800" stroke-miterlimit="10" stroke-width="2"/><path d="M690,713.12c189.48,7.73,355.28-151.78,355.28-343.12v-.9C1045.24,177.76,879.44,18.25,690,26" fill="none" stroke="#a84800" stroke-miterlimit="10" stroke-width="2"/><path d="M704.08,90.56c153.45,2.63,277,126.58,277,279.09s-123.58,276.47-277,279.1" fill="none" stroke="#a84800" stroke-miterlimit="10" stroke-width="2"/><path d="M704.08,631.16C855.67,626.49,961.4,507.3,963.21,370.23v-.58C961.4,232.59,855.67,113.4,704.08,108.73" fill="none" stroke="#a84800" stroke-miterlimit="10" stroke-width="2"/><path d="M704.49,126.67c132.33,2.89,238.71,110.57,238.71,243s-106.38,240.1-238.71,243" fill="none" stroke="#a84800" stroke-miterlimit="10" stroke-width="2"/><path d="M704.77,166.45c110.13,3,198.48,92.84,198.48,203.2S814.9,569.83,704.77,572.85" fill="none" stroke="#a84800" stroke-miterlimit="10" stroke-width="2"/><path d="M704.08,187.12c98.94,2.71,178.3,83.39,178.3,182.53S803,549.48,704.08,552.19" fill="none" stroke="#a84800" stroke-miterlimit="10" stroke-width="2"/><path d="M705,144.37c126.3,7.12,217.66,106.57,217.66,224.92v.36c0,118.35-91.36,217.8-217.66,224.92" fill="none" stroke="#a84800" stroke-miterlimit="10" stroke-width="2"/><path d="M705,209.16c86.34,3.13,155.36,73.79,155.36,160.49S791.36,527,705,530.15" fill="none" stroke="#a84800" stroke-miterlimit="10" stroke-width="2"/><path d="M705.78,249.14c63.94,3.35,114.75,56,114.75,120.51S769.72,486.81,705.78,490.16" fill="none" stroke="#a84800" stroke-miterlimit="10"/><path d="M705.78,243.59c66.88,3.51,120,58.61,120,126.06s-53.15,122.56-120,126.06" fill="none" stroke="#a84800" stroke-miterlimit="10"/><path d="M705.38,237.61c70.06,3.67,126,61.39,126,132S775.44,498,705.38,501.7" fill="none" stroke="#a84800" stroke-miterlimit="10"/><path d="M704.08,231.32C777.48,235.17,837,295.63,837,369.65S777.48,504.13,704.08,508" fill="none" stroke="#a84800" stroke-miterlimit="10"/><path d="M705.4,226c76.15,4,137.2,66.74,137.2,143.54S781.55,509.07,705.4,513.07" fill="none" stroke="#a84800" stroke-miterlimit="10"/><path d="M705.78,220.82c79,4.14,142.58,69.19,142.58,148.83s-63.62,144.7-142.58,148.84" fill="none" stroke="#a84800" stroke-miterlimit="10"/><path d="M705.78,214.44c82.34,4.32,148.54,72.16,148.54,155.21s-66.2,150.9-148.54,155.22" fill="none" stroke="#a84800" stroke-miterlimit="10"/><path d="M703.79,665.31c.6-5.15,1.39-149.55,2-295.67-.6-146.13-1.39-290.53-2-295.68C702.59,63.5,682.2,2.15,682.2,2.15S28.71,3.81,27.79,4.91,8,94.36,3.77,114.31a38.43,38.43,0,0,0-.85,8V610.14A103.07,103.07,0,0,0,5.2,631.65c6,28,21.85,101.82,22.59,102.71.92,1.1,654.41,2.77,654.41,2.77S702.59,675.77,703.79,665.31ZM239.42,374.22v-9.16c0-68.52,51.6-125.41,120.32-125.41a122.62,122.62,0,0,1,15.77,1l2.09.33a331.36,331.36,0,0,0-25.73,127.74v1.82A331.31,331.31,0,0,0,377.6,498.28l-2.09.34a124.45,124.45,0,0,1-15.77,1C291,499.62,239.42,442.74,239.42,374.22Z" fill="#ffc533" stroke="#a84800" stroke-miterlimit="10" stroke-width="2"/><path d="M705.78,369.62v0h0Z" fill="#ffc533" stroke="#a84800" stroke-miterlimit="10" stroke-width="2"/><path d="M485,373.85c0,68.72-55.73,125.77-124.44,125.77S240.25,442.57,240.25,373.85v-8.43c0-68.72,51.6-125.77,120.32-125.77S485,296.7,485,365.42Z" fill="none" stroke="#a84800" stroke-miterlimit="10" stroke-width="2"/><path d="M682.2,2.15,657.54,34.93a31.61,31.61,0,0,1-25.27,12.62h-550a31.67,31.67,0,0,1-22.85-9.74L27.79,4.91" fill="none" stroke="#a84800" stroke-miterlimit="10" stroke-width="2"/><path d="M682.2,737.13l-24.66-32.79a31.64,31.64,0,0,0-25.28-12.62h-550a31.63,31.63,0,0,0-22.81,9.73L27.79,734.36" fill="none" stroke="#a84800" stroke-miterlimit="10" stroke-width="2"/><path d="M409,251.56a312,312,0,0,0,0,236.16" fill="none" stroke="#a84800" stroke-miterlimit="10" stroke-width="2"/><path d="M428.86,260.46a295.82,295.82,0,0,0,0,218.36" fill="none" stroke="#a84800" stroke-miterlimit="10" stroke-width="2"/><path d="M388.73,243a334.65,334.65,0,0,0,0,253.22" fill="none" stroke="#a84800" stroke-miterlimit="10" stroke-width="2"/><path d="M446.65,272.94a262.74,262.74,0,0,0,0,191.28" fill="none" stroke="#a84800" stroke-miterlimit="10" stroke-width="2"/><path d="M461.72,292.47a239.57,239.57,0,0,0,.47,153.66" fill="none" stroke="#a84800" stroke-miterlimit="10" stroke-width="2"/><path d="M475.71,317.94a236.26,236.26,0,0,0,0,103.39" fill="none" stroke="#a84800" stroke-miterlimit="10" stroke-width="2"/></svg>