<svg xmlns="http://www.w3.org/2000/svg" viewBox="0 0 942.87 599.68"><g id="Layer_3" data-name="Layer 3"><path d="M3.22,41.72c1,26.82,3,345.61,3,345.61s-4.78,2.93-5.12,4.18-2.24,145.56,0,148.42a68.93,68.93,0,0,0,5.12,5.71s.13,6.64.62,28.51c.49,22.23,22,22.26,33.89,22.22H147.05l15.66,3.3,623.9-4,8.61-4H915.05s19.2-2,19.87-19.2,0-27.81,0-27.81l6-5.29v-147l-6.2-6.21L936.9,37.92C935.58,8.46,922.67,4.15,905.79,4.15S39,2,39,2C7.19,2,2.22,14.91,3.22,41.72ZM251.1,571.81l-9-4.4-5.1-6.22-2.51-11.13,3.5-2.59,9.78-3,7.58,1.05,8.31,5.06,5,7.76,1.22,9-7.61,3.84Zm453.06-26c.55,3.08-.81,12.87-.81,12.87l-5,7.27-9,5H675.82C673.16,555.6,680.94,539.51,704.16,545.77Zm-88.08-11.38L614.94,548l-4.27,4.88-6.1,1.47-11.32-.67L587.38,549l-2.2-4.62,2.43-6.24,5.31-4.11Zm-262.49-1.25,5.48,3.66,3.1,4.77V546l-2.46,4.07L355,553.39l-4.91,1-10.6-.08-4.57-1.54-3.69-3.48-1.84-4.9.36-10,3.53-1.25ZM674.41,231.73l13.64,4.2,5.82,5.72-6.21,6.13,2.89,5.11,5.5,5.5,8-6,5.8,13.88,1.22,14.88-.74,3.93-8.43-2.46-4.23,12.57,7.44,2.73-5.07,8.79-6.48,6.23-11.32,6.25-1.68-7.36-14,4.57,1.9,5.22-4.75,1.21-16.06-3.42-10.15-5.76,5.21-5.66-7.24-9.31-2.18-.36-5.89,4.92-6.83-14.7L619.34,272l8.8,1.91,3.34-7,1.41-5.86-9.5-3.68,8.71-12.6,13.57-9.65h3.09l2,9.25,7-.27,5.91-2.42-2.2-10.75Zm-385.77,0,4.69,2-5.09,8.56,2.45,2,6.09,3.15,3.69,1,1.92-2.86,3.5-5.87,6,4.41,6.25,7.67s3.55,8,3.62,8.27,2.16,7.52,2.16,7.52l-7.4.81-2.24.7-.84,1.54,1.4,11.63,4.5.67,5.61-.68-5.77,18-9.75,11.6-5.59-7.15-10.75,7.15,3.93,7.59-12.94,3.21h-9l-8.8-1.74-1.39-.45,1.65-3.21,1-3.1-2.63-3.24L260,308.21l-3.87-.46-2.32,2.82-1.81,2.5-4.45-3.3-6.12-7.34s-4.89-7.29-4.66-7.79-2-7.57-2-7.57l5.47.39,2.69-.39V285l-.72-10.21s-.41-1.59-1-1.59-4.24.13-4.24.13l-3.22-.42,1.29-7.62,4.4-11.83,7.81-8.87,3.22,3.32,2.93,4.08,5.77-4.36,5.1-3.56-4.88-8.2,17.53-5.47Z" fill="#00a8eb" stroke="#0009b5" stroke-miterlimit="10" stroke-width="2"/><path d="M795.22,591.74H915.05s19.2-2,19.87-19.2,0-27.81,0-27.81l6-5.29v-147l-6.2-6.21L936.9,37.92C935.58,8.46,922.67,4.15,905.79,4.15S39,2,39,2C7.19,2,2.22,14.91,3.22,41.72s3,345.61,3,345.61-4.78,2.93-5.12,4.18-2.24,145.56,0,148.42a68.93,68.93,0,0,0,5.12,5.71s.13,6.64.62,28.51c.49,22.23,22,22.26,33.89,22.22H147.05l15.66,3.3,623.9-4Z" fill="none" stroke="#0009b5" stroke-miterlimit="10" stroke-width="2"/><circle cx="101.27" cy="539.64" r="7.51" fill="none" stroke="#0009b5" stroke-miterlimit="10" stroke-width="2"/><circle cx="101.9" cy="539.01" r="17.38" fill="none" stroke="#0009b5" stroke-miterlimit="10" stroke-width="2"/><circle cx="101.53" cy="538.63" r="40.97" fill="none" stroke="#0009b5" stroke-miterlimit="10" stroke-width="2"/><circle cx="248.79" cy="565.7" r="21.18" fill="none" stroke="#0009b5" stroke-miterlimit="10" stroke-width="2"/><path d="M270,566.74a21.18,21.18,0,0,1-35.5-15.61c0-.36,0-.71,0-1.07" fill="none" stroke="#0009b5" stroke-miterlimit="10" stroke-width="2"/><circle cx="472.79" cy="489.45" r="16.55" fill="none" stroke="#0009b5" stroke-miterlimit="10" stroke-width="2"/><circle cx="695.25" cy="564.26" r="20.52" fill="none" stroke="#0009b5" stroke-miterlimit="10" stroke-width="2"/><path d="M704.16,545.77a20.53,20.53,0,0,1-28.76,23.72" fill="none" stroke="#0009b5" stroke-miterlimit="10" stroke-width="2"/><circle cx="838.92" cy="536.13" r="8.11" fill="none" stroke="#0009b5" stroke-miterlimit="10" stroke-width="2"/><circle cx="838.92" cy="536.13" r="19.2" fill="none" stroke="#0009b5" stroke-miterlimit="10" stroke-width="2"/><circle cx="836.85" cy="534.06" r="39.97" fill="none" stroke="#0009b5" stroke-miterlimit="10" stroke-width="2"/><circle cx="905.45" cy="565.81" r="13.58" fill="none" stroke="#0009b5" stroke-miterlimit="10" stroke-width="2"/><circle cx="34.22" cy="568.59" r="13.58" fill="none" stroke="#0009b5" stroke-miterlimit="10" stroke-width="2"/><circle cx="31.19" cy="30.57" r="13.58" fill="none" stroke="#0009b5" stroke-miterlimit="10" stroke-width="2"/><rect x="325.55" y="530" width="34.28" height="40.55" rx="12.89" transform="translate(-207.59 892.96) rotate(-90)" fill="none" stroke="#0009b5" stroke-miterlimit="10" stroke-width="2"/><path d="M362.76,543.78a12.85,12.85,0,0,1-12.65,10.6h-9.29a11.53,11.53,0,0,1-11.53-11.52v-5a12.81,12.81,0,0,1,.48-3.47" fill="none" stroke="#0009b5" stroke-miterlimit="10" stroke-width="2"/><rect x="586.65" y="531.67" width="34.28" height="37.22" rx="12.34" transform="translate(53.51 1154.06) rotate(-90)" fill="none" stroke="#0009b5" stroke-miterlimit="10" stroke-width="2"/><path d="M585.36,543.78c1,6,5.81,10.6,11.62,10.6h8.52c5.85,0,10.58-5.16,10.58-11.52v-5a14.1,14.1,0,0,0-.43-3.47" fill="none" stroke="#0009b5" stroke-miterlimit="10" stroke-width="2"/><circle cx="908.16" cy="30.5" r="14.75" fill="none" stroke="#0009b5" stroke-miterlimit="10" stroke-width="2"/><path d="M22.58,363.66c14.28,38.07,40,78.47,61.94,97,11.06,9.35.41,29.49-15.26,18.54-9.06-6.33-40.59-47.92-41.09-52s1.36-29.17-.12-32.77-10.31-21-10.8-25.2-1.37-8.19,1.11-9.56S22.58,363.66,22.58,363.66Z" fill="none" stroke="#0009b5" stroke-miterlimit="10" stroke-width="2"/><path d="M917.81,363.66c-13.76,38.07-38.57,78.47-59.68,97-10.65,9.35-.4,29.49,14.7,18.54,8.74-6.33,39.12-47.92,39.6-52s-1.32-29.17.12-32.77,9.93-21,10.4-25.2,1.32-8.19-1.07-9.56S917.81,363.66,917.81,363.66Z" fill="none" stroke="#0009b5" stroke-miterlimit="10" stroke-width="2"/><path d="M795.22,591.74s-23.09-120-28.3-134.4c-4.33-11.95-18.29-11.54-27.81-11.42-9,.11-529.3,2.58-545.22,2.48-16.72-.1-18.82,9.43-20.85,20.86-1.83,10.31-28.31,127.12-28.31,127.12" fill="none" stroke="#0009b5" stroke-miterlimit="10" stroke-width="2"/><path d="M784.1,595.73,757.33,461.34s-1.37-6.7-14.1-5.47" fill="none" stroke="#0009b5" stroke-miterlimit="10" stroke-width="2"/><path d="M862.7,372.61l-525.68-2a4.32,4.32,0,0,0-4.33,4.32v45.91a3.38,3.38,0,0,0,3.39,3.38H864" fill="none" stroke="#0009b5" stroke-miterlimit="10" stroke-width="2"/><path d="M849.49,435.5c10.18-.29,14.53-2.87,14.53-13.13l1-356.51c0-12.61-8.85-10.72-24.08-10.48-19.36.31-729.43-2.73-746.57-2.73s-17.62-1.24-18.62,14.4.1,338.57.54,351.76,3.18,15.57,14.53,15.69c0,0,744.49,1.16,758.71,1" fill="none" stroke="#0009b5" stroke-miterlimit="10" stroke-width="2"/><path d="M401-9.29H544.4a13,13,0,0,1,13,13V545.83a13,13,0,0,1-13,13H398.12a13,13,0,0,1-13-13V6.67A16,16,0,0,1,401-9.29Z" transform="translate(196.47 746.05) rotate(-90)" fill="none" stroke="#0009b5" stroke-miterlimit="10" stroke-width="2"/><path d="M400-.66H545.66a6,6,0,0,1,6,6V542.69a6,6,0,0,1-6,6H403.72A9.71,9.71,0,0,1,394,539V5.31A6,6,0,0,1,400-.66Z" transform="translate(198.82 746.82) rotate(-90)" fill="none" stroke="#0009b5" stroke-miterlimit="10" stroke-width="2"/><rect x="404.73" y="9.81" width="134.76" height="528.2" rx="7.53" transform="translate(198.2 746.02) rotate(-90)" fill="none" stroke="#0009b5" stroke-miterlimit="10" stroke-width="2"/><polyline points="361.17 217.6 350.18 206.53 350.18 341.29 360.23 334.02" fill="none" stroke="#0009b5" stroke-linejoin="bevel" stroke-width="2"/><line x1="596.31" y1="341.29" x2="596.31" y2="206.53" fill="none" stroke="#0009b5" stroke-miterlimit="10" stroke-width="2"/><line x1="590.49" y1="206.53" x2="590.49" y2="341.29" fill="none" stroke="#0009b5" stroke-miterlimit="10" stroke-width="2"/><path d="M575.09,341.29h2a7.87,7.87,0,0,0,7.87-7.87v-119a7.87,7.87,0,0,0-7.87-7.87h-5.73" fill="none" stroke="#0009b5" stroke-miterlimit="10" stroke-width="2"/><path d="M584,337.21a104.73,104.73,0,0,1,1-118.32" fill="none" stroke="#0009b5" stroke-miterlimit="10" stroke-width="2"/><path d="M584.91,321.58a90.86,90.86,0,0,1,0-85.65" fill="none" stroke="#0009b5" stroke-miterlimit="10" stroke-width="2"/><polyline points="574.38 284.58 584.92 283.97 584.92 307.78 579.85 310.23" fill="none" stroke="#0009b5" stroke-miterlimit="10" stroke-width="2"/><circle cx="670.65" cy="275.13" r="64.86" fill="none" stroke="#0009b5" stroke-miterlimit="10" stroke-width="2"/><circle cx="665.09" cy="276.79" r="46" fill="none" stroke="#0009b5" stroke-miterlimit="10" stroke-width="2"/><ellipse cx="669.79" cy="273.86" rx="57.73" ry="58.67" fill="none" stroke="#0009b5" stroke-miterlimit="10" stroke-width="2"/><circle cx="274.02" cy="275.13" r="64.86" fill="none" stroke="#0009b5" stroke-miterlimit="10" stroke-width="2"/><circle cx="279.58" cy="276.79" r="46" fill="none" stroke="#0009b5" stroke-miterlimit="10" stroke-width="2"/><ellipse cx="274.88" cy="273.86" rx="57.73" ry="58.67" fill="none" stroke="#0009b5" stroke-miterlimit="10" stroke-width="2"/><path d="M433.49,341.29a242,242,0,0,1,1.76-135" fill="none" stroke="#0009b5" stroke-miterlimit="10" stroke-width="2"/><path d="M361.17,217.6A99.06,99.06,0,0,1,360.23,334Z" fill="none" stroke="#0009b5" stroke-linejoin="bevel" stroke-width="2"/><line x1="465.9" y1="272.43" x2="373.36" y2="272.43" fill="none" stroke="#0009b5" stroke-linecap="round" stroke-miterlimit="10" stroke-width="2"/><line x1="572.76" y1="272.43" x2="479.64" y2="272.43" fill="none" stroke="#0009b5" stroke-linecap="round" stroke-miterlimit="10" stroke-width="2"/><line x1="400.25" y1="282.76" x2="400.25" y2="262.39" fill="none" stroke="#0009b5" stroke-linecap="round" stroke-miterlimit="10" stroke-width="2"/><line x1="418.26" y1="282.76" x2="418.26" y2="262.39" fill="none" stroke="#0009b5" stroke-linecap="round" stroke-miterlimit="10" stroke-width="2"/><line x1="436.29" y1="282.76" x2="436.29" y2="262.39" fill="none" stroke="#0009b5" stroke-linecap="round" stroke-miterlimit="10" stroke-width="2"/><line x1="454.64" y1="282.76" x2="454.64" y2="262.39" fill="none" stroke="#0009b5" stroke-linecap="round" stroke-miterlimit="10" stroke-width="2"/><line x1="509.53" y1="282.76" x2="509.53" y2="262.39" fill="none" stroke="#0009b5" stroke-linecap="round" stroke-miterlimit="10" stroke-width="2"/><line x1="528.04" y1="282.76" x2="528.04" y2="262.39" fill="none" stroke="#0009b5" stroke-linecap="round" stroke-miterlimit="10" stroke-width="2"/><line x1="546.23" y1="282.76" x2="546.23" y2="262.39" fill="none" stroke="#0009b5" stroke-linecap="round" stroke-miterlimit="10" stroke-width="2"/><line x1="491.65" y1="282.76" x2="491.65" y2="262.39" fill="none" stroke="#0009b5" stroke-linecap="round" stroke-miterlimit="10" stroke-width="2"/><ellipse cx="473.15" cy="272.26" rx="6.2" ry="5.85" fill="none" stroke="#0009b5" stroke-linecap="round" stroke-miterlimit="10" stroke-width="2"/><line x1="473.15" y1="266.42" x2="473.15" y2="232.15" fill="none" stroke="#0009b5" stroke-linecap="round" stroke-miterlimit="10" stroke-width="2"/><line x1="473.15" y1="278.11" x2="473.15" y2="312.35" fill="none" stroke="#0009b5" stroke-linecap="round" stroke-miterlimit="10" stroke-width="2"/><line x1="755.34" y1="349.89" x2="862.87" y2="349.89" fill="none" stroke="#0009b5" stroke-miterlimit="10" stroke-width="2"/><line x1="755.34" y1="343.05" x2="862.87" y2="343.05" fill="none" stroke="#0009b5" stroke-miterlimit="10" stroke-width="2"/><line x1="755.34" y1="336.21" x2="862.87" y2="336.21" fill="none" stroke="#0009b5" stroke-miterlimit="10" stroke-width="2"/><line x1="755.34" y1="329.37" x2="862.87" y2="329.37" fill="none" stroke="#0009b5" stroke-miterlimit="10" stroke-width="2"/><line x1="755.34" y1="322.53" x2="862.87" y2="322.53" fill="none" stroke="#0009b5" stroke-miterlimit="10" stroke-width="2"/><line x1="755.34" y1="227.24" x2="862.87" y2="227.24" fill="none" stroke="#0009b5" stroke-miterlimit="10" stroke-width="2"/><line x1="755.34" y1="220.4" x2="862.87" y2="220.4" fill="none" stroke="#0009b5" stroke-miterlimit="10" stroke-width="2"/><line x1="755.34" y1="213.56" x2="862.87" y2="213.56" fill="none" stroke="#0009b5" stroke-miterlimit="10" stroke-width="2"/><line x1="755.34" y1="206.72" x2="862.87" y2="206.72" fill="none" stroke="#0009b5" stroke-miterlimit="10" stroke-width="2"/><line x1="755.34" y1="199.88" x2="862.87" y2="199.88" fill="none" stroke="#0009b5" stroke-miterlimit="10" stroke-width="2"/><line x1="75.53" y1="348.87" x2="187.18" y2="348.87" fill="none" stroke="#0009b5" stroke-miterlimit="10" stroke-width="2"/><line x1="75.53" y1="342.03" x2="187.18" y2="342.03" fill="none" stroke="#0009b5" stroke-miterlimit="10" stroke-width="2"/><line x1="75.53" y1="335.18" x2="187.18" y2="335.18" fill="none" stroke="#0009b5" stroke-miterlimit="10" stroke-width="2"/><line x1="75.53" y1="328.34" x2="187.18" y2="328.34" fill="none" stroke="#0009b5" stroke-miterlimit="10" stroke-width="2"/><line x1="75.53" y1="321.5" x2="187.18" y2="321.5" fill="none" stroke="#0009b5" stroke-miterlimit="10" stroke-width="2"/><line x1="75.53" y1="225.95" x2="187.18" y2="225.95" fill="none" stroke="#0009b5" stroke-miterlimit="10" stroke-width="2"/><line x1="75.53" y1="218.92" x2="187.18" y2="218.92" fill="none" stroke="#0009b5" stroke-miterlimit="10" stroke-width="2"/><line x1="75.53" y1="211.89" x2="187.18" y2="211.89" fill="none" stroke="#0009b5" stroke-miterlimit="10" stroke-width="2"/><line x1="75.53" y1="204.86" x2="187.18" y2="204.86" fill="none" stroke="#0009b5" stroke-miterlimit="10" stroke-width="2"/><line x1="75.53" y1="197.83" x2="187.18" y2="197.83" fill="none" stroke="#0009b5" stroke-miterlimit="10" stroke-width="2"/><line x1="75.53" y1="148.48" x2="864.35" y2="150.47" fill="none" stroke="#0009b5" stroke-miterlimit="10" stroke-width="2"/><path d="M75.89,370.61h45.5a3.88,3.88,0,0,1,3.88,3.82l.74,44.83a3.78,3.78,0,0,1-3.77,3.84h-45" fill="none" stroke="#0009b5" stroke-miterlimit="10" stroke-width="2"/><path d="M405.53,598.14v-57a5,5,0,0,1,5-5l131.53-.34a4.17,4.17,0,0,1,4.18,4.18v56.43" fill="none" stroke="#0009b5" stroke-miterlimit="10" stroke-width="2"/><polyline points="140.12 287.96 128.55 258.2 116.72 287.96" fill="none" stroke="#0009b5" stroke-linejoin="bevel" stroke-width="2"/><line x1="135.92" y1="277.15" x2="121.02" y2="277.15" fill="none" stroke="#0009b5" stroke-linejoin="bevel" stroke-width="2"/><path d="M234.83,287.46l6.63-.31a1.49,1.49,0,0,0,1.42-1.59l-.73-11a1.45,1.45,0,0,0-1.5-1.36l-6.91.25" fill="none" stroke="#0009b5" stroke-miterlimit="10" stroke-width="2"/><path d="M247.24,244.07l4.81,6.6a1.53,1.53,0,0,0,2.09.36l9.22-6.24a1.35,1.35,0,0,0,.39-1.81l-4.57-7.43" fill="none" stroke="#0009b5" stroke-miterlimit="10" stroke-width="2"/><path d="M293.14,232.82l-4.31,8.51a1.76,1.76,0,0,0,.76,2.36l9.13,4.7a1.9,1.9,0,0,0,2.55-.79l4.62-8.55" fill="none" stroke="#0009b5" stroke-miterlimit="10" stroke-width="2"/><path d="M324.65,267.53l-9.43.94a2,2,0,0,0-1.76,2.06l.65,10.1a2.39,2.39,0,0,0,2.59,2.24l8.57-.7" fill="none" stroke="#0009b5" stroke-miterlimit="10" stroke-width="2"/><path d="M309.45,311.77l-4.76-6.53a1.77,1.77,0,0,0-2.43-.42l-8.19,5.6a2.45,2.45,0,0,0-.67,3.35l3.64,5.59" fill="none" stroke="#0009b5" stroke-miterlimit="10" stroke-width="2"/><path d="M264.87,320.38l3-5.77a1.09,1.09,0,0,0-.43-1.46l-10.47-5.89a1,1,0,0,0-1.4.37L252,313.57" fill="none" stroke="#0009b5" stroke-miterlimit="10" stroke-width="2"/><path d="M705.13,297.88,698.76,296a1.5,1.5,0,0,1-1-1.89l3.34-10.51a1.45,1.45,0,0,1,1.78-1l6.65,1.9" fill="none" stroke="#0009b5" stroke-miterlimit="10" stroke-width="2"/><path d="M703.43,252.78,697.19,258a1.53,1.53,0,0,1-2.12-.14l-7.47-8.26a1.34,1.34,0,0,1,.06-1.85l6.21-6.13" fill="none" stroke="#0009b5" stroke-miterlimit="10" stroke-width="2"/><path d="M661.54,230.9l2.16,9.29a1.77,1.77,0,0,1-1.31,2.11l-10,2.39a1.91,1.91,0,0,1-2.3-1.38l-2.43-9.41" fill="none" stroke="#0009b5" stroke-miterlimit="10" stroke-width="2"/><path d="M622.66,257.09l8.93,3.16a1.94,1.94,0,0,1,1.21,2.42l-3,9.65a2.41,2.41,0,0,1-3.06,1.56l-8.14-2.72" fill="none" stroke="#0009b5" stroke-miterlimit="10" stroke-width="2"/><path d="M626.86,303.67l6.18-5.2a1.77,1.77,0,0,1,2.46.17l6.62,7.4a2.43,2.43,0,0,1-.15,3.4L637.11,314" fill="none" stroke="#0009b5" stroke-miterlimit="10" stroke-width="2"/><path d="M668.1,322.68l-1.51-6.32a1.1,1.1,0,0,1,.77-1.32l11.57-3.21a1,1,0,0,1,1.27.69l2.06,6.63" fill="none" stroke="#0009b5" stroke-miterlimit="10" stroke-width="2"/><path d="M824.42,404.29a3.31,3.31,0,0,0,1.66,3,3.67,3.67,0,0,0,1.79.43,4,4,0,0,0,3.18-1.55q1.32-1.56,1.87-6.31a4.88,4.88,0,0,1-2.15,1.93,6.82,6.82,0,0,1-2.75.55,6.19,6.19,0,0,1-4.74-1.86,6.74,6.74,0,0,1-1.74-4.8,7.73,7.73,0,0,1,1.72-5,6.14,6.14,0,0,1,5.07-2.13,6.24,6.24,0,0,1,6.25,4.07,14.46,14.46,0,0,1,.95,5.61,18.47,18.47,0,0,1-1.14,6.73q-1.89,4.89-6.42,4.89a6.22,6.22,0,0,1-4.61-1.59,5.43,5.43,0,0,1-1.57-4Zm6.77-5.27a4.33,4.33,0,0,0,1.28-3.56,4.57,4.57,0,0,0-1.15-3.4,4,4,0,0,0-2.93-1.12,3.8,3.8,0,0,0-3,1.27,5,5,0,0,0-1.13,3.42,4.9,4.9,0,0,0,1,3.22,3.84,3.84,0,0,0,3.13,1.19A4.44,4.44,0,0,0,831.19,399Z" fill="#0009b5"/><path d="M850.76,391.9a14.78,14.78,0,0,1,1.39,7,16.82,16.82,0,0,1-1.26,7,6.14,6.14,0,0,1-5.95,4,6,6,0,0,1-5.55-3.23,14.87,14.87,0,0,1-1.52-7.26,18,18,0,0,1,.91-6.05c1.14-3.14,3.2-4.72,6.17-4.72A6.12,6.12,0,0,1,850.76,391.9Zm-2.61,13.79q1.2-1.79,1.2-6.68a16.44,16.44,0,0,0-.87-5.8,3.29,3.29,0,0,0-3.37-2.27,3.52,3.52,0,0,0-3.36,2.16,15,15,0,0,0-1.06,6.36,15.72,15.72,0,0,0,.68,5.09q1,2.93,3.56,2.93A3.69,3.69,0,0,0,848.15,405.69Z" fill="#0009b5"/></g></svg>