<svg id="Layer_2" data-name="Layer 2" xmlns="http://www.w3.org/2000/svg" viewBox="0 0 734.66 1052.35"><path d="M367.17,0C170.58,1,11.52,160.53,11.52,357.22c0,4.37.23,13.06.23,13.06H722.58q.24-6.5.23-13.06C722.81,160.53,563.75,1,367.17,0Zm-13,351.52c0-6.55,6-11.85,13.32-11.85S380.8,345,380.8,351.5Z" fill="#ffc533" stroke="#a84800" stroke-miterlimit="10" stroke-width="2"/><path d="M365.31,0c.62,0,1.24,0,1.86,0S368.4,0,369,0Z" fill="#ffc533" stroke="#a84800" stroke-miterlimit="10" stroke-width="2"/><path d="M251.61,351c3.21-61.32,53.73-110,115.57-110S479.54,289.68,482.76,351l-103.64-.51c0-5.52-5.37-10-12-10h.07c-6.62,0-12,4.47-12,10Z" fill="none" stroke="#a84800" stroke-miterlimit="10" stroke-width="2"/><path d="M48.49,358.52C48.49,182.94,192.11,39.3,367.18,39.3S686.57,183.39,686.57,359" fill="none" stroke="#a84800" stroke-miterlimit="10" stroke-width="2"/><path d="M367.17,24.09c178.65,0,335.5,152.36,332,338.53" fill="none" stroke="#a84800" stroke-miterlimit="10" stroke-width="2"/><path d="M367.17,24.09c-178.66,0-335.51,152.36-332,338.53" fill="none" stroke="#a84800" stroke-miterlimit="10" stroke-width="2"/><path d="M668.26,353.57C663.57,185.12,528.87,56.18,367.18,56.18h0c-161.69,0-296.39,128.94-301.07,297.39" fill="none" stroke="#a84800" stroke-miterlimit="10" stroke-width="2"/><path d="M710.65,366.3C718.38,176.82,558.87,11,367.53,11h-.9C175.29,11,15.78,176.82,23.52,366.3" fill="none" stroke="#a84800" stroke-miterlimit="10" stroke-width="2"/><path d="M88.09,352.18c2.63-153.45,126.58-277,279.09-277s276.47,123.58,279.1,277" fill="none" stroke="#a84800" stroke-miterlimit="10" stroke-width="2"/><path d="M628.69,352.18C624,200.59,504.83,94.86,367.76,93.05h-.58C230.12,94.86,110.93,200.59,106.26,352.18" fill="none" stroke="#a84800" stroke-miterlimit="10" stroke-width="2"/><path d="M124.2,351.77c2.88-132.32,110.57-238.7,243-238.7s240.1,106.38,243,238.7" fill="none" stroke="#a84800" stroke-miterlimit="10" stroke-width="2"/><path d="M164,351.49C167,241.36,256.82,153,367.18,153s200.18,88.35,203.2,198.49" fill="none" stroke="#a84800" stroke-miterlimit="10" stroke-width="2"/><path d="M184.64,352.18c2.72-98.94,83.4-178.3,182.54-178.3S547,253.25,549.72,352.18" fill="none" stroke="#a84800" stroke-miterlimit="10" stroke-width="2"/><path d="M141.9,351.24C149,224.94,248.47,133.58,366.82,133.58h.36c118.35,0,217.8,91.36,224.92,217.66" fill="none" stroke="#a84800" stroke-miterlimit="10" stroke-width="2"/><path d="M206.69,351.24c3.13-86.34,73.79-155.36,160.49-155.36s157.37,69,160.5,155.36" fill="none" stroke="#a84800" stroke-miterlimit="10" stroke-width="2"/><path d="M246.67,350.49c3.35-63.95,56-114.76,120.51-114.76s117.16,50.81,120.51,114.76" fill="none" stroke="#a84800" stroke-miterlimit="10"/><path d="M241.12,350.49c3.51-66.89,58.61-120,126.06-120s122.56,53.15,126.06,120" fill="none" stroke="#a84800" stroke-miterlimit="10"/><path d="M235.14,350.89c3.67-70.07,61.38-126,132-126s128.37,55.93,132.05,126" fill="none" stroke="#a84800" stroke-miterlimit="10"/><path d="M228.85,352.18c3.85-73.39,64.31-132.93,138.33-132.93s134.48,59.54,138.33,132.93" fill="none" stroke="#a84800" stroke-miterlimit="10"/><path d="M223.51,350.87c4-76.16,66.74-137.2,143.54-137.2s139.55,61,143.55,137.2" fill="none" stroke="#a84800" stroke-miterlimit="10"/><path d="M218.35,350.49c4.14-79,69.19-142.59,148.83-142.59S511.88,271.52,516,350.49" fill="none" stroke="#a84800" stroke-miterlimit="10"/><path d="M212,350.49c4.32-82.35,72.16-148.55,155.21-148.55s150.9,66.2,155.22,148.55" fill="none" stroke="#a84800" stroke-miterlimit="10"/><path d="M662.84,352.47c-5.15-.59-149.55-1.39-295.67-2-146.13.59-290.53,1.39-295.68,2C61,353.67-.32,374.06-.32,374.06s1.66,653.49,2.76,654.41,89.45,19.76,109.4,24a38.43,38.43,0,0,0,8,.85H607.67a102.4,102.4,0,0,0,21.51-2.28c28-6,101.82-21.85,102.71-22.59,1.1-.92,2.77-654.41,2.77-654.41S673.3,353.67,662.84,352.47ZM371.75,816.84h-9.16c-68.52,0-125.41-51.6-125.41-120.32a122.35,122.35,0,0,1,1-15.76l.33-2.1a331.36,331.36,0,0,0,127.74,25.73h1.82a331.31,331.31,0,0,0,127.73-25.73l.34,2.1a124.18,124.18,0,0,1,1,15.76C497.15,765.24,440.27,816.84,371.75,816.84Z" fill="#ffc533" stroke="#a84800" stroke-miterlimit="10" stroke-width="2"/><path d="M367.15,350.49h0Z" fill="#ffc533" stroke="#a84800" stroke-miterlimit="10" stroke-width="2"/><path d="M371.38,571.25c68.72,0,125.77,55.73,125.77,124.44S440.1,816,371.38,816H363c-68.72,0-125.77-51.6-125.77-120.32S294.23,571.25,363,571.25Z" fill="none" stroke="#a84800" stroke-miterlimit="10" stroke-width="2"/><path d="M-.32,374.06l32.78,24.66A31.63,31.63,0,0,1,45.08,424V974a31.67,31.67,0,0,1-9.74,22.85l-32.9,31.59" fill="none" stroke="#a84800" stroke-miterlimit="10" stroke-width="2"/><path d="M734.66,374.06l-32.79,24.66A31.66,31.66,0,0,0,689.25,424V974.06A31.64,31.64,0,0,0,699,996.87l32.91,31.6" fill="none" stroke="#a84800" stroke-miterlimit="10" stroke-width="2"/><path d="M249.09,647.23a312.16,312.16,0,0,0,236.16,0" fill="none" stroke="#a84800" stroke-miterlimit="10" stroke-width="2"/><path d="M258,627.4a295.82,295.82,0,0,0,218.36,0" fill="none" stroke="#a84800" stroke-miterlimit="10" stroke-width="2"/><path d="M240.56,667.53a334.71,334.71,0,0,0,253.22,0" fill="none" stroke="#a84800" stroke-miterlimit="10" stroke-width="2"/><path d="M270.47,609.61a262.61,262.61,0,0,0,191.28,0" fill="none" stroke="#a84800" stroke-miterlimit="10" stroke-width="2"/><path d="M290,594.55a239.63,239.63,0,0,0,153.65-.48" fill="none" stroke="#a84800" stroke-miterlimit="10" stroke-width="2"/><path d="M315.47,580.55a236.26,236.26,0,0,0,103.39,0" fill="none" stroke="#a84800" stroke-miterlimit="10" stroke-width="2"/></svg>