<svg xmlns="http://www.w3.org/2000/svg" viewBox="0 0 825.65 302.9"><g id="Layer_5" data-name="Layer 5"><path d="M3.23,190.16c-.25,0-.14.21.22.56C3.38,190.35,3.31,190.16,3.23,190.16Z" fill="#d67fc5" stroke="#3e0079" stroke-miterlimit="10" stroke-width="3"/><path d="M62.64,284.81l15,12.66H578.93l51-29.27V241.43H822.5V59.15L630,57.76V31.46L581.68,3.15H31.93L4,24.58V185.14l11.4,14s-9.93-6.44-11.94-8.4c1.3,7.4-.22,85.43-.22,85.43l26.59,23.47H71.75ZM34.87,272.28l-11.8-11.8V198.33H52A8.09,8.09,0,0,1,60,206.42v65.86Z" fill="#d67fc5" stroke="#3e0079" stroke-miterlimit="10" stroke-width="3"/><rect x="707.6" y="83.86" width="33.05" height="39.59" rx="3.78" fill="none" stroke="#3e0079" stroke-miterlimit="10" stroke-width="3"/><line x1="740.65" y1="103.66" x2="707.6" y2="103.66" fill="none" stroke="#3e0079" stroke-miterlimit="10" stroke-width="3"/><line x1="707.6" y1="98.58" x2="740.65" y2="98.58" fill="none" stroke="#3e0079" stroke-miterlimit="10" stroke-width="3"/><line x1="740.65" y1="93.51" x2="707.6" y2="93.51" fill="none" stroke="#3e0079" stroke-miterlimit="10" stroke-width="3"/><line x1="740.65" y1="88.44" x2="707.6" y2="88.44" fill="none" stroke="#3e0079" stroke-miterlimit="10" stroke-width="3"/><rect x="707.6" y="177.95" width="33.05" height="39.59" rx="3.78" fill="none" stroke="#3e0079" stroke-miterlimit="10" stroke-width="3"/><line x1="740.65" y1="197.75" x2="707.6" y2="197.75" fill="none" stroke="#3e0079" stroke-miterlimit="10" stroke-width="3"/><line x1="707.6" y1="202.82" x2="740.65" y2="202.82" fill="none" stroke="#3e0079" stroke-miterlimit="10" stroke-width="3"/><line x1="740.65" y1="207.89" x2="707.6" y2="207.89" fill="none" stroke="#3e0079" stroke-miterlimit="10" stroke-width="3"/><line x1="740.65" y1="212.97" x2="707.6" y2="212.97" fill="none" stroke="#3e0079" stroke-miterlimit="10" stroke-width="3"/><rect x="669.79" y="205.59" width="12.32" height="33.27" rx="6.16" transform="translate(898.18 -453.73) rotate(90)" fill="none" stroke="#3e0079" stroke-linejoin="bevel" stroke-width="3"/><rect x="669.79" y="61.06" width="12.32" height="33.27" rx="6.16" transform="translate(753.65 -598.25) rotate(90)" fill="none" stroke="#3e0079" stroke-linejoin="bevel" stroke-width="3"/><path d="M660.34,183.45a7.94,7.94,0,0,0,1.25-4.1c0-3.22-2.19-4.21-3.84-4.18-2.77,0-4,2.36-4,4.78v1.39h-2V180c0-1.82-1-4.13-3.35-4.13-1.58,0-3,.94-3,3.24a6.52,6.52,0,0,0,1.31,3.71l-2,.65a8.42,8.42,0,0,1-1.52-4.84c0-3.64,2.31-5.29,4.72-5.29a4.89,4.89,0,0,1,4.66,3.41h.06a5,5,0,0,1,5.08-4.12c3.17,0,5.94,2.3,5.94,6.74a8.93,8.93,0,0,1-1.34,4.81Z" fill="#3e0079"/><path d="M663.41,169.44h-1.64l-2-2c-4.81-4.72-7.37-6.86-10.35-6.89-2,0-3.87.92-3.87,3.68a6.06,6.06,0,0,0,1.67,3.92l-1.88.8a7.79,7.79,0,0,1-2-5.24c0-4,2.92-5.66,5.75-5.66,3.66,0,6.61,2.48,10.63,6.37l1.46,1.49h.06v-8.31h2.22Z" fill="#3e0079"/><path d="M662.5,139.34a16.75,16.75,0,0,1,1.13,5.9,9.48,9.48,0,0,1-2.71,7.17,11,11,0,0,1-7.64,2.67c-6.13,0-10.6-4-10.6-10.39a11.31,11.31,0,0,1,.94-4.78l2.16.6a9.49,9.49,0,0,0-.88,4.24c0,4.67,3.11,7.71,8.25,7.71s8.28-2.93,8.28-7.4a7.71,7.71,0,0,0-.54-3.3h-6.12v3.9h-2.13v-6.32Z" fill="#3e0079"/><path d="M643.17,135.55a22,22,0,0,1-.43-4.53c0-2.48.46-4.07,1.49-5.26a4.41,4.41,0,0,1,3.63-1.6,4.84,4.84,0,0,1,4.5,3.25h.06a5.21,5.21,0,0,1,5.15-4,5.77,5.77,0,0,1,4.11,1.62c1.31,1.34,1.92,3.5,1.92,6.64a25.8,25.8,0,0,1-.25,3.84Zm8.4-2.48v-2.25c0-2.62-1.46-4.15-3.44-4.15-2.41,0-3.35,1.71-3.35,4.21a10.07,10.07,0,0,0,.18,2.19Zm9.83,0a11.4,11.4,0,0,0,.13-2.08c0-2.56-1-4.92-4-4.92-2.8,0-4,2.25-4,5v2Z" fill="#3e0079"/><line x1="629.98" y1="57.76" x2="629.98" y2="241.43" fill="none" stroke="#3e0079" stroke-miterlimit="10" stroke-width="3"/><polyline points="184.03 83.86 576.72 83.86 576.72 41.72 184.03 41.72 184.03 29.16 576.72 29.16 576.72 13.92 171.81 13.2 171.81 29.24 29.46 29.24 29.46 41.84 171.81 41.84 171.81 83.86 29.46 83.86 29.46 47.09" fill="none" stroke="#3e0079" stroke-linejoin="bevel" stroke-width="3"/><polyline points="184.03 218.02 576.72 218.02 576.72 260.16 184.03 260.16 184.03 272.72 576.72 272.72 576.72 287.03 171.36 287.25 171.49 272.76 77.49 272.76 77.76 260.2 171.76 260.2 171.81 218.02 78.33 218.02 78.33 251.9" fill="none" stroke="#3e0079" stroke-linejoin="bevel" stroke-width="3"/><rect x="184.03" y="96.15" width="392.69" height="109.56" fill="none" stroke="#3e0079" stroke-linejoin="bevel" stroke-width="3"/><path d="M171.81,205.33V95.77H29.46v89H71.74a6.78,6.78,0,0,1,6.93,6.63v13.9Z" fill="none" stroke="#3e0079" stroke-linejoin="bevel" stroke-width="3"/></g></svg>