<svg xmlns="http://www.w3.org/2000/svg" viewBox="0 0 622.43 308.04"><g id="Layer_6" data-name="Layer 6"><polyline points="511.71 6.43 511.71 1.66 490.3 1.66 490.3 6.43" fill="#ffec00" stroke="#137000" stroke-miterlimit="10" stroke-width="1.94"/><polyline points="469.35 6.43 469.35 1.66 427.79 1.66 427.79 6.43" fill="#ffec00" stroke="#137000" stroke-miterlimit="10" stroke-width="1.94"/><polyline points="414.94 6.43 414.94 1.66 373.05 1.66 373.05 6.43" fill="#ffec00" stroke="#137000" stroke-miterlimit="10" stroke-width="1.94"/><polyline points="440.81 302.24 440.81 306.8 372.38 306.8 372.38 302.24" fill="#ffec00" stroke="#137000" stroke-miterlimit="10" stroke-width="1.94"/><rect x="163.4" y="-155.38" width="295.81" height="619.43" rx="46.21" transform="translate(156.97 465.64) rotate(-90)" fill="#ffec00" stroke="#137000" stroke-miterlimit="10" stroke-width="1.94"/><rect x="171.43" y="-148.32" width="280.64" height="605.09" rx="43.25" transform="translate(157.52 465.97) rotate(-90)" fill="none" stroke="#137000" stroke-miterlimit="10" stroke-width="2"/><rect x="562.85" y="144.53" width="67.82" height="17.18" rx="7.5" transform="translate(749.88 -443.64) rotate(90)" fill="none" stroke="#137000" stroke-miterlimit="10" stroke-width="2"/><rect x="278.23" y="27.11" width="253.13" height="253.13" transform="translate(558.47 -251.12) rotate(90)" fill="none" stroke="#137000" stroke-miterlimit="10" stroke-width="2"/><path d="M447.29,174.69a3.4,3.4,0,0,1-3.53,4l-60.14-.38s-7.67.41-9.67-10.47c-1.86-10.09,17-19.12,19.92,2.57a4.15,4.15,0,0,0,4.85,3.91l26.64-.06a2.35,2.35,0,0,0,2.42-2.79l-6.88-28.79a2.48,2.48,0,0,0-2.47-1.84H376.36c-12.07,0-15.25-21.81-2.19-21.64s10.36,15.36,13.12,16.68a8.4,8.4,0,0,0,4.57.71h43.88a3.35,3.35,0,0,1,3.32,2.49Z" fill="none" stroke="#137000" stroke-miterlimit="10" stroke-width="1.87"/><circle cx="113.14" cy="153.12" r="26.92" fill="none" stroke="#137000" stroke-miterlimit="10" stroke-width="2"/><rect x="110.31" y="135.42" width="5.65" height="21.85" transform="translate(259.48 33.2) rotate(90)" fill="none" stroke="#137000" stroke-miterlimit="10" stroke-width="2"/><rect x="110.31" y="148.98" width="5.65" height="21.85" transform="translate(273.04 46.76) rotate(90)" fill="none" stroke="#137000" stroke-miterlimit="10" stroke-width="2"/><polygon points="124.06 224.15 113.73 224.15 124.06 208.36 102.56 207.83 113.24 224.15 113.14 224.15 102.22 224.15 102.22 228.67 124.06 228.67 124.06 224.15" fill="none" stroke="#137000" stroke-miterlimit="10" stroke-width="2"/><polygon points="124.06 82.09 113.73 82.09 124.06 97.88 102.56 98.41 113.24 82.09 113.14 82.09 102.22 82.09 102.22 77.57 124.06 77.57 124.06 82.09" fill="none" stroke="#137000" stroke-miterlimit="10" stroke-width="2"/><circle cx="183.36" cy="32.19" r="5.08" fill="none" stroke="#137000" stroke-miterlimit="10" stroke-width="2"/><line x1="183.36" y1="37.27" x2="183.36" y2="280.24" fill="#ffec00" stroke="#137000" stroke-miterlimit="10" stroke-width="1.94"/><path d="M107.39,31.92c0,7.93,11.42,7,11.42,14" fill="none" stroke="#137000" stroke-miterlimit="10" stroke-width="2"/><path d="M118.56,32c0,7.93-11.42,7-11.42,14" fill="none" stroke="#137000" stroke-miterlimit="10" stroke-width="2"/><polygon points="122.58 45.89 115.04 45.89 118.81 49.25 122.58 45.89" fill="#137000"/><polygon points="101.98 273.25 109.52 273.25 105.75 269.89 101.98 273.25" fill="#137000"/><polygon points="110.85 45.89 103.31 45.89 107.08 49.25 110.85 45.89" fill="#137000"/><path d="M105.75,271.57V275a5.23,5.23,0,0,0,5.23,5.23h4.49a5.23,5.23,0,0,0,5.22-5.23v-6.87a5.23,5.23,0,0,0-5.22-5.23H111a5.23,5.23,0,0,0-5.23,5.23" fill="none" stroke="#137000" stroke-miterlimit="10" stroke-width="2"/><polyline points="567.68 27.11 561 33.79 567.88 40.68" fill="#ffec00" stroke="#137000" stroke-miterlimit="10" stroke-width="2"/><circle cx="570.62" cy="275.21" r="1.59" fill="#137000"/><circle cx="565.29" cy="275.21" r="1.59" fill="#137000"/><circle cx="559.95" cy="275.21" r="1.59" fill="#137000"/><circle cx="596.76" cy="178.75" r="3.66" fill="none" stroke="#137000" stroke-miterlimit="10" stroke-width="2"/></g></svg>