<svg xmlns="http://www.w3.org/2000/svg" viewBox="0 0 308.53 622.59"><g id="Layer_6" data-name="Layer 6"><polyline points="6.17 111.09 1.4 111.09 1.4 132.5 6.17 132.5" fill="#ffec00" stroke="#137000" stroke-miterlimit="10" stroke-width="1.94"/><polyline points="6.17 153.45 1.4 153.45 1.4 195.01 6.17 195.01" fill="#ffec00" stroke="#137000" stroke-miterlimit="10" stroke-width="1.94"/><polyline points="6.17 207.87 1.4 207.87 1.4 249.75 6.17 249.75" fill="#ffec00" stroke="#137000" stroke-miterlimit="10" stroke-width="1.94"/><polyline points="301.98 181.99 306.53 181.99 306.53 250.42 301.98 250.42" fill="#ffec00" stroke="#137000" stroke-miterlimit="10" stroke-width="1.94"/><rect x="6.17" y="1.78" width="295.81" height="619.43" rx="46.21" transform="translate(308.15 622.99) rotate(180)" fill="#ffec00" stroke="#137000" stroke-miterlimit="10" stroke-width="1.94"/><rect x="13.64" y="8.51" width="280.64" height="605.09" rx="43.25" transform="translate(307.93 622.11) rotate(180)" fill="none" stroke="#137000" stroke-miterlimit="10" stroke-width="2"/><rect x="118.95" y="17.45" width="67.82" height="17.18" rx="7.5" fill="none" stroke="#137000" stroke-miterlimit="10" stroke-width="2"/><rect x="26.85" y="91.44" width="253.13" height="253.13" fill="none" stroke="#137000" stroke-miterlimit="10" stroke-width="2"/><path d="M174.43,175.51a3.4,3.4,0,0,1,4,3.53l-.38,60.14s.41,7.67-10.47,9.67c-10.09,1.86-19.13-17,2.57-19.92a4.15,4.15,0,0,0,3.91-4.85L174,197.44a2.36,2.36,0,0,0-2.8-2.42l-28.79,6.88a2.49,2.49,0,0,0-1.84,2.47v42.08c0,12.06-21.8,15.24-21.63,2.19s15.36-10.37,16.68-13.13a8.5,8.5,0,0,0,.71-4.57V187.06a3.35,3.35,0,0,1,2.49-3.32Z" fill="none" stroke="#137000" stroke-miterlimit="10" stroke-width="1.87"/><circle cx="152.86" cy="509.66" r="26.92" fill="none" stroke="#137000" stroke-miterlimit="10" stroke-width="2"/><rect x="143.25" y="498.74" width="5.65" height="21.85" fill="none" stroke="#137000" stroke-miterlimit="10" stroke-width="2"/><rect x="156.81" y="498.74" width="5.65" height="21.85" fill="none" stroke="#137000" stroke-miterlimit="10" stroke-width="2"/><polygon points="223.89 498.74 223.89 509.07 208.1 498.74 207.57 520.24 223.89 509.56 223.89 509.66 223.89 520.59 228.41 520.59 228.41 498.74 223.89 498.74" fill="none" stroke="#137000" stroke-miterlimit="10" stroke-width="2"/><polygon points="81.83 498.74 81.83 509.07 97.61 498.74 98.14 520.24 81.83 509.56 81.83 509.66 81.83 520.59 77.3 520.59 77.3 498.74 81.83 498.74" fill="none" stroke="#137000" stroke-miterlimit="10" stroke-width="2"/><circle cx="31.93" cy="439.44" r="5.08" fill="none" stroke="#137000" stroke-miterlimit="10" stroke-width="2"/><line x1="37.01" y1="439.44" x2="279.97" y2="439.44" fill="#ffec00" stroke="#137000" stroke-miterlimit="10" stroke-width="1.94"/><path d="M31.66,515.42c7.92,0,7-11.43,14-11.43" fill="none" stroke="#137000" stroke-miterlimit="10" stroke-width="2"/><path d="M31.77,504.24c7.93,0,7,11.42,14,11.42" fill="none" stroke="#137000" stroke-miterlimit="10" stroke-width="2"/><polygon points="45.62 500.22 45.62 507.76 48.98 503.99 45.62 500.22" fill="#137000"/><polygon points="272.99 520.82 272.99 513.28 269.63 517.05 272.99 520.82" fill="#137000"/><polygon points="45.62 511.95 45.62 519.49 48.98 515.72 45.62 511.95" fill="#137000"/><path d="M271.31,517.05h3.44a5.23,5.23,0,0,0,5.22-5.23v-4.49a5.22,5.22,0,0,0-5.22-5.22h-6.88a5.22,5.22,0,0,0-5.22,5.22v4.49a5.23,5.23,0,0,0,5.22,5.23" fill="none" stroke="#137000" stroke-miterlimit="10" stroke-width="2"/><polyline points="26.85 55.12 33.53 61.8 40.41 54.92" fill="#ffec00" stroke="#137000" stroke-miterlimit="10" stroke-width="2"/><circle cx="274.95" cy="52.18" r="1.59" fill="#137000"/><circle cx="274.95" cy="57.52" r="1.59" fill="#137000"/><circle cx="274.95" cy="62.85" r="1.59" fill="#137000"/><circle cx="178.48" cy="26.04" r="3.66" fill="none" stroke="#137000" stroke-miterlimit="10" stroke-width="2"/></g></svg>