<svg xmlns="http://www.w3.org/2000/svg" viewBox="0 0 597.67 942.53"><g id="Layer_3" data-name="Layer 3"><path d="M558,3.22c-26.81,1-345.6,3-345.6,3s-2.94-4.78-4.18-5.12S62.61-1.16,59.75,1.08A68.93,68.93,0,0,0,54,6.2s-6.64.13-28.51.62c-22.22.49-22.25,22-22.22,33.89V147.05L0,162.71l4,623.9,4,8.61V915.05s2,19.2,19.2,19.87,27.81,0,27.81,0l5.3,6h147l6.21-6.2,348.33,2.23c29.46-1.32,33.76-14.23,33.76-31.12S597.68,39,597.68,39C597.68,7.19,584.77,2.22,558,3.22ZM27.87,251.1l4.4-9L38.5,237l11.12-2.51,2.59,3.5,3,9.78-1.05,7.58-5.06,8.31-7.77,5-9,1.22-3.83-7.61ZM53.92,704.16c-3.09.55-12.88-.81-12.88-.81l-7.27-5-5-9V675.82C44.08,673.16,60.17,680.94,53.92,704.16ZM65.3,616.08l-13.65-1.14-4.87-4.27-1.47-6.1L46,593.25l4.71-5.87,4.62-2.2,6.24,2.43,4.11,5.31Zm1.25-262.49-3.67,5.48-4.76,3.1H53.7l-4.08-2.46L46.29,355l-1-4.91.07-10.6,1.55-4.57,3.48-3.69,4.89-1.84,10,.36,1.25,3.52ZM368,674.41l-4.19,13.64L358,693.87l-6.12-6.21-5.11,2.89-5.51,5.5,6,8-13.89,5.8-14.88,1.22-3.92-.74,2.46-8.43-12.58-4.23-2.72,7.44L293,700.06l-6.24-6.48-6.24-11.32,7.36-1.68-4.58-14-5.21,1.9-1.21-4.75,3.41-16.06,5.76-10.15,5.66,5.21L301,635.5l.37-2.18-4.92-5.89,14.69-6.83,16.51-1.26-1.92,8.8,7,3.34,5.85,1.41,3.68-9.5,12.6,8.71,9.66,13.57v3.09l-9.26,2,.27,7,2.42,5.91,10.76-2.2ZM368,288.64l-2,4.69-8.56-5.09-2,2.45-3.14,6.09-1,3.69,2.86,1.92,5.88,3.5-4.42,6L348,318.16s-8.05,3.55-8.28,3.62-7.51,2.16-7.51,2.16l-.82-7.4-.69-2.24-1.54-.84-11.64,1.4-.66,4.5.68,5.61-18-5.77-11.6-9.75,7.15-5.59-7.15-10.75L280.33,297l-3.21-12.94v-9l1.73-8.8.45-1.39,3.22,1.65,3.1,1,3.23-2.63,2.63-4.91.46-3.87-2.82-2.32-2.5-1.81,3.3-4.45,7.33-6.12s7.3-4.89,7.8-4.66,7.56-2,7.56-2l-.39,5.47.39,2.69h2.08l10.21-.72s1.59-.41,1.59-1-.14-4.24-.14-4.24l.43-3.22,7.61,1.29,11.84,4.4,8.86,7.81-3.31,3.22-4.09,2.93,4.36,5.77,3.56,5.1,8.2-4.88,5.47,17.53Z" fill="#00a8eb" stroke="#0009b5" stroke-miterlimit="10" stroke-width="2"/><path d="M7.94,795.22V915.05s2,19.2,19.2,19.87,27.81,0,27.81,0l5.3,6h147l6.21-6.2,348.33,2.23c29.46-1.32,33.76-14.23,33.76-31.11S597.68,39,597.68,39c0-31.78-12.91-36.75-39.72-35.75s-345.6,3-345.6,3-2.94-4.78-4.18-5.12S62.61-1.16,59.75,1.08A68.93,68.93,0,0,0,54,6.2s-6.64.13-28.51.62c-22.22.49-22.25,22-22.22,33.89V147.05L0,162.71l4,623.9Z" fill="none" stroke="#0009b5" stroke-miterlimit="10" stroke-width="2"/><circle cx="60.05" cy="101.27" r="7.51" fill="none" stroke="#0009b5" stroke-miterlimit="10" stroke-width="2"/><circle cx="60.68" cy="101.9" r="17.38" fill="none" stroke="#0009b5" stroke-miterlimit="10" stroke-width="2"/><circle cx="61.06" cy="101.53" r="40.97" fill="none" stroke="#0009b5" stroke-miterlimit="10" stroke-width="2"/><circle cx="33.99" cy="248.79" r="21.18" fill="none" stroke="#0009b5" stroke-miterlimit="10" stroke-width="2"/><path d="M32.94,270a21.18,21.18,0,0,1,15.62-35.5c.35,0,.71,0,1.06,0" fill="none" stroke="#0009b5" stroke-miterlimit="10" stroke-width="2"/><circle cx="110.23" cy="472.79" r="16.55" fill="none" stroke="#0009b5" stroke-miterlimit="10" stroke-width="2"/><circle cx="35.42" cy="695.25" r="20.52" fill="none" stroke="#0009b5" stroke-miterlimit="10" stroke-width="2"/><path d="M53.92,704.16a20.55,20.55,0,0,1-25.75-19.85,20.27,20.27,0,0,1,2-8.91" fill="none" stroke="#0009b5" stroke-miterlimit="10" stroke-width="2"/><circle cx="63.56" cy="838.92" r="8.11" fill="none" stroke="#0009b5" stroke-miterlimit="10" stroke-width="2"/><circle cx="63.56" cy="838.92" r="19.2" fill="none" stroke="#0009b5" stroke-miterlimit="10" stroke-width="2"/><circle cx="65.63" cy="836.85" r="39.97" fill="none" stroke="#0009b5" stroke-miterlimit="10" stroke-width="2"/><circle cx="33.87" cy="905.45" r="13.58" fill="none" stroke="#0009b5" stroke-miterlimit="10" stroke-width="2"/><circle cx="31.1" cy="34.22" r="13.58" fill="none" stroke="#0009b5" stroke-miterlimit="10" stroke-width="2"/><circle cx="569.12" cy="31.19" r="13.58" fill="none" stroke="#0009b5" stroke-miterlimit="10" stroke-width="2"/><rect x="32.27" y="322.41" width="34.28" height="40.55" rx="12.89" fill="none" stroke="#0009b5" stroke-miterlimit="10" stroke-width="2"/><path d="M55.9,362.76a12.85,12.85,0,0,1-10.59-12.65v-9.29a11.52,11.52,0,0,1,11.52-11.53h5a12.86,12.86,0,0,1,3.47.48" fill="none" stroke="#0009b5" stroke-miterlimit="10" stroke-width="2"/><rect x="32.27" y="585.18" width="34.28" height="37.22" rx="12.34" fill="none" stroke="#0009b5" stroke-miterlimit="10" stroke-width="2"/><path d="M55.9,585.36c-6,1-10.59,5.81-10.59,11.62v8.52c0,5.85,5.15,10.58,11.52,10.58h5a14.16,14.16,0,0,0,3.47-.43" fill="none" stroke="#0009b5" stroke-miterlimit="10" stroke-width="2"/><circle cx="569.19" cy="908.16" r="14.75" fill="none" stroke="#0009b5" stroke-miterlimit="10" stroke-width="2"/><path d="M236,22.58c-38.07,14.28-78.47,40-97,61.94-9.35,11.06-29.48.41-18.53-15.26,6.33-9.06,47.91-40.59,52-41.09s29.17,1.36,32.77-.12,21-10.31,25.2-10.81,8.2-1.36,9.56,1.12S236,22.58,236,22.58Z" fill="none" stroke="#0009b5" stroke-miterlimit="10" stroke-width="2"/><path d="M236,917.81c-38.07-13.76-78.47-38.57-97-59.68-9.35-10.65-29.48-.4-18.53,14.7,6.33,8.74,47.91,39.12,52,39.6s29.17-1.32,32.77.12,21,9.93,25.2,10.4,8.2,1.32,9.56-1.07S236,917.81,236,917.81Z" fill="none" stroke="#0009b5" stroke-miterlimit="10" stroke-width="2"/><path d="M7.94,795.22s120-23.09,134.41-28.3c12-4.33,11.54-18.29,11.42-27.81-.12-9-2.58-529.3-2.49-545.22.1-16.72-9.42-18.82-20.85-20.85C120.11,171.21,3.31,144.73,3.31,144.73" fill="none" stroke="#0009b5" stroke-miterlimit="10" stroke-width="2"/><path d="M4,784.1l134.38-26.77s6.7-1.37,5.47-14.1" fill="none" stroke="#0009b5" stroke-miterlimit="10" stroke-width="2"/><path d="M227.07,862.7l2-525.68a4.31,4.31,0,0,0-4.31-4.33H178.84a3.39,3.39,0,0,0-3.39,3.39V864" fill="none" stroke="#0009b5" stroke-miterlimit="10" stroke-width="2"/><path d="M164.18,849.49c.3,10.18,2.88,14.53,13.13,14.53l356.52,1c12.6,0,10.72-8.84,10.47-24.07C544,821.54,547,111.47,547,94.33s1.24-17.62-14.4-18.62-338.57.1-351.76.54-15.57,3.18-15.69,14.53c0,0-1.16,744.49-1,758.71" fill="none" stroke="#0009b5" stroke-miterlimit="10" stroke-width="2"/><path d="M254.68,187.18H398a13,13,0,0,1,13,13V742.3a13,13,0,0,1-13,13H251.75a13,13,0,0,1-13-13V203.14A16,16,0,0,1,254.68,187.18Z" fill="none" stroke="#0009b5" stroke-miterlimit="10" stroke-width="2"/><path d="M252.84,198.16H398.52a6,6,0,0,1,6,6V741.51a6,6,0,0,1-6,6H256.58a9.71,9.71,0,0,1-9.71-9.71V204.13A6,6,0,0,1,252.84,198.16Z" fill="none" stroke="#0009b5" stroke-miterlimit="10" stroke-width="2"/><rect x="258.39" y="208.01" width="134.76" height="528.2" rx="7.53" fill="none" stroke="#0009b5" stroke-miterlimit="10" stroke-width="2"/><polyline points="382.08 361.17 393.15 350.18 258.39 350.18 265.66 360.23" fill="none" stroke="#0009b5" stroke-linejoin="bevel" stroke-width="2"/><line x1="258.39" y1="596.31" x2="393.16" y2="596.31" fill="none" stroke="#0009b5" stroke-miterlimit="10" stroke-width="2"/><line x1="393.16" y1="590.49" x2="258.39" y2="590.49" fill="none" stroke="#0009b5" stroke-miterlimit="10" stroke-width="2"/><path d="M258.39,575.09v2a7.88,7.88,0,0,0,7.87,7.87h119a7.88,7.88,0,0,0,7.87-7.87v-5.73" fill="none" stroke="#0009b5" stroke-miterlimit="10" stroke-width="2"/><path d="M262.48,584a104.71,104.71,0,0,1,118.31,1" fill="none" stroke="#0009b5" stroke-miterlimit="10" stroke-width="2"/><path d="M278.11,584.91a90.86,90.86,0,0,1,85.65,0" fill="none" stroke="#0009b5" stroke-miterlimit="10" stroke-width="2"/><polyline points="315.11 574.38 315.72 584.92 291.9 584.92 289.45 579.85" fill="none" stroke="#0009b5" stroke-miterlimit="10" stroke-width="2"/><circle cx="324.55" cy="670.65" r="64.86" fill="none" stroke="#0009b5" stroke-miterlimit="10" stroke-width="2"/><circle cx="322.9" cy="665.09" r="46" fill="none" stroke="#0009b5" stroke-miterlimit="10" stroke-width="2"/><ellipse cx="325.83" cy="669.79" rx="58.67" ry="57.73" fill="none" stroke="#0009b5" stroke-miterlimit="10" stroke-width="2"/><circle cx="324.55" cy="274.02" r="64.86" fill="none" stroke="#0009b5" stroke-miterlimit="10" stroke-width="2"/><circle cx="322.9" cy="279.58" r="46" fill="none" stroke="#0009b5" stroke-miterlimit="10" stroke-width="2"/><ellipse cx="325.83" cy="274.88" rx="58.67" ry="57.73" fill="none" stroke="#0009b5" stroke-miterlimit="10" stroke-width="2"/><path d="M258.39,433.49a242,242,0,0,1,135,1.76" fill="none" stroke="#0009b5" stroke-miterlimit="10" stroke-width="2"/><path d="M382.08,361.17a99.06,99.06,0,0,1-116.42-.94Z" fill="none" stroke="#0009b5" stroke-linejoin="bevel" stroke-width="2"/><line x1="327.25" y1="465.9" x2="327.25" y2="373.36" fill="none" stroke="#0009b5" stroke-linecap="round" stroke-miterlimit="10" stroke-width="2"/><line x1="327.25" y1="572.76" x2="327.25" y2="479.64" fill="none" stroke="#0009b5" stroke-linecap="round" stroke-miterlimit="10" stroke-width="2"/><line x1="316.92" y1="400.25" x2="337.3" y2="400.25" fill="none" stroke="#0009b5" stroke-linecap="round" stroke-miterlimit="10" stroke-width="2"/><line x1="316.92" y1="418.26" x2="337.3" y2="418.26" fill="none" stroke="#0009b5" stroke-linecap="round" stroke-miterlimit="10" stroke-width="2"/><line x1="316.92" y1="436.29" x2="337.3" y2="436.29" fill="none" stroke="#0009b5" stroke-linecap="round" stroke-miterlimit="10" stroke-width="2"/><line x1="316.92" y1="454.64" x2="337.3" y2="454.64" fill="none" stroke="#0009b5" stroke-linecap="round" stroke-miterlimit="10" stroke-width="2"/><line x1="316.92" y1="509.53" x2="337.3" y2="509.53" fill="none" stroke="#0009b5" stroke-linecap="round" stroke-miterlimit="10" stroke-width="2"/><line x1="316.92" y1="528.04" x2="337.3" y2="528.04" fill="none" stroke="#0009b5" stroke-linecap="round" stroke-miterlimit="10" stroke-width="2"/><line x1="316.92" y1="546.23" x2="337.3" y2="546.23" fill="none" stroke="#0009b5" stroke-linecap="round" stroke-miterlimit="10" stroke-width="2"/><line x1="316.92" y1="491.65" x2="337.3" y2="491.65" fill="none" stroke="#0009b5" stroke-linecap="round" stroke-miterlimit="10" stroke-width="2"/><ellipse cx="327.42" cy="473.15" rx="5.85" ry="6.2" fill="none" stroke="#0009b5" stroke-linecap="round" stroke-miterlimit="10" stroke-width="2"/><line x1="333.27" y1="473.15" x2="367.53" y2="473.15" fill="none" stroke="#0009b5" stroke-linecap="round" stroke-miterlimit="10" stroke-width="2"/><line x1="321.58" y1="473.15" x2="287.34" y2="473.15" fill="none" stroke="#0009b5" stroke-linecap="round" stroke-miterlimit="10" stroke-width="2"/><line x1="249.79" y1="755.34" x2="249.79" y2="862.87" fill="none" stroke="#0009b5" stroke-miterlimit="10" stroke-width="2"/><line x1="256.63" y1="755.34" x2="256.63" y2="862.87" fill="none" stroke="#0009b5" stroke-miterlimit="10" stroke-width="2"/><line x1="263.48" y1="755.34" x2="263.48" y2="862.87" fill="none" stroke="#0009b5" stroke-miterlimit="10" stroke-width="2"/><line x1="270.32" y1="755.34" x2="270.32" y2="862.87" fill="none" stroke="#0009b5" stroke-miterlimit="10" stroke-width="2"/><line x1="277.16" y1="755.34" x2="277.16" y2="862.87" fill="none" stroke="#0009b5" stroke-miterlimit="10" stroke-width="2"/><line x1="372.44" y1="755.34" x2="372.44" y2="862.87" fill="none" stroke="#0009b5" stroke-miterlimit="10" stroke-width="2"/><line x1="379.28" y1="755.34" x2="379.28" y2="862.87" fill="none" stroke="#0009b5" stroke-miterlimit="10" stroke-width="2"/><line x1="386.12" y1="755.34" x2="386.12" y2="862.87" fill="none" stroke="#0009b5" stroke-miterlimit="10" stroke-width="2"/><line x1="392.97" y1="755.34" x2="392.97" y2="862.87" fill="none" stroke="#0009b5" stroke-miterlimit="10" stroke-width="2"/><line x1="399.81" y1="755.34" x2="399.81" y2="862.87" fill="none" stroke="#0009b5" stroke-miterlimit="10" stroke-width="2"/><line x1="250.82" y1="75.53" x2="250.82" y2="187.18" fill="none" stroke="#0009b5" stroke-miterlimit="10" stroke-width="2"/><line x1="257.66" y1="75.53" x2="257.66" y2="187.18" fill="none" stroke="#0009b5" stroke-miterlimit="10" stroke-width="2"/><line x1="264.5" y1="75.53" x2="264.5" y2="187.18" fill="none" stroke="#0009b5" stroke-miterlimit="10" stroke-width="2"/><line x1="271.34" y1="75.53" x2="271.34" y2="187.18" fill="none" stroke="#0009b5" stroke-miterlimit="10" stroke-width="2"/><line x1="278.19" y1="75.53" x2="278.19" y2="187.18" fill="none" stroke="#0009b5" stroke-miterlimit="10" stroke-width="2"/><line x1="373.73" y1="75.53" x2="373.73" y2="187.18" fill="none" stroke="#0009b5" stroke-miterlimit="10" stroke-width="2"/><line x1="380.76" y1="75.53" x2="380.76" y2="187.18" fill="none" stroke="#0009b5" stroke-miterlimit="10" stroke-width="2"/><line x1="387.8" y1="75.53" x2="387.8" y2="187.18" fill="none" stroke="#0009b5" stroke-miterlimit="10" stroke-width="2"/><line x1="394.83" y1="75.53" x2="394.83" y2="187.18" fill="none" stroke="#0009b5" stroke-miterlimit="10" stroke-width="2"/><line x1="401.86" y1="75.53" x2="401.86" y2="187.18" fill="none" stroke="#0009b5" stroke-miterlimit="10" stroke-width="2"/><line x1="451.2" y1="75.53" x2="449.21" y2="864.35" fill="none" stroke="#0009b5" stroke-miterlimit="10" stroke-width="2"/><path d="M229.07,75.89v45.5a3.88,3.88,0,0,1-3.81,3.88l-44.84.74a3.78,3.78,0,0,1-3.83-3.77v-45" fill="none" stroke="#0009b5" stroke-miterlimit="10" stroke-width="2"/><path d="M1.55,405.53h57a5,5,0,0,1,5,5l.34,131.53a4.16,4.16,0,0,1-4.17,4.18H3.31" fill="none" stroke="#0009b5" stroke-miterlimit="10" stroke-width="2"/><polyline points="311.72 140.12 341.48 128.55 311.72 116.72" fill="none" stroke="#0009b5" stroke-linejoin="bevel" stroke-width="2"/><line x1="322.53" y1="135.92" x2="322.53" y2="121.02" fill="none" stroke="#0009b5" stroke-linejoin="bevel" stroke-width="2"/><path d="M312.22,234.83l.32,6.63a1.48,1.48,0,0,0,1.59,1.42l11-.73a1.46,1.46,0,0,0,1.36-1.5l-.25-6.91" fill="none" stroke="#0009b5" stroke-miterlimit="10" stroke-width="2"/><path d="M355.61,247.24,349,252.05a1.52,1.52,0,0,0-.37,2.09l6.25,9.22a1.33,1.33,0,0,0,1.8.39l7.44-4.57" fill="none" stroke="#0009b5" stroke-miterlimit="10" stroke-width="2"/><path d="M366.87,293.14l-8.51-4.31a1.77,1.77,0,0,0-2.37.76l-4.7,9.13a1.91,1.91,0,0,0,.79,2.55l8.56,4.62" fill="none" stroke="#0009b5" stroke-miterlimit="10" stroke-width="2"/><path d="M332.16,324.65l-.94-9.43a2,2,0,0,0-2.07-1.76l-10.09.65a2.4,2.4,0,0,0-2.25,2.59l.7,8.57" fill="none" stroke="#0009b5" stroke-miterlimit="10" stroke-width="2"/><path d="M287.92,309.45l6.52-4.76a1.76,1.76,0,0,0,.42-2.43l-5.6-8.19a2.44,2.44,0,0,0-3.34-.67L280.33,297" fill="none" stroke="#0009b5" stroke-miterlimit="10" stroke-width="2"/><path d="M279.3,264.87l5.77,3a1.1,1.1,0,0,0,1.47-.43l5.88-10.47a1,1,0,0,0-.37-1.4L286.11,252" fill="none" stroke="#0009b5" stroke-miterlimit="10" stroke-width="2"/><path d="M301.81,705.13l1.89-6.37a1.49,1.49,0,0,1,1.88-1l10.51,3.34a1.44,1.44,0,0,1,1,1.78l-1.89,6.65" fill="none" stroke="#0009b5" stroke-miterlimit="10" stroke-width="2"/><path d="M346.91,703.43l-5.26-6.24a1.52,1.52,0,0,1,.15-2.12l8.26-7.47a1.34,1.34,0,0,1,1.85.06l6.12,6.21" fill="none" stroke="#0009b5" stroke-miterlimit="10" stroke-width="2"/><path d="M368.79,661.54l-9.29,2.16a1.76,1.76,0,0,1-2.11-1.31l-2.4-10a1.91,1.91,0,0,1,1.38-2.3l9.41-2.43" fill="none" stroke="#0009b5" stroke-miterlimit="10" stroke-width="2"/><path d="M342.6,622.66l-3.16,8.93A2,2,0,0,1,337,632.8l-9.65-3a2.4,2.4,0,0,1-1.55-3.06l2.72-8.14" fill="none" stroke="#0009b5" stroke-miterlimit="10" stroke-width="2"/><path d="M296,626.86l5.21,6.18a1.77,1.77,0,0,1-.18,2.46l-7.39,6.62a2.44,2.44,0,0,1-3.41-.15l-4.56-4.86" fill="none" stroke="#0009b5" stroke-miterlimit="10" stroke-width="2"/><path d="M277,668.1l6.31-1.51a1.1,1.1,0,0,1,1.32.77l3.22,11.57a1,1,0,0,1-.69,1.27l-6.63,2.06" fill="none" stroke="#0009b5" stroke-miterlimit="10" stroke-width="2"/><path d="M195.4,824.42a3.3,3.3,0,0,0-3,1.66,3.67,3.67,0,0,0-.43,1.79,4,4,0,0,0,1.55,3.18c1,.88,3.14,1.5,6.31,1.87a4.82,4.82,0,0,1-1.93-2.15,6.83,6.83,0,0,1-.56-2.75,6.15,6.15,0,0,1,1.87-4.74,6.74,6.74,0,0,1,4.79-1.74,7.73,7.73,0,0,1,5,1.72,6.12,6.12,0,0,1,2.14,5.07,6.25,6.25,0,0,1-4.08,6.25,14.45,14.45,0,0,1-5.6.95,18.52,18.52,0,0,1-6.74-1.14q-4.87-1.89-4.88-6.42a6.22,6.22,0,0,1,1.59-4.61,5.43,5.43,0,0,1,4-1.57Zm5.26,6.77a4.34,4.34,0,0,0,3.57,1.28,4.58,4.58,0,0,0,3.4-1.15,4,4,0,0,0,1.12-2.93,3.81,3.81,0,0,0-1.28-3,5,5,0,0,0-3.42-1.13,4.85,4.85,0,0,0-3.21,1,3.81,3.81,0,0,0-1.2,3.13A4.44,4.44,0,0,0,200.66,831.19Z" fill="#0009b5"/><path d="M207.78,850.76a14.72,14.72,0,0,1-7,1.39,16.86,16.86,0,0,1-7-1.26,6.14,6.14,0,0,1-4-5.95,6,6,0,0,1,3.24-5.55,14.83,14.83,0,0,1,7.25-1.52,18.11,18.11,0,0,1,6.06.91q4.71,1.71,4.71,6.17A6.1,6.1,0,0,1,207.78,850.76ZM194,848.15c1.2.8,3.42,1.2,6.68,1.2a16.41,16.41,0,0,0,5.8-.87,3.3,3.3,0,0,0,2.28-3.37,3.52,3.52,0,0,0-2.16-3.36,15.05,15.05,0,0,0-6.37-1.06,15.66,15.66,0,0,0-5.08.68q-2.94,1-2.94,3.56A3.72,3.72,0,0,0,194,848.15Z" fill="#0009b5"/></g></svg>