<svg id="Layer_1" data-name="Layer 1" xmlns="http://www.w3.org/2000/svg" viewBox="0 0 141.73 141.73"><path d="M18.91,7H122.82a11.92,11.92,0,0,1,11.91,11.91V122.82a11.92,11.92,0,0,1-11.91,11.91H18.91A11.92,11.92,0,0,1,7,122.82V18.91A11.92,11.92,0,0,1,18.91,7m0-7A18.91,18.91,0,0,0,0,18.91V122.82a18.91,18.91,0,0,0,18.91,18.91H122.82a18.9,18.9,0,0,0,18.91-18.91V18.91A18.91,18.91,0,0,0,122.82,0Z"/><path d="M49.35,119.71a4,4,0,0,0,2.83-1.17L97,73.69A4,4,0,0,0,97,68L52.18,23.19a4,4,0,0,0-6.12.55A4.16,4.16,0,0,0,46.68,29L88.54,70.87l-42,42a4,4,0,0,0,2.83,6.82Z"/></svg>