<svg xmlns="http://www.w3.org/2000/svg" viewBox="0 0 360 1079.24">
    <g id="_360" data-name="360">

        <a href="../vinyl.html" target="_top">
            <g id="Vinyl360">
                <path
                    d="M359.28,120.74c-.34-64.11-54.61-116-121.52-116-1.49,0-4.45.07-4.45.07v231.8c1.48.05,3,.08,4.45.08C304.67,236.72,358.94,184.85,359.28,120.74ZM239.7,116.5a4.36,4.36,0,0,1,0,8.69Z"
                    fill="#ffc533" stroke="#7d3600" stroke-miterlimit="10" />
                <path d="M359.29,120.14c0,.2,0,.4,0,.6s0,.4,0,.61Z" fill="#ffc533" stroke="#7d3600"
                    stroke-miterlimit="10" />
                <path
                    d="M239.87,83.06c20.86,1,37.44,17.52,37.44,37.69s-16.58,36.64-37.44,37.68l.18-33.79a3.68,3.68,0,0,0,3.39-3.91v0a3.68,3.68,0,0,0-3.39-3.91Z"
                    fill="none" stroke="#7d3600" stroke-miterlimit="10" />
                <path d="M237.31,16.82c59.73,0,108.6,46.84,108.6,103.93s-49,104.15-108.75,104.15" fill="none"
                    stroke="#7d3600" stroke-miterlimit="10" />
                <path d="M351.08,120.74c0,58.26-51.83,109.41-115.16,108.27" fill="none" stroke="#7d3600"
                    stroke-miterlimit="10" />
                <path d="M351.08,120.74c0-58.26-51.83-109.41-115.16-108.27" fill="none" stroke="#7d3600"
                    stroke-miterlimit="10" />
                <path d="M239,218.93c57.3-1.53,101.16-45.46,101.16-98.18h0C340.16,68,296.3,24.09,239,22.57" fill="none"
                    stroke="#7d3600" stroke-miterlimit="10" />
                <path d="M234.67,232.75c64.45,2.52,120.86-49.5,120.86-111.89v-.29c0-62.4-56.41-114.41-120.86-111.89"
                    fill="none" stroke="#7d3600" stroke-miterlimit="10" />
                <path d="M239.47,29.73c52.2.86,94.24,41.28,94.24,91s-42,90.15-94.24,91" fill="none" stroke="#7d3600"
                    stroke-miterlimit="10" />
                <path d="M239.47,206C291,204.5,327,165.63,327.62,120.94v-.19C327,76.05,291,37.18,239.47,35.66" fill="none"
                    stroke="#7d3600" stroke-miterlimit="10" />
                <path d="M239.61,41.51c45,.94,81.2,36.06,81.2,79.24S284.62,199,239.61,200" fill="none" stroke="#7d3600"
                    stroke-miterlimit="10" />
                <path d="M239.7,54.48c37.47,1,67.52,30.28,67.52,66.27S277.17,186,239.7,187" fill="none" stroke="#7d3600"
                    stroke-miterlimit="10" />
                <path d="M239.47,61.22c33.66.89,60.65,27.2,60.65,59.53s-27,58.64-60.65,59.52" fill="none" stroke="#7d3600"
                    stroke-miterlimit="10" />
                <path d="M239.79,47.28c43,2.33,74,34.76,74,73.35v.12c0,38.59-31.08,71-74,73.34" fill="none" stroke="#7d3600"
                    stroke-miterlimit="10" />
                <path d="M239.79,68.41c29.37,1,52.85,24.06,52.85,52.34s-23.48,51.31-52.85,52.33" fill="none"
                    stroke="#7d3600" stroke-miterlimit="10" />
                <path d="M240.05,81.45c21.75,1.09,39,18.27,39,39.3S261.8,159,240.05,160" fill="none" stroke="#7d3600"
                    stroke-miterlimit="10" stroke-width="0.5" />
                <path d="M240.05,79.64c22.75,1.14,40.83,19.11,40.83,41.11s-18.08,40-40.83,41.1" fill="none" stroke="#7d3600"
                    stroke-miterlimit="10" stroke-width="0.5" />
                <path d="M239.91,77.69c23.83,1.2,42.86,20,42.86,43.06s-19,41.86-42.86,43.06" fill="none" stroke="#7d3600"
                    stroke-miterlimit="10" stroke-width="0.5" />
                <path d="M239.47,75.64c25,1.25,45.22,21,45.22,45.11s-20.25,43.85-45.22,45.1" fill="none" stroke="#7d3600"
                    stroke-miterlimit="10" stroke-width="0.5" />
                <path d="M239.92,73.9c25.9,1.3,46.67,21.76,46.67,46.8s-20.77,45.51-46.67,46.81" fill="none" stroke="#7d3600"
                    stroke-miterlimit="10" stroke-width="0.5" />
                <path d="M240.05,72.21c26.86,1.35,48.5,22.57,48.5,48.54s-21.64,47.18-48.5,48.53" fill="none"
                    stroke="#7d3600" stroke-miterlimit="10" stroke-width="0.5" />
                <path d="M240.05,70.13c28,1.41,50.53,23.53,50.53,50.62s-22.52,49.2-50.53,50.61" fill="none" stroke="#7d3600"
                    stroke-miterlimit="10" stroke-width="0.5" />
                <path
                    d="M239.37,217.16c.2-1.68.48-48.77.68-96.42-.2-47.65-.48-94.74-.68-96.42C239,20.91,232,.9,232,.9S9.72,1.45,9.41,1.81,2.69,31,1.24,37.48A12.07,12.07,0,0,0,1,40.09V199.17a31.85,31.85,0,0,0,.78,7c2,9.14,7.43,33.2,7.68,33.5s222.62.9,222.62.9S239,220.57,239.37,217.16Zm-158-94.92v-3a40.58,40.58,0,0,1,40.93-40.9,45.28,45.28,0,0,1,5.37.33l.71.11a104.06,104.06,0,0,0-8.75,41.65v.3h0V121a104.06,104.06,0,0,0,8.75,41.65l-.71.11a43.26,43.26,0,0,1-5.37.33A40.58,40.58,0,0,1,81.4,122.24Z"
                    fill="#ffc533" stroke="#7d3600" stroke-miterlimit="10" />
                <polygon points="240.05 120.74 240.05 120.74 240.05 120.75 240.05 120.74" fill="#ffc533" stroke="#7d3600"
                    stroke-miterlimit="10" />
                <path
                    d="M165,122.12c0,22.4-19,41-42.34,41a40.64,40.64,0,0,1-40.93-41v-2.75a40.64,40.64,0,0,1,40.93-41C146,78.35,165,97,165,119.37Z"
                    fill="none" stroke="#7d3600" stroke-miterlimit="10" />
                <path d="M232,.9l-8.39,10.7a10.92,10.92,0,0,1-8.6,4.11H27.93a11,11,0,0,1-7.77-3.18L9.41,1.81" fill="none"
                    stroke="#7d3600" stroke-miterlimit="10" />
                <path d="M232,240.58l-8.39-10.69a10.93,10.93,0,0,0-8.6-4.12H27.92a11,11,0,0,0-7.76,3.17L9.41,239.68"
                    fill="none" stroke="#7d3600" stroke-miterlimit="10" />
                <path d="M139.1,82.24a97.9,97.9,0,0,0,0,77" fill="none" stroke="#7d3600" stroke-miterlimit="10" />
                <path d="M145.85,85.14a92.74,92.74,0,0,0,0,71.2" fill="none" stroke="#7d3600" stroke-miterlimit="10" />
                <path d="M132.19,79.46a105,105,0,0,0,0,82.57" fill="none" stroke="#7d3600" stroke-miterlimit="10" />
                <path d="M151.9,89.21a82.26,82.26,0,0,0,0,62.37" fill="none" stroke="#7d3600" stroke-miterlimit="10" />
                <path d="M157,95.58a75,75,0,0,0,.17,50.1" fill="none" stroke="#7d3600" stroke-miterlimit="10" />
                <path d="M161.78,103.88a73.86,73.86,0,0,0,0,33.72" fill="none" stroke="#7d3600" stroke-miterlimit="10" />
            </g>
        </a>

        <a href="../cassette.html" target="_top">
            <g id="Kassett360">
                <path
                    d="M2.18,260.59c.37,9.79,1.13,126.17,1.13,126.17s-1.82,1.08-1.95,1.53-.85,53.14,0,54.19a26,26,0,0,0,2,2.08s0,2.43.24,10.41,8.37,8.13,12.9,8.12H57l6,1.2,237.62-1.45,3.28-1.45h45.64s7.31-.72,7.56-7,0-10.15,0-10.15l2.27-1.93V388.64l-2.36-2.27.85-127.17c-.51-10.76-5.42-12.33-11.85-12.33s-330.14-.78-330.14-.78C3.69,246.09,1.8,250.8,2.18,260.59ZM96.59,454.12l-3.43-1.61-1.94-2.27-1-4.06,1.34-.95,3.72-1.08,2.89.39,3.16,1.84,1.91,2.84.47,3.29-2.9,1.4Zm172.55-9.51a25.29,25.29,0,0,1-.31,4.7L266.94,452l-3.41,1.82h-5.19C257.33,448.2,260.29,442.32,269.14,444.61Zm-33.55-4.15-.43,5-1.63,1.78-2.32.53-4.31-.24-2.24-1.72-.84-1.69.93-2.27,2-1.51Zm-100-.46,2.09,1.34,1.17,1.74v1.61l-.93,1.49-1.79,1.21-1.87.36-4,0-1.74-.57-1.41-1.27-.7-1.79.14-3.64,1.34-.46ZM257.81,330l5.19,1.53,2.22,2.09-2.37,2.24,1.1,1.86,2.1,2,3.05-2.21,2.21,5.07.47,5.44-.29,1.43-3.21-.9-1.61,4.59,2.83,1-1.92,3.21-2.47,2.27-4.31,2.28-.64-2.68-5.33,1.67.72,1.9-1.81.44L247.62,362l-3.86-2.11,2-2.06-2.75-3.4-.83-.14-2.25,1.8-2.6-5.37-.48-6,3.35.7,1.28-2.57.53-2.14-3.61-1.34,3.31-4.6,5.17-3.53H248l.77,3.38,2.68-.1,2.25-.88-.83-3.93Zm-146.93,0,1.79.74-1.94,3.13.93.72,2.32,1.15,1.41.36.73-1,1.33-2.15,2.3,1.61,2.38,2.8s1.35,2.94,1.38,3,.82,2.75.82,2.75l-2.82.29-.85.26-.33.56.54,4.25,1.71.24,2.14-.25-2.2,6.56-3.71,4.24-2.13-2.61-4.1,2.61,1.5,2.77-4.93,1.17h-3.44l-3.35-.63-.53-.17.63-1.17.37-1.13-1-1.18-1.87-1-1.48-.17-.88,1-.69.91-1.69-1.2-2.34-2.68a21.25,21.25,0,0,1-1.77-2.85,20.3,20.3,0,0,0-.76-2.76l2.08.15,1-.15v-.75l-.28-3.73s-.15-.58-.36-.58l-1.62,0L90,345l.49-2.78,1.68-4.32,3-3.24,1.22,1.21,1.12,1.5,2.2-1.6,1.94-1.3-1.86-3,6.67-2Z"
                    fill="#00a8eb" stroke="#0009b5" stroke-miterlimit="10" />
                <path
                    d="M303.82,461.39h45.64s7.31-.72,7.56-7,0-10.15,0-10.15l2.27-1.93V388.64l-2.36-2.27.85-127.17c-.51-10.76-5.42-12.33-11.85-12.33s-330.14-.78-330.14-.78c-12.1,0-14,4.71-13.61,14.5S3.31,386.76,3.31,386.76s-1.82,1.08-1.95,1.53-.85,53.14,0,54.19a26,26,0,0,0,2,2.08s0,2.43.24,10.41,8.37,8.13,12.9,8.12H57l6,1.2,237.62-1.45Z"
                    fill="none" stroke="#0009b5" stroke-miterlimit="10" />
                <ellipse cx="39.52" cy="442.37" rx="2.86" ry="2.74" fill="none" stroke="#0009b5" stroke-miterlimit="10" />
                <ellipse cx="39.76" cy="442.14" rx="6.62" ry="6.35" fill="none" stroke="#0009b5" stroke-miterlimit="10" />
                <ellipse cx="39.62" cy="442" rx="15.6" ry="14.96" fill="none" stroke="#0009b5" stroke-miterlimit="10" />
                <ellipse cx="95.71" cy="451.89" rx="8.07" ry="7.73" fill="none" stroke="#0009b5" stroke-miterlimit="10" />
                <path d="M103.77,452.27a8.23,8.23,0,0,1-5.45,2,7.91,7.91,0,0,1-8.07-7.73c0-.13,0-.26,0-.39" fill="none"
                    stroke="#0009b5" stroke-miterlimit="10" />
                <ellipse cx="181.02" cy="424.05" rx="6.3" ry="6.04" fill="none" stroke="#0009b5" stroke-miterlimit="10" />
                <ellipse cx="265.74" cy="451.36" rx="7.82" ry="7.49" fill="none" stroke="#0009b5" stroke-miterlimit="10" />
                <path d="M269.14,444.61a7.52,7.52,0,0,1,.25,1.91,7.66,7.66,0,0,1-7.82,7.49,8.16,8.16,0,0,1-3.39-.74"
                    fill="none" stroke="#0009b5" stroke-miterlimit="10" />
                <ellipse cx="320.46" cy="441.09" rx="3.09" ry="2.96" fill="none" stroke="#0009b5" stroke-miterlimit="10" />
                <ellipse cx="320.46" cy="441.09" rx="7.31" ry="7.01" fill="none" stroke="#0009b5" stroke-miterlimit="10" />
                <ellipse cx="319.67" cy="440.33" rx="15.22" ry="14.59" fill="none" stroke="#0009b5"
                    stroke-miterlimit="10" />
                <ellipse cx="345.8" cy="451.93" rx="5.17" ry="4.96" fill="none" stroke="#0009b5" stroke-miterlimit="10" />
                <ellipse cx="13.98" cy="452.94" rx="5.17" ry="4.96" fill="none" stroke="#0009b5" stroke-miterlimit="10" />
                <ellipse cx="12.83" cy="256.52" rx="5.17" ry="4.96" fill="none" stroke="#0009b5" stroke-miterlimit="10" />
                <rect x="125.21" y="438.53" width="12.51" height="15.44" rx="4.8"
                    transform="translate(-314.79 577.72) rotate(-90)" fill="none" stroke="#0009b5" stroke-miterlimit="10" />
                <path
                    d="M139.11,443.89a4.84,4.84,0,0,1-4.82,3.86h-3.54a4.29,4.29,0,0,1-4.38-4.2v-1.83a4.36,4.36,0,0,1,.18-1.26"
                    fill="none" stroke="#0009b5" stroke-miterlimit="10" />
                <rect x="224.65" y="439.17" width="12.51" height="14.18" rx="4.6"
                    transform="translate(-215.35 677.16) rotate(-90)" fill="none" stroke="#0009b5" stroke-miterlimit="10" />
                <path d="M223.89,443.89a4.55,4.55,0,0,0,4.43,3.86h3.24a4.11,4.11,0,0,0,4-4.2v-1.83a4.73,4.73,0,0,0-.17-1.26"
                    fill="none" stroke="#0009b5" stroke-miterlimit="10" />
                <ellipse cx="346.83" cy="256.49" rx="5.62" ry="5.39" fill="none" stroke="#0009b5" stroke-miterlimit="10" />
                <path
                    d="M9.55,378.12C15,392,24.8,406.77,33.14,413.53c4.21,3.42.16,10.77-5.81,6.77-3.45-2.31-15.46-17.49-15.65-19s.52-10.65,0-12-3.92-7.66-4.11-9.2-.52-3,.42-3.49S9.55,378.12,9.55,378.12Z"
                    fill="none" stroke="#0009b5" stroke-miterlimit="10" />
                <path
                    d="M350.51,378.12c-5.24,13.9-14.69,28.65-22.73,35.41-4.06,3.42-.15,10.77,5.6,6.77,3.32-2.31,14.89-17.49,15.08-19s-.5-10.65,0-12,3.78-7.66,4-9.2.5-3-.41-3.49S350.51,378.12,350.51,378.12Z"
                    fill="none" stroke="#0009b5" stroke-miterlimit="10" />
                <path
                    d="M303.82,461.39S295,417.58,293,412.33c-1.65-4.37-7-4.22-10.59-4.17-3.41,0-201.59.94-207.65.9-6.37,0-7.17,3.44-8,7.62-.69,3.76-10.78,46.41-10.78,46.41"
                    fill="none" stroke="#0009b5" stroke-miterlimit="10" />
                <path d="M299.58,462.85l-10.19-49.06s-.53-2.45-5.37-2" fill="none" stroke="#0009b5"
                    stroke-miterlimit="10" />
                <path d="M329.52,381.39l-200.21-.72a1.6,1.6,0,0,0-1.65,1.57V399a1.26,1.26,0,0,0,1.29,1.24H330" fill="none"
                    stroke="#0009b5" stroke-miterlimit="10" />
                <path
                    d="M324.49,404.35c3.87-.1,5.53-1.05,5.53-4.79l.36-130.16c0-4.6-3.36-3.91-9.16-3.83-7.38.12-277.82-1-284.34-1s-6.71-.46-7.09,5.25,0,123.61.2,128.43,1.21,5.68,5.53,5.73c0,0,283.55.42,289,.36"
                    fill="none" stroke="#0009b5" stroke-miterlimit="10" />
                <path
                    d="M154.92,237.48H207a4.86,4.86,0,0,1,4.86,4.86V449a4.86,4.86,0,0,1-4.86,4.86h-53.2A4.86,4.86,0,0,1,149,449V243.44A6,6,0,0,1,154.92,237.48Z"
                    transform="translate(-165.24 526.11) rotate(-90)" fill="none" stroke="#0009b5" stroke-miterlimit="10" />
                <path
                    d="M154.48,240.78h53.09A2.23,2.23,0,0,1,209.8,243V447.77a2.23,2.23,0,0,1-2.23,2.23h-51.7a3.62,3.62,0,0,1-3.62-3.62V243a2.23,2.23,0,0,1,2.23-2.23Z"
                    transform="translate(-164.36 526.42) rotate(-90)" fill="none" stroke="#0009b5" stroke-miterlimit="10" />
                <rect x="156.16" y="244.77" width="49.2" height="201.17" rx="2.81"
                    transform="translate(-164.6 526.11) rotate(-90)" fill="none" stroke="#0009b5" stroke-miterlimit="10" />
                <polyline points="138.51 324.8 134.32 320.76 134.32 369.96 138.15 367.3" fill="none" stroke="#0009b5"
                    stroke-linejoin="bevel" />
                <line x1="228.06" y1="369.96" x2="228.06" y2="320.76" fill="none" stroke="#0009b5" stroke-miterlimit="10" />
                <line x1="225.84" y1="320.76" x2="225.84" y2="369.96" fill="none" stroke="#0009b5" stroke-miterlimit="10" />
                <path d="M220,370h.74a2.94,2.94,0,0,0,3-2.88V323.63a2.93,2.93,0,0,0-3-2.87h-2.18" fill="none"
                    stroke="#0009b5" stroke-miterlimit="10" />
                <path d="M223.35,368.47a36.94,36.94,0,0,1,.37-43.2" fill="none" stroke="#0009b5" stroke-miterlimit="10" />
                <path d="M223.72,362.76a32,32,0,0,1,0-31.27" fill="none" stroke="#0009b5" stroke-miterlimit="10" />
                <polyline points="219.71 349.25 223.72 349.03 223.72 357.72 221.79 358.62" fill="none" stroke="#0009b5"
                    stroke-miterlimit="10" />
                <ellipse cx="256.37" cy="345.8" rx="24.7" ry="23.68" fill="none" stroke="#0009b5" stroke-miterlimit="10" />
                <ellipse cx="254.26" cy="346.41" rx="17.52" ry="16.79" fill="none" stroke="#0009b5"
                    stroke-miterlimit="10" />
                <ellipse cx="256.05" cy="345.34" rx="21.99" ry="21.42" fill="none" stroke="#0009b5"
                    stroke-miterlimit="10" />
                <ellipse cx="105.31" cy="345.8" rx="24.7" ry="23.68" fill="none" stroke="#0009b5" stroke-miterlimit="10" />
                <ellipse cx="107.43" cy="346.41" rx="17.52" ry="16.79" fill="none" stroke="#0009b5"
                    stroke-miterlimit="10" />
                <ellipse cx="105.64" cy="345.34" rx="21.99" ry="21.42" fill="none" stroke="#0009b5"
                    stroke-miterlimit="10" />
                <path d="M166.05,370a84.91,84.91,0,0,1,.67-49.3" fill="none" stroke="#0009b5" stroke-miterlimit="10" />
                <path d="M138.51,324.8a35,35,0,0,1-.36,42.5Z" fill="none" stroke="#0009b5" stroke-linejoin="bevel" />
                <line x1="178.39" y1="344.82" x2="143.15" y2="344.82" fill="none" stroke="#0009b5" stroke-linecap="round"
                    stroke-miterlimit="10" />
                <line x1="219.09" y1="344.82" x2="183.63" y2="344.82" fill="none" stroke="#0009b5" stroke-linecap="round"
                    stroke-miterlimit="10" />
                <line x1="153.39" y1="348.59" x2="153.39" y2="341.15" fill="none" stroke="#0009b5" stroke-linecap="round"
                    stroke-miterlimit="10" />
                <line x1="160.25" y1="348.59" x2="160.25" y2="341.15" fill="none" stroke="#0009b5" stroke-linecap="round"
                    stroke-miterlimit="10" />
                <line x1="167.12" y1="348.59" x2="167.12" y2="341.15" fill="none" stroke="#0009b5" stroke-linecap="round"
                    stroke-miterlimit="10" />
                <line x1="174.1" y1="348.59" x2="174.1" y2="341.15" fill="none" stroke="#0009b5" stroke-linecap="round"
                    stroke-miterlimit="10" />
                <line x1="195.01" y1="348.59" x2="195.01" y2="341.15" fill="none" stroke="#0009b5" stroke-linecap="round"
                    stroke-miterlimit="10" />
                <line x1="202.06" y1="348.59" x2="202.06" y2="341.15" fill="none" stroke="#0009b5" stroke-linecap="round"
                    stroke-miterlimit="10" />
                <line x1="208.99" y1="348.59" x2="208.99" y2="341.15" fill="none" stroke="#0009b5" stroke-linecap="round"
                    stroke-miterlimit="10" />
                <line x1="188.2" y1="348.59" x2="188.2" y2="341.15" fill="none" stroke="#0009b5" stroke-linecap="round"
                    stroke-miterlimit="10" />
                <ellipse cx="181.15" cy="344.76" rx="2.36" ry="2.13" fill="none" stroke="#0009b5" stroke-linecap="round"
                    stroke-miterlimit="10" />
                <line x1="181.15" y1="342.62" x2="181.15" y2="330.11" fill="none" stroke="#0009b5" stroke-linecap="round"
                    stroke-miterlimit="10" />
                <line x1="181.15" y1="346.89" x2="181.15" y2="359.39" fill="none" stroke="#0009b5" stroke-linecap="round"
                    stroke-miterlimit="10" />
                <line x1="288.63" y1="373.1" x2="329.58" y2="373.1" fill="none" stroke="#0009b5" stroke-miterlimit="10" />
                <line x1="288.63" y1="370.6" x2="329.58" y2="370.6" fill="none" stroke="#0009b5" stroke-miterlimit="10" />
                <line x1="288.63" y1="368.1" x2="329.58" y2="368.1" fill="none" stroke="#0009b5" stroke-miterlimit="10" />
                <line x1="288.63" y1="365.6" x2="329.58" y2="365.6" fill="none" stroke="#0009b5" stroke-miterlimit="10" />
                <line x1="288.63" y1="363.11" x2="329.58" y2="363.11" fill="none" stroke="#0009b5" stroke-miterlimit="10" />
                <line x1="288.63" y1="328.32" x2="329.58" y2="328.32" fill="none" stroke="#0009b5" stroke-miterlimit="10" />
                <line x1="288.63" y1="325.82" x2="329.58" y2="325.82" fill="none" stroke="#0009b5" stroke-miterlimit="10" />
                <line x1="288.63" y1="323.32" x2="329.58" y2="323.32" fill="none" stroke="#0009b5" stroke-miterlimit="10" />
                <line x1="288.63" y1="320.83" x2="329.58" y2="320.83" fill="none" stroke="#0009b5" stroke-miterlimit="10" />
                <line x1="288.63" y1="318.33" x2="329.58" y2="318.33" fill="none" stroke="#0009b5" stroke-miterlimit="10" />
                <line x1="29.72" y1="372.72" x2="72.24" y2="372.72" fill="none" stroke="#0009b5" stroke-miterlimit="10" />
                <line x1="29.72" y1="370.23" x2="72.24" y2="370.23" fill="none" stroke="#0009b5" stroke-miterlimit="10" />
                <line x1="29.72" y1="367.73" x2="72.24" y2="367.73" fill="none" stroke="#0009b5" stroke-miterlimit="10" />
                <line x1="29.72" y1="365.23" x2="72.24" y2="365.23" fill="none" stroke="#0009b5" stroke-miterlimit="10" />
                <line x1="29.72" y1="362.73" x2="72.24" y2="362.73" fill="none" stroke="#0009b5" stroke-miterlimit="10" />
                <line x1="29.72" y1="327.85" x2="72.24" y2="327.85" fill="none" stroke="#0009b5" stroke-miterlimit="10" />
                <line x1="29.72" y1="325.28" x2="72.24" y2="325.28" fill="none" stroke="#0009b5" stroke-miterlimit="10" />
                <line x1="29.72" y1="322.71" x2="72.24" y2="322.71" fill="none" stroke="#0009b5" stroke-miterlimit="10" />
                <line x1="29.72" y1="320.15" x2="72.24" y2="320.15" fill="none" stroke="#0009b5" stroke-miterlimit="10" />
                <line x1="29.72" y1="317.58" x2="72.24" y2="317.58" fill="none" stroke="#0009b5" stroke-miterlimit="10" />
                <line x1="29.72" y1="299.57" x2="330.15" y2="300.29" fill="none" stroke="#0009b5" stroke-miterlimit="10" />
                <path d="M29.85,380.66H47.18a1.45,1.45,0,0,1,1.48,1.39l.28,16.37a1.4,1.4,0,0,1-1.43,1.4H30.36" fill="none"
                    stroke="#0009b5" stroke-miterlimit="10" />
                <path d="M155.4,463.73V442.91a1.87,1.87,0,0,1,1.9-1.83l50.09-.12a1.56,1.56,0,0,1,1.6,1.52v20.61" fill="none"
                    stroke="#0009b5" stroke-miterlimit="10" />
                <polyline points="54.32 350.49 49.91 339.62 45.41 350.49" fill="none" stroke="#0009b5"
                    stroke-linejoin="bevel" />
                <line x1="52.72" y1="346.54" x2="47.04" y2="346.54" fill="none" stroke="#0009b5" stroke-linejoin="bevel" />
                <path d="M90.39,350.31l2.52-.12a.55.55,0,0,0,.54-.58l-.27-4a.55.55,0,0,0-.58-.49l-2.63.09" fill="none"
                    stroke="#0009b5" stroke-miterlimit="10" />
                <path d="M95.12,334.46,97,336.87a.59.59,0,0,0,.79.13l3.51-2.27a.47.47,0,0,0,.15-.66l-1.74-2.72" fill="none"
                    stroke="#0009b5" stroke-miterlimit="10" />
                <path d="M112.59,330.36l-1.64,3.1a.63.63,0,0,0,.3.86l3.47,1.72a.73.73,0,0,0,1-.29l1.76-3.12" fill="none"
                    stroke="#0009b5" stroke-miterlimit="10" />
                <path d="M124.59,343l-3.59.34a.72.72,0,0,0-.66.75l.24,3.69a.9.9,0,0,0,1,.82l3.26-.26" fill="none"
                    stroke="#0009b5" stroke-miterlimit="10" />
                <path d="M118.81,359.18,117,356.8a.7.7,0,0,0-.93-.16L113,358.69a.86.86,0,0,0-.25,1.22l1.38,2" fill="none"
                    stroke="#0009b5" stroke-miterlimit="10" />
                <path d="M101.83,362.32l1.13-2.1a.39.39,0,0,0-.17-.54l-4-2.15a.4.4,0,0,0-.53.14l-1.37,2.17" fill="none"
                    stroke="#0009b5" stroke-miterlimit="10" />
                <path d="M269.5,354.11l-2.42-.69a.54.54,0,0,1-.38-.69l1.27-3.84a.56.56,0,0,1,.68-.35l2.53.69" fill="none"
                    stroke="#0009b5" stroke-miterlimit="10" />
                <path d="M268.86,337.64l-2.38,1.92a.61.61,0,0,1-.81-.05l-2.84-3a.47.47,0,0,1,0-.67l2.37-2.24" fill="none"
                    stroke="#0009b5" stroke-miterlimit="10" />
                <path d="M252.91,329.65l.82,3.4a.65.65,0,0,1-.5.77l-3.8.87a.74.74,0,0,1-.88-.5l-.93-3.44" fill="none"
                    stroke="#0009b5" stroke-miterlimit="10" />
                <path d="M238.1,339.22l3.4,1.15a.7.7,0,0,1,.46.88l-1.16,3.53a.92.92,0,0,1-1.16.57l-3.1-1" fill="none"
                    stroke="#0009b5" stroke-miterlimit="10" />
                <path d="M239.7,356.22l2.35-1.9a.71.71,0,0,1,.94.07l2.52,2.7a.86.86,0,0,1-.06,1.24L243.6,360" fill="none"
                    stroke="#0009b5" stroke-miterlimit="10" />
                <path d="M255.4,363.16l-.57-2.3a.4.4,0,0,1,.29-.49l4.41-1.17a.39.39,0,0,1,.48.25l.79,2.42" fill="none"
                    stroke="#0009b5" stroke-miterlimit="10" />
                <path
                    d="M314.94,393a1.19,1.19,0,0,0,.63,1.08,1.39,1.39,0,0,0,.68.16,1.54,1.54,0,0,0,1.21-.57,4.43,4.43,0,0,0,.71-2.3,1.83,1.83,0,0,1-.81.71,2.84,2.84,0,0,1-1.05.2,2.4,2.4,0,0,1-1.8-.68,2.37,2.37,0,0,1-.67-1.75,2.71,2.71,0,0,1,.66-1.81,2.7,2.7,0,0,1,4.31.7,5.12,5.12,0,0,1,.36,2.05,6.47,6.47,0,0,1-.43,2.46,2.51,2.51,0,0,1-2.45,1.78,2.4,2.4,0,0,1-1.75-.58,1.92,1.92,0,0,1-.6-1.45Zm2.58-1.93a1.54,1.54,0,0,0,.48-1.3,1.46,1.46,0,0,0-1.55-1.65,1.48,1.48,0,0,0-1.15.47,1.76,1.76,0,0,0-.43,1.25,1.73,1.73,0,0,0,.38,1.17,1.48,1.48,0,0,0,1.19.44A1.76,1.76,0,0,0,317.52,391Z"
                    fill="#0009b5" />
                <path
                    d="M325,388.44a5.2,5.2,0,0,1,.53,2.55,5.92,5.92,0,0,1-.48,2.55,2.34,2.34,0,0,1-2.27,1.45,2.3,2.3,0,0,1-2.11-1.18,5.18,5.18,0,0,1-.58-2.65,6.29,6.29,0,0,1,.35-2.21,2.36,2.36,0,0,1,2.35-1.72A2.33,2.33,0,0,1,325,388.44Zm-1,5a4.65,4.65,0,0,0,.45-2.44,5.82,5.82,0,0,0-.33-2.12,1.26,1.26,0,0,0-1.28-.83,1.34,1.34,0,0,0-1.28.79,5.25,5.25,0,0,0-.4,2.32,5.56,5.56,0,0,0,.25,1.86,1.4,1.4,0,0,0,1.36,1.07A1.43,1.43,0,0,0,324,393.47Z"
                    fill="#0009b5" />
            </g>
        </a>

        <a href="../cd.html" target="_top">
            <g id="Cd360">
                <path
                    d="M359.28,480.47V760.8c0,9.23-2.71,10.77-11.64,10.77H40.69v-7.29H37.34v7.29H9.61A8.48,8.48,0,0,1,1,763.27V480a8.49,8.49,0,0,1,8.66-8.3l341,.47a8.49,8.49,0,0,1,8.66,8.3"
                    fill="#ffa4ba" stroke="#890050" stroke-miterlimit="10" />
                <ellipse cx="191.57" cy="623.33" rx="35.94" ry="34.45" fill="none" stroke="#890050"
                    stroke-miterlimit="10" />
                <path d="M205.07,652.43a32.59,32.59,0,0,1-27.14-.06" fill="none" stroke="#890050" stroke-miterlimit="10" />
                <path
                    d="M45.87,563.5H42a2.34,2.34,0,0,1-2.39-2.29l0-10.54c12.31-2.63,14.71-13,14.71-15.29,0-9.07-7.73-16.43-21.56-16.43V625.57"
                    fill="none" stroke="#890050" stroke-miterlimit="10" />
                <path
                    d="M60.59,537.51c4.42.17,8.39-7.19,8.39-7.19-2.18,4.17-4.89,6.06-7.27,5.75-12.11-1.55-2.51-38.15,6.93-46.35l-.57.52c9.38-7.77,47.63-12.48,47.86-1.14,0,2.22-2.17,4.5-6.65,6,0,0,7.88-2.65,7.88-7.62"
                    fill="none" stroke="#890050" stroke-linejoin="bevel" />
                <path d="M115.84,488.26a151,151,0,0,1,26.69-11.6" fill="none" stroke="#890050" stroke-linejoin="bevel" />
                <path d="M41.67,523.35a12.12,12.12,0,0,1,0,23.79Z" fill="none" stroke="#890050" stroke-miterlimit="10" />
                <rect x="5.03" y="508.31" width="23.53" height="226.66" fill="none" stroke="#890050"
                    stroke-linejoin="bevel" />
                <path d="M4.21,497.33H33.49V474.38H11a6.62,6.62,0,0,0-6.75,6.47Z" fill="none" stroke="#890050"
                    stroke-linejoin="bevel" />
                <line x1="2.91" y1="494.08" x2="5.31" y2="494.08" fill="none" stroke="#890050" stroke-linejoin="bevel" />
                <line x1="2.91" y1="492.24" x2="5.31" y2="492.24" fill="none" stroke="#890050" stroke-linejoin="bevel" />
                <line x1="2.91" y1="490.41" x2="5.31" y2="490.41" fill="none" stroke="#890050" stroke-linejoin="bevel" />
                <line x1="2.91" y1="488.57" x2="5.31" y2="488.57" fill="none" stroke="#890050" stroke-linejoin="bevel" />
                <line x1="2.91" y1="486.74" x2="5.31" y2="486.74" fill="none" stroke="#890050" stroke-linejoin="bevel" />
                <line x1="2.91" y1="484.9" x2="5.31" y2="484.9" fill="none" stroke="#890050" stroke-linejoin="bevel" />
                <line x1="2.91" y1="483.06" x2="5.31" y2="483.06" fill="none" stroke="#890050" stroke-linejoin="bevel" />
                <line x1="2.91" y1="481.23" x2="5.31" y2="481.23" fill="none" stroke="#890050" stroke-linejoin="bevel" />
                <line x1="10.04" y1="474.38" x2="11.88" y2="471.7" fill="none" stroke="#890050" stroke-linejoin="bevel" />
                <line x1="12.4" y1="474.38" x2="14.23" y2="471.7" fill="none" stroke="#890050" stroke-linejoin="bevel" />
                <line x1="14.75" y1="474.38" x2="16.59" y2="471.7" fill="none" stroke="#890050" stroke-linejoin="bevel" />
                <line x1="17.1" y1="474.38" x2="18.94" y2="471.7" fill="none" stroke="#890050" stroke-linejoin="bevel" />
                <line x1="19.45" y1="474.38" x2="21.29" y2="471.7" fill="none" stroke="#890050" stroke-linejoin="bevel" />
                <line x1="21.8" y1="474.38" x2="23.64" y2="471.7" fill="none" stroke="#890050" stroke-linejoin="bevel" />
                <line x1="24.16" y1="474.38" x2="26" y2="471.7" fill="none" stroke="#890050" stroke-linejoin="bevel" />
                <line x1="26.51" y1="474.38" x2="28.35" y2="471.7" fill="none" stroke="#890050" stroke-linejoin="bevel" />
                <line x1="28.86" y1="474.38" x2="30.7" y2="471.7" fill="none" stroke="#890050" stroke-linejoin="bevel" />
                <line x1="31.21" y1="474.38" x2="33.05" y2="471.7" fill="none" stroke="#890050" stroke-linejoin="bevel" />
                <line x1="33.57" y1="474.38" x2="35.41" y2="471.7" fill="none" stroke="#890050" stroke-linejoin="bevel" />
                <path
                    d="M66.14,479H46.56v24.78H4.21v-2.46H37.33s0-3.4,0-3.2v-5.18H35.17v-2.28h2.17v-9.38l-2.17,0V479h2.17c0-3,1.73-4.24,5.72-4.24v1.9l99.47,0H349a4.51,4.51,0,0,1,4.6,4.41V763.46a3.22,3.22,0,0,1-3.29,3.16l-10.9,0-99.47,0"
                    fill="none" stroke="#890050" stroke-miterlimit="10" />
                <rect x="34.03" y="512.68" width="3.22" height="2.18" fill="none" stroke="#890050" stroke-miterlimit="10" />
                <rect x="34.03" y="508.31" width="3.22" height="2.18" fill="none" stroke="#890050" stroke-miterlimit="10" />
                <path
                    d="M61.86,707.16C54.05,699,50,688.56,47.81,684H42.53c-1.06,0-1.06-2.24,0-2.24h7C44,669.21,36.24,661.45,36.24,625.57c0-36.7,7.74-51.5,13.32-64.09h-7c-1.06,0-1.06-2.23,0-2.23h5.28c2.15-4.53,6.24-15,14-23.14"
                    fill="none" stroke="#890050" stroke-miterlimit="10" />
                <path
                    d="M45.87,679.78H42a2.34,2.34,0,0,0-2.39,2.29l0,10.53c12.31,2.64,14.71,13,14.71,15.3,0,9.07-7.73,16.42-21.56,16.42V617.71"
                    fill="none" stroke="#890050" stroke-miterlimit="10" />
                <path
                    d="M60.59,705.77C65,705.6,69,713,69,713c-2.18-4.16-4.89-6.05-7.27-5.75-12.11,1.56-2.51,38.15,6.93,46.36l-.57-.53c9.38,7.78,47.63,12.49,47.86,1.15,0-2.23-2.17-4.51-6.65-6,0,0,7.88,2.65,7.88,7.62"
                    fill="none" stroke="#890050" stroke-linejoin="bevel" />
                <path d="M115.84,755a150.81,150.81,0,0,0,26.69,11.61" fill="none" stroke="#890050"
                    stroke-linejoin="bevel" />
                <line x1="37.72" y1="551.04" x2="40.83" y2="550.34" fill="none" stroke="#890050" stroke-linejoin="bevel" />
                <line x1="40.83" y1="692.94" x2="37.72" y2="692.24" fill="none" stroke="#890050" stroke-linejoin="bevel" />
                <path d="M41.67,719.93a12.12,12.12,0,0,0,0-23.79Z" fill="none" stroke="#890050" stroke-miterlimit="10" />
                <path d="M4.21,746H33.49V768.9H11a6.62,6.62,0,0,1-6.75-6.48Z" fill="none" stroke="#890050"
                    stroke-linejoin="bevel" />
                <line x1="2.91" y1="749.2" x2="5.31" y2="749.2" fill="none" stroke="#890050" stroke-linejoin="bevel" />
                <line x1="2.91" y1="751.03" x2="5.31" y2="751.03" fill="none" stroke="#890050" stroke-linejoin="bevel" />
                <line x1="2.91" y1="752.87" x2="5.31" y2="752.87" fill="none" stroke="#890050" stroke-linejoin="bevel" />
                <line x1="2.91" y1="754.71" x2="5.31" y2="754.71" fill="none" stroke="#890050" stroke-linejoin="bevel" />
                <line x1="2.91" y1="756.54" x2="5.31" y2="756.54" fill="none" stroke="#890050" stroke-linejoin="bevel" />
                <line x1="2.91" y1="758.38" x2="5.31" y2="758.38" fill="none" stroke="#890050" stroke-linejoin="bevel" />
                <line x1="2.91" y1="760.21" x2="5.31" y2="760.21" fill="none" stroke="#890050" stroke-linejoin="bevel" />
                <line x1="2.91" y1="762.05" x2="5.31" y2="762.05" fill="none" stroke="#890050" stroke-linejoin="bevel" />
                <line x1="10.04" y1="768.9" x2="11.88" y2="771.57" fill="none" stroke="#890050" stroke-linejoin="bevel" />
                <line x1="12.4" y1="768.9" x2="14.23" y2="771.57" fill="none" stroke="#890050" stroke-linejoin="bevel" />
                <line x1="14.75" y1="768.9" x2="16.59" y2="771.57" fill="none" stroke="#890050" stroke-linejoin="bevel" />
                <line x1="17.1" y1="768.9" x2="18.94" y2="771.57" fill="none" stroke="#890050" stroke-linejoin="bevel" />
                <line x1="19.45" y1="768.9" x2="21.29" y2="771.57" fill="none" stroke="#890050" stroke-linejoin="bevel" />
                <line x1="21.8" y1="768.9" x2="23.64" y2="771.57" fill="none" stroke="#890050" stroke-linejoin="bevel" />
                <line x1="24.16" y1="768.9" x2="26" y2="771.57" fill="none" stroke="#890050" stroke-linejoin="bevel" />
                <line x1="26.51" y1="768.9" x2="28.35" y2="771.57" fill="none" stroke="#890050" stroke-linejoin="bevel" />
                <line x1="28.86" y1="768.9" x2="30.7" y2="771.57" fill="none" stroke="#890050" stroke-linejoin="bevel" />
                <line x1="31.21" y1="768.9" x2="33.05" y2="771.57" fill="none" stroke="#890050" stroke-linejoin="bevel" />
                <line x1="33.57" y1="768.9" x2="35.41" y2="771.57" fill="none" stroke="#890050" stroke-linejoin="bevel" />
                <line x1="37.34" y1="752.63" x2="37.34" y2="762" fill="none" stroke="#890050" stroke-miterlimit="10" />
                <path d="M66.14,764.28H46.56V739.51H4.21V742H37.33s0,3.4,0,3.2v5.18H35.17" fill="none" stroke="#890050"
                    stroke-miterlimit="10" />
                <rect x="34.03" y="728.42" width="3.22" height="2.18" fill="none" stroke="#890050" stroke-miterlimit="10" />
                <rect x="34.03" y="732.79" width="3.22" height="2.18" fill="none" stroke="#890050" stroke-miterlimit="10" />
                <path
                    d="M336.57,563.5h3.91a2.35,2.35,0,0,0,2.4-2.29l0-10.54c-12.31-2.63-14.72-13-14.72-15.29,0-9.07,7.74-16.43,21.57-16.43V625.57"
                    fill="none" stroke="#890050" stroke-miterlimit="10" />
                <path
                    d="M321.84,537.51c-4.41.17-8.39-7.19-8.39-7.19,2.19,4.17,4.9,6.06,7.27,5.75,12.11-1.55,2.51-38.15-6.93-46.35l.58.52c-9.39-7.77-47.64-12.48-47.86-1.14-.05,2.22,2.17,4.5,6.65,6,0,0-7.88-2.65-7.88-7.62"
                    fill="none" stroke="#890050" stroke-linejoin="bevel" />
                <path d="M266.6,488.26a151.29,151.29,0,0,0-26.69-11.6" fill="none" stroke="#890050"
                    stroke-linejoin="bevel" />
                <line x1="344.72" y1="551.04" x2="341.61" y2="550.34" fill="none" stroke="#890050"
                    stroke-linejoin="bevel" />
                <path d="M340.76,523.35a12.12,12.12,0,0,0,0,23.79Z" fill="none" stroke="#890050" stroke-miterlimit="10" />
                <path
                    d="M320.57,707.16c7.81-8.17,11.9-18.6,14.06-23.13h5.27c1.07,0,1.07-2.24,0-2.24h-7c5.59-12.58,11.85-20.34,11.85-56.22,0-36.7-6.26-51.5-11.85-64.09h7c1.07,0,1.07-2.23,0-2.23h-5.27c-2.16-4.53-6.25-15-14.06-23.14"
                    fill="none" stroke="#890050" stroke-miterlimit="10" />
                <path
                    d="M336.57,679.78h3.91a2.34,2.34,0,0,1,2.4,2.29l0,10.53c-12.31,2.64-14.72,13-14.72,15.3,0,9.07,7.74,16.42,21.57,16.42V617.71"
                    fill="none" stroke="#890050" stroke-miterlimit="10" />
                <path
                    d="M321.84,705.77c-4.41-.17-8.39,7.18-8.39,7.18,2.19-4.16,4.9-6.05,7.27-5.75,12.11,1.56,2.51,38.15-6.93,46.36l.58-.53c-9.39,7.78-47.64,12.49-47.86,1.15-.05-2.23,2.17-4.51,6.65-6,0,0-7.88,2.65-7.88,7.62"
                    fill="none" stroke="#890050" stroke-linejoin="bevel" />
                <path d="M266.6,755a151.16,151.16,0,0,1-26.69,11.61" fill="none" stroke="#890050" stroke-linejoin="bevel" />
                <line x1="344.72" y1="692.24" x2="341.61" y2="692.94" fill="none" stroke="#890050"
                    stroke-linejoin="bevel" />
                <path d="M340.76,719.93a12.12,12.12,0,0,1,0-23.79Z" fill="none" stroke="#890050" stroke-miterlimit="10" />
                <polyline points="332.17 476.66 332.17 479.56 346.77 479.56 346.77 476.66" fill="none" stroke="#890050"
                    stroke-miterlimit="10" />
                <polyline points="332.17 766.64 332.17 763.74 346.77 763.74 346.77 766.64" fill="none" stroke="#890050"
                    stroke-miterlimit="10" />
                <path d="M340.16,726.13a25,25,0,0,0,9.55,1.23v5.52h-9.55Z" fill="none" stroke="#890050"
                    stroke-miterlimit="10" />
                <path d="M340.16,517.11a24.76,24.76,0,0,1,9.55-1.22v-5.53h-9.55Z" fill="none" stroke="#890050"
                    stroke-miterlimit="10" />
                <path
                    d="M185.58,641.76c-1,1.5-3.57,5.52-5.68,4-1.38-1,1.13-4,2.62-5.86a33.49,33.49,0,0,1-4.59-3.73A26.74,26.74,0,0,1,174.1,632c-2,1.43-5.07,3.84-6.11,2.52-1.6-2,2.6-4.53,4.17-5.45,3.35-2.15,8.52-4.37,10.66-4.37,3.8,0,7.34,3,7.34,6.61C190.16,633.46,187.66,638.28,185.58,641.76Z"
                    fill="none" stroke="#890050" stroke-miterlimit="10" />
                <path d="M183.58,636.16a15.67,15.67,0,0,1-5.65-5.16" fill="none" stroke="#890050" stroke-miterlimit="10" />
                <path
                    d="M167.81,645.6c-7.35-7.61-6.68-8.69-1.61-13.49.38-.33-.39.93-.39,1.46a3,3,0,0,0,3.11,3,2.88,2.88,0,0,0,1.06-.18h0c8.67-3.83,11.31-10.72,14.89-7.16l.36.41c3.72,3.44-3.47,6-7.47,14.28v0a2.63,2.63,0,0,0-.19,1,3.06,3.06,0,0,0,3.12,3c.55,0,1.86-.75,1.52-.38-5,4.86-6.14,5.5-14.08-1.54Z"
                    fill="none" stroke="#890050" stroke-miterlimit="10" />
                <path d="M183.25,636.24a30.8,30.8,0,0,1-5.45-4.93" fill="none" stroke="#890050" stroke-miterlimit="10" />
                <path
                    d="M197.42,641.76c1,1.5,3.57,5.52,5.68,4,1.38-1-1.13-4-2.62-5.86a33.49,33.49,0,0,0,4.59-3.73A26.74,26.74,0,0,0,208.9,632c2,1.43,5.07,3.84,6.11,2.52,1.6-2-2.6-4.53-4.17-5.45-3.35-2.15-8.52-4.37-10.66-4.37-3.79,0-7.33,3-7.33,6.61C192.85,633.46,195.34,638.28,197.42,641.76Z"
                    fill="none" stroke="#890050" stroke-miterlimit="10" />
                <path d="M199.42,636.16a15.67,15.67,0,0,0,5.65-5.16" fill="none" stroke="#890050" stroke-miterlimit="10" />
                <path
                    d="M215.19,645.6c7.35-7.61,6.68-8.69,1.61-13.49-.38-.33.39.93.39,1.46a3,3,0,0,1-3.11,3,2.79,2.79,0,0,1-1.05-.18H213c-8.67-3.83-11.31-10.72-14.89-7.16l-.36.41c-3.72,3.44,3.47,6,7.47,14.28v0a2.63,2.63,0,0,1,.19,1,3.06,3.06,0,0,1-3.12,3c-.55,0-1.86-.75-1.52-.38,5,4.86,6.14,5.5,14.08-1.54Z"
                    fill="none" stroke="#890050" stroke-miterlimit="10" />
                <path d="M199.75,636.24a30.8,30.8,0,0,0,5.45-4.93" fill="none" stroke="#890050" stroke-miterlimit="10" />
                <ellipse cx="191.57" cy="642.5" rx="1.02" ry="1.63" fill="none" stroke="#890050" stroke-miterlimit="10" />
                <path d="M189.21,643c0-2.08,1-3.77,2.36-3.77s2.36,1.69,2.36,3.77" fill="none" stroke="#890050"
                    stroke-miterlimit="10" />
                <path d="M205.07,593.86a32.59,32.59,0,0,0-27.14.06" fill="none" stroke="#890050" stroke-miterlimit="10" />
                <path d="M161,636.15a28.87,28.87,0,0,1,.07-26" fill="none" stroke="#890050" stroke-miterlimit="10" />
                <path d="M222.05,636.15a28.91,28.91,0,0,0-.06-26" fill="none" stroke="#890050" stroke-miterlimit="10" />
                <path
                    d="M185.58,604.53c-1-1.5-3.57-5.52-5.68-4-1.38,1,1.13,4,2.62,5.86a33.49,33.49,0,0,0-4.59,3.73,26.74,26.74,0,0,0-3.83,4.21c-2-1.43-5.07-3.84-6.11-2.51-1.6,2,2.6,4.53,4.17,5.44,3.35,2.15,8.52,4.37,10.66,4.37,3.8,0,7.34-3,7.34-6.61C190.16,612.83,187.66,608,185.58,604.53Z"
                    fill="none" stroke="#890050" stroke-miterlimit="10" />
                <path d="M183.58,610.13a15.67,15.67,0,0,0-5.65,5.16" fill="none" stroke="#890050" stroke-miterlimit="10" />
                <path
                    d="M167.81,600.69c-7.35,7.61-6.68,8.7-1.61,13.49.38.33-.39-.93-.39-1.46a3,3,0,0,1,3.11-3,2.88,2.88,0,0,1,1.06.18h0c8.67,3.83,11.31,10.72,14.89,7.16l.36-.41c3.72-3.44-3.47-6-7.47-14.28v0a2.63,2.63,0,0,1-.19-1,3.06,3.06,0,0,1,3.12-3c.55,0,1.86.75,1.52.38-5-4.86-6.14-5.5-14.08,1.54Z"
                    fill="none" stroke="#890050" stroke-miterlimit="10" />
                <path d="M183.25,610.05A30.8,30.8,0,0,0,177.8,615" fill="none" stroke="#890050" stroke-miterlimit="10" />
                <path
                    d="M197.42,604.53c1-1.5,3.57-5.52,5.68-4,1.38,1-1.13,4-2.62,5.86a33.49,33.49,0,0,1,4.59,3.73,26.74,26.74,0,0,1,3.83,4.21c2-1.43,5.07-3.84,6.11-2.51,1.6,2-2.6,4.53-4.17,5.44-3.35,2.15-8.52,4.37-10.66,4.37-3.79,0-7.33-3-7.33-6.61C192.85,612.83,195.34,608,197.42,604.53Z"
                    fill="none" stroke="#890050" stroke-miterlimit="10" />
                <path d="M199.42,610.13a15.67,15.67,0,0,1,5.65,5.16" fill="none" stroke="#890050" stroke-miterlimit="10" />
                <path
                    d="M215.19,600.69c7.35,7.61,6.68,8.7,1.61,13.49-.38.33.39-.93.39-1.46a3,3,0,0,0-3.11-3,2.79,2.79,0,0,0-1.05.18H213c-8.67,3.83-11.31,10.72-14.89,7.16l-.36-.41c-3.72-3.44,3.47-6,7.47-14.28v0a2.63,2.63,0,0,0,.19-1,3.06,3.06,0,0,0-3.12-3c-.55,0-1.86.75-1.52.38,5-4.86,6.14-5.5,14.08,1.54Z"
                    fill="none" stroke="#890050" stroke-miterlimit="10" />
                <path d="M199.75,610.05A30.8,30.8,0,0,1,205.2,615" fill="none" stroke="#890050" stroke-miterlimit="10" />
                <ellipse cx="191.57" cy="603.79" rx="1.02" ry="1.63" fill="none" stroke="#890050" stroke-miterlimit="10" />
                <path d="M189.21,603.29c0,2.08,1,3.77,2.36,3.77s2.36-1.69,2.36-3.77" fill="none" stroke="#890050"
                    stroke-miterlimit="10" />
                <ellipse cx="171.38" cy="623.15" rx="1.7" ry="0.98" fill="none" stroke="#890050" stroke-miterlimit="10" />
                <path d="M170.85,620.88c2.18,0,3.94,1,3.94,2.27s-1.76,2.26-3.94,2.26" fill="none" stroke="#890050"
                    stroke-miterlimit="10" />
                <ellipse cx="211.76" cy="623.15" rx="1.7" ry="0.98" fill="none" stroke="#890050" stroke-miterlimit="10" />
                <path d="M212.28,620.88c-2.17,0-3.93,1-3.93,2.27s1.76,2.26,3.93,2.26" fill="none" stroke="#890050"
                    stroke-miterlimit="10" />
                <ellipse cx="190.55" cy="622.49" rx="154.15" ry="147.75" fill="none" stroke="#890050"
                    stroke-miterlimit="10" />
                <ellipse cx="190.55" cy="622.49" rx="149.86" ry="143.64" fill="none" stroke="#890050"
                    stroke-miterlimit="10" />
                <ellipse cx="191.57" cy="623.33" rx="39.41" ry="37.78" fill="none" stroke="#890050"
                    stroke-miterlimit="10" />
                <ellipse cx="191.57" cy="623.33" rx="56" ry="53.68" fill="none" stroke="#890050" stroke-miterlimit="10" />
                <ellipse cx="191.57" cy="623.33" rx="49.05" ry="47.02" fill="none" stroke="#890050"
                    stroke-miterlimit="10" />
            </g>
        </a>

        <a href="../download.html" target="_top">
            <g id="Nedladdning360">
                <path d="M1,856c-.11,0-.06.08.1.23C1.08,856.12,1.05,856,1,856Z" fill="#d67fc5" stroke="#3e0079"
                    stroke-miterlimit="10" />
                <path
                    d="M27,895.71,33.57,901h219.2l22.28-12.27V877.53h84.23V801.12l-84.19-.58v-11L254,777.64H13.56l-12.22,9v67.3l5,5.86s-4.34-2.7-5.22-3.52c.57,3.1-.1,35.81-.1,35.81l11.63,9.84H31Zm-12.15-5.25-5.16-5v-26H22.31a3.47,3.47,0,0,1,3.54,3.39v27.61Z"
                    fill="#d67fc5" stroke="#3e0079" stroke-miterlimit="10" />
                <path
                    d="M323.49,826.49V813.06a1.62,1.62,0,0,0-1.65-1.58H310.69a1.62,1.62,0,0,0-1.65,1.58v13.43a1.62,1.62,0,0,0,1.65,1.58h11.15A1.62,1.62,0,0,0,323.49,826.49Z"
                    fill="none" stroke="#3e0079" stroke-miterlimit="10" />
                <line x1="323.49" y1="819.77" x2="309.04" y2="819.77" fill="none" stroke="#3e0079" stroke-miterlimit="10" />
                <line x1="309.04" y1="817.65" x2="323.49" y2="817.65" fill="none" stroke="#3e0079" stroke-miterlimit="10" />
                <line x1="323.49" y1="815.52" x2="309.04" y2="815.52" fill="none" stroke="#3e0079" stroke-miterlimit="10" />
                <line x1="323.49" y1="813.39" x2="309.04" y2="813.39" fill="none" stroke="#3e0079" stroke-miterlimit="10" />
                <path
                    d="M323.49,852.51v13.42a1.62,1.62,0,0,1-1.65,1.58H310.69a1.62,1.62,0,0,1-1.65-1.58V852.51a1.62,1.62,0,0,1,1.65-1.59h11.15A1.62,1.62,0,0,1,323.49,852.51Z"
                    fill="none" stroke="#3e0079" stroke-miterlimit="10" />
                <line x1="323.49" y1="859.22" x2="309.04" y2="859.22" fill="none" stroke="#3e0079" stroke-miterlimit="10" />
                <line x1="309.04" y1="861.34" x2="323.49" y2="861.34" fill="none" stroke="#3e0079" stroke-miterlimit="10" />
                <line x1="323.49" y1="863.47" x2="309.04" y2="863.47" fill="none" stroke="#3e0079" stroke-miterlimit="10" />
                <line x1="323.49" y1="865.6" x2="309.04" y2="865.6" fill="none" stroke="#3e0079" stroke-miterlimit="10" />
                <rect x="292.61" y="862.2" width="5.17" height="14.55" rx="2.58"
                    transform="translate(1164.68 574.28) rotate(90)" fill="none" stroke="#3e0079" stroke-linejoin="bevel" />
                <rect x="292.61" y="801.62" width="5.17" height="14.55" rx="2.58"
                    transform="translate(1104.09 513.7) rotate(90)" fill="none" stroke="#3e0079" stroke-linejoin="bevel" />
                <path
                    d="M288.37,853.22a3.27,3.27,0,0,0,.55-1.71,1.61,1.61,0,0,0-1.68-1.76,1.78,1.78,0,0,0-1.73,2v.58h-.88v-.58a1.58,1.58,0,0,0-1.47-1.73,1.22,1.22,0,0,0-1.3,1.36,2.65,2.65,0,0,0,.57,1.55l-.85.27a3.42,3.42,0,0,1-.67-2A2,2,0,0,1,283,849a2.11,2.11,0,0,1,2,1.44h0a2.18,2.18,0,0,1,2.23-1.73,2.56,2.56,0,0,1,2.59,2.82,3.65,3.65,0,0,1-.58,2Z"
                    fill="#3e0079" />
                <path
                    d="M289.72,847.35H289l-.9-.82c-2.1-2-3.22-2.88-4.52-2.89-.88,0-1.69.38-1.69,1.54a2.44,2.44,0,0,0,.73,1.64l-.83.34a3.24,3.24,0,0,1-.88-2.2,2.31,2.31,0,0,1,2.52-2.37c1.6,0,2.89,1,4.65,2.67l.64.62h0V842.4h1Z"
                    fill="#3e0079" />
                <path
                    d="M289.32,834.73a7,7,0,0,1,.49,2.47,3.89,3.89,0,0,1-1.19,3,4.92,4.92,0,0,1-3.34,1.12c-2.68,0-4.63-1.66-4.63-4.35a4.53,4.53,0,0,1,.41-2l.95.25a3.73,3.73,0,0,0-.39,1.78c0,2,1.36,3.23,3.61,3.23s3.62-1.22,3.62-3.1a3.1,3.1,0,0,0-.24-1.38h-2.68v1.63H285v-2.65Z"
                    fill="#3e0079" />
                <path
                    d="M280.86,833.14a8.75,8.75,0,0,1-.19-1.89,3,3,0,0,1,.66-2.21,2,2,0,0,1,1.58-.67,2.1,2.1,0,0,1,2,1.36h0a2.26,2.26,0,0,1,2.25-1.66,2.6,2.6,0,0,1,1.8.68,3.76,3.76,0,0,1,.83,2.78,11.46,11.46,0,0,1-.1,1.61Zm3.68-1v-1a1.54,1.54,0,0,0-1.51-1.74c-1,0-1.46.72-1.46,1.77a4.08,4.08,0,0,0,.08.92Zm4.3,0a5.2,5.2,0,0,0,.05-.88c0-1.07-.44-2.06-1.75-2.06s-1.73.94-1.73,2.08v.86Z"
                    fill="#3e0079" />
                <line x1="275.09" y1="800.54" x2="275.09" y2="877.53" fill="none" stroke="#3e0079" stroke-miterlimit="10" />
                <polyline
                    points="80.07 811.48 251.8 811.48 251.8 793.81 80.07 793.81 80.07 788.54 251.8 788.54 251.8 782.15 74.73 781.86 74.73 788.58 12.48 788.58 12.48 793.86 74.73 793.86 74.73 811.48 12.48 811.48 12.48 796.06"
                    fill="none" stroke="#3e0079" stroke-linejoin="bevel" />
                <polyline
                    points="80.07 867.71 251.8 867.71 251.8 885.38 80.07 885.38 80.07 890.65 251.8 890.65 251.8 896.65 74.53 896.74 74.59 890.66 33.49 890.66 33.6 885.4 74.71 885.4 74.73 867.71 33.85 867.71 33.85 881.92"
                    fill="none" stroke="#3e0079" stroke-linejoin="bevel" />
                <rect x="80.07" y="816.63" width="171.73" height="45.93" fill="none" stroke="#3e0079"
                    stroke-linejoin="bevel" />
                <path d="M74.73,862.4V816.47H12.48v37.32H31a2.91,2.91,0,0,1,3,2.78v5.83Z" fill="none" stroke="#3e0079"
                    stroke-linejoin="bevel" />
            </g>
        </a>

        <a href="../streaming.html" target="_top">
            <g id="Streaming360">
                <polyline points="296.05 911.97 296.05 909.33 283.66 909.33 283.66 911.97" fill="#ffec00" stroke="#0e5200"
                    stroke-miterlimit="10" />
                <polyline points="271.54 911.97 271.54 909.33 247.5 909.33 247.5 911.97" fill="#ffec00" stroke="#0e5200"
                    stroke-miterlimit="10" />
                <polyline points="240.06 911.97 240.06 909.33 215.84 909.33 215.84 911.97" fill="#ffec00" stroke="#0e5200"
                    stroke-miterlimit="10" />
                <polyline points="255.03 1076.01 255.03 1078.54 215.45 1078.54 215.45 1076.01" fill="#ffec00"
                    stroke="#0e5200" stroke-miterlimit="10" />
                <rect x="98.1" y="814.82" width="164.03" height="358.33" rx="26.17"
                    transform="translate(-813.87 1174.11) rotate(-90)" fill="#ffec00" stroke="#0e5200"
                    stroke-miterlimit="10" />
                <rect x="102.56" y="818.91" width="155.62" height="350.03" rx="24.5"
                    transform="matrix(0, -1, 1, 0, -813.56, 1174.3)" fill="none" stroke="#0e5200" stroke-miterlimit="10" />
                <rect x="326.44" y="988.35" width="37.61" height="9.94" rx="4.25"
                    transform="translate(1338.56 648.07) rotate(90)" fill="none" stroke="#0e5200" stroke-miterlimit="10" />
                <rect x="164.02" y="920.41" width="140.37" height="146.43" transform="translate(1227.82 759.43) rotate(90)"
                    fill="none" stroke="#0e5200" stroke-miterlimit="10" />
                <path
                    d="M258.78,1005.28a1.9,1.9,0,0,1-2,2.22l-34.79-.21s-4.44.23-5.6-5.8c-1.07-5.6,9.86-10.61,11.53,1.42a2.4,2.4,0,0,0,2.8,2.17l15.42,0a1.31,1.31,0,0,0,1.39-1.54l-4-16a1.44,1.44,0,0,0-1.43-1H217.75c-7,0-8.82-12.09-1.27-12s6,8.52,7.59,9.25a5.09,5.09,0,0,0,2.65.4H252.1a1.91,1.91,0,0,1,1.92,1.38Z"
                    fill="none" stroke="#0e5200" stroke-miterlimit="10" />
                <ellipse cx="65.48" cy="993.32" rx="15.57" ry="14.93" fill="none" stroke="#0e5200" stroke-miterlimit="10" />
                <rect x="63.91" y="983.24" width="3.13" height="12.64" transform="translate(1055.04 924.08) rotate(90)"
                    fill="none" stroke="#0e5200" stroke-miterlimit="10" />
                <rect x="63.91" y="990.76" width="3.13" height="12.64" transform="translate(1062.56 931.6) rotate(90)"
                    fill="none" stroke="#0e5200" stroke-miterlimit="10" />
                <polygon
                    points="71.8 1032.7 65.82 1032.7 71.8 1023.95 59.36 1023.66 65.54 1032.7 65.48 1032.7 59.16 1032.7 59.16 1035.21 71.8 1035.21 71.8 1032.7"
                    fill="none" stroke="#0e5200" stroke-miterlimit="10" />
                <polygon
                    points="71.8 953.93 65.82 953.93 71.8 962.68 59.36 962.98 65.54 953.93 65.48 953.93 59.16 953.93 59.16 951.42 71.8 951.42 71.8 953.93"
                    fill="none" stroke="#0e5200" stroke-miterlimit="10" />
                <ellipse cx="106.1" cy="926.26" rx="2.94" ry="2.82" fill="none" stroke="#0e5200" stroke-miterlimit="10" />
                <line x1="106.1" y1="929.07" x2="106.1" y2="1063.81" fill="#ffec00" stroke="#0e5200"
                    stroke-miterlimit="10" />
                <path d="M62.15,926.11c0,4.39,6.61,3.87,6.61,7.74" fill="none" stroke="#0e5200" stroke-miterlimit="10" />
                <path d="M68.62,926.17c0,4.4-6.61,3.87-6.61,7.75" fill="none" stroke="#0e5200" stroke-miterlimit="10" />
                <polygon points="70.94 933.85 66.58 933.85 68.76 935.72 70.94 933.85" fill="#0e5200" />
                <polygon points="59.03 1059.93 63.39 1059.93 61.21 1058.07 59.03 1059.93" fill="#0e5200" />
                <polygon points="64.16 933.85 59.8 933.85 61.98 935.72 64.16 933.85" fill="#0e5200" />
                <path d="M61.21,1059v1.91a3,3,0,0,0,3,2.9h2.6a3,3,0,0,0,3-2.9v-3.81a3,3,0,0,0-3-2.9h-2.6a3,3,0,0,0-3,2.9"
                    fill="none" stroke="#0e5200" stroke-miterlimit="10" />
                <polyline points="328.43 923.44 324.56 927.15 328.54 930.96" fill="#ffec00" stroke="#0e5200"
                    stroke-miterlimit="10" />
                <ellipse cx="330.13" cy="1061.02" rx="0.92" ry="0.88" fill="#0e5200" />
                <ellipse cx="327.04" cy="1061.02" rx="0.92" ry="0.88" fill="#0e5200" />
                <ellipse cx="323.95" cy="1061.02" rx="0.92" ry="0.88" fill="#0e5200" />
                <ellipse cx="345.25" cy="1007.53" rx="2.12" ry="2.03" fill="none" stroke="#0e5200" stroke-miterlimit="10" />
            </g>
        </a>

    </g>
</svg>