<svg xmlns="http://www.w3.org/2000/svg" viewBox="0 0 1920 560.32">
    <g id="_1280" data-name="1280">
        <a href="../Website/vinyl.html" target="_top">
            <g id="Vinyl">
                <path
                    d="M195.47,1.89C91.61,2.41,7.58,86.71,7.58,190.62c0,2.31.12,6.9.12,6.9H383.24c.08-2.29.13-4.59.13-6.9C383.37,86.71,299.33,2.41,195.47,1.89ZM188.59,187.6c0-3.46,3.16-6.26,7-6.26s7,2.8,7,6.26Z"
                    fill="#ffc533" stroke="#7d3600" stroke-miterlimit="10" />
                <path d="M194.49,1.87l1,0,1,0Z" fill="#ffc533" stroke="#7d3600" stroke-miterlimit="10" />
                <path
                    d="M134.42,187.34a61.13,61.13,0,0,1,122.12,0l-54.75-.28c0-2.91-2.84-5.27-6.34-5.27h0c-3.5,0-6.34,2.36-6.34,5.27Z"
                    fill="none" stroke="#7d3600" stroke-miterlimit="10" />
                <path d="M27.11,191.31C27.11,98.55,103,22.66,195.48,22.66S364.22,98.78,364.22,191.55" fill="none"
                    stroke="#7d3600" stroke-miterlimit="10" />
                <path d="M195.47,14.62c94.39,0,177.26,80.5,175.42,178.86" fill="none" stroke="#7d3600"
                    stroke-miterlimit="10" />
                <path d="M195.47,14.62c-94.38,0-177.25,80.5-175.41,178.86" fill="none" stroke="#7d3600"
                    stroke-miterlimit="10" />
                <path d="M354.54,188.69c-2.47-89-73.64-157.11-159.06-157.11h0c-85.42,0-156.59,68.12-159.06,157.11"
                    fill="none" stroke="#7d3600" stroke-miterlimit="10" />
                <path d="M376.94,195.42C381,95.32,296.75,7.72,195.67,7.72h-.48C94.1,7.72,9.83,95.32,13.92,195.42"
                    fill="none" stroke="#7d3600" stroke-miterlimit="10" />
                <path d="M48,188C49.42,106.89,114.9,41.6,195.48,41.6S341.54,106.89,342.93,188" fill="none" stroke="#7d3600"
                    stroke-miterlimit="10" />
                <path d="M333.64,188c-2.47-80.09-65.44-136-137.85-136.9h-.31C123.07,52,60.1,107.87,57.63,188" fill="none"
                    stroke="#7d3600" stroke-miterlimit="10" />
                <path d="M67.11,187.75c1.52-69.92,58.41-126.12,128.37-126.12s126.85,56.2,128.37,126.11" fill="none"
                    stroke="#7d3600" stroke-miterlimit="10" />
                <path d="M88.13,187.6c1.59-58.19,49.05-104.86,107.35-104.86S301.24,129.41,302.83,187.6" fill="none"
                    stroke="#7d3600" stroke-miterlimit="10" />
                <path d="M99,188c1.44-52.27,44.06-94.2,96.44-94.2s95,41.93,96.44,94.2" fill="none" stroke="#7d3600"
                    stroke-miterlimit="10" />
                <path d="M76.46,187.46c3.76-66.72,56.3-115,118.83-115h.19c62.52,0,115.07,48.27,118.83,115" fill="none"
                    stroke="#7d3600" stroke-miterlimit="10" />
                <path d="M110.69,187.46c1.65-45.61,39-82.08,84.79-82.08s83.14,36.47,84.79,82.08" fill="none"
                    stroke="#7d3600" stroke-miterlimit="10" />
                <path d="M131.81,187.06a63.75,63.75,0,0,1,127.34,0" fill="none" stroke="#7d3600" stroke-miterlimit="10"
                    stroke-width="0.5" />
                <path d="M128.88,187.06a66.68,66.68,0,0,1,133.2,0" fill="none" stroke="#7d3600" stroke-miterlimit="10"
                    stroke-width="0.5" />
                <path d="M125.72,187.28c1.94-37,32.43-66.57,69.76-66.57s67.82,29.55,69.76,66.57" fill="none"
                    stroke="#7d3600" stroke-miterlimit="10" stroke-width="0.5" />
                <path d="M122.4,188c2-38.78,34-70.23,73.08-70.23s71,31.45,73.08,70.23" fill="none" stroke="#7d3600"
                    stroke-miterlimit="10" stroke-width="0.5" />
                <path d="M119.58,187.27c2.11-40.24,35.25-72.49,75.83-72.49s73.73,32.25,75.84,72.49" fill="none"
                    stroke="#7d3600" stroke-miterlimit="10" stroke-width="0.5" />
                <path d="M116.85,187.06c2.19-41.71,36.55-75.32,78.63-75.32s76.44,33.61,78.63,75.32" fill="none"
                    stroke="#7d3600" stroke-miterlimit="10" stroke-width="0.5" />
                <path d="M113.48,187.06c2.28-43.5,38.12-78.47,82-78.47s79.72,35,82,78.47" fill="none" stroke="#7d3600"
                    stroke-miterlimit="10" stroke-width="0.5" />
                <path
                    d="M351.68,188.11c-2.72-.31-79-.73-156.21-1.05-77.2.32-153.49.74-156.21,1.05-5.52.64-37.94,11.41-37.94,11.41S2.2,544.77,2.78,545.25,50,555.69,60.58,558a20.73,20.73,0,0,0,4.23.44H322.53a54.35,54.35,0,0,0,11.37-1.2c14.81-3.17,53.79-11.54,54.26-11.94s1.46-345.73,1.46-345.73S357.21,188.75,351.68,188.11ZM197.89,433.45h-4.84c-36.2,0-66.25-27.27-66.25-63.57a65.48,65.48,0,0,1,.53-8.33l.18-1.1A175.08,175.08,0,0,0,195,374h1a175.13,175.13,0,0,0,67.49-13.59l.17,1.1a63.69,63.69,0,0,1,.54,8.33C264.15,406.18,234.09,433.45,197.89,433.45Z"
                    fill="#ffc533" stroke="#7d3600" stroke-miterlimit="10" />
                <polygon points="195.46 187.06 195.47 187.06 195.48 187.06 195.46 187.06" fill="#ffc533" stroke="#7d3600"
                    stroke-miterlimit="10" />
                <path
                    d="M197.7,303.7c36.3,0,66.45,29.44,66.45,65.74S234,433,197.7,433h-4.46c-36.3,0-66.44-27.26-66.44-63.57s30.14-65.74,66.44-65.74Z"
                    fill="none" stroke="#7d3600" stroke-miterlimit="10" />
                <path d="M1.32,199.52l17.32,13a16.69,16.69,0,0,1,6.67,13.35V516.5a16.74,16.74,0,0,1-5.15,12.07L2.78,545.25"
                    fill="none" stroke="#7d3600" stroke-miterlimit="10" />
                <path d="M389.62,199.52l-17.32,13a16.71,16.71,0,0,0-6.66,13.35V516.51a16.7,16.7,0,0,0,5.13,12l17.39,16.69"
                    fill="none" stroke="#7d3600" stroke-miterlimit="10" />
                <path d="M133.09,343.84a164.85,164.85,0,0,0,124.77,0" fill="none" stroke="#7d3600" stroke-miterlimit="10" />
                <path d="M137.79,333.36a156.29,156.29,0,0,0,115.37,0" fill="none" stroke="#7d3600" stroke-miterlimit="10" />
                <path d="M128.58,354.57a176.82,176.82,0,0,0,133.78,0" fill="none" stroke="#7d3600" stroke-miterlimit="10" />
                <path d="M144.39,324a138.77,138.77,0,0,0,101.05,0" fill="none" stroke="#7d3600" stroke-miterlimit="10" />
                <path d="M154.7,316a126.49,126.49,0,0,0,81.18-.26" fill="none" stroke="#7d3600" stroke-miterlimit="10" />
                <path d="M168.16,308.61a124.79,124.79,0,0,0,54.62,0" fill="none" stroke="#7d3600" stroke-miterlimit="10" />
            </g>
        </a>

        <a href="../Website/cassette.html" target="_top">
            <g id="Kassett">
                <path
                    d="M428.8,556c15.85-.58,204.25-1.76,204.25-1.76s1.74,2.82,2.47,3,86,1.32,87.72,0a40.4,40.4,0,0,0,3.37-3l16.85-.37c13.14-.29,13.15-13,13.14-20V471l1.95-9.26L756.2,93.05,753.86,88V17.14S752.68,5.8,742.51,5.41s-16.43,0-16.43,0L723,1.89H636.08l-3.67,3.66L426.55,4.23C409.14,5,406.6,12.65,406.6,22.62s-1.27,512.28-1.27,512.28C405.33,553.68,413,556.62,428.8,556Zm313.28-146.5-2.6,5.31-3.68,3-6.57,1.48-1.54-2.07L726,411.49l.62-4.48,3-4.91,4.59-3,5.33-.73,2.26,4.5ZM726.69,141.78c1.82-.32,7.61.48,7.61.48l4.29,2.93,2.94,5.3v8C732.5,160.1,723,155.51,726.69,141.78ZM720,193.84l8.07.67,2.88,2.53.87,3.6-.4,6.69-2.78,3.46-2.73,1.31-3.69-1.44-2.43-3.14ZM719.22,349l2.17-3.23,2.81-1.83h2.62l2.41,1.45,2,2.77.59,2.9,0,6.27-.91,2.7-2.06,2.18-2.89,1.09L720,363l-.74-2.08ZM541.09,159.36l2.48-8.06,3.39-3.44,3.62,3.67,3-1.7,3.25-3.26-3.57-4.73,8.2-3.43,8.8-.73,2.32.44-1.46,5,7.44,2.49,1.61-4.39,5.19,3,3.69,3.84,3.69,6.68-4.35,1,2.7,8.27,3.08-1.13.72,2.81-2,9.49-3.4,6-3.35-3.08-5.5,4.28-.22,1.29,2.91,3.48-8.68,4-9.76.75,1.13-5.2-4.15-2-3.46-.83-2.18,5.61-7.45-5.14-5.7-8v-1.83l5.47-1.21-.16-4.15L547,165.67,540.6,167Zm0,228,1.21-2.77,5.06,3,1.17-1.45,1.85-3.6.59-2.18-1.69-1.14-3.47-2.06,2.61-3.56,4.53-3.7s4.75-2.09,4.89-2.14l4.44-1.27.48,4.37.41,1.32.91.5,6.88-.82.39-2.67-.4-3.31,10.62,3.41,6.86,5.76-4.23,3.31,4.23,6.35,4.48-2.32,1.9,7.64v5.35l-1,5.19-.26.83-1.9-1-1.83-.58-1.92,1.56-1.55,2.9-.27,2.29,1.67,1.37,1.47,1.07-1.95,2.63-4.33,3.62s-4.31,2.88-4.61,2.75a34,34,0,0,0-4.47,1.18L574,416l-.23-1.59h-1.23l-6,.42s-.94.25-.94.57.08,2.51.08,2.51l-.25,1.91-4.5-.76-7-2.61-5.24-4.61,1.95-1.9,2.42-1.74-2.58-3.41-2.1-3-4.85,2.88-3.23-10.36Z"
                    fill="#00a8eb" stroke="#0009b5" stroke-miterlimit="10" />
                <path
                    d="M753.86,88V17.14S752.68,5.8,742.51,5.41s-16.43,0-16.43,0L723,1.89H636.08l-3.67,3.66L426.55,4.23C409.14,5,406.6,12.65,406.6,22.62s-1.27,512.28-1.27,512.28c0,18.78,7.63,21.72,23.47,21.13s204.25-1.76,204.25-1.76,1.74,2.82,2.47,3,86,1.32,87.72,0a40.4,40.4,0,0,0,3.37-3l16.85-.37c13.14-.29,13.15-13,13.14-20V471l1.95-9.26L756.2,93.05Z"
                    fill="none" stroke="#0009b5" stroke-miterlimit="10" />
                <circle cx="723.06" cy="498.08" r="4.44" fill="none" stroke="#0009b5" stroke-miterlimit="10" />
                <circle cx="722.69" cy="497.71" r="10.27" fill="none" stroke="#0009b5" stroke-miterlimit="10" />
                <circle cx="722.47" cy="497.93" r="24.21" fill="none" stroke="#0009b5" stroke-miterlimit="10" />
                <circle cx="738.47" cy="410.9" r="12.52" fill="none" stroke="#0009b5" stroke-miterlimit="10" />
                <path d="M739.08,398.38a12.52,12.52,0,0,1-9.22,21l-.63,0" fill="none" stroke="#0009b5"
                    stroke-miterlimit="10" />
                <circle cx="693.4" cy="278.52" r="9.78" fill="none" stroke="#0009b5" stroke-miterlimit="10" />
                <circle cx="737.62" cy="147.05" r="12.13" fill="none" stroke="#0009b5" stroke-miterlimit="10" />
                <path d="M726.69,141.78a12.14,12.14,0,0,1,14,17" fill="none" stroke="#0009b5" stroke-miterlimit="10" />
                <circle cx="720.99" cy="62.14" r="4.79" fill="none" stroke="#0009b5" stroke-miterlimit="10" />
                <circle cx="720.99" cy="62.14" r="11.35" fill="none" stroke="#0009b5" stroke-miterlimit="10" />
                <circle cx="719.77" cy="63.36" r="23.62" fill="none" stroke="#0009b5" stroke-miterlimit="10" />
                <circle cx="738.53" cy="22.82" r="8.02" fill="none" stroke="#0009b5" stroke-miterlimit="10" />
                <circle cx="740.17" cy="537.71" r="8.02" fill="none" stroke="#0009b5" stroke-miterlimit="10" />
                <circle cx="422.21" cy="539.5" r="8.02" fill="none" stroke="#0009b5" stroke-miterlimit="10" />
                <rect x="719.22" y="343.43" width="20.26" height="23.97" rx="7.62"
                    transform="translate(1458.7 710.82) rotate(180)" fill="none" stroke="#0009b5" stroke-miterlimit="10" />
                <path d="M725.52,343.54a7.61,7.61,0,0,1,6.26,7.48v5.49a6.8,6.8,0,0,1-6.81,6.81h-3a7.3,7.3,0,0,1-2-.28"
                    fill="none" stroke="#0009b5" stroke-miterlimit="10" />
                <rect x="719.22" y="190.1" width="20.26" height="22" rx="7.3"
                    transform="translate(1458.7 402.2) rotate(180)" fill="none" stroke="#0009b5" stroke-miterlimit="10" />
                <path d="M725.52,212a7.18,7.18,0,0,0,6.26-6.87v-5a6.54,6.54,0,0,0-6.81-6.25h-3a8.59,8.59,0,0,0-2,.25"
                    fill="none" stroke="#0009b5" stroke-miterlimit="10" />
                <circle cx="422.17" cy="21.22" r="8.72" fill="none" stroke="#0009b5" stroke-miterlimit="10" />
                <path
                    d="M619.06,544.59c22.5-8.44,46.38-23.66,57.32-36.61,5.53-6.53,17.43-.24,11,9-3.74,5.36-28.32,24-30.74,24.29s-17.24-.81-19.37.07-12.4,6.09-14.89,6.38-4.84.81-5.65-.66S619.06,544.59,619.06,544.59Z"
                    fill="none" stroke="#0009b5" stroke-miterlimit="10" />
                <path
                    d="M619.06,15.52c22.5,8.13,46.38,22.79,57.32,35.27,5.53,6.29,17.43.23,11-8.69C683.6,36.94,659,19,656.6,18.7s-17.24.77-19.37-.07-12.4-5.87-14.89-6.15-4.84-.78-5.65.63S619.06,15.52,619.06,15.52Z"
                    fill="none" stroke="#0009b5" stroke-miterlimit="10" />
                <path
                    d="M753.86,88s-70.92,13.64-79.43,16.72c-7.07,2.56-6.83,10.81-6.75,16.44.07,5.29,1.52,312.81,1.46,322.21-.06,9.89,5.58,11.13,12.33,12.33,6.1,1.08,75.13,16.73,75.13,16.73"
                    fill="none" stroke="#0009b5" stroke-miterlimit="10" />
                <path d="M756.21,94.54l-79.42,15.82s-4,.81-3.23,8.33" fill="none" stroke="#0009b5" stroke-miterlimit="10" />
                <path d="M624.35,48.08l-1.17,310.68a2.55,2.55,0,0,0,2.55,2.56h27.13a2,2,0,0,0,2-2V47.3" fill="none"
                    stroke="#0009b5" stroke-miterlimit="10" />
                <path
                    d="M661.52,55.89c-.17-6-1.7-8.59-7.76-8.59l-210.69-.56c-7.45,0-6.34,5.23-6.2,14.23.19,11.44-1.61,431.09-1.61,441.21s-.73,10.42,8.51,11,200.09-.06,207.88-.32,9.21-1.88,9.28-8.58c0,0,.68-440,.59-448.4"
                    fill="none" stroke="#0009b5" stroke-miterlimit="10" />
                <path
                    d="M525,111.53h84.72a7.7,7.7,0,0,1,7.7,7.7V439.61a7.7,7.7,0,0,1-7.7,7.7H523.31a7.7,7.7,0,0,1-7.7-7.7V121A9.43,9.43,0,0,1,525,111.53Z"
                    transform="translate(1133.08 558.85) rotate(180)" fill="none" stroke="#0009b5" stroke-miterlimit="10" />
                <path
                    d="M523,116.18h86.09a3.53,3.53,0,0,1,3.53,3.53V437.29a3.53,3.53,0,0,1-3.53,3.53H525.24a5.74,5.74,0,0,1-5.74-5.74V119.71A3.53,3.53,0,0,1,523,116.18Z"
                    transform="translate(1132.15 557) rotate(180)" fill="none" stroke="#0009b5" stroke-miterlimit="10" />
                <rect x="526.2" y="122.84" width="79.64" height="312.16" rx="4.45"
                    transform="translate(1132.04 557.85) rotate(180)" fill="none" stroke="#0009b5" stroke-miterlimit="10" />
                <polyline points="532.74 344.49 526.2 350.98 605.84 350.98 601.55 345.04" fill="none" stroke="#0009b5"
                    stroke-linejoin="bevel" />
                <line x1="605.84" y1="205.52" x2="526.2" y2="205.52" fill="none" stroke="#0009b5" stroke-miterlimit="10" />
                <line x1="526.2" y1="208.96" x2="605.84" y2="208.96" fill="none" stroke="#0009b5" stroke-miterlimit="10" />
                <path d="M605.84,218.06V216.9a4.65,4.65,0,0,0-4.65-4.65H530.85a4.65,4.65,0,0,0-4.65,4.65v3.39" fill="none"
                    stroke="#0009b5" stroke-miterlimit="10" />
                <path d="M603.43,212.83a61.9,61.9,0,0,1-69.92-.58" fill="none" stroke="#0009b5" stroke-miterlimit="10" />
                <path d="M594.19,212.25a53.69,53.69,0,0,1-50.62,0" fill="none" stroke="#0009b5" stroke-miterlimit="10" />
                <polyline points="572.33 218.48 571.97 212.25 586.04 212.25 587.49 215.25" fill="none" stroke="#0009b5"
                    stroke-miterlimit="10" />
                <circle cx="566.74" cy="161.58" r="38.33" fill="none" stroke="#0009b5" stroke-miterlimit="10" />
                <circle cx="567.72" cy="164.87" r="27.19" fill="none" stroke="#0009b5" stroke-miterlimit="10" />
                <ellipse cx="565.99" cy="162.09" rx="34.67" ry="34.12" fill="none" stroke="#0009b5"
                    stroke-miterlimit="10" />
                <circle cx="566.74" cy="395.99" r="38.33" fill="none" stroke="#0009b5" stroke-miterlimit="10" />
                <circle cx="567.72" cy="392.71" r="27.19" fill="none" stroke="#0009b5" stroke-miterlimit="10" />
                <ellipse cx="565.99" cy="395.48" rx="34.67" ry="34.12" fill="none" stroke="#0009b5"
                    stroke-miterlimit="10" />
                <path d="M605.84,301.74a142.8,142.8,0,0,1-79.8-1" fill="none" stroke="#0009b5" stroke-miterlimit="10" />
                <path d="M532.74,344.48a58.58,58.58,0,0,1,68.81.56Z" fill="none" stroke="#0009b5" stroke-linejoin="bevel" />
                <line x1="565.15" y1="282.59" x2="565.15" y2="337.28" fill="none" stroke="#0009b5" stroke-linecap="round"
                    stroke-miterlimit="10" />
                <line x1="565.15" y1="219.44" x2="565.15" y2="274.47" fill="none" stroke="#0009b5" stroke-linecap="round"
                    stroke-miterlimit="10" />
                <line x1="571.25" y1="321.39" x2="559.21" y2="321.39" fill="none" stroke="#0009b5" stroke-linecap="round"
                    stroke-miterlimit="10" />
                <line x1="571.25" y1="310.74" x2="559.21" y2="310.74" fill="none" stroke="#0009b5" stroke-linecap="round"
                    stroke-miterlimit="10" />
                <line x1="571.25" y1="300.09" x2="559.21" y2="300.09" fill="none" stroke="#0009b5" stroke-linecap="round"
                    stroke-miterlimit="10" />
                <line x1="571.25" y1="289.25" x2="559.21" y2="289.25" fill="none" stroke="#0009b5" stroke-linecap="round"
                    stroke-miterlimit="10" />
                <line x1="571.25" y1="256.8" x2="559.21" y2="256.8" fill="none" stroke="#0009b5" stroke-linecap="round"
                    stroke-miterlimit="10" />
                <line x1="571.25" y1="245.87" x2="559.21" y2="245.87" fill="none" stroke="#0009b5" stroke-linecap="round"
                    stroke-miterlimit="10" />
                <line x1="571.25" y1="235.11" x2="559.21" y2="235.11" fill="none" stroke="#0009b5" stroke-linecap="round"
                    stroke-miterlimit="10" />
                <line x1="571.25" y1="267.37" x2="559.21" y2="267.37" fill="none" stroke="#0009b5" stroke-linecap="round"
                    stroke-miterlimit="10" />
                <ellipse cx="565.05" cy="278.31" rx="3.45" ry="3.67" fill="none" stroke="#0009b5" stroke-linecap="round"
                    stroke-miterlimit="10" />
                <line x1="561.59" y1="278.31" x2="541.34" y2="278.31" fill="none" stroke="#0009b5" stroke-linecap="round"
                    stroke-miterlimit="10" />
                <line x1="568.5" y1="278.31" x2="588.74" y2="278.31" fill="none" stroke="#0009b5" stroke-linecap="round"
                    stroke-miterlimit="10" />
                <line x1="610.93" y1="111.53" x2="610.93" y2="47.98" fill="none" stroke="#0009b5" stroke-miterlimit="10" />
                <line x1="606.88" y1="111.53" x2="606.88" y2="47.98" fill="none" stroke="#0009b5" stroke-miterlimit="10" />
                <line x1="602.84" y1="111.53" x2="602.84" y2="47.98" fill="none" stroke="#0009b5" stroke-miterlimit="10" />
                <line x1="598.8" y1="111.53" x2="598.8" y2="47.98" fill="none" stroke="#0009b5" stroke-miterlimit="10" />
                <line x1="594.75" y1="111.53" x2="594.75" y2="47.98" fill="none" stroke="#0009b5" stroke-miterlimit="10" />
                <line x1="538.44" y1="111.53" x2="538.44" y2="47.98" fill="none" stroke="#0009b5" stroke-miterlimit="10" />
                <line x1="534.4" y1="111.53" x2="534.4" y2="47.98" fill="none" stroke="#0009b5" stroke-miterlimit="10" />
                <line x1="530.36" y1="111.53" x2="530.36" y2="47.98" fill="none" stroke="#0009b5" stroke-miterlimit="10" />
                <line x1="526.31" y1="111.53" x2="526.31" y2="47.98" fill="none" stroke="#0009b5" stroke-miterlimit="10" />
                <line x1="522.27" y1="111.53" x2="522.27" y2="47.98" fill="none" stroke="#0009b5" stroke-miterlimit="10" />
                <line x1="610.32" y1="513.3" x2="610.32" y2="447.31" fill="none" stroke="#0009b5" stroke-miterlimit="10" />
                <line x1="606.28" y1="513.3" x2="606.28" y2="447.31" fill="none" stroke="#0009b5" stroke-miterlimit="10" />
                <line x1="602.23" y1="513.3" x2="602.23" y2="447.31" fill="none" stroke="#0009b5" stroke-miterlimit="10" />
                <line x1="598.19" y1="513.3" x2="598.19" y2="447.31" fill="none" stroke="#0009b5" stroke-miterlimit="10" />
                <line x1="594.15" y1="513.3" x2="594.15" y2="447.31" fill="none" stroke="#0009b5" stroke-miterlimit="10" />
                <line x1="537.68" y1="513.3" x2="537.68" y2="447.31" fill="none" stroke="#0009b5" stroke-miterlimit="10" />
                <line x1="533.52" y1="513.3" x2="533.52" y2="447.31" fill="none" stroke="#0009b5" stroke-miterlimit="10" />
                <line x1="529.37" y1="513.3" x2="529.37" y2="447.31" fill="none" stroke="#0009b5" stroke-miterlimit="10" />
                <line x1="525.21" y1="513.3" x2="525.21" y2="447.31" fill="none" stroke="#0009b5" stroke-miterlimit="10" />
                <line x1="521.06" y1="513.3" x2="521.06" y2="447.31" fill="none" stroke="#0009b5" stroke-miterlimit="10" />
                <line x1="491.9" y1="513.3" x2="493.07" y2="47.11" fill="none" stroke="#0009b5" stroke-miterlimit="10" />
                <path d="M623.17,513.08V486.19a2.29,2.29,0,0,1,2.26-2.29l26.49-.43a2.22,2.22,0,0,1,2.27,2.22v26.62"
                    fill="none" stroke="#0009b5" stroke-miterlimit="10" />
                <path d="M757.64,318.27h-33.7a3,3,0,0,1-3-2.95l-.2-77.73a2.47,2.47,0,0,1,2.47-2.48H756.6" fill="none"
                    stroke="#0009b5" stroke-miterlimit="10" />
                <polyline points="574.33 475.12 556.74 481.96 574.33 488.95" fill="none" stroke="#0009b5"
                    stroke-linejoin="bevel" />
                <line x1="567.94" y1="477.61" x2="567.94" y2="486.41" fill="none" stroke="#0009b5"
                    stroke-linejoin="bevel" />
                <path d="M574,419.15l-.18-3.92a.89.89,0,0,0-.94-.84l-6.51.43a.86.86,0,0,0-.8.89l.15,4.09" fill="none"
                    stroke="#0009b5" stroke-miterlimit="10" />
                <path d="M548.39,411.82l3.9-2.84a.91.91,0,0,0,.21-1.24l-3.69-5.45a.79.79,0,0,0-1.07-.23l-4.39,2.7"
                    fill="none" stroke="#0009b5" stroke-miterlimit="10" />
                <path d="M541.74,384.69l5,2.55a1,1,0,0,0,1.39-.45l2.78-5.4a1.13,1.13,0,0,0-.46-1.51l-5.06-2.72" fill="none"
                    stroke="#0009b5" stroke-miterlimit="10" />
                <path d="M562.25,366.07l.56,5.57a1.15,1.15,0,0,0,1.22,1l6-.38a1.42,1.42,0,0,0,1.33-1.54l-.42-5.06"
                    fill="none" stroke="#0009b5" stroke-miterlimit="10" />
                <path d="M588.4,375.05l-3.86,2.81a1,1,0,0,0-.25,1.44l3.31,4.84a1.45,1.45,0,0,0,2,.4l3.3-2.15" fill="none"
                    stroke="#0009b5" stroke-miterlimit="10" />
                <path d="M593.49,401.4l-3.41-1.76a.65.65,0,0,0-.87.26l-3.48,6.18a.62.62,0,0,0,.22.83l3.51,2.12" fill="none"
                    stroke="#0009b5" stroke-miterlimit="10" />
                <path d="M580.19,141.21,579.07,145a.87.87,0,0,1-1.11.59l-6.21-2a.85.85,0,0,1-.57-1.05l1.12-3.93" fill="none"
                    stroke="#0009b5" stroke-miterlimit="10" />
                <path d="M553.53,142.21l3.11,3.69a.91.91,0,0,1-.09,1.26l-4.88,4.41a.78.78,0,0,1-1.09,0L547,147.86"
                    fill="none" stroke="#0009b5" stroke-miterlimit="10" />
                <path d="M540.6,167l5.49-1.28a1.05,1.05,0,0,1,1.25.78l1.41,5.9a1.12,1.12,0,0,1-.81,1.35l-5.56,1.44"
                    fill="none" stroke="#0009b5" stroke-miterlimit="10" />
                <path d="M556.08,190l1.87-5.28a1.15,1.15,0,0,1,1.43-.72l5.7,1.8a1.4,1.4,0,0,1,.92,1.8l-1.6,4.82" fill="none"
                    stroke="#0009b5" stroke-miterlimit="10" />
                <path d="M583.61,187.46l-3.07-3.65a1,1,0,0,1,.1-1.45l4.37-3.91a1.43,1.43,0,0,1,2,.08l2.7,2.88" fill="none"
                    stroke="#0009b5" stroke-miterlimit="10" />
                <path d="M594.84,163.09l-3.73.9a.66.66,0,0,1-.78-.46l-1.9-6.84a.61.61,0,0,1,.41-.75l3.92-1.22" fill="none"
                    stroke="#0009b5" stroke-miterlimit="10" />
                <path
                    d="M643.07,70.71a1.94,1.94,0,0,0,1.76-1,2.22,2.22,0,0,0,.26-1.06,2.38,2.38,0,0,0-.92-1.88,7.45,7.45,0,0,0-3.73-1.1A2.77,2.77,0,0,1,641.58,67a4,4,0,0,1,.33,1.62,3.63,3.63,0,0,1-1.1,2.8,4,4,0,0,1-2.83,1,4.53,4.53,0,0,1-2.93-1,3.58,3.58,0,0,1-1.27-3,3.68,3.68,0,0,1,2.41-3.69,8.4,8.4,0,0,1,3.31-.57,10.88,10.88,0,0,1,4,.68,3.89,3.89,0,0,1,2.89,3.79,3.65,3.65,0,0,1-.94,2.72,3.2,3.2,0,0,1-2.36.93Zm-3.11-4a2.52,2.52,0,0,0-2.1-.76,2.7,2.7,0,0,0-2,.68,2.34,2.34,0,0,0-.67,1.73,2.27,2.27,0,0,0,.76,1.79,3,3,0,0,0,2,.66,2.88,2.88,0,0,0,1.9-.58,2.26,2.26,0,0,0,.7-1.85A2.61,2.61,0,0,0,640,66.71Z"
                    fill="#0009b5" />
                <path
                    d="M635.76,55.14a8.66,8.66,0,0,1,4.14-.82,10,10,0,0,1,4.12.74,3.64,3.64,0,0,1,2.34,3.52,3.52,3.52,0,0,1-1.91,3.28,8.74,8.74,0,0,1-4.29.9,10.58,10.58,0,0,1-3.58-.54,3.69,3.69,0,0,1-2.78-3.65A3.61,3.61,0,0,1,635.76,55.14Zm8.14,1.55A7.56,7.56,0,0,0,640,56a9.77,9.77,0,0,0-3.43.51,1.94,1.94,0,0,0-1.35,2,2.1,2.1,0,0,0,1.28,2,9,9,0,0,0,3.76.62,9.2,9.2,0,0,0,3-.4,2.19,2.19,0,0,0,1.73-2.1A2.17,2.17,0,0,0,643.9,56.69Z"
                    fill="#0009b5" />
            </g>
        </a>

        <a href="../Website/cd.html" target="_top">
            <g id="Cd">
                <path
                    d="M1411.32,18v519.9c0,17.13-4.82,20-20.69,20H844.91V544.41H839v13.52H789.65a15.4,15.4,0,0,1-15.4-15.4V17.16a15.41,15.41,0,0,1,15.4-15.4l606.27.88a15.39,15.39,0,0,1,15.4,15.4"
                    fill="#ffa4ba" stroke="#890050" stroke-miterlimit="10" />
                <circle cx="1113.15" cy="282.98" r="63.9" fill="none" stroke="#890050" stroke-miterlimit="10" />
                <path d="M1137.15,337a55.64,55.64,0,0,1-48.24-.12" fill="none" stroke="#890050" stroke-miterlimit="10" />
                <path
                    d="M854.11,172h-7a4.25,4.25,0,0,1-4.25-4.26l0-19.53c21.89-4.89,26.16-24.17,26.16-28.37,0-16.83-13.75-30.47-38.34-30.47V287.14"
                    fill="none" stroke="#890050" stroke-miterlimit="10" />
                <path
                    d="M880.29,123.82c7.85.31,14.92-13.33,14.92-13.33-3.89,7.73-8.7,11.23-12.93,10.67-21.53-2.89-4.46-70.76,12.33-86l-1,1C910.27,21.74,978.27,13,978.67,34c.08,4.13-3.86,8.36-11.82,11.22,0,0,14-4.91,14-14.12"
                    fill="none" stroke="#890050" stroke-linejoin="bevel" />
                <path d="M978.51,32.48A263.47,263.47,0,0,1,1026,11" fill="none" stroke="#890050" stroke-linejoin="bevel" />
                <path d="M846.66,97.56c9.92,2.06,17.39,11.16,17.39,22.06s-7.48,20-17.41,22.06Z" fill="none" stroke="#890050"
                    stroke-miterlimit="10" />
                <rect x="781.5" y="69.66" width="41.83" height="420.39" fill="none" stroke="#890050"
                    stroke-linejoin="bevel" />
                <path d="M780,49.3H832.1V6.73H792.05a12,12,0,0,0-12,12Z" fill="none" stroke="#890050"
                    stroke-linejoin="bevel" />
                <line x1="777.73" y1="43.27" x2="782.01" y2="43.27" fill="none" stroke="#890050" stroke-linejoin="bevel" />
                <line x1="777.73" y1="39.86" x2="782.01" y2="39.86" fill="none" stroke="#890050" stroke-linejoin="bevel" />
                <line x1="777.73" y1="36.46" x2="782.01" y2="36.46" fill="none" stroke="#890050" stroke-linejoin="bevel" />
                <line x1="777.73" y1="33.06" x2="782.01" y2="33.06" fill="none" stroke="#890050" stroke-linejoin="bevel" />
                <line x1="777.73" y1="29.65" x2="782.01" y2="29.65" fill="none" stroke="#890050" stroke-linejoin="bevel" />
                <line x1="777.73" y1="26.25" x2="782.01" y2="26.25" fill="none" stroke="#890050" stroke-linejoin="bevel" />
                <line x1="777.73" y1="22.84" x2="782.01" y2="22.84" fill="none" stroke="#890050" stroke-linejoin="bevel" />
                <line x1="777.73" y1="19.44" x2="782.01" y2="19.44" fill="none" stroke="#890050" stroke-linejoin="bevel" />
                <line x1="790.42" y1="6.73" x2="793.69" y2="1.77" fill="none" stroke="#890050" stroke-linejoin="bevel" />
                <line x1="794.6" y1="6.73" x2="797.87" y2="1.77" fill="none" stroke="#890050" stroke-linejoin="bevel" />
                <line x1="798.78" y1="6.73" x2="802.05" y2="1.77" fill="none" stroke="#890050" stroke-linejoin="bevel" />
                <line x1="802.97" y1="6.73" x2="806.24" y2="1.77" fill="none" stroke="#890050" stroke-linejoin="bevel" />
                <line x1="807.15" y1="6.73" x2="810.42" y2="1.77" fill="none" stroke="#890050" stroke-linejoin="bevel" />
                <line x1="811.33" y1="6.73" x2="814.6" y2="1.77" fill="none" stroke="#890050" stroke-linejoin="bevel" />
                <line x1="815.51" y1="6.73" x2="818.78" y2="1.77" fill="none" stroke="#890050" stroke-linejoin="bevel" />
                <line x1="819.69" y1="6.73" x2="822.96" y2="1.77" fill="none" stroke="#890050" stroke-linejoin="bevel" />
                <line x1="823.88" y1="6.73" x2="827.15" y2="1.77" fill="none" stroke="#890050" stroke-linejoin="bevel" />
                <line x1="828.06" y1="6.73" x2="831.33" y2="1.77" fill="none" stroke="#890050" stroke-linejoin="bevel" />
                <line x1="832.24" y1="6.73" x2="835.51" y2="1.77" fill="none" stroke="#890050" stroke-linejoin="bevel" />
                <path
                    d="M890.15,15.29H855.34v46H780V56.68h58.89s0-6.31,0-5.93V41.14H835.1V36.91H839V19.52l-3.86-.06V15.27H839C839,9.76,842,7.4,849.12,7.4v3.53L1026,11h367a8.19,8.19,0,0,1,8.19,8.19V542.89a5.86,5.86,0,0,1-5.86,5.86l-19.39,0-176.84,0"
                    fill="none" stroke="#890050" stroke-miterlimit="10" />
                <rect x="833.06" y="77.77" width="5.73" height="4.04" fill="none" stroke="#890050" stroke-miterlimit="10" />
                <rect x="833.06" y="69.66" width="5.73" height="4.04" fill="none" stroke="#890050" stroke-miterlimit="10" />
                <path
                    d="M882.55,438.47c-13.88-15.16-21.16-34.51-25-42.9h-9.38c-1.9,0-1.9-4.15,0-4.15h12.5C850.75,368.08,837,353.69,837,287.14c0-68,13.75-95.51,23.68-118.85h-12.5c-1.9,0-1.9-4.15,0-4.15h9.38c3.83-8.4,11.11-27.74,25-42.91"
                    fill="none" stroke="#890050" stroke-miterlimit="10" />
                <path
                    d="M854.11,387.68h-7a4.24,4.24,0,0,0-4.25,4.25l0,19.54c21.89,4.89,26.16,24.17,26.16,28.37,0,16.82-13.75,30.46-38.34,30.46V272.56"
                    fill="none" stroke="#890050" stroke-miterlimit="10" />
                <path
                    d="M880.29,435.89c7.85-.32,14.92,13.32,14.92,13.32-3.89-7.73-8.7-11.23-12.93-10.66-21.53,2.88-4.46,70.76,12.33,86l-1-1c16.69,14.41,84.69,23.15,85.09,2.12.08-4.12-3.86-8.35-11.82-11.22,0,0,14,4.92,14,14.13"
                    fill="none" stroke="#890050" stroke-linejoin="bevel" />
                <path d="M978.51,527.22A262.76,262.76,0,0,0,1026,548.74" fill="none" stroke="#890050"
                    stroke-linejoin="bevel" />
                <line x1="839.62" y1="148.91" x2="845.15" y2="147.61" fill="none" stroke="#890050"
                    stroke-linejoin="bevel" />
                <line x1="845.15" y1="412.09" x2="839.62" y2="410.8" fill="none" stroke="#890050" stroke-linejoin="bevel" />
                <path d="M846.66,462.14a22.3,22.3,0,0,0,17.39-22.06c0-10.91-7.48-20-17.41-22.06Z" fill="none"
                    stroke="#890050" stroke-miterlimit="10" />
                <path d="M780,510.41H832.1V553H792.05a12,12,0,0,1-12-12Z" fill="none" stroke="#890050"
                    stroke-linejoin="bevel" />
                <line x1="777.73" y1="516.44" x2="782.01" y2="516.44" fill="none" stroke="#890050"
                    stroke-linejoin="bevel" />
                <line x1="777.73" y1="519.84" x2="782.01" y2="519.84" fill="none" stroke="#890050"
                    stroke-linejoin="bevel" />
                <line x1="777.73" y1="523.24" x2="782.01" y2="523.24" fill="none" stroke="#890050"
                    stroke-linejoin="bevel" />
                <line x1="777.73" y1="526.65" x2="782.01" y2="526.65" fill="none" stroke="#890050"
                    stroke-linejoin="bevel" />
                <line x1="777.73" y1="530.05" x2="782.01" y2="530.05" fill="none" stroke="#890050"
                    stroke-linejoin="bevel" />
                <line x1="777.73" y1="533.46" x2="782.01" y2="533.46" fill="none" stroke="#890050"
                    stroke-linejoin="bevel" />
                <line x1="777.73" y1="536.86" x2="782.01" y2="536.86" fill="none" stroke="#890050"
                    stroke-linejoin="bevel" />
                <line x1="777.73" y1="540.27" x2="782.01" y2="540.27" fill="none" stroke="#890050"
                    stroke-linejoin="bevel" />
                <line x1="790.42" y1="552.98" x2="793.69" y2="557.93" fill="none" stroke="#890050"
                    stroke-linejoin="bevel" />
                <line x1="794.6" y1="552.98" x2="797.87" y2="557.93" fill="none" stroke="#890050" stroke-linejoin="bevel" />
                <line x1="798.78" y1="552.98" x2="802.05" y2="557.93" fill="none" stroke="#890050"
                    stroke-linejoin="bevel" />
                <line x1="802.97" y1="552.98" x2="806.24" y2="557.93" fill="none" stroke="#890050"
                    stroke-linejoin="bevel" />
                <line x1="807.15" y1="552.98" x2="810.42" y2="557.93" fill="none" stroke="#890050"
                    stroke-linejoin="bevel" />
                <line x1="811.33" y1="552.98" x2="814.6" y2="557.93" fill="none" stroke="#890050" stroke-linejoin="bevel" />
                <line x1="815.51" y1="552.98" x2="818.78" y2="557.93" fill="none" stroke="#890050"
                    stroke-linejoin="bevel" />
                <line x1="819.69" y1="552.98" x2="822.96" y2="557.93" fill="none" stroke="#890050"
                    stroke-linejoin="bevel" />
                <line x1="823.88" y1="552.98" x2="827.15" y2="557.93" fill="none" stroke="#890050"
                    stroke-linejoin="bevel" />
                <line x1="828.06" y1="552.98" x2="831.33" y2="557.93" fill="none" stroke="#890050"
                    stroke-linejoin="bevel" />
                <line x1="832.24" y1="552.98" x2="835.51" y2="557.93" fill="none" stroke="#890050"
                    stroke-linejoin="bevel" />
                <line x1="838.96" y1="522.8" x2="838.96" y2="540.18" fill="none" stroke="#890050" stroke-miterlimit="10" />
                <path d="M890.15,544.41H855.34V498.47H780V503h58.89s0,6.3,0,5.93v9.6H835.1" fill="none" stroke="#890050"
                    stroke-miterlimit="10" />
                <rect x="833.06" y="477.89" width="5.73" height="4.04" fill="none" stroke="#890050"
                    stroke-miterlimit="10" />
                <rect x="833.06" y="486.01" width="5.73" height="4.04" fill="none" stroke="#890050"
                    stroke-miterlimit="10" />
                <path
                    d="M1370.94,172h7a4.25,4.25,0,0,0,4.25-4.26l0-19.53c-21.89-4.89-26.17-24.17-26.17-28.37,0-16.83,13.75-30.47,38.34-30.47V287.14"
                    fill="none" stroke="#890050" stroke-miterlimit="10" />
                <path
                    d="M1344.76,123.82c-7.85.31-14.92-13.33-14.92-13.33,3.89,7.73,8.7,11.23,12.93,10.67,21.53-2.89,4.47-70.76-12.32-86l1,1c-16.7-14.42-84.7-23.15-85.1-2.13-.08,4.13,3.86,8.36,11.82,11.22,0,0-14-4.91-14-14.12"
                    fill="none" stroke="#890050" stroke-linejoin="bevel" />
                <path d="M1246.54,32.48A263.47,263.47,0,0,0,1199.09,11" fill="none" stroke="#890050"
                    stroke-linejoin="bevel" />
                <line x1="1385.43" y1="148.91" x2="1379.91" y2="147.61" fill="none" stroke="#890050"
                    stroke-linejoin="bevel" />
                <path d="M1378.4,97.56a22.68,22.68,0,0,0,0,44.12Z" fill="none" stroke="#890050" stroke-miterlimit="10" />
                <path
                    d="M1342.5,438.47c13.89-15.16,21.16-34.51,25-42.9h9.37c1.9,0,1.9-4.15,0-4.15h-12.5c9.93-23.34,21.06-37.73,21.06-104.28,0-68-11.13-95.51-21.06-118.85h12.5c1.9,0,1.9-4.15,0-4.15h-9.37c-3.84-8.4-11.11-27.74-25-42.91"
                    fill="none" stroke="#890050" stroke-miterlimit="10" />
                <path
                    d="M1370.94,387.68h7a4.24,4.24,0,0,1,4.25,4.25l0,19.54c-21.89,4.89-26.17,24.17-26.17,28.37,0,16.82,13.75,30.46,38.34,30.46V272.56"
                    fill="none" stroke="#890050" stroke-miterlimit="10" />
                <path
                    d="M1344.76,435.89c-7.85-.32-14.92,13.32-14.92,13.32,3.89-7.73,8.7-11.23,12.93-10.66,21.53,2.88,4.47,70.76-12.32,86l1-1c-16.7,14.41-84.7,23.15-85.1,2.12-.08-4.12,3.86-8.35,11.82-11.22,0,0-14,4.92-14,14.13"
                    fill="none" stroke="#890050" stroke-linejoin="bevel" />
                <path d="M1246.54,527.22a262.76,262.76,0,0,1-47.45,21.52" fill="none" stroke="#890050"
                    stroke-linejoin="bevel" />
                <line x1="1385.43" y1="410.8" x2="1379.91" y2="412.09" fill="none" stroke="#890050"
                    stroke-linejoin="bevel" />
                <path d="M1378.4,462.14a22.68,22.68,0,0,1,0-44.12Z" fill="none" stroke="#890050" stroke-miterlimit="10" />
                <polyline points="1363.11 10.96 1363.11 16.35 1389.09 16.35 1389.09 10.96" fill="none" stroke="#890050"
                    stroke-miterlimit="10" />
                <polyline points="1363.11 548.78 1363.11 543.39 1389.09 543.39 1389.09 548.78" fill="none" stroke="#890050"
                    stroke-miterlimit="10" />
                <path d="M1377.33,473.65a42.57,42.57,0,0,0,17,2.28v10.25h-17Z" fill="none" stroke="#890050"
                    stroke-miterlimit="10" />
                <path d="M1377.33,86a42.57,42.57,0,0,1,17-2.28V73.46h-17Z" fill="none" stroke="#890050"
                    stroke-miterlimit="10" />
                <path
                    d="M1102.5,317.16c-1.7,2.79-6.35,10.25-10.1,7.41-2.45-1.85,2-7.38,4.67-10.87a58.69,58.69,0,0,1-8.16-6.92,48.35,48.35,0,0,1-6.81-7.81c-3.49,2.66-9,7.12-10.87,4.67-2.84-3.75,4.62-8.4,7.41-10.1,6-4,15.15-8.1,18.95-8.1,6.75,0,13.05,5.5,13.05,12.25C1110.64,301.78,1106.2,310.71,1102.5,317.16Z"
                    fill="none" stroke="#890050" stroke-miterlimit="10" />
                <path d="M1099,306.78a28.13,28.13,0,0,1-10-9.56" fill="none" stroke="#890050" stroke-miterlimit="10" />
                <path
                    d="M1070.9,324.29c-13.06-14.1-11.87-16.12-2.85-25,.68-.62-.7,1.72-.7,2.7a5.54,5.54,0,0,0,5.53,5.54,5.1,5.1,0,0,0,1.88-.33l.08,0c15.42-7.1,20.1-19.88,26.48-13.27l.63.76c6.61,6.38-6.17,11.06-13.27,26.48l0,.08a5.1,5.1,0,0,0-.33,1.88,5.54,5.54,0,0,0,5.54,5.53c1,0,3.32-1.38,2.7-.7-8.9,9-10.92,10.21-25-2.85Z"
                    fill="none" stroke="#890050" stroke-miterlimit="10" />
                <path d="M1098.36,306.92a55.54,55.54,0,0,1-9.7-9.13" fill="none" stroke="#890050" stroke-miterlimit="10" />
                <path
                    d="M1123.55,317.16c1.7,2.79,6.35,10.25,10.11,7.41,2.44-1.85-2-7.38-4.67-10.87a58.69,58.69,0,0,0,8.16-6.92A48.9,48.9,0,0,0,1144,299c3.48,2.66,9,7.12,10.87,4.67,2.83-3.75-4.62-8.4-7.41-10.1-6-4-15.16-8.1-19-8.1-6.76,0-13,5.5-13,12.25C1115.42,301.78,1119.85,310.71,1123.55,317.16Z"
                    fill="none" stroke="#890050" stroke-miterlimit="10" />
                <path d="M1127.1,306.78a28.16,28.16,0,0,0,10.05-9.56" fill="none" stroke="#890050" stroke-miterlimit="10" />
                <path
                    d="M1155.15,324.29c13.07-14.1,11.88-16.12,2.85-25-.67-.62.71,1.72.71,2.7a5.54,5.54,0,0,1-5.54,5.54,5,5,0,0,1-1.87-.33l-.08,0c-15.43-7.1-20.11-19.88-26.48-13.27l-.64.76c-6.6,6.38,6.17,11.06,13.28,26.48l0,.08a5.09,5.09,0,0,1,.32,1.88,5.53,5.53,0,0,1-5.53,5.53c-1,0-3.32-1.38-2.7-.7,8.89,9,10.91,10.21,25-2.85Z"
                    fill="none" stroke="#890050" stroke-miterlimit="10" />
                <path d="M1127.69,306.92a55.19,55.19,0,0,0,9.7-9.13" fill="none" stroke="#890050" stroke-miterlimit="10" />
                <ellipse cx="1113.15" cy="318.55" rx="1.81" ry="3.01" fill="none" stroke="#890050" stroke-miterlimit="10" />
                <path d="M1109,319.48c0-3.87,1.88-7,4.2-7s4.2,3.13,4.2,7" fill="none" stroke="#890050"
                    stroke-miterlimit="10" />
                <path d="M1137.15,228.33a55.64,55.64,0,0,0-48.24.12" fill="none" stroke="#890050" stroke-miterlimit="10" />
                <path d="M1058.71,306.77a55.73,55.73,0,0,1,.12-48.24" fill="none" stroke="#890050" stroke-miterlimit="10" />
                <path d="M1167.35,306.77a55.73,55.73,0,0,0-.12-48.24" fill="none" stroke="#890050" stroke-miterlimit="10" />
                <path
                    d="M1102.5,248.13c-1.7-2.79-6.35-10.25-10.1-7.41-2.45,1.85,2,7.39,4.67,10.87a58.69,58.69,0,0,0-8.16,6.92,48.87,48.87,0,0,0-6.81,7.81c-3.49-2.66-9-7.12-10.87-4.67-2.84,3.76,4.62,8.4,7.41,10.11,6,4,15.15,8.09,18.95,8.09,6.75,0,13.05-5.5,13.05-12.25C1110.64,263.52,1106.2,254.58,1102.5,248.13Z"
                    fill="none" stroke="#890050" stroke-miterlimit="10" />
                <path d="M1099,258.51a28.22,28.22,0,0,0-10,9.56" fill="none" stroke="#890050" stroke-miterlimit="10" />
                <path
                    d="M1070.9,241c-13.06,14.11-11.87,16.13-2.85,25,.68.62-.7-1.72-.7-2.7a5.54,5.54,0,0,1,5.53-5.54,5.1,5.1,0,0,1,1.88.33l.08,0c15.42,7.1,20.1,19.88,26.48,13.27l.63-.76c6.61-6.37-6.17-11-13.27-26.48l0-.08a5,5,0,0,1-.33-1.87,5.54,5.54,0,0,1,5.54-5.54c1,0,3.32,1.38,2.7.71-8.9-9-10.92-10.22-25,2.85Z"
                    fill="none" stroke="#890050" stroke-miterlimit="10" />
                <path d="M1098.36,258.37a55.23,55.23,0,0,0-9.7,9.14" fill="none" stroke="#890050" stroke-miterlimit="10" />
                <path
                    d="M1123.55,248.13c1.7-2.79,6.35-10.25,10.11-7.41,2.44,1.85-2,7.39-4.67,10.87a58.69,58.69,0,0,1,8.16,6.92,49.43,49.43,0,0,1,6.81,7.81c3.48-2.66,9-7.12,10.87-4.67,2.83,3.76-4.62,8.4-7.41,10.11-6,4-15.16,8.09-19,8.09-6.76,0-13-5.5-13-12.25C1115.42,263.52,1119.85,254.58,1123.55,248.13Z"
                    fill="none" stroke="#890050" stroke-miterlimit="10" />
                <path d="M1127.1,258.51a28.25,28.25,0,0,1,10.05,9.56" fill="none" stroke="#890050" stroke-miterlimit="10" />
                <path
                    d="M1155.15,241c13.07,14.11,11.88,16.13,2.85,25-.67.62.71-1.72.71-2.7a5.54,5.54,0,0,0-5.54-5.54,5,5,0,0,0-1.87.33l-.08,0c-15.43,7.1-20.11,19.88-26.48,13.27l-.64-.76c-6.6-6.37,6.17-11,13.28-26.48l0-.08a5,5,0,0,0,.32-1.87,5.53,5.53,0,0,0-5.53-5.54c-1,0-3.32,1.38-2.7.71,8.89-9,10.91-10.22,25,2.85Z"
                    fill="none" stroke="#890050" stroke-miterlimit="10" />
                <path d="M1127.69,258.37a54.88,54.88,0,0,1,9.7,9.14" fill="none" stroke="#890050" stroke-miterlimit="10" />
                <ellipse cx="1113.15" cy="246.75" rx="1.81" ry="3.01" fill="none" stroke="#890050" stroke-miterlimit="10" />
                <path d="M1109,245.82c0,3.86,1.88,7,4.2,7s4.2-3.14,4.2-7" fill="none" stroke="#890050"
                    stroke-miterlimit="10" />
                <ellipse cx="1077.25" cy="282.65" rx="3.01" ry="1.81" fill="none" stroke="#890050" stroke-miterlimit="10" />
                <path d="M1076.32,278.44c3.87,0,7,1.89,7,4.21s-3.13,4.2-7,4.2" fill="none" stroke="#890050"
                    stroke-miterlimit="10" />
                <ellipse cx="1149.05" cy="282.65" rx="3.01" ry="1.81" fill="none" stroke="#890050" stroke-miterlimit="10" />
                <path d="M1150,278.44c-3.87,0-7,1.89-7,4.21s3.13,4.2,7,4.2" fill="none" stroke="#890050"
                    stroke-miterlimit="10" />
                <ellipse cx="1111.34" cy="281.43" rx="274.06" ry="274.03" fill="none" stroke="#890050"
                    stroke-miterlimit="10" />
                <ellipse cx="1111.34" cy="281.43" rx="266.44" ry="266.41" fill="none" stroke="#890050"
                    stroke-miterlimit="10" />
                <circle cx="1113.15" cy="282.98" r="70.07" fill="none" stroke="#890050" stroke-miterlimit="10" />
                <circle cx="1113.15" cy="282.98" r="99.56" fill="none" stroke="#890050" stroke-miterlimit="10" />
                <circle cx="1113.15" cy="282.98" r="87.21" fill="none" stroke="#890050" stroke-miterlimit="10" />
            </g>
        </a>

        <a href="../Website/download.html" target="_top">
            <g id="Nedladdning">
                <path d="M1554.14,558.74c0,.17.14.1.38-.15C1554.27,558.64,1554.14,558.69,1554.14,558.74Z" fill="#d67fc5"
                    stroke="#3e0079" stroke-miterlimit="10" />
                <path
                    d="M1618.47,518.36l8.61-10.22V167.43l-19.9-34.64H1589V1.87h-123.9l-.94,130.86h-17.88L1427,165.56V539.23l14.56,19h109.14l9.5-7.74s-4.38,6.75-5.71,8.11c5-.88,58.07.15,58.07.15l16-18.07v-28.5ZM1610,537.24l-8,8h-42.24V525.63a5.5,5.5,0,0,1,5.5-5.5H1610Z"
                    fill="#d67fc5" stroke="#3e0079" stroke-miterlimit="10" />
                <rect x="1481.89" y="57.5" width="26.91" height="22.46" rx="2.57" fill="none" stroke="#3e0079"
                    stroke-miterlimit="10" />
                <line x1="1495.34" y1="57.5" x2="1495.34" y2="79.97" fill="none" stroke="#3e0079" stroke-miterlimit="10" />
                <line x1="1491.89" y1="79.97" x2="1491.89" y2="57.5" fill="none" stroke="#3e0079" stroke-miterlimit="10" />
                <line x1="1488.44" y1="57.5" x2="1488.44" y2="79.97" fill="none" stroke="#3e0079" stroke-miterlimit="10" />
                <line x1="1484.99" y1="57.5" x2="1484.99" y2="79.97" fill="none" stroke="#3e0079" stroke-miterlimit="10" />
                <rect x="1545.84" y="57.5" width="26.91" height="22.46" rx="2.57" fill="none" stroke="#3e0079"
                    stroke-miterlimit="10" />
                <line x1="1559.29" y1="57.5" x2="1559.29" y2="79.97" fill="none" stroke="#3e0079" stroke-miterlimit="10" />
                <line x1="1562.74" y1="79.97" x2="1562.74" y2="57.5" fill="none" stroke="#3e0079" stroke-miterlimit="10" />
                <line x1="1566.19" y1="57.5" x2="1566.19" y2="79.97" fill="none" stroke="#3e0079" stroke-miterlimit="10" />
                <line x1="1569.64" y1="57.5" x2="1569.64" y2="79.97" fill="none" stroke="#3e0079" stroke-miterlimit="10" />
                <rect x="1571.74" y="90.17" width="8.38" height="22.62" rx="4.19" fill="none" stroke="#3e0079"
                    stroke-linejoin="bevel" />
                <rect x="1473.51" y="90.17" width="8.38" height="22.62" rx="4.19" fill="none" stroke="#3e0079"
                    stroke-linejoin="bevel" />
                <path
                    d="M1549.58,112.09a5.48,5.48,0,0,0-2.79-.84,2.53,2.53,0,0,0-2.84,2.6c0,1.89,1.6,2.69,3.25,2.69h1v1.37h-1c-1.24,0-2.81.68-2.81,2.28a2,2,0,0,0,2.21,2,4.45,4.45,0,0,0,2.51-.89l.45,1.32a5.71,5.71,0,0,1-3.29,1c-2.48,0-3.6-1.57-3.6-3.2a3.31,3.31,0,0,1,2.32-3.17v0a3.43,3.43,0,0,1-2.8-3.46c0-2.15,1.56-4,4.58-4a6,6,0,0,1,3.27.91Z"
                    fill="#3e0079" />
                <path
                    d="M1540.05,110v1.12l-1.33,1.39c-3.21,3.27-4.67,5-4.68,7a2.32,2.32,0,0,0,2.49,2.63,4.18,4.18,0,0,0,2.67-1.13l.54,1.28a5.34,5.34,0,0,1-3.56,1.36,3.66,3.66,0,0,1-3.85-3.91c0-2.48,1.69-4.49,4.34-7.22l1-1v0H1532V110Z"
                    fill="#3e0079" />
                <path
                    d="M1519.6,110.62a11.42,11.42,0,0,1,4-.76,6.48,6.48,0,0,1,4.88,1.84,7.47,7.47,0,0,1,1.82,5.2c0,4.16-2.69,7.2-7.07,7.2a7.6,7.6,0,0,1-3.25-.64l.41-1.47a6.42,6.42,0,0,0,2.88.6c3.18,0,5.25-2.11,5.25-5.61s-2-5.63-5-5.63a5.15,5.15,0,0,0-2.25.37v4.16h2.65v1.45h-4.29Z"
                    fill="#3e0079" />
                <path
                    d="M1517,123.77a15.78,15.78,0,0,1-3.08.29,5.12,5.12,0,0,1-3.58-1,3,3,0,0,1-1.08-2.46,3.27,3.27,0,0,1,2.2-3.06v0a3.55,3.55,0,0,1-2.69-3.5,3.91,3.91,0,0,1,1.11-2.8c.91-.89,2.38-1.3,4.51-1.3a19,19,0,0,1,2.61.16Zm-1.69-5.72h-1.52c-1.78,0-2.83,1-2.83,2.34,0,1.64,1.16,2.28,2.86,2.28a6.94,6.94,0,0,0,1.49-.12Zm0-6.68a8.68,8.68,0,0,0-1.41-.08c-1.74,0-3.35.68-3.35,2.71s1.53,2.69,3.37,2.69h1.39Z"
                    fill="#3e0079" />
                <line x1="1464.15" y1="132.73" x2="1588.99" y2="132.73" fill="none" stroke="#3e0079"
                    stroke-miterlimit="10" />
                <polyline
                    points="1481.89 435.85 1481.89 168.93 1453.24 168.93 1453.24 435.85 1444.7 435.85 1444.7 168.93 1434.34 168.93 1433.86 444.15 1444.76 444.15 1444.76 540.91 1453.32 540.91 1453.32 444.15 1481.89 444.15 1481.89 540.91 1456.89 540.91"
                    fill="none" stroke="#3e0079" stroke-linejoin="bevel" />
                <polyline
                    points="1573.07 435.85 1573.07 168.93 1601.72 168.93 1601.72 435.85 1610.26 435.85 1610.26 168.93 1619.98 168.93 1620.13 444.46 1610.28 444.37 1610.28 508.26 1601.75 508.08 1601.75 444.19 1573.07 444.15 1573.07 507.7 1596.11 507.7"
                    fill="none" stroke="#3e0079" stroke-linejoin="bevel" />
                <rect x="1490.24" y="168.93" width="74.47" height="266.92" fill="none" stroke="#3e0079"
                    stroke-linejoin="bevel" />
                <path d="M1564.45,444.15H1490v96.77h60.52V512.18a4.61,4.61,0,0,1,4.5-4.71h9.45Z" fill="none"
                    stroke="#3e0079" stroke-linejoin="bevel" />
            </g>
        </a>

        <a href="../Website/streaming.html" target="_top">
            <g id="Streaming">
                <polyline points="1648.53 100.16 1644.24 100.16 1644.24 119.42 1648.53 119.42" fill="#ffec00"
                    stroke="#0e5200" stroke-miterlimit="10" />
                <polyline points="1648.53 138.25 1644.24 138.25 1644.24 175.62 1648.53 175.62" fill="#ffec00"
                    stroke="#0e5200" stroke-miterlimit="10" />
                <polyline points="1648.53 187.18 1644.24 187.18 1644.24 224.84 1648.53 224.84" fill="#ffec00"
                    stroke="#0e5200" stroke-miterlimit="10" />
                <polyline points="1914.51 163.91 1918.6 163.91 1918.6 225.44 1914.51 225.44" fill="#ffec00" stroke="#0e5200"
                    stroke-miterlimit="10" />
                <rect x="1648.53" y="1.87" width="265.97" height="556.96" rx="41.55"
                    transform="translate(3563.04 560.71) rotate(180)" fill="#ffec00" stroke="#0e5200"
                    stroke-miterlimit="10" />
                <rect x="1655.25" y="7.93" width="252.34" height="544.07" rx="38.89"
                    transform="translate(3562.84 559.92) rotate(180)" fill="none" stroke="#0e5200" stroke-miterlimit="10" />
                <rect x="1749.93" y="15.96" width="60.98" height="15.45" rx="6.74" fill="none" stroke="#0e5200"
                    stroke-miterlimit="10" />
                <rect x="1667.12" y="82.5" width="227.6" height="227.6" fill="none" stroke="#0e5200"
                    stroke-miterlimit="10" />
                <path
                    d="M1799.82,158.09a3.06,3.06,0,0,1,3.61,3.17l-.35,54.08s.37,6.89-9.41,8.69c-9.07,1.67-17.2-15.32,2.31-17.91a3.74,3.74,0,0,0,3.52-4.36l-.06-24a2.11,2.11,0,0,0-2.51-2.17L1771,181.81a2.25,2.25,0,0,0-1.65,2.22v37.84c0,10.84-19.61,13.7-19.46,2s13.82-9.31,15-11.8a7.62,7.62,0,0,0,.63-4.11V168.47a3,3,0,0,1,2.24-3Z"
                    fill="none" stroke="#0e5200" stroke-miterlimit="10" />
                <circle cx="1780.42" cy="458.54" r="24.21" fill="none" stroke="#0e5200" stroke-miterlimit="10" />
                <rect x="1771.79" y="448.72" width="5.08" height="19.64" fill="none" stroke="#0e5200"
                    stroke-miterlimit="10" />
                <rect x="1783.98" y="448.72" width="5.08" height="19.64" fill="none" stroke="#0e5200"
                    stroke-miterlimit="10" />
                <polygon
                    points="1844.29 448.72 1844.29 458 1830.1 448.72 1829.62 468.05 1844.29 458.45 1844.29 458.54 1844.29 468.36 1848.36 468.36 1848.36 448.72 1844.29 448.72"
                    fill="none" stroke="#0e5200" stroke-miterlimit="10" />
                <polygon
                    points="1716.56 448.72 1716.56 458 1730.75 448.72 1731.23 468.05 1716.56 458.45 1716.56 458.54 1716.56 468.36 1712.49 468.36 1712.49 448.72 1716.56 448.72"
                    fill="none" stroke="#0e5200" stroke-miterlimit="10" />
                <circle cx="1671.69" cy="395.4" r="4.57" fill="none" stroke="#0e5200" stroke-miterlimit="10" />
                <line x1="1676.26" y1="395.4" x2="1894.72" y2="395.4" fill="#ffec00" stroke="#0e5200"
                    stroke-miterlimit="10" />
                <path d="M1671.45,463.71c7.12,0,6.28-10.27,12.56-10.27" fill="none" stroke="#0e5200"
                    stroke-miterlimit="10" />
                <path d="M1671.55,453.66c7.13,0,6.28,10.27,12.56,10.27" fill="none" stroke="#0e5200"
                    stroke-miterlimit="10" />
                <polygon points="1684.01 450.05 1684.01 456.83 1687.03 453.44 1684.01 450.05" fill="#0e5200" />
                <polygon points="1888.44 468.57 1888.44 461.79 1885.42 465.18 1888.44 468.57" fill="#0e5200" />
                <polygon points="1684.01 460.59 1684.01 467.37 1687.03 463.98 1684.01 460.59" fill="#0e5200" />
                <path
                    d="M1886.93,465.18H1890a4.69,4.69,0,0,0,4.7-4.7v-4a4.69,4.69,0,0,0-4.7-4.69h-6.18a4.7,4.7,0,0,0-4.7,4.69v4a4.7,4.7,0,0,0,4.7,4.7"
                    fill="none" stroke="#0e5200" stroke-miterlimit="10" />
                <polyline points="1667.13 49.84 1673.13 55.84 1679.32 49.65" fill="#ffec00" stroke="#0e5200"
                    stroke-miterlimit="10" />
                <circle cx="1890.2" cy="47.19" r="1.43" fill="#0e5200" />
                <circle cx="1890.2" cy="51.99" r="1.43" fill="#0e5200" />
                <circle cx="1890.2" cy="56.79" r="1.43" fill="#0e5200" />
                <circle cx="1803.47" cy="23.69" r="3.29" fill="none" stroke="#0e5200" stroke-miterlimit="10" />
            </g>
        </a>

    </g>
</svg>