<svg xmlns="http://www.w3.org/2000/svg" viewBox="0 0 2121.55 560.32">
    <g id="_1280" data-name="1280">
        <a href="../Website/vinyl.html" target="_top">
            <g id="Vinyl">
            <path
                d="M195.47,1.89C91.61,2.41,7.58,86.71,7.58,190.62c0,2.31.12,6.9.12,6.9H383.24c.08-2.29.13-4.59.13-6.9C383.37,86.71,299.33,2.41,195.47,1.89ZM188.59,187.6c0-3.46,3.16-6.26,7-6.26s7,2.8,7,6.26Z"
                fill="#ffc533" stroke="#7d3600" stroke-miterlimit="10" />
            <path d="M194.49,1.87l1,0,1,0Z" fill="#ffc533" stroke="#7d3600" stroke-miterlimit="10" />
            <path
                d="M134.42,187.34a61.13,61.13,0,0,1,122.12,0l-54.75-.28c0-2.91-2.84-5.27-6.34-5.27h0c-3.5,0-6.34,2.36-6.34,5.27Z"
                fill="none" stroke="#7d3600" stroke-miterlimit="10" />
            <path d="M27.11,191.31C27.11,98.55,103,22.66,195.48,22.66S364.22,98.78,364.22,191.55" fill="none"
                stroke="#7d3600" stroke-miterlimit="10" />
            <path d="M195.47,14.62c94.39,0,177.26,80.5,175.42,178.86" fill="none" stroke="#7d3600"
                stroke-miterlimit="10" />
            <path d="M195.47,14.62c-94.38,0-177.25,80.5-175.41,178.86" fill="none" stroke="#7d3600"
                stroke-miterlimit="10" />
            <path d="M354.54,188.69c-2.47-89-73.64-157.11-159.06-157.11h0c-85.42,0-156.59,68.12-159.06,157.11"
                fill="none" stroke="#7d3600" stroke-miterlimit="10" />
            <path d="M376.94,195.42C381,95.32,296.75,7.72,195.67,7.72h-.48C94.1,7.72,9.83,95.32,13.92,195.42"
                fill="none" stroke="#7d3600" stroke-miterlimit="10" />
            <path d="M48,188C49.42,106.89,114.9,41.6,195.48,41.6S341.54,106.89,342.93,188" fill="none" stroke="#7d3600"
                stroke-miterlimit="10" />
            <path d="M333.64,188c-2.47-80.09-65.44-136-137.85-136.9h-.31C123.07,52,60.1,107.87,57.63,188" fill="none"
                stroke="#7d3600" stroke-miterlimit="10" />
            <path d="M67.11,187.75c1.52-69.92,58.41-126.12,128.37-126.12s126.85,56.2,128.37,126.11" fill="none"
                stroke="#7d3600" stroke-miterlimit="10" />
            <path d="M88.13,187.6c1.59-58.19,49.05-104.86,107.35-104.86S301.24,129.41,302.83,187.6" fill="none"
                stroke="#7d3600" stroke-miterlimit="10" />
            <path d="M99,188c1.44-52.27,44.06-94.2,96.44-94.2s95,41.93,96.44,94.2" fill="none" stroke="#7d3600"
                stroke-miterlimit="10" />
            <path d="M76.46,187.46c3.76-66.72,56.3-115,118.83-115h.19c62.52,0,115.07,48.27,118.83,115" fill="none"
                stroke="#7d3600" stroke-miterlimit="10" />
            <path d="M110.69,187.46c1.65-45.61,39-82.08,84.79-82.08s83.14,36.47,84.79,82.08" fill="none"
                stroke="#7d3600" stroke-miterlimit="10" />
            <path d="M131.81,187.06a63.75,63.75,0,0,1,127.34,0" fill="none" stroke="#7d3600" stroke-miterlimit="10"
                stroke-width="0.5" />
            <path d="M128.88,187.06a66.68,66.68,0,0,1,133.2,0" fill="none" stroke="#7d3600" stroke-miterlimit="10"
                stroke-width="0.5" />
            <path d="M125.72,187.28c1.94-37,32.43-66.57,69.76-66.57s67.82,29.55,69.76,66.57" fill="none"
                stroke="#7d3600" stroke-miterlimit="10" stroke-width="0.5" />
            <path d="M122.4,188c2-38.78,34-70.23,73.08-70.23s71,31.45,73.08,70.23" fill="none" stroke="#7d3600"
                stroke-miterlimit="10" stroke-width="0.5" />
            <path d="M119.58,187.27c2.11-40.24,35.25-72.49,75.83-72.49s73.73,32.25,75.84,72.49" fill="none"
                stroke="#7d3600" stroke-miterlimit="10" stroke-width="0.5" />
            <path d="M116.85,187.06c2.19-41.71,36.55-75.32,78.63-75.32s76.44,33.61,78.63,75.32" fill="none"
                stroke="#7d3600" stroke-miterlimit="10" stroke-width="0.5" />
            <path d="M113.48,187.06c2.28-43.5,38.12-78.47,82-78.47s79.72,35,82,78.47" fill="none" stroke="#7d3600"
                stroke-miterlimit="10" stroke-width="0.5" />
            <path
                d="M351.68,188.11c-2.72-.31-79-.73-156.21-1.05-77.2.32-153.49.74-156.21,1.05-5.52.64-37.94,11.41-37.94,11.41S2.2,544.77,2.78,545.25,50,555.69,60.58,558a20.73,20.73,0,0,0,4.23.44H322.53a54.35,54.35,0,0,0,11.37-1.2c14.81-3.17,53.79-11.54,54.26-11.94s1.46-345.73,1.46-345.73S357.21,188.75,351.68,188.11ZM197.89,433.45h-4.84c-36.2,0-66.25-27.27-66.25-63.57a65.48,65.48,0,0,1,.53-8.33l.18-1.1A175.08,175.08,0,0,0,195,374h1a175.13,175.13,0,0,0,67.49-13.59l.17,1.1a63.69,63.69,0,0,1,.54,8.33C264.15,406.18,234.09,433.45,197.89,433.45Z"
                fill="#ffc533" stroke="#7d3600" stroke-miterlimit="10" />
            <polygon points="195.46 187.06 195.47 187.06 195.48 187.06 195.46 187.06" fill="#ffc533" stroke="#7d3600"
                stroke-miterlimit="10" />
            <path
                d="M197.7,303.7c36.3,0,66.45,29.44,66.45,65.74S234,433,197.7,433h-4.46c-36.3,0-66.44-27.26-66.44-63.57s30.14-65.74,66.44-65.74Z"
                fill="none" stroke="#7d3600" stroke-miterlimit="10" />
            <path d="M1.32,199.52l17.32,13a16.69,16.69,0,0,1,6.67,13.35V516.5a16.74,16.74,0,0,1-5.15,12.07L2.78,545.25"
                fill="none" stroke="#7d3600" stroke-miterlimit="10" />
            <path d="M389.62,199.52l-17.32,13a16.71,16.71,0,0,0-6.66,13.35V516.51a16.7,16.7,0,0,0,5.13,12l17.39,16.69"
                fill="none" stroke="#7d3600" stroke-miterlimit="10" />
            <path d="M133.09,343.84a164.85,164.85,0,0,0,124.77,0" fill="none" stroke="#7d3600" stroke-miterlimit="10" />
            <path d="M137.79,333.36a156.29,156.29,0,0,0,115.37,0" fill="none" stroke="#7d3600" stroke-miterlimit="10" />
            <path d="M128.58,354.57a176.82,176.82,0,0,0,133.78,0" fill="none" stroke="#7d3600" stroke-miterlimit="10" />
            <path d="M144.39,324a138.77,138.77,0,0,0,101.05,0" fill="none" stroke="#7d3600" stroke-miterlimit="10" />
            <path d="M154.7,316a126.49,126.49,0,0,0,81.18-.26" fill="none" stroke="#7d3600" stroke-miterlimit="10" />
            <path d="M168.16,308.61a124.79,124.79,0,0,0,54.62,0" fill="none" stroke="#7d3600" stroke-miterlimit="10" />
            </g>
        </a>

        <a href="../Website/cassette.html" target="_top">
            <g id="Kassett">
            <path
                d="M479.4,556c15.85-.58,204.25-1.76,204.25-1.76s1.73,2.82,2.47,3,86,1.32,87.72,0a40.4,40.4,0,0,0,3.37-3l16.85-.37c13.13-.29,13.15-13,13.13-20V471l2-9.26L806.8,93.05,804.45,88V17.14S803.28,5.8,793.11,5.41s-16.44,0-16.44,0l-3.13-3.52H686.68L683,5.55,477.15,4.23C459.74,5,457.2,12.65,457.2,22.62s-1.28,512.28-1.28,512.28C455.92,553.68,463.55,556.62,479.4,556Zm313.28-146.5-2.6,5.31-3.68,3-6.58,1.48-1.53-2.07-1.74-5.78.62-4.48,3-4.91,4.59-3,5.33-.73,2.26,4.5ZM777.29,141.78c1.82-.32,7.61.48,7.61.48l4.29,2.93,2.93,5.3v8C783.1,160.1,773.59,155.51,777.29,141.78Zm-6.73,52.06,8.06.67,2.89,2.53.86,3.6-.39,6.69-2.78,3.46-2.73,1.31-3.69-1.44-2.43-3.14ZM769.82,349l2.17-3.23,2.81-1.83h2.62l2.4,1.45,2,2.77.58,2.9,0,6.27-.91,2.7-2.06,2.18-2.89,1.09-5.91-.22-.74-2.08ZM591.69,159.36l2.48-8.06,3.38-3.44,3.63,3.67,3-1.7,3.25-3.26-3.57-4.73,8.2-3.43,8.8-.73,2.31.44-1.45,5,7.43,2.49,1.61-4.39,5.2,3,3.68,3.84,3.69,6.68-4.35,1,2.71,8.27,3.08-1.13.72,2.81-2,9.49-3.41,6-3.34-3.08-5.5,4.28-.22,1.29,2.91,3.48-8.69,4-9.75.75,1.13-5.2-4.16-2L609,183.9l-2.17,5.61-7.45-5.14-5.71-8v-1.83l5.47-1.21-.15-4.15-1.44-3.49L591.2,167Zm0,228,1.21-2.77,5.06,3,1.16-1.45,1.86-3.6.59-2.18-1.69-1.14-3.47-2.06L599,373.6l4.53-3.7s4.75-2.09,4.89-2.14l4.44-1.27.48,4.37.41,1.32.91.5,6.88-.82.39-2.67-.4-3.31,10.62,3.41,6.85,5.76-4.22,3.31,4.22,6.35,4.49-2.32,1.9,7.64v5.35l-1,5.19-.27.83-1.9-1-1.83-.58-1.91,1.56-1.55,2.9-.27,2.29,1.66,1.37,1.48,1.07-2,2.63-4.33,3.62s-4.32,2.88-4.61,2.75a33.6,33.6,0,0,0-4.47,1.18l.23-3.23-.23-1.59h-1.23l-6,.42s-.94.25-.94.57.08,2.51.08,2.51L616,419.8l-4.5-.76-7-2.61-5.24-4.61,2-1.9,2.42-1.74-2.58-3.41-2.1-3-4.85,2.88-3.23-10.36Z"
                fill="#00a8eb" stroke="#0009b5" stroke-miterlimit="10" />
            <path
                d="M804.45,88V17.14S803.28,5.8,793.11,5.41s-16.44,0-16.44,0l-3.13-3.52H686.68L683,5.55,477.15,4.23C459.74,5,457.2,12.65,457.2,22.62s-1.28,512.28-1.28,512.28c0,18.78,7.63,21.72,23.48,21.13s204.25-1.76,204.25-1.76,1.73,2.82,2.47,3,86,1.32,87.72,0a40.4,40.4,0,0,0,3.37-3l16.85-.37c13.13-.29,13.15-13,13.13-20V471l2-9.26L806.8,93.05Z"
                fill="none" stroke="#0009b5" stroke-miterlimit="10" />
            <circle cx="773.66" cy="498.08" r="4.44" fill="none" stroke="#0009b5" stroke-miterlimit="10" />
            <circle cx="773.29" cy="497.71" r="10.27" fill="none" stroke="#0009b5" stroke-miterlimit="10" />
            <circle cx="773.07" cy="497.93" r="24.21" fill="none" stroke="#0009b5" stroke-miterlimit="10" />
            <circle cx="789.06" cy="410.9" r="12.52" fill="none" stroke="#0009b5" stroke-miterlimit="10" />
            <path d="M789.68,398.38a12.52,12.52,0,0,1-9.23,21l-.63,0" fill="none" stroke="#0009b5"
                stroke-miterlimit="10" />
            <circle cx="744" cy="278.52" r="9.78" fill="none" stroke="#0009b5" stroke-miterlimit="10" />
            <circle cx="788.22" cy="147.05" r="12.13" fill="none" stroke="#0009b5" stroke-miterlimit="10" />
            <path d="M777.29,141.78a12.13,12.13,0,0,1,14,17" fill="none" stroke="#0009b5" stroke-miterlimit="10" />
            <circle cx="771.59" cy="62.14" r="4.79" fill="none" stroke="#0009b5" stroke-miterlimit="10" />
            <circle cx="771.59" cy="62.14" r="11.35" fill="none" stroke="#0009b5" stroke-miterlimit="10" />
            <circle cx="770.36" cy="63.36" r="23.62" fill="none" stroke="#0009b5" stroke-miterlimit="10" />
            <circle cx="789.13" cy="22.82" r="8.02" fill="none" stroke="#0009b5" stroke-miterlimit="10" />
            <circle cx="790.77" cy="537.71" r="8.02" fill="none" stroke="#0009b5" stroke-miterlimit="10" />
            <circle cx="472.81" cy="539.5" r="8.02" fill="none" stroke="#0009b5" stroke-miterlimit="10" />
            <rect x="769.82" y="343.43" width="20.26" height="23.97" rx="7.62"
                transform="translate(1559.9 710.82) rotate(180)" fill="none" stroke="#0009b5" stroke-miterlimit="10" />
            <path d="M776.11,343.54a7.6,7.6,0,0,1,6.26,7.48v5.49a6.8,6.8,0,0,1-6.81,6.81h-2.95a7.3,7.3,0,0,1-2.05-.28"
                fill="none" stroke="#0009b5" stroke-miterlimit="10" />
            <rect x="769.82" y="190.1" width="20.26" height="22" rx="7.3"
                transform="translate(1559.9 402.2) rotate(180)" fill="none" stroke="#0009b5" stroke-miterlimit="10" />
            <path d="M776.11,212a7.17,7.17,0,0,0,6.26-6.87v-5a6.54,6.54,0,0,0-6.81-6.25h-2.95a8.59,8.59,0,0,0-2.05.25"
                fill="none" stroke="#0009b5" stroke-miterlimit="10" />
            <circle cx="472.76" cy="21.22" r="8.72" fill="none" stroke="#0009b5" stroke-miterlimit="10" />
            <path
                d="M669.66,544.59C692.16,536.15,716,520.93,727,508c5.53-6.53,17.43-.24,11,9-3.74,5.36-28.32,24-30.74,24.29s-17.24-.81-19.37.07-12.4,6.09-14.89,6.38-4.85.81-5.65-.66S669.66,544.59,669.66,544.59Z"
                fill="none" stroke="#0009b5" stroke-miterlimit="10" />
            <path
                d="M669.66,15.52C692.16,23.65,716,38.31,727,50.79c5.53,6.29,17.43.23,11-8.69C734.2,36.94,709.62,19,707.2,18.7s-17.24.77-19.37-.07-12.4-5.87-14.89-6.15-4.85-.78-5.65.63S669.66,15.52,669.66,15.52Z"
                fill="none" stroke="#0009b5" stroke-miterlimit="10" />
            <path
                d="M804.45,88S733.54,101.61,725,104.69c-7.06,2.56-6.82,10.81-6.74,16.44.06,5.29,1.52,312.81,1.46,322.21-.06,9.89,5.57,11.13,12.33,12.33,6.09,1.08,75.12,16.73,75.12,16.73"
                fill="none" stroke="#0009b5" stroke-miterlimit="10" />
            <path d="M806.81,94.54l-79.42,15.82s-4,.81-3.23,8.33" fill="none" stroke="#0009b5" stroke-miterlimit="10" />
            <path d="M675,48.08l-1.17,310.68a2.54,2.54,0,0,0,2.55,2.56h27.13a2,2,0,0,0,2-2V47.3" fill="none"
                stroke="#0009b5" stroke-miterlimit="10" />
            <path
                d="M712.12,55.89c-.18-6-1.7-8.59-7.76-8.59l-210.7-.56c-7.45,0-6.33,5.23-6.19,14.23.18,11.44-1.61,431.09-1.61,441.21s-.74,10.42,8.51,11,200.09-.06,207.88-.32,9.21-1.88,9.28-8.58c0,0,.68-440,.59-448.4"
                fill="none" stroke="#0009b5" stroke-miterlimit="10" />
            <path
                d="M575.64,111.53h84.72a7.7,7.7,0,0,1,7.7,7.7V439.61a7.7,7.7,0,0,1-7.7,7.7H573.91a7.7,7.7,0,0,1-7.7-7.7V121A9.43,9.43,0,0,1,575.64,111.53Z"
                transform="translate(1234.28 558.85) rotate(180)" fill="none" stroke="#0009b5" stroke-miterlimit="10" />
            <path
                d="M573.63,116.18h86.09a3.53,3.53,0,0,1,3.53,3.53V437.29a3.53,3.53,0,0,1-3.53,3.53H575.83a5.74,5.74,0,0,1-5.74-5.74V119.71A3.53,3.53,0,0,1,573.63,116.18Z"
                transform="translate(1233.35 557) rotate(180)" fill="none" stroke="#0009b5" stroke-miterlimit="10" />
            <rect x="576.8" y="122.84" width="79.64" height="312.16" rx="4.45"
                transform="translate(1233.24 557.85) rotate(180)" fill="none" stroke="#0009b5" stroke-miterlimit="10" />
            <polyline points="583.34 344.49 576.8 350.98 656.44 350.98 652.14 345.04" fill="none" stroke="#0009b5"
                stroke-linejoin="bevel" />
            <line x1="656.44" y1="205.52" x2="576.8" y2="205.52" fill="none" stroke="#0009b5" stroke-miterlimit="10" />
            <line x1="576.8" y1="208.96" x2="656.44" y2="208.96" fill="none" stroke="#0009b5" stroke-miterlimit="10" />
            <path d="M656.44,218.06V216.9a4.65,4.65,0,0,0-4.65-4.65H581.45a4.65,4.65,0,0,0-4.65,4.65v3.39" fill="none"
                stroke="#0009b5" stroke-miterlimit="10" />
            <path d="M654,212.83a61.9,61.9,0,0,1-69.92-.58" fill="none" stroke="#0009b5" stroke-miterlimit="10" />
            <path d="M644.79,212.25a53.69,53.69,0,0,1-50.62,0" fill="none" stroke="#0009b5" stroke-miterlimit="10" />
            <polyline points="622.92 218.48 622.56 212.25 636.64 212.25 638.09 215.25" fill="none" stroke="#0009b5"
                stroke-miterlimit="10" />
            <circle cx="617.34" cy="161.58" r="38.33" fill="none" stroke="#0009b5" stroke-miterlimit="10" />
            <circle cx="618.32" cy="164.87" r="27.19" fill="none" stroke="#0009b5" stroke-miterlimit="10" />
            <ellipse cx="616.59" cy="162.09" rx="34.67" ry="34.12" fill="none" stroke="#0009b5"
                stroke-miterlimit="10" />
            <circle cx="617.34" cy="395.99" r="38.33" fill="none" stroke="#0009b5" stroke-miterlimit="10" />
            <circle cx="618.32" cy="392.71" r="27.19" fill="none" stroke="#0009b5" stroke-miterlimit="10" />
            <ellipse cx="616.59" cy="395.48" rx="34.67" ry="34.12" fill="none" stroke="#0009b5"
                stroke-miterlimit="10" />
            <path d="M656.44,301.74a142.8,142.8,0,0,1-79.8-1" fill="none" stroke="#0009b5" stroke-miterlimit="10" />
            <path d="M583.34,344.48a58.58,58.58,0,0,1,68.81.56Z" fill="none" stroke="#0009b5" stroke-linejoin="bevel" />
            <line x1="615.75" y1="282.59" x2="615.75" y2="337.28" fill="none" stroke="#0009b5" stroke-linecap="round"
                stroke-miterlimit="10" />
            <line x1="615.75" y1="219.44" x2="615.75" y2="274.47" fill="none" stroke="#0009b5" stroke-linecap="round"
                stroke-miterlimit="10" />
            <line x1="621.85" y1="321.39" x2="609.81" y2="321.39" fill="none" stroke="#0009b5" stroke-linecap="round"
                stroke-miterlimit="10" />
            <line x1="621.85" y1="310.74" x2="609.81" y2="310.74" fill="none" stroke="#0009b5" stroke-linecap="round"
                stroke-miterlimit="10" />
            <line x1="621.85" y1="300.09" x2="609.81" y2="300.09" fill="none" stroke="#0009b5" stroke-linecap="round"
                stroke-miterlimit="10" />
            <line x1="621.85" y1="289.25" x2="609.81" y2="289.25" fill="none" stroke="#0009b5" stroke-linecap="round"
                stroke-miterlimit="10" />
            <line x1="621.85" y1="256.8" x2="609.81" y2="256.8" fill="none" stroke="#0009b5" stroke-linecap="round"
                stroke-miterlimit="10" />
            <line x1="621.85" y1="245.87" x2="609.81" y2="245.87" fill="none" stroke="#0009b5" stroke-linecap="round"
                stroke-miterlimit="10" />
            <line x1="621.85" y1="235.11" x2="609.81" y2="235.11" fill="none" stroke="#0009b5" stroke-linecap="round"
                stroke-miterlimit="10" />
            <line x1="621.85" y1="267.37" x2="609.81" y2="267.37" fill="none" stroke="#0009b5" stroke-linecap="round"
                stroke-miterlimit="10" />
            <ellipse cx="615.65" cy="278.31" rx="3.45" ry="3.67" fill="none" stroke="#0009b5" stroke-linecap="round"
                stroke-miterlimit="10" />
            <line x1="612.19" y1="278.31" x2="591.94" y2="278.31" fill="none" stroke="#0009b5" stroke-linecap="round"
                stroke-miterlimit="10" />
            <line x1="619.1" y1="278.31" x2="639.33" y2="278.31" fill="none" stroke="#0009b5" stroke-linecap="round"
                stroke-miterlimit="10" />
            <line x1="661.52" y1="111.53" x2="661.52" y2="47.98" fill="none" stroke="#0009b5" stroke-miterlimit="10" />
            <line x1="657.48" y1="111.53" x2="657.48" y2="47.98" fill="none" stroke="#0009b5" stroke-miterlimit="10" />
            <line x1="653.44" y1="111.53" x2="653.44" y2="47.98" fill="none" stroke="#0009b5" stroke-miterlimit="10" />
            <line x1="649.39" y1="111.53" x2="649.39" y2="47.98" fill="none" stroke="#0009b5" stroke-miterlimit="10" />
            <line x1="645.35" y1="111.53" x2="645.35" y2="47.98" fill="none" stroke="#0009b5" stroke-miterlimit="10" />
            <line x1="589.04" y1="111.53" x2="589.04" y2="47.98" fill="none" stroke="#0009b5" stroke-miterlimit="10" />
            <line x1="585" y1="111.53" x2="585" y2="47.98" fill="none" stroke="#0009b5" stroke-miterlimit="10" />
            <line x1="580.95" y1="111.53" x2="580.95" y2="47.98" fill="none" stroke="#0009b5" stroke-miterlimit="10" />
            <line x1="576.91" y1="111.53" x2="576.91" y2="47.98" fill="none" stroke="#0009b5" stroke-miterlimit="10" />
            <line x1="572.87" y1="111.53" x2="572.87" y2="47.98" fill="none" stroke="#0009b5" stroke-miterlimit="10" />
            <line x1="660.92" y1="513.3" x2="660.92" y2="447.31" fill="none" stroke="#0009b5" stroke-miterlimit="10" />
            <line x1="656.87" y1="513.3" x2="656.87" y2="447.31" fill="none" stroke="#0009b5" stroke-miterlimit="10" />
            <line x1="652.83" y1="513.3" x2="652.83" y2="447.31" fill="none" stroke="#0009b5" stroke-miterlimit="10" />
            <line x1="648.79" y1="513.3" x2="648.79" y2="447.31" fill="none" stroke="#0009b5" stroke-miterlimit="10" />
            <line x1="644.74" y1="513.3" x2="644.74" y2="447.31" fill="none" stroke="#0009b5" stroke-miterlimit="10" />
            <line x1="588.28" y1="513.3" x2="588.28" y2="447.31" fill="none" stroke="#0009b5" stroke-miterlimit="10" />
            <line x1="584.12" y1="513.3" x2="584.12" y2="447.31" fill="none" stroke="#0009b5" stroke-miterlimit="10" />
            <line x1="579.97" y1="513.3" x2="579.97" y2="447.31" fill="none" stroke="#0009b5" stroke-miterlimit="10" />
            <line x1="575.81" y1="513.3" x2="575.81" y2="447.31" fill="none" stroke="#0009b5" stroke-miterlimit="10" />
            <line x1="571.65" y1="513.3" x2="571.65" y2="447.31" fill="none" stroke="#0009b5" stroke-miterlimit="10" />
            <line x1="542.49" y1="513.3" x2="543.67" y2="47.11" fill="none" stroke="#0009b5" stroke-miterlimit="10" />
            <path d="M673.77,513.08V486.19A2.29,2.29,0,0,1,676,483.9l26.5-.43a2.22,2.22,0,0,1,2.27,2.22v26.62"
                fill="none" stroke="#0009b5" stroke-miterlimit="10" />
            <path d="M808.24,318.27h-33.7a3,3,0,0,1-3-2.95l-.2-77.73a2.46,2.46,0,0,1,2.46-2.48h33.35" fill="none"
                stroke="#0009b5" stroke-miterlimit="10" />
            <polyline points="624.92 475.12 607.34 481.96 624.92 488.95" fill="none" stroke="#0009b5"
                stroke-linejoin="bevel" />
            <line x1="618.54" y1="477.61" x2="618.54" y2="486.41" fill="none" stroke="#0009b5"
                stroke-linejoin="bevel" />
            <path d="M624.63,419.15l-.19-3.92a.88.88,0,0,0-.94-.84l-6.5.43a.86.86,0,0,0-.8.89l.15,4.09" fill="none"
                stroke="#0009b5" stroke-miterlimit="10" />
            <path d="M599,411.82l3.89-2.84a.91.91,0,0,0,.22-1.24l-3.69-5.45a.79.79,0,0,0-1.07-.23l-4.39,2.7" fill="none"
                stroke="#0009b5" stroke-miterlimit="10" />
            <path d="M592.33,384.69l5,2.55a1,1,0,0,0,1.4-.45l2.78-5.4a1.14,1.14,0,0,0-.47-1.51L596,377.16" fill="none"
                stroke="#0009b5" stroke-miterlimit="10" />
            <path d="M612.85,366.07l.55,5.57a1.15,1.15,0,0,0,1.22,1l6-.38a1.43,1.43,0,0,0,1.33-1.54l-.42-5.06"
                fill="none" stroke="#0009b5" stroke-miterlimit="10" />
            <path d="M639,375.05l-3.85,2.81a1,1,0,0,0-.25,1.44l3.31,4.84a1.44,1.44,0,0,0,2,.4l3.31-2.15" fill="none"
                stroke="#0009b5" stroke-miterlimit="10" />
            <path d="M644.08,401.4l-3.41-1.76a.64.64,0,0,0-.86.26l-3.48,6.18a.62.62,0,0,0,.22.83l3.51,2.12" fill="none"
                stroke="#0009b5" stroke-miterlimit="10" />
            <path d="M630.78,141.21,629.67,145a.88.88,0,0,1-1.12.59l-6.21-2a.85.85,0,0,1-.56-1.05l1.11-3.93" fill="none"
                stroke="#0009b5" stroke-miterlimit="10" />
            <path d="M604.13,142.21l3.11,3.69a.92.92,0,0,1-.09,1.26l-4.88,4.41a.78.78,0,0,1-1.09,0l-3.63-3.67"
                fill="none" stroke="#0009b5" stroke-miterlimit="10" />
            <path d="M591.2,167l5.49-1.28a1.06,1.06,0,0,1,1.25.78l1.41,5.9a1.12,1.12,0,0,1-.81,1.35L593,175.16"
                fill="none" stroke="#0009b5" stroke-miterlimit="10" />
            <path d="M606.68,190l1.86-5.28A1.16,1.16,0,0,1,610,184l5.7,1.8a1.41,1.41,0,0,1,.92,1.8L615,192.37"
                fill="none" stroke="#0009b5" stroke-miterlimit="10" />
            <path d="M634.21,187.46l-3.08-3.65a1,1,0,0,1,.11-1.45l4.37-3.91a1.43,1.43,0,0,1,2,.08l2.7,2.88" fill="none"
                stroke="#0009b5" stroke-miterlimit="10" />
            <path d="M645.44,163.09l-3.73.9a.66.66,0,0,1-.78-.46l-1.9-6.84a.61.61,0,0,1,.41-.75l3.91-1.22" fill="none"
                stroke="#0009b5" stroke-miterlimit="10" />
            <path
                d="M693.67,70.71a1.94,1.94,0,0,0,1.76-1,2.22,2.22,0,0,0,.26-1.06,2.38,2.38,0,0,0-.92-1.88,7.48,7.48,0,0,0-3.73-1.1A2.82,2.82,0,0,1,692.18,67a4,4,0,0,1,.33,1.62,3.67,3.67,0,0,1-1.1,2.8,4,4,0,0,1-2.84,1,4.55,4.55,0,0,1-2.93-1,3.6,3.6,0,0,1-1.26-3,3.67,3.67,0,0,1,2.41-3.69,8.4,8.4,0,0,1,3.31-.57,10.88,10.88,0,0,1,4,.68A3.89,3.89,0,0,1,697,68.61a3.65,3.65,0,0,1-.94,2.72,3.22,3.22,0,0,1-2.36.93Zm-3.11-4a2.53,2.53,0,0,0-2.11-.76,2.7,2.7,0,0,0-2,.68,2.38,2.38,0,0,0-.66,1.73,2.24,2.24,0,0,0,.76,1.79,2.94,2.94,0,0,0,2,.66,2.89,2.89,0,0,0,1.9-.58,2.26,2.26,0,0,0,.7-1.85A2.61,2.61,0,0,0,690.56,66.71Z"
                fill="#0009b5" />
            <path
                d="M686.35,55.14a8.73,8.73,0,0,1,4.15-.82,10.06,10.06,0,0,1,4.12.74A3.64,3.64,0,0,1,697,58.58a3.53,3.53,0,0,1-1.91,3.28,8.77,8.77,0,0,1-4.29.9,10.58,10.58,0,0,1-3.58-.54,3.69,3.69,0,0,1-2.78-3.65A3.62,3.62,0,0,1,686.35,55.14Zm8.15,1.55a7.6,7.6,0,0,0-4-.71,9.75,9.75,0,0,0-3.42.51,1.94,1.94,0,0,0-1.35,2,2.1,2.1,0,0,0,1.28,2,8.94,8.94,0,0,0,3.76.62,9.2,9.2,0,0,0,3-.4,2.19,2.19,0,0,0,1.73-2.1A2.17,2.17,0,0,0,694.5,56.69Z"
                fill="#0009b5" />
            </g>
        </a>

        <a href="../Website/cd.html" target="_top">
            <g id="Cd">
            <path
                d="M1512.52,18v519.9c0,17.13-4.83,20-20.7,20H946.1V544.41h-6v13.52h-49.3a15.39,15.39,0,0,1-15.4-15.4V17.16a15.4,15.4,0,0,1,15.4-15.4l606.27.88a15.4,15.4,0,0,1,15.4,15.4"
                fill="#ffa4ba" stroke="#890050" stroke-miterlimit="10" />
            <circle cx="1214.35" cy="282.98" r="63.9" fill="none" stroke="#890050" stroke-miterlimit="10" />
            <path d="M1238.34,337a55.64,55.64,0,0,1-48.24-.12" fill="none" stroke="#890050" stroke-miterlimit="10" />
            <path
                d="M955.3,172h-7a4.25,4.25,0,0,1-4.25-4.26l0-19.53c21.89-4.89,26.17-24.17,26.17-28.37,0-16.83-13.75-30.47-38.35-30.47V287.14"
                fill="none" stroke="#890050" stroke-miterlimit="10" />
            <path
                d="M981.48,123.82c7.85.31,14.92-13.33,14.92-13.33-3.88,7.73-8.7,11.23-12.92,10.67-21.54-2.89-4.47-70.76,12.32-86l-1,1c16.69-14.42,84.7-23.15,85.1-2.13.08,4.13-3.86,8.36-11.83,11.22,0,0,14-4.91,14-14.12"
                fill="none" stroke="#890050" stroke-linejoin="bevel" />
            <path d="M1079.71,32.48A263.13,263.13,0,0,1,1127.16,11" fill="none" stroke="#890050"
                stroke-linejoin="bevel" />
            <path d="M947.85,97.56a22.68,22.68,0,0,1,0,44.12Z" fill="none" stroke="#890050" stroke-miterlimit="10" />
            <rect x="882.69" y="69.66" width="41.83" height="420.39" fill="none" stroke="#890050"
                stroke-linejoin="bevel" />
            <path d="M881.24,49.3h52V6.73h-40a12,12,0,0,0-12,12Z" fill="none" stroke="#890050"
                stroke-linejoin="bevel" />
            <line x1="878.93" y1="43.27" x2="883.2" y2="43.27" fill="none" stroke="#890050" stroke-linejoin="bevel" />
            <line x1="878.93" y1="39.86" x2="883.2" y2="39.86" fill="none" stroke="#890050" stroke-linejoin="bevel" />
            <line x1="878.93" y1="36.46" x2="883.2" y2="36.46" fill="none" stroke="#890050" stroke-linejoin="bevel" />
            <line x1="878.93" y1="33.06" x2="883.2" y2="33.06" fill="none" stroke="#890050" stroke-linejoin="bevel" />
            <line x1="878.93" y1="29.65" x2="883.2" y2="29.65" fill="none" stroke="#890050" stroke-linejoin="bevel" />
            <line x1="878.93" y1="26.25" x2="883.2" y2="26.25" fill="none" stroke="#890050" stroke-linejoin="bevel" />
            <line x1="878.93" y1="22.84" x2="883.2" y2="22.84" fill="none" stroke="#890050" stroke-linejoin="bevel" />
            <line x1="878.93" y1="19.44" x2="883.2" y2="19.44" fill="none" stroke="#890050" stroke-linejoin="bevel" />
            <line x1="891.61" y1="6.73" x2="894.88" y2="1.77" fill="none" stroke="#890050" stroke-linejoin="bevel" />
            <line x1="895.8" y1="6.73" x2="899.07" y2="1.77" fill="none" stroke="#890050" stroke-linejoin="bevel" />
            <line x1="899.98" y1="6.73" x2="903.25" y2="1.77" fill="none" stroke="#890050" stroke-linejoin="bevel" />
            <line x1="904.16" y1="6.73" x2="907.43" y2="1.77" fill="none" stroke="#890050" stroke-linejoin="bevel" />
            <line x1="908.34" y1="6.73" x2="911.61" y2="1.77" fill="none" stroke="#890050" stroke-linejoin="bevel" />
            <line x1="912.52" y1="6.73" x2="915.79" y2="1.77" fill="none" stroke="#890050" stroke-linejoin="bevel" />
            <line x1="916.71" y1="6.73" x2="919.98" y2="1.77" fill="none" stroke="#890050" stroke-linejoin="bevel" />
            <line x1="920.89" y1="6.73" x2="924.16" y2="1.77" fill="none" stroke="#890050" stroke-linejoin="bevel" />
            <line x1="925.07" y1="6.73" x2="928.34" y2="1.77" fill="none" stroke="#890050" stroke-linejoin="bevel" />
            <line x1="929.25" y1="6.73" x2="932.52" y2="1.77" fill="none" stroke="#890050" stroke-linejoin="bevel" />
            <line x1="933.44" y1="6.73" x2="936.71" y2="1.77" fill="none" stroke="#890050" stroke-linejoin="bevel" />
            <path
                d="M991.35,15.29H956.54v46h-75.3V56.68h58.89s0-6.31,0-5.93V41.14h-3.86V36.91h3.86V19.52l-3.86-.06V15.27h3.86c0-5.51,3.07-7.87,10.16-7.87v3.53l176.85,0h367a8.19,8.19,0,0,1,8.18,8.19V542.89a5.86,5.86,0,0,1-5.85,5.86l-19.39,0-176.85,0"
                fill="none" stroke="#890050" stroke-miterlimit="10" />
            <rect x="934.26" y="77.77" width="5.73" height="4.04" fill="none" stroke="#890050" stroke-miterlimit="10" />
            <rect x="934.26" y="69.66" width="5.73" height="4.04" fill="none" stroke="#890050" stroke-miterlimit="10" />
            <path
                d="M983.75,438.47c-13.89-15.16-21.16-34.51-25-42.9h-9.37c-1.9,0-1.9-4.15,0-4.15h12.5C952,368.08,938.2,353.69,938.2,287.14c0-68,13.75-95.51,23.68-118.85h-12.5c-1.9,0-1.9-4.15,0-4.15h9.37c3.84-8.4,11.11-27.74,25-42.91"
                fill="none" stroke="#890050" stroke-miterlimit="10" />
            <path
                d="M955.3,387.68h-7a4.25,4.25,0,0,0-4.25,4.25l0,19.54c21.89,4.89,26.17,24.17,26.17,28.37,0,16.82-13.75,30.46-38.35,30.46V272.56"
                fill="none" stroke="#890050" stroke-miterlimit="10" />
            <path
                d="M981.48,435.89c7.85-.32,14.92,13.32,14.92,13.32-3.88-7.73-8.7-11.23-12.92-10.66-21.54,2.88-4.47,70.76,12.32,86l-1-1c16.69,14.41,84.7,23.15,85.1,2.12.08-4.12-3.86-8.35-11.83-11.22,0,0,14,4.92,14,14.13"
                fill="none" stroke="#890050" stroke-linejoin="bevel" />
            <path d="M1079.71,527.22a262.43,262.43,0,0,0,47.45,21.52" fill="none" stroke="#890050"
                stroke-linejoin="bevel" />
            <line x1="940.81" y1="148.91" x2="946.34" y2="147.61" fill="none" stroke="#890050"
                stroke-linejoin="bevel" />
            <line x1="946.34" y1="412.09" x2="940.81" y2="410.8" fill="none" stroke="#890050" stroke-linejoin="bevel" />
            <path d="M947.85,462.14a22.68,22.68,0,0,0,0-44.12Z" fill="none" stroke="#890050" stroke-miterlimit="10" />
            <path d="M881.24,510.41h52V553h-40a12,12,0,0,1-12-12Z" fill="none" stroke="#890050"
                stroke-linejoin="bevel" />
            <line x1="878.93" y1="516.44" x2="883.2" y2="516.44" fill="none" stroke="#890050" stroke-linejoin="bevel" />
            <line x1="878.93" y1="519.84" x2="883.2" y2="519.84" fill="none" stroke="#890050" stroke-linejoin="bevel" />
            <line x1="878.93" y1="523.24" x2="883.2" y2="523.24" fill="none" stroke="#890050" stroke-linejoin="bevel" />
            <line x1="878.93" y1="526.65" x2="883.2" y2="526.65" fill="none" stroke="#890050" stroke-linejoin="bevel" />
            <line x1="878.93" y1="530.05" x2="883.2" y2="530.05" fill="none" stroke="#890050" stroke-linejoin="bevel" />
            <line x1="878.93" y1="533.46" x2="883.2" y2="533.46" fill="none" stroke="#890050" stroke-linejoin="bevel" />
            <line x1="878.93" y1="536.86" x2="883.2" y2="536.86" fill="none" stroke="#890050" stroke-linejoin="bevel" />
            <line x1="878.93" y1="540.27" x2="883.2" y2="540.27" fill="none" stroke="#890050" stroke-linejoin="bevel" />
            <line x1="891.61" y1="552.98" x2="894.88" y2="557.93" fill="none" stroke="#890050"
                stroke-linejoin="bevel" />
            <line x1="895.8" y1="552.98" x2="899.07" y2="557.93" fill="none" stroke="#890050" stroke-linejoin="bevel" />
            <line x1="899.98" y1="552.98" x2="903.25" y2="557.93" fill="none" stroke="#890050"
                stroke-linejoin="bevel" />
            <line x1="904.16" y1="552.98" x2="907.43" y2="557.93" fill="none" stroke="#890050"
                stroke-linejoin="bevel" />
            <line x1="908.34" y1="552.98" x2="911.61" y2="557.93" fill="none" stroke="#890050"
                stroke-linejoin="bevel" />
            <line x1="912.52" y1="552.98" x2="915.79" y2="557.93" fill="none" stroke="#890050"
                stroke-linejoin="bevel" />
            <line x1="916.71" y1="552.98" x2="919.98" y2="557.93" fill="none" stroke="#890050"
                stroke-linejoin="bevel" />
            <line x1="920.89" y1="552.98" x2="924.16" y2="557.93" fill="none" stroke="#890050"
                stroke-linejoin="bevel" />
            <line x1="925.07" y1="552.98" x2="928.34" y2="557.93" fill="none" stroke="#890050"
                stroke-linejoin="bevel" />
            <line x1="929.25" y1="552.98" x2="932.52" y2="557.93" fill="none" stroke="#890050"
                stroke-linejoin="bevel" />
            <line x1="933.44" y1="552.98" x2="936.71" y2="557.93" fill="none" stroke="#890050"
                stroke-linejoin="bevel" />
            <line x1="940.15" y1="522.8" x2="940.15" y2="540.18" fill="none" stroke="#890050" stroke-miterlimit="10" />
            <path d="M991.35,544.41H956.54V498.47h-75.3V503h58.89s0,6.3,0,5.93v9.6h-3.86" fill="none" stroke="#890050"
                stroke-miterlimit="10" />
            <rect x="934.26" y="477.89" width="5.73" height="4.04" fill="none" stroke="#890050"
                stroke-miterlimit="10" />
            <rect x="934.26" y="486.01" width="5.73" height="4.04" fill="none" stroke="#890050"
                stroke-miterlimit="10" />
            <path
                d="M1472.14,172h7a4.25,4.25,0,0,0,4.25-4.26l0-19.53c-21.89-4.89-26.16-24.17-26.16-28.37,0-16.83,13.74-30.47,38.34-30.47V287.14"
                fill="none" stroke="#890050" stroke-miterlimit="10" />
            <path
                d="M1446,123.82c-7.85.31-14.92-13.33-14.92-13.33,3.89,7.73,8.7,11.23,12.92,10.67,21.54-2.89,4.47-70.76-12.32-86l1,1C1416,21.74,1348,13,1347.57,34c-.08,4.13,3.87,8.36,11.83,11.22,0,0-14-4.91-14-14.12"
                fill="none" stroke="#890050" stroke-linejoin="bevel" />
            <path d="M1347.74,32.48A263.3,263.3,0,0,0,1300.28,11" fill="none" stroke="#890050"
                stroke-linejoin="bevel" />
            <line x1="1486.63" y1="148.91" x2="1481.1" y2="147.61" fill="none" stroke="#890050"
                stroke-linejoin="bevel" />
            <path d="M1479.59,97.56c-9.92,2.06-17.39,11.16-17.39,22.06s7.48,20,17.41,22.06Z" fill="none"
                stroke="#890050" stroke-miterlimit="10" />
            <path
                d="M1443.7,438.47c13.88-15.16,21.15-34.51,25-42.9h9.37c1.9,0,1.9-4.15,0-4.15h-12.49c9.93-23.34,21.06-37.73,21.06-104.28,0-68-11.13-95.51-21.06-118.85h12.49c1.9,0,1.9-4.15,0-4.15h-9.37c-3.84-8.4-11.11-27.74-25-42.91"
                fill="none" stroke="#890050" stroke-miterlimit="10" />
            <path
                d="M1472.14,387.68h7a4.25,4.25,0,0,1,4.25,4.25l0,19.54c-21.89,4.89-26.16,24.17-26.16,28.37,0,16.82,13.74,30.46,38.34,30.46V272.56"
                fill="none" stroke="#890050" stroke-miterlimit="10" />
            <path
                d="M1446,435.89c-7.85-.32-14.92,13.32-14.92,13.32,3.89-7.73,8.7-11.23,12.92-10.66,21.54,2.88,4.47,70.76-12.32,86l1-1C1416,538,1348,546.7,1347.57,525.67c-.08-4.12,3.87-8.35,11.83-11.22,0,0-14,4.92-14,14.13"
                fill="none" stroke="#890050" stroke-linejoin="bevel" />
            <path d="M1347.74,527.22a262.6,262.6,0,0,1-47.46,21.52" fill="none" stroke="#890050"
                stroke-linejoin="bevel" />
            <line x1="1486.63" y1="410.8" x2="1481.1" y2="412.09" fill="none" stroke="#890050"
                stroke-linejoin="bevel" />
            <path d="M1479.59,462.14a22.3,22.3,0,0,1-17.39-22.06c0-10.91,7.48-20,17.41-22.06Z" fill="none"
                stroke="#890050" stroke-miterlimit="10" />
            <polyline points="1464.31 10.96 1464.31 16.35 1490.28 16.35 1490.28 10.96" fill="none" stroke="#890050"
                stroke-miterlimit="10" />
            <polyline points="1464.31 548.78 1464.31 543.39 1490.28 543.39 1490.28 548.78" fill="none" stroke="#890050"
                stroke-miterlimit="10" />
            <path d="M1478.52,473.65a42.61,42.61,0,0,0,17,2.28v10.25h-17Z" fill="none" stroke="#890050"
                stroke-miterlimit="10" />
            <path d="M1478.52,86a42.61,42.61,0,0,1,17-2.28V73.46h-17Z" fill="none" stroke="#890050"
                stroke-miterlimit="10" />
            <path
                d="M1203.7,317.16c-1.7,2.79-6.35,10.25-10.1,7.41-2.45-1.85,2-7.38,4.66-10.87a58.69,58.69,0,0,1-8.16-6.92,48.9,48.9,0,0,1-6.81-7.81c-3.48,2.66-9,7.12-10.86,4.67-2.84-3.75,4.61-8.4,7.4-10.1,6-4,15.16-8.1,19-8.1,6.76,0,13,5.5,13,12.25C1211.83,301.78,1207.4,310.71,1203.7,317.16Z"
                fill="none" stroke="#890050" stroke-miterlimit="10" />
            <path d="M1200.15,306.78a28.16,28.16,0,0,1-10.05-9.56" fill="none" stroke="#890050"
                stroke-miterlimit="10" />
            <path
                d="M1172.1,324.29c-13.06-14.1-11.88-16.12-2.85-25,.67-.62-.71,1.72-.71,2.7a5.54,5.54,0,0,0,5.54,5.54,5,5,0,0,0,1.87-.33l.08,0c15.43-7.1,20.11-19.88,26.48-13.27l.64.76c6.6,6.38-6.17,11.06-13.28,26.48l0,.08a5.09,5.09,0,0,0-.32,1.88,5.53,5.53,0,0,0,5.53,5.53c1,0,3.32-1.38,2.7-.7-8.89,9-10.91,10.21-25-2.85Z"
                fill="none" stroke="#890050" stroke-miterlimit="10" />
            <path d="M1199.56,306.92a55.54,55.54,0,0,1-9.7-9.13" fill="none" stroke="#890050" stroke-miterlimit="10" />
            <path
                d="M1224.75,317.16c1.7,2.79,6.35,10.25,10.1,7.41,2.45-1.85-2-7.38-4.67-10.87a58.69,58.69,0,0,0,8.16-6.92,48.35,48.35,0,0,0,6.81-7.81c3.49,2.66,9,7.12,10.87,4.67,2.84-3.75-4.62-8.4-7.41-10.1-6-4-15.15-8.1-18.95-8.1-6.75,0-13.05,5.5-13.05,12.25C1216.61,301.78,1221.05,310.71,1224.75,317.16Z"
                fill="none" stroke="#890050" stroke-miterlimit="10" />
            <path d="M1228.3,306.78a28.13,28.13,0,0,0,10-9.56" fill="none" stroke="#890050" stroke-miterlimit="10" />
            <path
                d="M1256.35,324.29c13.06-14.1,11.87-16.12,2.85-25-.68-.62.7,1.72.7,2.7a5.54,5.54,0,0,1-5.53,5.54,5.1,5.1,0,0,1-1.88-.33l-.08,0c-15.42-7.1-20.1-19.88-26.48-13.27l-.63.76c-6.61,6.38,6.17,11.06,13.27,26.48l0,.08a5.1,5.1,0,0,1,.33,1.88,5.54,5.54,0,0,1-5.53,5.53c-1,0-3.33-1.38-2.71-.7,8.9,9,10.92,10.21,25-2.85Z"
                fill="none" stroke="#890050" stroke-miterlimit="10" />
            <path d="M1228.89,306.92a55.54,55.54,0,0,0,9.7-9.13" fill="none" stroke="#890050" stroke-miterlimit="10" />
            <ellipse cx="1214.35" cy="318.55" rx="1.81" ry="3.01" fill="none" stroke="#890050" stroke-miterlimit="10" />
            <path d="M1210.14,319.48c0-3.87,1.89-7,4.21-7s4.2,3.13,4.2,7" fill="none" stroke="#890050"
                stroke-miterlimit="10" />
            <path d="M1238.34,228.33a55.64,55.64,0,0,0-48.24.12" fill="none" stroke="#890050" stroke-miterlimit="10" />
            <path d="M1159.91,306.77a55.69,55.69,0,0,1,.11-48.24" fill="none" stroke="#890050" stroke-miterlimit="10" />
            <path d="M1268.54,306.77a55.73,55.73,0,0,0-.12-48.24" fill="none" stroke="#890050" stroke-miterlimit="10" />
            <path
                d="M1203.7,248.13c-1.7-2.79-6.35-10.25-10.1-7.41-2.45,1.85,2,7.39,4.66,10.87a58.69,58.69,0,0,0-8.16,6.92,49.43,49.43,0,0,0-6.81,7.81c-3.48-2.66-9-7.12-10.86-4.67-2.84,3.76,4.61,8.4,7.4,10.11,6,4,15.16,8.09,19,8.09,6.76,0,13-5.5,13-12.25C1211.83,263.52,1207.4,254.58,1203.7,248.13Z"
                fill="none" stroke="#890050" stroke-miterlimit="10" />
            <path d="M1200.15,258.51a28.25,28.25,0,0,0-10.05,9.56" fill="none" stroke="#890050"
                stroke-miterlimit="10" />
            <path
                d="M1172.1,241c-13.06,14.11-11.88,16.13-2.85,25,.67.62-.71-1.72-.71-2.7a5.54,5.54,0,0,1,5.54-5.54,5,5,0,0,1,1.87.33l.08,0c15.43,7.1,20.11,19.88,26.48,13.27l.64-.76c6.6-6.37-6.17-11-13.28-26.48l0-.08a5,5,0,0,1-.32-1.87,5.53,5.53,0,0,1,5.53-5.54c1,0,3.32,1.38,2.7.71-8.89-9-10.91-10.22-25,2.85Z"
                fill="none" stroke="#890050" stroke-miterlimit="10" />
            <path d="M1199.56,258.37a55.23,55.23,0,0,0-9.7,9.14" fill="none" stroke="#890050" stroke-miterlimit="10" />
            <path
                d="M1224.75,248.13c1.7-2.79,6.35-10.25,10.1-7.41,2.45,1.85-2,7.39-4.67,10.87a58.69,58.69,0,0,1,8.16,6.92,48.87,48.87,0,0,1,6.81,7.81c3.49-2.66,9-7.12,10.87-4.67,2.84,3.76-4.62,8.4-7.41,10.11-6,4-15.15,8.09-18.95,8.09-6.75,0-13.05-5.5-13.05-12.25C1216.61,263.52,1221.05,254.58,1224.75,248.13Z"
                fill="none" stroke="#890050" stroke-miterlimit="10" />
            <path d="M1228.3,258.51a28.22,28.22,0,0,1,10,9.56" fill="none" stroke="#890050" stroke-miterlimit="10" />
            <path
                d="M1256.35,241c13.06,14.11,11.87,16.13,2.85,25-.68.62.7-1.72.7-2.7a5.54,5.54,0,0,0-5.53-5.54,5.1,5.1,0,0,0-1.88.33l-.08,0c-15.42,7.1-20.1,19.88-26.48,13.27l-.63-.76c-6.61-6.37,6.17-11,13.27-26.48l0-.08a5,5,0,0,0,.33-1.87,5.54,5.54,0,0,0-5.53-5.54c-1,0-3.33,1.38-2.71.71,8.9-9,10.92-10.22,25,2.85Z"
                fill="none" stroke="#890050" stroke-miterlimit="10" />
            <path d="M1228.89,258.37a55.23,55.23,0,0,1,9.7,9.14" fill="none" stroke="#890050" stroke-miterlimit="10" />
            <ellipse cx="1214.35" cy="246.75" rx="1.81" ry="3.01" fill="none" stroke="#890050" stroke-miterlimit="10" />
            <path d="M1210.14,245.82c0,3.86,1.89,7,4.21,7s4.2-3.14,4.2-7" fill="none" stroke="#890050"
                stroke-miterlimit="10" />
            <ellipse cx="1178.45" cy="282.65" rx="3.01" ry="1.81" fill="none" stroke="#890050" stroke-miterlimit="10" />
            <path d="M1177.52,278.44c3.86,0,7,1.89,7,4.21s-3.14,4.2-7,4.2" fill="none" stroke="#890050"
                stroke-miterlimit="10" />
            <ellipse cx="1250.25" cy="282.65" rx="3.01" ry="1.81" fill="none" stroke="#890050" stroke-miterlimit="10" />
            <path d="M1251.18,278.44c-3.87,0-7,1.89-7,4.21s3.13,4.2,7,4.2" fill="none" stroke="#890050"
                stroke-miterlimit="10" />
            <ellipse cx="1212.54" cy="281.43" rx="274.06" ry="274.03" fill="none" stroke="#890050"
                stroke-miterlimit="10" />
            <ellipse cx="1212.54" cy="281.43" rx="266.44" ry="266.41" fill="none" stroke="#890050"
                stroke-miterlimit="10" />
            <circle cx="1214.35" cy="282.98" r="70.07" fill="none" stroke="#890050" stroke-miterlimit="10" />
            <circle cx="1214.35" cy="282.98" r="99.56" fill="none" stroke="#890050" stroke-miterlimit="10" />
            <circle cx="1214.35" cy="282.98" r="87.21" fill="none" stroke="#890050" stroke-miterlimit="10" />
            </g>
        </a>
        
        <a href="../Website/download.html" target="_top">
            <g id="Nedladdning">
            <path d="M1705.93,558.74c0,.17.14.1.38-.15C1706.06,558.64,1705.93,558.69,1705.93,558.74Z" fill="#d67fc5"
                stroke="#3e0079" stroke-miterlimit="10" />
            <path
                d="M1770.26,518.36l8.61-10.22V167.43L1759,132.79h-18.2V1.87h-123.9l-.94,130.86h-17.88l-19.24,32.83V539.23l14.56,19h109.14l9.5-7.74s-4.37,6.75-5.71,8.11c5-.88,58.07.15,58.07.15l15.95-18.07v-28.5Zm-8.51,18.88-8,8h-42.25V525.63a5.5,5.5,0,0,1,5.5-5.5h44.77Z"
                fill="#d67fc5" stroke="#3e0079" stroke-miterlimit="10" />
            <rect x="1633.68" y="57.5" width="26.91" height="22.46" rx="2.57" fill="none" stroke="#3e0079"
                stroke-miterlimit="10" />
            <line x1="1647.13" y1="57.5" x2="1647.13" y2="79.97" fill="none" stroke="#3e0079" stroke-miterlimit="10" />
            <line x1="1643.68" y1="79.97" x2="1643.68" y2="57.5" fill="none" stroke="#3e0079" stroke-miterlimit="10" />
            <line x1="1640.24" y1="57.5" x2="1640.24" y2="79.97" fill="none" stroke="#3e0079" stroke-miterlimit="10" />
            <line x1="1636.79" y1="57.5" x2="1636.79" y2="79.97" fill="none" stroke="#3e0079" stroke-miterlimit="10" />
            <rect x="1697.63" y="57.5" width="26.91" height="22.46" rx="2.57" fill="none" stroke="#3e0079"
                stroke-miterlimit="10" />
            <line x1="1711.09" y1="57.5" x2="1711.09" y2="79.97" fill="none" stroke="#3e0079" stroke-miterlimit="10" />
            <line x1="1714.54" y1="79.97" x2="1714.54" y2="57.5" fill="none" stroke="#3e0079" stroke-miterlimit="10" />
            <line x1="1717.98" y1="57.5" x2="1717.98" y2="79.97" fill="none" stroke="#3e0079" stroke-miterlimit="10" />
            <line x1="1721.43" y1="57.5" x2="1721.43" y2="79.97" fill="none" stroke="#3e0079" stroke-miterlimit="10" />
            <rect x="1723.54" y="90.17" width="8.38" height="22.62" rx="4.19" fill="none" stroke="#3e0079"
                stroke-linejoin="bevel" />
            <rect x="1625.3" y="90.17" width="8.38" height="22.62" rx="4.19" fill="none" stroke="#3e0079"
                stroke-linejoin="bevel" />
            <path
                d="M1701.37,112.09a5.48,5.48,0,0,0-2.79-.84,2.54,2.54,0,0,0-2.84,2.6c0,1.89,1.6,2.69,3.25,2.69h1v1.37h-1c-1.24,0-2.81.68-2.81,2.28a2,2,0,0,0,2.21,2,4.48,4.48,0,0,0,2.52-.89l.44,1.32a5.71,5.71,0,0,1-3.29,1c-2.48,0-3.6-1.57-3.6-3.2a3.32,3.32,0,0,1,2.32-3.17v0a3.44,3.44,0,0,1-2.8-3.46c0-2.15,1.57-4,4.58-4a6,6,0,0,1,3.27.91Z"
                fill="#3e0079" />
            <path
                d="M1691.84,110v1.12l-1.33,1.39c-3.21,3.27-4.66,5-4.68,7a2.33,2.33,0,0,0,2.49,2.63A4.15,4.15,0,0,0,1691,121l.55,1.28a5.36,5.36,0,0,1-3.56,1.36,3.66,3.66,0,0,1-3.85-3.91c0-2.48,1.68-4.49,4.33-7.22l1-1v0h-5.65V110Z"
                fill="#3e0079" />
            <path
                d="M1671.39,110.62a11.42,11.42,0,0,1,4-.76,6.47,6.47,0,0,1,4.88,1.84,7.47,7.47,0,0,1,1.82,5.2c0,4.16-2.69,7.2-7.06,7.2a7.6,7.6,0,0,1-3.25-.64l.4-1.47a6.43,6.43,0,0,0,2.89.6c3.17,0,5.24-2.11,5.24-5.61s-2-5.63-5-5.63a5.18,5.18,0,0,0-2.25.37v4.16h2.65v1.45h-4.29Z"
                fill="#3e0079" />
            <path
                d="M1668.81,123.77a15.78,15.78,0,0,1-3.08.29,5.12,5.12,0,0,1-3.58-1,3,3,0,0,1-1.08-2.46,3.27,3.27,0,0,1,2.21-3.06v0a3.54,3.54,0,0,1-2.69-3.5,3.91,3.91,0,0,1,1.1-2.8c.91-.89,2.38-1.3,4.51-1.3a19,19,0,0,1,2.61.16Zm-1.68-5.72h-1.53c-1.78,0-2.83,1-2.83,2.34,0,1.64,1.16,2.28,2.87,2.28a7,7,0,0,0,1.49-.12Zm0-6.68a8.82,8.82,0,0,0-1.42-.08c-1.74,0-3.34.68-3.34,2.71s1.53,2.69,3.36,2.69h1.4Z"
                fill="#3e0079" />
            <line x1="1615.94" y1="132.73" x2="1740.78" y2="132.73" fill="none" stroke="#3e0079"
                stroke-miterlimit="10" />
            <polyline
                points="1633.68 435.85 1633.68 168.93 1605.03 168.93 1605.03 435.85 1596.49 435.85 1596.49 168.93 1586.13 168.93 1585.65 444.15 1596.55 444.15 1596.55 540.91 1605.12 540.91 1605.12 444.15 1633.68 444.15 1633.68 540.91 1608.68 540.91"
                fill="none" stroke="#3e0079" stroke-linejoin="bevel" />
            <polyline
                points="1724.87 435.85 1724.87 168.93 1753.51 168.93 1753.51 435.85 1762.05 435.85 1762.05 168.93 1771.78 168.93 1771.92 444.46 1762.07 444.37 1762.07 508.26 1753.54 508.08 1753.54 444.19 1724.87 444.15 1724.87 507.7 1747.9 507.7"
                fill="none" stroke="#3e0079" stroke-linejoin="bevel" />
            <rect x="1642.03" y="168.93" width="74.47" height="266.92" fill="none" stroke="#3e0079"
                stroke-linejoin="bevel" />
            <path d="M1716.24,444.15h-74.47v96.77h60.52V512.18a4.61,4.61,0,0,1,4.5-4.71h9.45Z" fill="none"
                stroke="#3e0079" stroke-linejoin="bevel" />
            </g>
        </a>

        <a href="../Website/streaming.html" target="_top">
            <g id="Streaming">
            <polyline points="1850.92 100.16 1846.63 100.16 1846.63 119.42 1850.92 119.42" fill="#ffec00"
                stroke="#0e5200" stroke-miterlimit="10" />
            <polyline points="1850.92 138.25 1846.63 138.25 1846.63 175.62 1850.92 175.62" fill="#ffec00"
                stroke="#0e5200" stroke-miterlimit="10" />
            <polyline points="1850.92 187.18 1846.63 187.18 1846.63 224.84 1850.92 224.84" fill="#ffec00"
                stroke="#0e5200" stroke-miterlimit="10" />
            <polyline points="2116.89 163.91 2120.99 163.91 2120.99 225.44 2116.89 225.44" fill="#ffec00"
                stroke="#0e5200" stroke-miterlimit="10" />
            <rect x="1850.92" y="1.87" width="265.97" height="556.96" rx="41.55"
                transform="translate(3967.82 560.71) rotate(180)" fill="#ffec00" stroke="#0e5200"
                stroke-miterlimit="10" />
            <rect x="1857.64" y="7.93" width="252.34" height="544.07" rx="38.89"
                transform="translate(3967.62 559.92) rotate(180)" fill="none" stroke="#0e5200" stroke-miterlimit="10" />
            <rect x="1952.32" y="15.96" width="60.98" height="15.45" rx="6.74" fill="none" stroke="#0e5200"
                stroke-miterlimit="10" />
            <rect x="1869.51" y="82.5" width="227.6" height="227.6" fill="none" stroke="#0e5200"
                stroke-miterlimit="10" />
            <path
                d="M2002.21,158.09a3.06,3.06,0,0,1,3.61,3.17l-.35,54.08s.37,6.89-9.41,8.69c-9.07,1.67-17.2-15.32,2.31-17.91a3.74,3.74,0,0,0,3.52-4.36l-.06-24a2.11,2.11,0,0,0-2.51-2.17l-25.89,6.18a2.25,2.25,0,0,0-1.65,2.22v37.84c0,10.84-19.61,13.7-19.46,2s13.82-9.31,15-11.8a7.62,7.62,0,0,0,.63-4.11V168.47a3,3,0,0,1,2.24-3Z"
                fill="none" stroke="#0e5200" stroke-miterlimit="10" />
            <circle cx="1982.81" cy="458.54" r="24.21" fill="none" stroke="#0e5200" stroke-miterlimit="10" />
            <rect x="1974.18" y="448.72" width="5.08" height="19.64" fill="none" stroke="#0e5200"
                stroke-miterlimit="10" />
            <rect x="1986.37" y="448.72" width="5.08" height="19.64" fill="none" stroke="#0e5200"
                stroke-miterlimit="10" />
            <polygon
                points="2046.68 448.72 2046.68 458 2032.48 448.72 2032.01 468.05 2046.68 458.45 2046.68 458.54 2046.68 468.36 2050.75 468.36 2050.75 448.72 2046.68 448.72"
                fill="none" stroke="#0e5200" stroke-miterlimit="10" />
            <polygon
                points="1918.95 448.72 1918.95 458 1933.14 448.72 1933.62 468.05 1918.95 458.45 1918.95 458.54 1918.95 468.36 1914.88 468.36 1914.88 448.72 1918.95 448.72"
                fill="none" stroke="#0e5200" stroke-miterlimit="10" />
            <circle cx="1874.08" cy="395.4" r="4.57" fill="none" stroke="#0e5200" stroke-miterlimit="10" />
            <line x1="1878.65" y1="395.4" x2="2097.11" y2="395.4" fill="#ffec00" stroke="#0e5200"
                stroke-miterlimit="10" />
            <path d="M1873.84,463.71c7.12,0,6.28-10.27,12.56-10.27" fill="none" stroke="#0e5200"
                stroke-miterlimit="10" />
            <path d="M1873.94,453.66c7.13,0,6.28,10.27,12.56,10.27" fill="none" stroke="#0e5200"
                stroke-miterlimit="10" />
            <polygon points="1886.4 450.05 1886.4 456.83 1889.42 453.44 1886.4 450.05" fill="#0e5200" />
            <polygon points="2090.83 468.57 2090.83 461.79 2087.81 465.18 2090.83 468.57" fill="#0e5200" />
            <polygon points="1886.4 460.59 1886.4 467.37 1889.42 463.98 1886.4 460.59" fill="#0e5200" />
            <path
                d="M2089.32,465.18h3.09a4.69,4.69,0,0,0,4.7-4.7v-4a4.69,4.69,0,0,0-4.7-4.69h-6.18a4.7,4.7,0,0,0-4.7,4.69v4a4.7,4.7,0,0,0,4.7,4.7"
                fill="none" stroke="#0e5200" stroke-miterlimit="10" />
            <polyline points="1869.52 49.84 1875.52 55.84 1881.71 49.65" fill="#ffec00" stroke="#0e5200"
                stroke-miterlimit="10" />
            <circle cx="2092.59" cy="47.19" r="1.43" fill="#0e5200" />
            <circle cx="2092.59" cy="51.99" r="1.43" fill="#0e5200" />
            <circle cx="2092.59" cy="56.79" r="1.43" fill="#0e5200" />
            <circle cx="2005.86" cy="23.69" r="3.29" fill="none" stroke="#0e5200" stroke-miterlimit="10" />
            </g>
        </a>
    </g>
</svg>