<svg xmlns="http://www.w3.org/2000/svg" viewBox="0 0 760.92 847.5">
    <g id="_768" data-name="768">
        <a href="../vinyl.html" target="_top">
            <g id="Vinyl768">
                <path
                    d="M515.36,663c-.48-94.32-78.21-170.64-174-170.64-2.14,0-6.37.12-6.37.12v341q3.17.11,6.36.11C437.15,833.63,514.88,757.31,515.36,663Zm-171.25-6.25c3.19,0,5.77,2.87,5.77,6.4s-2.58,6.39-5.77,6.39Z"
                    fill="#ffc533" stroke="#7d3600" stroke-miterlimit="10" />
                <path d="M515.37,662.1c0,.3,0,.6,0,.89s0,.59,0,.89Z" fill="#ffc533" stroke="#7d3600"
                    stroke-miterlimit="10" />
                <path
                    d="M344.35,607.55C374.23,609.09,398,633.33,398,663s-23.74,53.91-53.62,55.45l.25-49.72c2.69,0,4.87-2.58,4.87-5.75v0c0-3.18-2.18-5.75-4.87-5.76Z"
                    fill="none" stroke="#7d3600" stroke-miterlimit="10" />
                <path d="M340.69,510.09c85.54,0,155.52,68.91,155.52,152.91S426,816.24,340.47,816.24" fill="none"
                    stroke="#7d3600" stroke-miterlimit="10" />
                <path d="M503.62,663c0,85.72-74.23,161-164.93,159.31" fill="none" stroke="#7d3600" stroke-miterlimit="10" />
                <path d="M503.62,663c0-85.72-74.23-161-164.93-159.3" fill="none" stroke="#7d3600" stroke-miterlimit="10" />
                <path d="M343.1,807.45C425.17,805.21,488,740.58,488,663h0c0-77.58-62.81-142.21-144.88-144.46" fill="none"
                    stroke="#7d3600" stroke-miterlimit="10" />
                <path d="M336.9,827.79C429.21,831.5,510,755,510,663.17v-.43c0-91.81-80.77-168.34-173.08-164.63" fill="none"
                    stroke="#7d3600" stroke-miterlimit="10" />
                <path d="M343.78,529.09c74.76,1.26,135,60.73,135,133.91s-60.2,132.65-135,133.91" fill="none"
                    stroke="#7d3600" stroke-miterlimit="10" />
                <path d="M343.78,788.47C417.63,786.23,469.14,729,470,663.28V663c-.88-65.76-52.39-123-126.24-125.19"
                    fill="none" stroke="#7d3600" stroke-miterlimit="10" />
                <path d="M344,546.42C408.44,547.8,460.27,599.47,460.27,663S408.44,778.2,344,779.58" fill="none"
                    stroke="#7d3600" stroke-miterlimit="10" />
                <path d="M344.11,565.5c53.66,1.45,96.7,44.55,96.7,97.5s-43,96-96.7,97.49" fill="none" stroke="#7d3600"
                    stroke-miterlimit="10" />
                <path d="M343.78,575.42c48.2,1.3,86.86,40,86.86,87.58S392,749.28,343.78,750.58" fill="none" stroke="#7d3600"
                    stroke-miterlimit="10" />
                <path d="M344.24,554.91c61.53,3.42,106,51.13,106,107.92V663c0,56.78-44.5,104.5-106,107.92" fill="none"
                    stroke="#7d3600" stroke-miterlimit="10" />
                <path d="M344.24,586c42.06,1.51,75.68,35.41,75.68,77s-33.62,75.5-75.68,77" fill="none" stroke="#7d3600"
                    stroke-miterlimit="10" />
                <path d="M344.61,605.18c31.15,1.61,55.9,26.88,55.9,57.82s-24.75,56.21-55.91,57.82" fill="none"
                    stroke="#7d3600" stroke-miterlimit="10" stroke-width="0.5" />
                <path d="M344.61,602.52c32.58,1.68,58.47,28.11,58.47,60.48s-25.89,58.8-58.48,60.48" fill="none"
                    stroke="#7d3600" stroke-miterlimit="10" stroke-width="0.5" />
                <path d="M344.41,599.64c34.13,1.77,61.38,29.46,61.38,63.36s-27.25,61.59-61.38,63.35" fill="none"
                    stroke="#7d3600" stroke-miterlimit="10" stroke-width="0.5" />
                <path d="M343.78,596.63c35.76,1.85,64.76,30.86,64.76,66.37s-29,64.52-64.76,66.37" fill="none"
                    stroke="#7d3600" stroke-miterlimit="10" stroke-width="0.5" />
                <path d="M344.42,594.07c37.1,1.91,66.84,32,66.84,68.87s-29.74,66.95-66.84,68.87" fill="none"
                    stroke="#7d3600" stroke-miterlimit="10" stroke-width="0.5" />
                <path d="M344.61,591.59c38.46,2,69.46,33.2,69.46,71.41s-31,69.42-69.47,71.41" fill="none" stroke="#7d3600"
                    stroke-miterlimit="10" stroke-width="0.5" />
                <path d="M344.61,588.53C384.72,590.6,417,623.15,417,663s-32.25,72.4-72.37,74.47" fill="none"
                    stroke="#7d3600" stroke-miterlimit="10" stroke-width="0.5" />
                <path
                    d="M343.64,804.86c.29-2.47.68-71.76,1-141.87-.28-70.11-.67-139.39-1-141.86-.58-5-10.52-34.46-10.52-34.46s-318.36.8-318.81,1.33-9.63,42.92-11.7,52.48a17.86,17.86,0,0,0-.41,3.85v234A49,49,0,0,0,3.3,788.7C6.23,802.15,14,837.56,14.31,838s318.81,1.33,318.81,1.33S343.05,809.87,343.64,804.86ZM117.41,665.19v-4.4c0-32.87,25.14-60.17,58.62-60.17a60.9,60.9,0,0,1,7.68.49l1,.16a156.75,156.75,0,0,0-12.54,61.28V663h0v.43a156.75,156.75,0,0,0,12.54,61.28l-1,.17a62.84,62.84,0,0,1-7.68.48C142.55,725.36,117.41,698.06,117.41,665.19Z"
                    fill="#ffc533" stroke="#7d3600" stroke-miterlimit="10" />
                <polygon points="344.61 662.98 344.61 662.99 344.61 663 344.61 662.98" fill="#ffc533" stroke="#7d3600"
                    stroke-miterlimit="10" />
                <path
                    d="M237.06,665c0,33-27.15,60.35-60.63,60.35S117.81,698,117.81,665v-4c0-33,25.14-60.35,58.62-60.35S237.06,628,237.06,661Z"
                    fill="none" stroke="#7d3600" stroke-miterlimit="10" />
                <path d="M333.12,486.67l-12,15.73a15.5,15.5,0,0,1-12.32,6.06h-268a15.52,15.52,0,0,1-11.13-4.67L14.31,488"
                    fill="none" stroke="#7d3600" stroke-miterlimit="10" />
                <path d="M333.12,839.31l-12-15.73a15.5,15.5,0,0,0-12.32-6.05h-268a15.49,15.49,0,0,0-11.11,4.66L14.31,838"
                    fill="none" stroke="#7d3600" stroke-miterlimit="10" />
                <path d="M200,606.34a147.68,147.68,0,0,0,0,113.31" fill="none" stroke="#7d3600" stroke-miterlimit="10" />
                <path d="M209.7,610.61a139.87,139.87,0,0,0,0,104.77" fill="none" stroke="#7d3600" stroke-miterlimit="10" />
                <path d="M190.15,602.25a158.35,158.35,0,0,0,0,121.49" fill="none" stroke="#7d3600" stroke-miterlimit="10" />
                <path d="M218.37,616.6a124.22,124.22,0,0,0,0,91.77" fill="none" stroke="#7d3600" stroke-miterlimit="10" />
                <path d="M225.71,626a113.28,113.28,0,0,0,.23,73.72" fill="none" stroke="#7d3600" stroke-miterlimit="10" />
                <path d="M232.52,638.19a111.62,111.62,0,0,0,0,49.6" fill="none" stroke="#7d3600" stroke-miterlimit="10" />
            </g>
        </a>

        <a href="../cassette.html" target="_top">    
            <g id="Kassett768">
                <path
                    d="M744.67,487.9c-10.42.38-134.34,1.14-134.34,1.14s-1.14-1.82-1.62-2-56.58-.85-57.7,0a28.43,28.43,0,0,0-2.22,2l-11.08.24c-8.64.19-8.65,8.41-8.63,13V543l-1.28,6,1.54,238.84,1.55,3.3V837s.77,7.35,7.46,7.61,10.81,0,10.81,0l2.06,2.28h57.13l2.41-2.38,135.4.86c11.45-.51,13.13-5.45,13.13-11.91s.83-331.84.83-331.84C760.11,489.42,755.09,487.52,744.67,487.9Zm-206,94.9,1.71-3.44,2.42-2,4.33-1,1,1.34,1.15,3.74-.41,2.9-2,3.18-3,1.92-3.51.47-1.49-2.92Zm10.13,173.44a28.73,28.73,0,0,1-5-.31l-2.83-1.9L539,750.6v-5.21C544.92,744.37,551.18,747.35,548.75,756.24Zm4.42-33.72-5.3-.43-1.9-1.64-.57-2.34.26-4.33,1.83-2.24,1.79-.85,2.43.93,1.6,2ZM553.66,622l-1.43,2.1-1.85,1.19h-1.72l-1.58-1-1.3-1.79-.38-1.88,0-4.06.6-1.75,1.35-1.41,1.9-.7,3.89.13.49,1.35ZM670.81,744.85l-1.63,5.22L667,752.3l-2.38-2.38-2,1.11-2.14,2.1,2.35,3.07-5.4,2.23-5.78.46-1.53-.28,1-3.23-4.89-1.62-1.06,2.85-3.41-1.94-2.43-2.48-2.42-4.33,2.86-.65-1.78-5.35-2,.73-.47-1.82,1.33-6.15,2.24-3.89,2.2,2,3.62-2.78.14-.83L643,726.87l5.72-2.62,6.41-.48-.74,3.37,2.73,1.28,2.28.54,1.43-3.64,4.9,3.33,3.75,5.2V735l-3.6.78.11,2.69.94,2.27,4.18-.84Zm0-147.68L670,599,666.71,597,666,598l-1.22,2.34-.39,1.41,1.11.73,2.28,1.34L666,606.08l-3,2.39-3.22,1.39-2.92.82-.32-2.83-.27-.86-.6-.32-4.52.54-.26,1.72.27,2.15-7-2.21-4.51-3.73,2.78-2.15-2.78-4.11-3,1.5-1.24-5V592l.67-3.37.18-.53,1.24.63,1.21.38,1.26-1,1-1.88.18-1.48-1.1-.89-1-.69,1.28-1.71,2.85-2.34a23.7,23.7,0,0,1,3-1.78,22.34,22.34,0,0,0,2.94-.77l-.15,2.1.15,1h.81l4-.27s.62-.16.62-.37-.06-1.62-.06-1.62l.17-1.24,3,.49,4.6,1.69,3.45,3-1.29,1.23-1.59,1.12,1.69,2.22,1.39,2L669.2,586l2.13,6.71Z"
                    fill="#00a8eb" stroke="#0009b5" stroke-miterlimit="10" />
                <path
                    d="M530.88,791.1V837s.77,7.35,7.46,7.61,10.81,0,10.81,0l2.06,2.28h57.13l2.41-2.38,135.4.86c11.45-.51,13.13-5.45,13.13-11.91s.83-331.84.83-331.84c0-12.17-5-14.07-15.44-13.69S610.33,489,610.33,489s-1.14-1.82-1.62-2-56.58-.85-57.7,0a28.43,28.43,0,0,0-2.22,2l-11.08.24c-8.64.19-8.65,8.41-8.63,13V543l-1.28,6,1.54,238.84Z"
                    fill="none" stroke="#0009b5" stroke-miterlimit="10" />
                <ellipse cx="551.13" cy="525.44" rx="2.92" ry="2.88" fill="none" stroke="#0009b5" stroke-miterlimit="10" />
                <ellipse cx="551.37" cy="525.68" rx="6.76" ry="6.66" fill="none" stroke="#0009b5" stroke-miterlimit="10" />
                <ellipse cx="551.52" cy="525.54" rx="15.92" ry="15.68" fill="none" stroke="#0009b5"
                    stroke-miterlimit="10" />
                <ellipse cx="541" cy="581.92" rx="8.23" ry="8.11" fill="none" stroke="#0009b5" stroke-miterlimit="10" />
                <path d="M540.59,590a8,8,0,0,1-2.16-5.48,8.17,8.17,0,0,1,8.23-8.1h.42" fill="none" stroke="#0009b5"
                    stroke-miterlimit="10" />
                <ellipse cx="570.64" cy="667.67" rx="6.43" ry="6.34" fill="none" stroke="#0009b5" stroke-miterlimit="10" />
                <ellipse cx="541.56" cy="752.83" rx="7.98" ry="7.86" fill="none" stroke="#0009b5" stroke-miterlimit="10" />
                <path d="M548.75,756.24a8,8,0,0,1-2,.26,7.92,7.92,0,0,1-8-7.86,7.67,7.67,0,0,1,.79-3.41" fill="none"
                    stroke="#0009b5" stroke-miterlimit="10" />
                <ellipse cx="552.49" cy="807.83" rx="3.15" ry="3.1" fill="none" stroke="#0009b5" stroke-miterlimit="10" />
                <ellipse cx="552.49" cy="807.83" rx="7.46" ry="7.35" fill="none" stroke="#0009b5" stroke-miterlimit="10" />
                <ellipse cx="553.3" cy="807.04" rx="15.54" ry="15.3" fill="none" stroke="#0009b5" stroke-miterlimit="10" />
                <ellipse cx="540.95" cy="833.3" rx="5.28" ry="5.2" fill="none" stroke="#0009b5" stroke-miterlimit="10" />
                <ellipse cx="539.88" cy="499.77" rx="5.28" ry="5.2" fill="none" stroke="#0009b5" stroke-miterlimit="10" />
                <ellipse cx="749.01" cy="498.61" rx="5.28" ry="5.2" fill="none" stroke="#0009b5" stroke-miterlimit="10" />
                <rect x="540.33" y="610.1" width="13.32" height="15.52" rx="4.97" fill="none" stroke="#0009b5"
                    stroke-miterlimit="10" />
                <path d="M549.52,625.55a5,5,0,0,1-4.12-4.85v-3.56a4.45,4.45,0,0,1,4.48-4.41h1.94a5.43,5.43,0,0,1,1.35.18"
                    fill="none" stroke="#0009b5" stroke-miterlimit="10" />
                <rect x="540.33" y="710.69" width="13.32" height="14.25" rx="4.76" fill="none" stroke="#0009b5"
                    stroke-miterlimit="10" />
                <path d="M549.52,710.76a4.68,4.68,0,0,0-4.12,4.45v3.26a4.28,4.28,0,0,0,4.48,4h1.94a5.43,5.43,0,0,0,1.35-.17"
                    fill="none" stroke="#0009b5" stroke-miterlimit="10" />
                <ellipse cx="749.04" cy="834.34" rx="5.73" ry="5.65" fill="none" stroke="#0009b5" stroke-miterlimit="10" />
                <path
                    d="M619.53,495.32c-14.79,5.46-30.5,15.32-37.7,23.71-3.63,4.23-11.46.16-7.2-5.85,2.46-3.46,18.62-15.53,20.21-15.73s11.34.53,12.74,0,8.16-4,9.8-4.14,3.18-.52,3.71.43S619.53,495.32,619.53,495.32Z"
                    fill="none" stroke="#0009b5" stroke-miterlimit="10" />
                <path
                    d="M619.53,838c-14.79-5.27-30.5-14.77-37.7-22.85-3.63-4.08-11.46-.15-7.2,5.63,2.46,3.34,18.62,15,20.21,15.16s11.34-.5,12.74,0,8.16,3.81,9.8,4,3.18.5,3.71-.41S619.53,838,619.53,838Z"
                    fill="none" stroke="#0009b5" stroke-miterlimit="10" />
                <path
                    d="M530.88,791.1s46.64-8.84,52.24-10.84c4.65-1.65,4.49-7,4.44-10.64,0-3.43-1-202.63-1-208.72,0-6.41-3.66-7.21-8.1-8-4-.7-49.42-10.83-49.42-10.83"
                    fill="none" stroke="#0009b5" stroke-miterlimit="10" />
                <path d="M529.33,786.84l52.23-10.24s2.61-.53,2.13-5.4" fill="none" stroke="#0009b5"
                    stroke-miterlimit="10" />
                <path d="M616.05,816.93l.78-201.24a1.67,1.67,0,0,0-1.68-1.66H597.3a1.31,1.31,0,0,0-1.31,1.3V817.44"
                    fill="none" stroke="#0009b5" stroke-miterlimit="10" />
                <path
                    d="M591.61,811.87c.11,3.9,1.11,5.57,5.1,5.57l138.58.36c4.9,0,4.17-3.38,4.07-9.21-.12-7.42,1.07-279.25,1.07-285.81s.48-6.74-5.6-7.12-131.61,0-136.73.2-6.06,1.22-6.1,5.56c0,0-.45,285-.39,290.45"
                    fill="none" stroke="#0009b5" stroke-miterlimit="10" />
                <path
                    d="M626.74,558.33h55.81a5,5,0,0,1,5,5V770.8a5,5,0,0,1-5,5H625.61a5,5,0,0,1-5-5V564.49a6.16,6.16,0,0,1,6.16-6.16Z"
                    fill="none" stroke="#0009b5" stroke-miterlimit="10" />
                <path
                    d="M626.05,562.53h56.66a2.3,2.3,0,0,1,2.3,2.3V770.52a2.3,2.3,0,0,1-2.3,2.3H627.49a3.74,3.74,0,0,1-3.74-3.74V564.83a2.3,2.3,0,0,1,2.3-2.3Z"
                    fill="none" stroke="#0009b5" stroke-miterlimit="10" />
                <rect x="628.23" y="566.3" width="52.38" height="202.21" rx="2.9" fill="none" stroke="#0009b5"
                    stroke-miterlimit="10" />
                <polyline points="676.31 624.94 680.61 620.73 628.23 620.73 631.05 624.57" fill="none" stroke="#0009b5"
                    stroke-linejoin="bevel" />
                <line x1="628.23" y1="714.95" x2="680.61" y2="714.95" fill="none" stroke="#0009b5" stroke-miterlimit="10" />
                <line x1="680.61" y1="712.72" x2="628.23" y2="712.72" fill="none" stroke="#0009b5" stroke-miterlimit="10" />
                <path d="M628.23,706.83v.75a3,3,0,0,0,3.06,3h46.26a3,3,0,0,0,3.06-3v-2.19" fill="none" stroke="#0009b5"
                    stroke-miterlimit="10" />
                <path d="M629.82,710.22a41.19,41.19,0,0,1,46,.37" fill="none" stroke="#0009b5" stroke-miterlimit="10" />
                <path d="M635.89,710.59a35.84,35.84,0,0,1,33.29,0" fill="none" stroke="#0009b5" stroke-miterlimit="10" />
                <polyline points="650.27 706.56 650.51 710.59 641.25 710.59 640.3 708.65" fill="none" stroke="#0009b5"
                    stroke-miterlimit="10" />
                <ellipse cx="653.94" cy="743.41" rx="25.21" ry="24.83" fill="none" stroke="#0009b5"
                    stroke-miterlimit="10" />
                <ellipse cx="653.3" cy="741.28" rx="17.88" ry="17.61" fill="none" stroke="#0009b5" stroke-miterlimit="10" />
                <ellipse cx="654.44" cy="743.08" rx="22.81" ry="22.1" fill="none" stroke="#0009b5" stroke-miterlimit="10" />
                <ellipse cx="653.95" cy="591.57" rx="25.21" ry="24.83" fill="none" stroke="#0009b5"
                    stroke-miterlimit="10" />
                <ellipse cx="653.3" cy="593.7" rx="17.88" ry="17.61" fill="none" stroke="#0009b5" stroke-miterlimit="10" />
                <ellipse cx="654.44" cy="591.9" rx="22.81" ry="22.1" fill="none" stroke="#0009b5" stroke-miterlimit="10" />
                <path d="M628.23,652.62a95.39,95.39,0,0,1,52.49.68" fill="none" stroke="#0009b5" stroke-miterlimit="10" />
                <path d="M676.31,624.94a39,39,0,0,1-45.26-.37Z" fill="none" stroke="#0009b5" stroke-linejoin="bevel" />
                <line x1="654.99" y1="665.03" x2="654.99" y2="629.6" fill="none" stroke="#0009b5" stroke-linecap="round"
                    stroke-miterlimit="10" />
                <line x1="654.99" y1="705.94" x2="654.99" y2="670.29" fill="none" stroke="#0009b5" stroke-linecap="round"
                    stroke-miterlimit="10" />
                <line x1="650.98" y1="639.9" x2="658.9" y2="639.9" fill="none" stroke="#0009b5" stroke-linecap="round"
                    stroke-miterlimit="10" />
                <line x1="650.98" y1="646.79" x2="658.9" y2="646.79" fill="none" stroke="#0009b5" stroke-linecap="round"
                    stroke-miterlimit="10" />
                <line x1="650.98" y1="653.69" x2="658.9" y2="653.69" fill="none" stroke="#0009b5" stroke-linecap="round"
                    stroke-miterlimit="10" />
                <line x1="650.98" y1="660.72" x2="658.9" y2="660.72" fill="none" stroke="#0009b5" stroke-linecap="round"
                    stroke-miterlimit="10" />
                <line x1="650.98" y1="681.73" x2="658.9" y2="681.73" fill="none" stroke="#0009b5" stroke-linecap="round"
                    stroke-miterlimit="10" />
                <line x1="650.98" y1="688.82" x2="658.9" y2="688.82" fill="none" stroke="#0009b5" stroke-linecap="round"
                    stroke-miterlimit="10" />
                <line x1="650.98" y1="695.78" x2="658.9" y2="695.78" fill="none" stroke="#0009b5" stroke-linecap="round"
                    stroke-miterlimit="10" />
                <line x1="650.98" y1="674.89" x2="658.9" y2="674.89" fill="none" stroke="#0009b5" stroke-linecap="round"
                    stroke-miterlimit="10" />
                <ellipse cx="655.06" cy="667.8" rx="2.27" ry="2.37" fill="none" stroke="#0009b5" stroke-linecap="round"
                    stroke-miterlimit="10" />
                <line x1="657.33" y1="667.8" x2="670.65" y2="667.8" fill="none" stroke="#0009b5" stroke-linecap="round"
                    stroke-miterlimit="10" />
                <line x1="652.79" y1="667.8" x2="639.48" y2="667.8" fill="none" stroke="#0009b5" stroke-linecap="round"
                    stroke-miterlimit="10" />
                <line x1="624.88" y1="775.83" x2="624.88" y2="817" fill="none" stroke="#0009b5" stroke-miterlimit="10" />
                <line x1="627.54" y1="775.83" x2="627.54" y2="817" fill="none" stroke="#0009b5" stroke-miterlimit="10" />
                <line x1="630.2" y1="775.83" x2="630.2" y2="817" fill="none" stroke="#0009b5" stroke-miterlimit="10" />
                <line x1="632.86" y1="775.83" x2="632.86" y2="817" fill="none" stroke="#0009b5" stroke-miterlimit="10" />
                <line x1="635.52" y1="775.83" x2="635.52" y2="817" fill="none" stroke="#0009b5" stroke-miterlimit="10" />
                <line x1="672.56" y1="775.83" x2="672.56" y2="817" fill="none" stroke="#0009b5" stroke-miterlimit="10" />
                <line x1="675.22" y1="775.83" x2="675.22" y2="817" fill="none" stroke="#0009b5" stroke-miterlimit="10" />
                <line x1="677.88" y1="775.83" x2="677.88" y2="817" fill="none" stroke="#0009b5" stroke-miterlimit="10" />
                <line x1="680.54" y1="775.83" x2="680.54" y2="817" fill="none" stroke="#0009b5" stroke-miterlimit="10" />
                <line x1="683.2" y1="775.83" x2="683.2" y2="817" fill="none" stroke="#0009b5" stroke-miterlimit="10" />
                <line x1="625.28" y1="515.58" x2="625.28" y2="558.33" fill="none" stroke="#0009b5" stroke-miterlimit="10" />
                <line x1="627.94" y1="515.58" x2="627.94" y2="558.33" fill="none" stroke="#0009b5" stroke-miterlimit="10" />
                <line x1="630.6" y1="515.58" x2="630.6" y2="558.33" fill="none" stroke="#0009b5" stroke-miterlimit="10" />
                <line x1="633.26" y1="515.58" x2="633.26" y2="558.33" fill="none" stroke="#0009b5" stroke-miterlimit="10" />
                <line x1="635.92" y1="515.58" x2="635.92" y2="558.33" fill="none" stroke="#0009b5" stroke-miterlimit="10" />
                <line x1="673.06" y1="515.58" x2="673.06" y2="558.33" fill="none" stroke="#0009b5" stroke-miterlimit="10" />
                <line x1="675.79" y1="515.58" x2="675.79" y2="558.33" fill="none" stroke="#0009b5" stroke-miterlimit="10" />
                <line x1="678.53" y1="515.58" x2="678.53" y2="558.33" fill="none" stroke="#0009b5" stroke-miterlimit="10" />
                <line x1="681.26" y1="515.58" x2="681.26" y2="558.33" fill="none" stroke="#0009b5" stroke-miterlimit="10" />
                <line x1="683.99" y1="515.58" x2="683.99" y2="558.33" fill="none" stroke="#0009b5" stroke-miterlimit="10" />
                <line x1="703.17" y1="515.58" x2="702.4" y2="817.56" fill="none" stroke="#0009b5" stroke-miterlimit="10" />
                <path d="M616.83,515.72v17.42a1.5,1.5,0,0,1-1.48,1.49l-17.43.28a1.46,1.46,0,0,1-1.49-1.44V516.23"
                    fill="none" stroke="#0009b5" stroke-miterlimit="10" />
                <path d="M528.39,641.92h22.16a1.93,1.93,0,0,1,2,1.91l.13,50.35a1.61,1.61,0,0,1-1.62,1.6H529.07" fill="none"
                    stroke="#0009b5" stroke-miterlimit="10" />
                <polyline points="648.96 540.31 660.52 535.88 648.96 531.36" fill="none" stroke="#0009b5"
                    stroke-linejoin="bevel" />
                <line x1="653.16" y1="538.7" x2="653.16" y2="533" fill="none" stroke="#0009b5" stroke-linejoin="bevel" />
                <path d="M649.15,576.57l.12,2.54a.58.58,0,0,0,.62.54l4.28-.28a.56.56,0,0,0,.53-.57l-.1-2.65" fill="none"
                    stroke="#0009b5" stroke-miterlimit="10" />
                <path d="M666,581.32l-2.57,1.84a.59.59,0,0,0-.14.8l2.43,3.53a.52.52,0,0,0,.7.15l2.89-1.75" fill="none"
                    stroke="#0009b5" stroke-miterlimit="10" />
                <path d="M670.39,598.89l-3.31-1.65a.68.68,0,0,0-.91.29l-1.83,3.5a.73.73,0,0,0,.3,1l3.33,1.76" fill="none"
                    stroke="#0009b5" stroke-miterlimit="10" />
                <path d="M656.9,611l-.37-3.61a.75.75,0,0,0-.8-.67l-3.92.25a.92.92,0,0,0-.87,1l.27,3.28" fill="none"
                    stroke="#0009b5" stroke-miterlimit="10" />
                <path d="M639.7,605.14l2.54-1.83a.67.67,0,0,0,.16-.93l-2.17-3.13a1,1,0,0,0-1.3-.26l-2.18,1.39" fill="none"
                    stroke="#0009b5" stroke-miterlimit="10" />
                <path d="M636.35,588.07l2.25,1.14a.44.44,0,0,0,.57-.17l2.29-4a.4.4,0,0,0-.15-.53L639,583.13" fill="none"
                    stroke="#0009b5" stroke-miterlimit="10" />
                <path d="M645.1,756.61l.74-2.44a.58.58,0,0,1,.73-.38l4.08,1.28a.55.55,0,0,1,.38.68l-.74,2.55" fill="none"
                    stroke="#0009b5" stroke-miterlimit="10" />
                <path d="M662.63,756l-2-2.39a.57.57,0,0,1,.06-.81l3.21-2.86a.54.54,0,0,1,.72,0L667,752.3" fill="none"
                    stroke="#0009b5" stroke-miterlimit="10" />
                <path d="M671.14,739.93l-3.61.82a.68.68,0,0,1-.82-.5l-.93-3.82a.72.72,0,0,1,.53-.88l3.66-.93" fill="none"
                    stroke="#0009b5" stroke-miterlimit="10" />
                <path d="M661,725l-1.23,3.42a.76.76,0,0,1-.94.46L655,727.76a.92.92,0,0,1-.61-1.17l1.06-3.12" fill="none"
                    stroke="#0009b5" stroke-miterlimit="10" />
                <path d="M642.85,726.65l2,2.36a.67.67,0,0,1-.06.94l-2.88,2.54a1,1,0,0,1-1.32-.06l-1.78-1.86" fill="none"
                    stroke="#0009b5" stroke-miterlimit="10" />
                <path d="M635.46,742.44l2.46-.58a.42.42,0,0,1,.51.29l1.25,4.43a.4.4,0,0,1-.27.49l-2.57.79" fill="none"
                    stroke="#0009b5" stroke-miterlimit="10" />
                <path
                    d="M603.74,802.28a1.3,1.3,0,0,0-1.16.63,1.47,1.47,0,0,0-.17.69,1.55,1.55,0,0,0,.61,1.22,5.08,5.08,0,0,0,2.45.71,1.78,1.78,0,0,1-.75-.82,2.68,2.68,0,0,1-.22-1.06,2.36,2.36,0,0,1,.73-1.81,2.65,2.65,0,0,1,1.86-.66,3.06,3.06,0,0,1,1.93.65,2.35,2.35,0,0,1,.83,1.95,2.4,2.4,0,0,1-1.58,2.39,5.74,5.74,0,0,1-2.18.36,7.09,7.09,0,0,1-2.62-.44,2.52,2.52,0,0,1-1.9-2.45,2.38,2.38,0,0,1,.62-1.77,2.13,2.13,0,0,1,1.55-.6Zm2,2.59a1.66,1.66,0,0,0,1.38.49,1.8,1.8,0,0,0,1.32-.44,1.49,1.49,0,0,0,.44-1.12,1.46,1.46,0,0,0-.5-1.16,2.26,2.26,0,0,0-2.58,0,1.48,1.48,0,0,0-.46,1.2A1.66,1.66,0,0,0,605.79,804.87Z"
                    fill="#0009b5" />
                <path
                    d="M608.55,812.36a5.74,5.74,0,0,1-2.72.53,6.64,6.64,0,0,1-2.71-.48,2.34,2.34,0,0,1-1.54-2.28,2.27,2.27,0,0,1,1.26-2.12,5.8,5.8,0,0,1,2.82-.58,6.88,6.88,0,0,1,2.35.35,2.38,2.38,0,0,1,1.83,2.36A2.33,2.33,0,0,1,608.55,812.36Zm-5.36-1a5.09,5.09,0,0,0,2.6.46,6.58,6.58,0,0,0,2.26-.33,1.26,1.26,0,0,0,.88-1.29,1.35,1.35,0,0,0-.84-1.29,5.89,5.89,0,0,0-2.47-.4,6,6,0,0,0-2,.26,1.41,1.41,0,0,0-.45,2.59Z"
                    fill="#0009b5" />
            </g>
        </a>

        <a href="../cd.html" target="_top">    
            <g id="Cd768">
                <path
                    d="M760.11,14.86v444.4c0,14.64-4.18,17.09-18,17.09H268.51V464.79h-5.17v11.56H220.55a13.27,13.27,0,0,1-13.36-13.17V14.11A13.27,13.27,0,0,1,220.55.94l526.2.75a13.27,13.27,0,0,1,13.36,13.17"
                    fill="#ffa4ba" stroke="#890050" stroke-miterlimit="10" />
                <ellipse cx="501.32" cy="241.33" rx="55.46" ry="54.62" fill="none" stroke="#890050"
                    stroke-miterlimit="10" />
                <path d="M522.15,287.47a49.07,49.07,0,0,1-41.87-.1" fill="none" stroke="#890050" stroke-miterlimit="10" />
                <path
                    d="M276.49,146.48h-6a3.66,3.66,0,0,1-3.69-3.64l0-16.69c19-4.18,22.71-20.66,22.71-24.25,0-14.38-11.93-26-33.28-26v169"
                    fill="none" stroke="#890050" stroke-miterlimit="10" />
                <path
                    d="M299.22,105.27c6.81.27,12.94-11.38,12.94-11.38-3.37,6.6-7.55,9.59-11.21,9.11-18.69-2.46-3.88-60.48,10.69-73.49l-.89.84c14.49-12.33,73.51-19.79,73.86-1.82.07,3.52-3.36,7.14-10.27,9.59,0,0,12.16-4.2,12.16-12.08"
                    fill="none" stroke="#890050" stroke-linejoin="bevel" />
                <path d="M384.47,27.2A230.08,230.08,0,0,1,425.65,8.81" fill="none" stroke="#890050"
                    stroke-linejoin="bevel" />
                <path d="M270,82.83a19.33,19.33,0,0,1,0,37.72Z" fill="none" stroke="#890050" stroke-miterlimit="10" />
                <rect x="213.47" y="58.98" width="36.3" height="359.34" fill="none" stroke="#890050"
                    stroke-linejoin="bevel" />
                <path d="M212.21,41.57h45.18V5.19H222.63a10.35,10.35,0,0,0-10.42,10.27Z" fill="none" stroke="#890050"
                    stroke-linejoin="bevel" />
                <line x1="210.2" y1="36.42" x2="213.92" y2="36.42" fill="none" stroke="#890050" stroke-linejoin="bevel" />
                <line x1="210.2" y1="33.51" x2="213.92" y2="33.51" fill="none" stroke="#890050" stroke-linejoin="bevel" />
                <line x1="210.2" y1="30.6" x2="213.92" y2="30.6" fill="none" stroke="#890050" stroke-linejoin="bevel" />
                <line x1="210.2" y1="27.69" x2="213.92" y2="27.69" fill="none" stroke="#890050" stroke-linejoin="bevel" />
                <line x1="210.2" y1="24.78" x2="213.92" y2="24.78" fill="none" stroke="#890050" stroke-linejoin="bevel" />
                <line x1="210.2" y1="21.87" x2="213.92" y2="21.87" fill="none" stroke="#890050" stroke-linejoin="bevel" />
                <line x1="210.2" y1="18.96" x2="213.92" y2="18.96" fill="none" stroke="#890050" stroke-linejoin="bevel" />
                <line x1="210.2" y1="16.05" x2="213.92" y2="16.05" fill="none" stroke="#890050" stroke-linejoin="bevel" />
                <line x1="221.22" y1="5.19" x2="224.05" y2="0.95" fill="none" stroke="#890050" stroke-linejoin="bevel" />
                <line x1="224.85" y1="5.19" x2="227.68" y2="0.95" fill="none" stroke="#890050" stroke-linejoin="bevel" />
                <line x1="228.48" y1="5.19" x2="231.31" y2="0.95" fill="none" stroke="#890050" stroke-linejoin="bevel" />
                <line x1="232.11" y1="5.19" x2="234.94" y2="0.95" fill="none" stroke="#890050" stroke-linejoin="bevel" />
                <line x1="235.74" y1="5.19" x2="238.57" y2="0.95" fill="none" stroke="#890050" stroke-linejoin="bevel" />
                <line x1="239.36" y1="5.19" x2="242.2" y2="0.95" fill="none" stroke="#890050" stroke-linejoin="bevel" />
                <line x1="242.99" y1="5.19" x2="245.83" y2="0.95" fill="none" stroke="#890050" stroke-linejoin="bevel" />
                <line x1="246.62" y1="5.19" x2="249.46" y2="0.95" fill="none" stroke="#890050" stroke-linejoin="bevel" />
                <line x1="250.25" y1="5.19" x2="253.09" y2="0.95" fill="none" stroke="#890050" stroke-linejoin="bevel" />
                <line x1="253.88" y1="5.19" x2="256.72" y2="0.95" fill="none" stroke="#890050" stroke-linejoin="bevel" />
                <line x1="257.51" y1="5.19" x2="260.35" y2="0.95" fill="none" stroke="#890050" stroke-linejoin="bevel" />
                <path
                    d="M307.78,12.51H277.57V51.78H212.21v-3.9h51.11s0-5.39,0-5.06V34.6H260V31h3.35V16.13L260,16.08V12.49h3.35c0-4.71,2.67-6.73,8.82-6.73v3l153.49,0H744.2a7,7,0,0,1,7.1,7V463.49a5.05,5.05,0,0,1-5.08,5l-16.82,0-153.49,0"
                    fill="none" stroke="#890050" stroke-miterlimit="10" />
                <rect x="258.23" y="65.92" width="4.97" height="3.45" fill="none" stroke="#890050" stroke-miterlimit="10" />
                <rect x="258.23" y="58.98" width="4.97" height="3.45" fill="none" stroke="#890050" stroke-miterlimit="10" />
                <path
                    d="M301.18,374.23c-12.05-13-18.36-29.49-21.69-36.67h-8.14c-1.65,0-1.65-3.55,0-3.55H282.2c-8.62-19.95-20.55-32.24-20.55-89.13,0-58.17,11.93-81.64,20.55-101.6H271.35c-1.65,0-1.65-3.54,0-3.54h8.14c3.33-7.18,9.64-23.71,21.69-36.67"
                    fill="none" stroke="#890050" stroke-miterlimit="10" />
                <path
                    d="M276.49,330.82h-6a3.66,3.66,0,0,0-3.69,3.64l0,16.69c19,4.18,22.71,20.66,22.71,24.25,0,14.38-11.93,26-33.28,26v-169"
                    fill="none" stroke="#890050" stroke-miterlimit="10" />
                <path
                    d="M299.22,372c6.81-.27,12.94,11.38,12.94,11.38-3.37-6.6-7.55-9.59-11.21-9.11-18.69,2.46-3.88,60.48,10.69,73.49l-.89-.84c14.49,12.33,73.51,19.79,73.86,1.82.07-3.53-3.36-7.14-10.27-9.59,0,0,12.16,4.2,12.16,12.08"
                    fill="none" stroke="#890050" stroke-linejoin="bevel" />
                <path d="M384.47,450.1a230.08,230.08,0,0,0,41.18,18.39" fill="none" stroke="#890050"
                    stroke-linejoin="bevel" />
                <line x1="263.92" y1="126.72" x2="268.71" y2="125.61" fill="none" stroke="#890050"
                    stroke-linejoin="bevel" />
                <line x1="268.71" y1="351.69" x2="263.92" y2="350.58" fill="none" stroke="#890050"
                    stroke-linejoin="bevel" />
                <path d="M270,394.47a19.33,19.33,0,0,0,0-37.72Z" fill="none" stroke="#890050" stroke-miterlimit="10" />
                <path d="M212.21,435.73h45.18v36.38H222.63a10.35,10.35,0,0,1-10.42-10.27Z" fill="none" stroke="#890050"
                    stroke-linejoin="bevel" />
                <line x1="210.2" y1="440.88" x2="213.92" y2="440.88" fill="none" stroke="#890050" stroke-linejoin="bevel" />
                <line x1="210.2" y1="443.79" x2="213.92" y2="443.79" fill="none" stroke="#890050" stroke-linejoin="bevel" />
                <line x1="210.2" y1="446.7" x2="213.92" y2="446.7" fill="none" stroke="#890050" stroke-linejoin="bevel" />
                <line x1="210.2" y1="449.61" x2="213.92" y2="449.61" fill="none" stroke="#890050" stroke-linejoin="bevel" />
                <line x1="210.2" y1="452.52" x2="213.92" y2="452.52" fill="none" stroke="#890050" stroke-linejoin="bevel" />
                <line x1="210.2" y1="455.43" x2="213.92" y2="455.43" fill="none" stroke="#890050" stroke-linejoin="bevel" />
                <line x1="210.2" y1="458.34" x2="213.92" y2="458.34" fill="none" stroke="#890050" stroke-linejoin="bevel" />
                <line x1="210.2" y1="461.25" x2="213.92" y2="461.25" fill="none" stroke="#890050" stroke-linejoin="bevel" />
                <line x1="221.22" y1="472.11" x2="224.05" y2="476.35" fill="none" stroke="#890050"
                    stroke-linejoin="bevel" />
                <line x1="224.85" y1="472.11" x2="227.68" y2="476.35" fill="none" stroke="#890050"
                    stroke-linejoin="bevel" />
                <line x1="228.48" y1="472.11" x2="231.31" y2="476.35" fill="none" stroke="#890050"
                    stroke-linejoin="bevel" />
                <line x1="232.11" y1="472.11" x2="234.94" y2="476.35" fill="none" stroke="#890050"
                    stroke-linejoin="bevel" />
                <line x1="235.74" y1="472.11" x2="238.57" y2="476.35" fill="none" stroke="#890050"
                    stroke-linejoin="bevel" />
                <line x1="239.36" y1="472.11" x2="242.2" y2="476.35" fill="none" stroke="#890050" stroke-linejoin="bevel" />
                <line x1="242.99" y1="472.11" x2="245.83" y2="476.35" fill="none" stroke="#890050"
                    stroke-linejoin="bevel" />
                <line x1="246.62" y1="472.11" x2="249.46" y2="476.35" fill="none" stroke="#890050"
                    stroke-linejoin="bevel" />
                <line x1="250.25" y1="472.11" x2="253.09" y2="476.35" fill="none" stroke="#890050"
                    stroke-linejoin="bevel" />
                <line x1="253.88" y1="472.11" x2="256.72" y2="476.35" fill="none" stroke="#890050"
                    stroke-linejoin="bevel" />
                <line x1="257.51" y1="472.11" x2="260.35" y2="476.35" fill="none" stroke="#890050"
                    stroke-linejoin="bevel" />
                <line x1="263.34" y1="446.32" x2="263.34" y2="461.17" fill="none" stroke="#890050" stroke-miterlimit="10" />
                <path d="M307.78,464.79H277.57V425.52H212.21v3.9h51.11s0,5.39,0,5.06v8.21H260" fill="none" stroke="#890050"
                    stroke-miterlimit="10" />
                <rect x="258.23" y="407.93" width="4.97" height="3.45" fill="none" stroke="#890050"
                    stroke-miterlimit="10" />
                <rect x="258.23" y="414.87" width="4.97" height="3.45" fill="none" stroke="#890050"
                    stroke-miterlimit="10" />
                <path
                    d="M725.07,146.48h6a3.66,3.66,0,0,0,3.69-3.64l0-16.69c-19-4.18-22.71-20.66-22.71-24.25,0-14.38,11.93-26,33.28-26v169"
                    fill="none" stroke="#890050" stroke-miterlimit="10" />
                <path
                    d="M702.34,105.27c-6.81.27-13-11.38-13-11.38,3.38,6.6,7.55,9.59,11.22,9.11,18.69-2.46,3.88-60.48-10.69-73.49l.89.84C676.32,18,617.3,10.56,617,28.53c-.07,3.52,3.36,7.14,10.26,9.59,0,0-12.15-4.2-12.15-12.08"
                    fill="none" stroke="#890050" stroke-linejoin="bevel" />
                <path d="M617.09,27.2A230.08,230.08,0,0,0,575.91,8.81" fill="none" stroke="#890050"
                    stroke-linejoin="bevel" />
                <line x1="737.64" y1="126.72" x2="732.84" y2="125.61" fill="none" stroke="#890050"
                    stroke-linejoin="bevel" />
                <path d="M731.53,82.83a19.33,19.33,0,0,0,0,37.72Z" fill="none" stroke="#890050" stroke-miterlimit="10" />
                <path
                    d="M700.38,374.23c12-13,18.36-29.49,21.69-36.67h8.14c1.65,0,1.65-3.55,0-3.55H719.36c8.62-19.95,18.28-32.24,18.28-89.13,0-58.17-9.66-81.64-18.28-101.6h10.85c1.65,0,1.65-3.54,0-3.54h-8.14c-3.33-7.18-9.64-23.71-21.69-36.67"
                    fill="none" stroke="#890050" stroke-miterlimit="10" />
                <path
                    d="M725.07,330.82h6a3.66,3.66,0,0,1,3.69,3.64l0,16.69c-19,4.18-22.71,20.66-22.71,24.25,0,14.38,11.93,26,33.28,26v-169"
                    fill="none" stroke="#890050" stroke-miterlimit="10" />
                <path
                    d="M702.34,372c-6.81-.27-13,11.38-13,11.38,3.38-6.6,7.55-9.59,11.22-9.11,18.69,2.46,3.88,60.48-10.69,73.49l.89-.84c-14.49,12.33-73.51,19.79-73.86,1.82-.07-3.53,3.36-7.14,10.26-9.59,0,0-12.15,4.2-12.15,12.08"
                    fill="none" stroke="#890050" stroke-linejoin="bevel" />
                <path d="M617.09,450.1a230.08,230.08,0,0,1-41.18,18.39" fill="none" stroke="#890050"
                    stroke-linejoin="bevel" />
                <line x1="737.64" y1="350.58" x2="732.84" y2="351.69" fill="none" stroke="#890050"
                    stroke-linejoin="bevel" />
                <path d="M731.53,394.47a19.33,19.33,0,0,1,0-37.72Z" fill="none" stroke="#890050" stroke-miterlimit="10" />
                <polyline points="718.27 8.81 718.27 13.41 740.81 13.41 740.81 8.81" fill="none" stroke="#890050"
                    stroke-miterlimit="10" />
                <polyline points="718.27 468.52 718.27 463.92 740.81 463.92 740.81 468.52" fill="none" stroke="#890050"
                    stroke-miterlimit="10" />
                <path d="M730.61,404.3a37.48,37.48,0,0,0,14.73,1.95V415H730.61Z" fill="none" stroke="#890050"
                    stroke-miterlimit="10" />
                <path d="M730.61,72.94a37.48,37.48,0,0,1,14.73-2V62.23H730.61Z" fill="none" stroke="#890050"
                    stroke-miterlimit="10" />
                <path
                    d="M492.08,270.54c-1.48,2.39-5.51,8.76-8.77,6.33-2.12-1.58,1.75-6.31,4.05-9.29a51,51,0,0,1-7.08-5.91,42,42,0,0,1-5.91-6.67c-3,2.27-7.83,6.08-9.43,4-2.46-3.2,4-7.18,6.43-8.63,5.17-3.4,13.15-6.92,16.44-6.92,5.87,0,11.33,4.7,11.33,10.47C499.14,257.39,495.29,265,492.08,270.54Z"
                    fill="none" stroke="#890050" stroke-miterlimit="10" />
                <path d="M489,261.67a24.33,24.33,0,0,1-8.72-8.17" fill="none" stroke="#890050" stroke-miterlimit="10" />
                <path
                    d="M464.65,276.64c-11.33-12.06-10.3-13.79-2.47-21.39.59-.53-.61,1.47-.61,2.31a4.77,4.77,0,0,0,4.8,4.73A4.4,4.4,0,0,0,468,262l.07,0c13.38-6.08,17.45-17,23-11.35l.55.65c5.74,5.45-5.35,9.45-11.52,22.64l0,.06a4.3,4.3,0,0,0-.29,1.61,4.77,4.77,0,0,0,4.8,4.73c.86,0,2.89-1.18,2.35-.6-7.72,7.71-9.47,8.72-21.72-2.44Z"
                    fill="none" stroke="#890050" stroke-miterlimit="10" />
                <path d="M488.49,261.79a47.6,47.6,0,0,1-8.42-7.81" fill="none" stroke="#890050" stroke-miterlimit="10" />
                <path
                    d="M510.35,270.54c1.48,2.39,5.51,8.76,8.77,6.33,2.12-1.58-1.75-6.31-4-9.29a51,51,0,0,0,7.08-5.91,42,42,0,0,0,5.91-6.67c3,2.27,7.83,6.08,9.43,4,2.46-3.2-4-7.18-6.43-8.63-5.17-3.4-13.15-6.92-16.44-6.92-5.87,0-11.33,4.7-11.33,10.47C503.29,257.39,507.14,265,510.35,270.54Z"
                    fill="none" stroke="#890050" stroke-miterlimit="10" />
                <path d="M513.43,261.67a24.41,24.41,0,0,0,8.72-8.17" fill="none" stroke="#890050" stroke-miterlimit="10" />
                <path
                    d="M537.78,276.64c11.33-12.06,10.3-13.79,2.47-21.39-.59-.53.61,1.47.61,2.31a4.77,4.77,0,0,1-4.8,4.73,4.4,4.4,0,0,1-1.63-.28l-.07,0c-13.39-6.08-17.45-17-23-11.35l-.55.65c-5.74,5.45,5.35,9.45,11.52,22.64l0,.06a4.3,4.3,0,0,1,.29,1.61,4.77,4.77,0,0,1-4.81,4.73c-.85,0-2.88-1.18-2.34-.6,7.72,7.71,9.47,8.72,21.72-2.44Z"
                    fill="none" stroke="#890050" stroke-miterlimit="10" />
                <path d="M513.94,261.79a47.6,47.6,0,0,0,8.42-7.81" fill="none" stroke="#890050" stroke-miterlimit="10" />
                <ellipse cx="501.32" cy="271.72" rx="1.57" ry="2.58" fill="none" stroke="#890050" stroke-miterlimit="10" />
                <path d="M497.67,272.52c0-3.3,1.64-6,3.65-6s3.65,2.68,3.65,6" fill="none" stroke="#890050"
                    stroke-miterlimit="10" />
                <path d="M522.15,194.61a49,49,0,0,0-41.87.1" fill="none" stroke="#890050" stroke-miterlimit="10" />
                <path d="M454.07,261.66a47,47,0,0,1,.1-41.24" fill="none" stroke="#890050" stroke-miterlimit="10" />
                <path d="M548.36,261.66a47,47,0,0,0-.11-41.24" fill="none" stroke="#890050" stroke-miterlimit="10" />
                <path
                    d="M492.08,211.53c-1.48-2.38-5.51-8.75-8.77-6.33-2.12,1.58,1.75,6.31,4.05,9.29a51.54,51.54,0,0,0-7.08,5.92,42,42,0,0,0-5.91,6.67c-3-2.27-7.83-6.08-9.43-4-2.46,3.21,4,7.18,6.43,8.64,5.17,3.4,13.15,6.92,16.44,6.92,5.87,0,11.33-4.7,11.33-10.47C499.14,224.69,495.29,217.05,492.08,211.53Z"
                    fill="none" stroke="#890050" stroke-miterlimit="10" />
                <path d="M489,220.41a24.24,24.24,0,0,0-8.72,8.17" fill="none" stroke="#890050" stroke-miterlimit="10" />
                <path
                    d="M464.65,205.44c-11.33,12.06-10.3,13.78-2.47,21.39.59.53-.61-1.47-.61-2.31a4.76,4.76,0,0,1,4.8-4.73,4.4,4.4,0,0,1,1.63.28l.07,0c13.38,6.07,17.45,17,23,11.35l.55-.66c5.74-5.44-5.35-9.45-11.52-22.63l0-.07a4.25,4.25,0,0,1-.29-1.6,4.77,4.77,0,0,1,4.8-4.73c.86,0,2.89,1.18,2.35.6-7.72-7.71-9.47-8.73-21.72,2.44Z"
                    fill="none" stroke="#890050" stroke-miterlimit="10" />
                <path d="M488.49,220.29a47.23,47.23,0,0,0-8.42,7.81" fill="none" stroke="#890050" stroke-miterlimit="10" />
                <path
                    d="M510.35,211.53c1.48-2.38,5.51-8.75,8.77-6.33,2.12,1.58-1.75,6.31-4,9.29a51.54,51.54,0,0,1,7.08,5.92,42,42,0,0,1,5.91,6.67c3-2.27,7.83-6.08,9.43-4,2.46,3.21-4,7.18-6.43,8.64-5.17,3.4-13.15,6.92-16.44,6.92-5.87,0-11.33-4.7-11.33-10.47C503.29,224.69,507.14,217.05,510.35,211.53Z"
                    fill="none" stroke="#890050" stroke-miterlimit="10" />
                <path d="M513.43,220.41a24.33,24.33,0,0,1,8.72,8.17" fill="none" stroke="#890050" stroke-miterlimit="10" />
                <path
                    d="M537.78,205.44c11.33,12.06,10.3,13.78,2.47,21.39-.59.53.61-1.47.61-2.31a4.76,4.76,0,0,0-4.8-4.73,4.4,4.4,0,0,0-1.63.28l-.07,0c-13.39,6.07-17.45,17-23,11.35l-.55-.66c-5.74-5.44,5.35-9.45,11.52-22.63l0-.07a4.25,4.25,0,0,0,.29-1.6,4.77,4.77,0,0,0-4.81-4.73c-.85,0-2.88,1.18-2.34.6,7.72-7.71,9.47-8.73,21.72,2.44Z"
                    fill="none" stroke="#890050" stroke-miterlimit="10" />
                <path d="M513.94,220.29a47.23,47.23,0,0,1,8.42,7.81" fill="none" stroke="#890050" stroke-miterlimit="10" />
                <ellipse cx="501.32" cy="210.35" rx="1.57" ry="2.58" fill="none" stroke="#890050" stroke-miterlimit="10" />
                <path d="M497.67,209.56c0,3.3,1.64,6,3.65,6s3.65-2.68,3.65-6" fill="none" stroke="#890050"
                    stroke-miterlimit="10" />
                <ellipse cx="470.16" cy="241.04" rx="2.62" ry="1.55" fill="none" stroke="#890050" stroke-miterlimit="10" />
                <path d="M469.36,237.45c3.35,0,6.07,1.6,6.07,3.59s-2.72,3.59-6.07,3.59" fill="none" stroke="#890050"
                    stroke-miterlimit="10" />
                <ellipse cx="532.48" cy="241.04" rx="2.62" ry="1.55" fill="none" stroke="#890050" stroke-miterlimit="10" />
                <path d="M533.29,237.45c-3.36,0-6.08,1.6-6.08,3.59s2.72,3.59,6.08,3.59" fill="none" stroke="#890050"
                    stroke-miterlimit="10" />
                <ellipse cx="499.75" cy="240" rx="237.86" ry="234.23" fill="none" stroke="#890050" stroke-miterlimit="10" />
                <ellipse cx="499.75" cy="240" rx="231.25" ry="227.72" fill="none" stroke="#890050" stroke-miterlimit="10" />
                <ellipse cx="501.32" cy="241.33" rx="60.82" ry="59.9" fill="none" stroke="#890050" stroke-miterlimit="10" />
                <ellipse cx="501.32" cy="241.33" rx="86.41" ry="85.1" fill="none" stroke="#890050" stroke-miterlimit="10" />
                <ellipse cx="501.32" cy="241.33" rx="75.69" ry="74.54" fill="none" stroke="#890050"
                    stroke-miterlimit="10" />
            </g>
        </a>

        <a href="../download.html" target="_top">    
            <g id="Nedladdning768">
                <path d="M3.52,451.21c-.06,0,0,0,0,.13C3.56,451.25,3.54,451.21,3.52,451.21Z" fill="#d67fc5" stroke="#3e0079"
                    stroke-miterlimit="10" />
                <path
                    d="M17.46,473.08,21,476H138.61l11.95-6.77v-6.18h45.2V420.93l-45.18-.32v-6.08L139.25,408h-129L3.7,412.94v37.11l2.68,3.23s-2.33-1.49-2.81-1.94c.31,1.71,0,19.74,0,19.74l6.24,5.42H19.6ZM11,470.18l-2.77-2.72V453.1H15a1.88,1.88,0,0,1,1.9,1.87v15.21Z"
                    fill="#d67fc5" stroke="#3e0079" stroke-miterlimit="10" />
                <path
                    d="M176.55,434.92v-7.4a.89.89,0,0,0-.89-.88h-6a.88.88,0,0,0-.88.88v7.4a.87.87,0,0,0,.88.87h6A.88.88,0,0,0,176.55,434.92Z"
                    fill="none" stroke="#3e0079" stroke-miterlimit="10" />
                <line x1="176.55" y1="431.22" x2="168.8" y2="431.22" fill="none" stroke="#3e0079" stroke-miterlimit="10" />
                <line x1="168.8" y1="430.05" x2="176.55" y2="430.05" fill="none" stroke="#3e0079" stroke-miterlimit="10" />
                <line x1="176.55" y1="428.87" x2="168.8" y2="428.87" fill="none" stroke="#3e0079" stroke-miterlimit="10" />
                <line x1="176.55" y1="427.7" x2="168.8" y2="427.7" fill="none" stroke="#3e0079" stroke-miterlimit="10" />
                <path
                    d="M176.55,449.26v7.4a.88.88,0,0,1-.89.87h-6a.87.87,0,0,1-.88-.87v-7.4a.87.87,0,0,1,.88-.87h6A.88.88,0,0,1,176.55,449.26Z"
                    fill="none" stroke="#3e0079" stroke-miterlimit="10" />
                <line x1="176.55" y1="452.96" x2="168.8" y2="452.96" fill="none" stroke="#3e0079" stroke-miterlimit="10" />
                <line x1="168.8" y1="454.13" x2="176.55" y2="454.13" fill="none" stroke="#3e0079" stroke-miterlimit="10" />
                <line x1="176.55" y1="455.31" x2="168.8" y2="455.31" fill="none" stroke="#3e0079" stroke-miterlimit="10" />
                <line x1="176.55" y1="456.48" x2="168.8" y2="456.48" fill="none" stroke="#3e0079" stroke-miterlimit="10" />
                <rect x="159.95" y="454.71" width="2.85" height="7.81" rx="1.42"
                    transform="translate(619.99 297.25) rotate(90)" fill="none" stroke="#3e0079" stroke-linejoin="bevel" />
                <rect x="159.95" y="421.32" width="2.85" height="7.81" rx="1.42"
                    transform="translate(586.59 263.85) rotate(90)" fill="none" stroke="#3e0079" stroke-linejoin="bevel" />
                <path
                    d="M157.71,449.66a1.9,1.9,0,0,0,.29-1,.88.88,0,0,0-.9-1,1,1,0,0,0-.93,1.11v.32h-.47v-.32a.87.87,0,0,0-.79-1,.67.67,0,0,0-.7.75,1.52,1.52,0,0,0,.31.86l-.46.15a1.91,1.91,0,0,1-.35-1.12,1.09,1.09,0,0,1,1.1-1.22,1.15,1.15,0,0,1,1.1.79h0a1.18,1.18,0,0,1,1.19-1,1.41,1.41,0,0,1,1.4,1.56,2,2,0,0,1-.32,1.11Z"
                    fill="#3e0079" />
                <path
                    d="M158.43,446.42H158l-.48-.46c-1.13-1.09-1.73-1.58-2.43-1.59a.79.79,0,0,0-.9.85,1.4,1.4,0,0,0,.39.91l-.44.18a1.77,1.77,0,0,1-.47-1.21,1.26,1.26,0,0,1,1.35-1.31c.85,0,1.55.58,2.49,1.48l.34.34h0v-1.92h.52Z"
                    fill="#3e0079" />
                <path
                    d="M158.21,439.46a3.89,3.89,0,0,1,.27,1.37,2.16,2.16,0,0,1-.64,1.65,2.6,2.6,0,0,1-1.79.62,2.31,2.31,0,0,1-2.49-2.4,2.54,2.54,0,0,1,.22-1.1l.51.13a2.23,2.23,0,0,0-.21,1A1.74,1.74,0,0,0,156,442.5a1.7,1.7,0,0,0,1.94-1.71,1.81,1.81,0,0,0-.12-.77H156.4v.9h-.5v-1.46Z"
                    fill="#3e0079" />
                <path
                    d="M153.68,438.59a5,5,0,0,1-.1-1,1.71,1.71,0,0,1,.35-1.22,1,1,0,0,1,.85-.36,1.12,1.12,0,0,1,1.05.75h0a1.21,1.21,0,0,1,1.21-.92,1.32,1.32,0,0,1,1,.38,2.09,2.09,0,0,1,.45,1.53,6,6,0,0,1-.06.89Zm2-.58v-.51c0-.61-.34-1-.81-1s-.78.39-.78,1a2.35,2.35,0,0,0,0,.5Zm2.31,0a2.88,2.88,0,0,0,0-.48c0-.59-.24-1.13-.94-1.13s-.93.52-.93,1.14V438Z"
                    fill="#3e0079" />
                <line x1="150.58" y1="420.61" x2="150.58" y2="463.06" fill="none" stroke="#3e0079" stroke-miterlimit="10" />
                <polyline
                    points="45.95 426.64 138.09 426.64 138.09 416.9 45.95 416.9 45.95 414 138.09 414 138.09 410.48 43.08 410.31 43.08 414.02 9.68 414.02 9.68 416.93 43.08 416.93 43.08 426.64 9.68 426.64 9.68 418.14"
                    fill="none" stroke="#3e0079" stroke-linejoin="bevel" />
                <polyline
                    points="45.95 457.64 138.09 457.64 138.09 467.38 45.95 467.38 45.95 470.29 138.09 470.29 138.09 473.59 42.97 473.64 43 470.29 20.95 470.29 21.01 467.39 43.07 467.39 43.08 457.64 21.14 457.64 21.14 465.48"
                    fill="none" stroke="#3e0079" stroke-linejoin="bevel" />
                <rect x="45.94" y="429.48" width="92.14" height="25.32" fill="none" stroke="#3e0079"
                    stroke-linejoin="bevel" />
                <path d="M43.08,454.71V429.39H9.68V450H19.6a1.57,1.57,0,0,1,1.62,1.53v3.21Z" fill="none" stroke="#3e0079"
                    stroke-linejoin="bevel" />
            </g>
        </a>

        <a href="../streaming.html" target="_top">    
            <g id="Streaming768">
                <polyline points="3.74 70.73 0.65 70.73 0.65 84.41 3.74 84.41" fill="#ffec00" stroke="#0e5200"
                    stroke-miterlimit="10" />
                <polyline points="3.74 97.78 0.65 97.78 0.65 124.32 3.74 124.32" fill="#ffec00" stroke="#0e5200"
                    stroke-miterlimit="10" />
                <polyline points="3.74 132.52 0.65 132.52 0.65 159.26 3.74 159.26" fill="#ffec00" stroke="#0e5200"
                    stroke-miterlimit="10" />
                <polyline points="195.5 116 198.46 116 198.46 159.69 195.5 159.69" fill="#ffec00" stroke="#0e5200"
                    stroke-miterlimit="10" />
                <rect x="3.74" y="0.94" width="191.76" height="395.48" rx="29.73"
                    transform="translate(199.25 397.37) rotate(-180)" fill="#ffec00" stroke="#0e5200"
                    stroke-miterlimit="10" />
                <rect x="8.59" y="5.24" width="181.93" height="386.33" rx="27.83"
                    transform="translate(199.11 396.81) rotate(180)" fill="none" stroke="#0e5200" stroke-miterlimit="10" />
                <rect x="76.85" y="10.95" width="43.97" height="10.97" rx="4.82" fill="none" stroke="#0e5200"
                    stroke-miterlimit="10" />
                <rect x="17.15" y="58.19" width="164.1" height="161.61" fill="none" stroke="#0e5200"
                    stroke-miterlimit="10" />
                <path
                    d="M112.82,111.87a2.19,2.19,0,0,1,2.6,2.25l-.25,38.4s.27,4.89-6.78,6.17c-6.55,1.19-12.4-10.88,1.66-12.71a2.66,2.66,0,0,0,2.54-3.1l0-17a1.53,1.53,0,0,0-1.82-1.55l-18.66,4.39a1.6,1.6,0,0,0-1.19,1.58v26.87c0,7.7-14.14,9.73-14,1.39s10-6.61,10.82-8.38a5.39,5.39,0,0,0,.46-2.92v-28a2.15,2.15,0,0,1,1.61-2.12Z"
                    fill="none" stroke="#0e5200" stroke-miterlimit="10" />
                <ellipse cx="98.83" cy="325.21" rx="17.45" ry="17.19" fill="none" stroke="#0e5200" stroke-miterlimit="10" />
                <rect x="92.61" y="318.24" width="3.66" height="13.95" fill="none" stroke="#0e5200"
                    stroke-miterlimit="10" />
                <rect x="101.4" y="318.24" width="3.66" height="13.95" fill="none" stroke="#0e5200"
                    stroke-miterlimit="10" />
                <polygon
                    points="144.88 318.24 144.88 324.83 134.65 318.24 134.3 331.96 144.88 325.15 144.88 325.21 144.88 332.18 147.81 332.18 147.81 318.24 144.88 318.24"
                    fill="none" stroke="#0e5200" stroke-miterlimit="10" />
                <polygon
                    points="52.79 318.24 52.79 324.83 63.02 318.24 63.36 331.96 52.79 325.15 52.79 325.21 52.79 332.18 49.86 332.18 49.86 318.24 52.79 318.24"
                    fill="none" stroke="#0e5200" stroke-miterlimit="10" />
                <ellipse cx="20.44" cy="280.38" rx="3.29" ry="3.24" fill="none" stroke="#0e5200" stroke-miterlimit="10" />
                <line x1="23.73" y1="280.38" x2="181.24" y2="280.38" fill="#ffec00" stroke="#0e5200"
                    stroke-miterlimit="10" />
                <path d="M20.26,328.88c5.14,0,4.53-7.29,9.06-7.29" fill="none" stroke="#0e5200" stroke-miterlimit="10" />
                <path d="M20.34,321.75c5.14,0,4.53,7.29,9.05,7.29" fill="none" stroke="#0e5200" stroke-miterlimit="10" />
                <polygon points="29.32 319.18 29.32 324 31.5 321.59 29.32 319.18" fill="#0e5200" />
                <polygon points="176.71 332.33 176.71 327.52 174.54 329.93 176.71 332.33" fill="#0e5200" />
                <polygon points="29.32 326.67 29.32 331.48 31.5 329.08 29.32 326.67" fill="#0e5200" />
                <path
                    d="M175.63,329.93h2.22a3.36,3.36,0,0,0,3.39-3.34v-2.87a3.35,3.35,0,0,0-3.39-3.33H173.4a3.36,3.36,0,0,0-3.39,3.33v2.87a3.37,3.37,0,0,0,3.39,3.34"
                    fill="none" stroke="#0e5200" stroke-miterlimit="10" />
                <polyline points="17.15 35 21.48 39.27 25.94 34.87" fill="#ffec00" stroke="#0e5200"
                    stroke-miterlimit="10" />
                <ellipse cx="177.98" cy="33.12" rx="1.03" ry="1.02" fill="#0e5200" />
                <ellipse cx="177.98" cy="36.53" rx="1.03" ry="1.02" fill="#0e5200" />
                <ellipse cx="177.98" cy="39.94" rx="1.03" ry="1.02" fill="#0e5200" />
                <ellipse cx="115.45" cy="16.44" rx="2.37" ry="2.34" fill="none" stroke="#0e5200" stroke-miterlimit="10" />
            </g>
        </a>
    </g>
</svg>