<svg xmlns="http://www.w3.org/2000/svg" viewBox="0 0 946.28 825.65"><g id="Layer_4" data-name="Layer 4"><path d="M944.67,25.78v769.1c0,25.33-7.14,29.58-30.62,29.58H106.76v-20H98v20H25A22.79,22.79,0,0,1,2.24,801.67V24.49A22.78,22.78,0,0,1,25,1.71L921.89,3a22.78,22.78,0,0,1,22.78,22.78" fill="#ffa4ba" stroke="#890050" stroke-miterlimit="10" stroke-width="3"/><circle cx="503.58" cy="417.72" r="94.52" fill="none" stroke="#890050" stroke-miterlimit="10" stroke-width="3"/><path d="M539.07,497.57a82.41,82.41,0,0,1-71.36-.17" fill="none" stroke="#890050" stroke-miterlimit="10" stroke-width="3"/><path d="M120.37,253.58H110.08a6.28,6.28,0,0,1-6.29-6.3l0-28.89c32.38-7.23,38.71-35.75,38.71-42,0-24.89-20.34-45.07-56.72-45.07V423.87" fill="none" stroke="#890050" stroke-miterlimit="10" stroke-width="3"/><path d="M159.1,182.26c11.61.47,22.07-19.71,22.07-19.71-5.75,11.44-12.87,16.61-19.12,15.78-31.85-4.27-6.61-104.68,18.23-127.19l-1.52,1.45c24.69-21.33,125.29-34.25,125.88-3.14.12,6.1-5.71,12.36-17.49,16.59,0,0,20.72-7.27,20.72-20.89" fill="none" stroke="#890050" stroke-linejoin="bevel" stroke-width="3"/><path d="M304.4,47.15a389.56,389.56,0,0,1,70.2-31.83" fill="none" stroke="#890050" stroke-linejoin="bevel" stroke-width="3"/><path d="M109.35,143.42c14.67,3.05,25.73,16.5,25.73,32.64s-11.07,29.6-25.76,32.63Z" fill="none" stroke="#890050" stroke-miterlimit="10" stroke-width="3"/><rect x="12.96" y="102.15" width="61.88" height="621.88" fill="none" stroke="#890050" stroke-linejoin="bevel" stroke-width="3"/><path d="M10.81,72h77v-63H28.57A17.77,17.77,0,0,0,10.81,26.82Z" fill="none" stroke="#890050" stroke-linejoin="bevel" stroke-width="3"/><line x1="7.39" y1="63.11" x2="13.71" y2="63.11" fill="none" stroke="#890050" stroke-linejoin="bevel" stroke-width="3"/><line x1="7.39" y1="58.07" x2="13.71" y2="58.07" fill="none" stroke="#890050" stroke-linejoin="bevel" stroke-width="3"/><line x1="7.39" y1="53.03" x2="13.71" y2="53.03" fill="none" stroke="#890050" stroke-linejoin="bevel" stroke-width="3"/><line x1="7.39" y1="48" x2="13.71" y2="48" fill="none" stroke="#890050" stroke-linejoin="bevel" stroke-width="3"/><line x1="7.39" y1="42.96" x2="13.71" y2="42.96" fill="none" stroke="#890050" stroke-linejoin="bevel" stroke-width="3"/><line x1="7.39" y1="37.93" x2="13.71" y2="37.93" fill="none" stroke="#890050" stroke-linejoin="bevel" stroke-width="3"/><line x1="7.39" y1="32.89" x2="13.71" y2="32.89" fill="none" stroke="#890050" stroke-linejoin="bevel" stroke-width="3"/><line x1="7.39" y1="27.85" x2="13.71" y2="27.85" fill="none" stroke="#890050" stroke-linejoin="bevel" stroke-width="3"/><line x1="26.16" y1="9.05" x2="30.99" y2="1.72" fill="none" stroke="#890050" stroke-linejoin="bevel" stroke-width="3"/><line x1="32.34" y1="9.05" x2="37.18" y2="1.72" fill="none" stroke="#890050" stroke-linejoin="bevel" stroke-width="3"/><line x1="38.53" y1="9.05" x2="43.37" y2="1.72" fill="none" stroke="#890050" stroke-linejoin="bevel" stroke-width="3"/><line x1="44.72" y1="9.05" x2="49.55" y2="1.72" fill="none" stroke="#890050" stroke-linejoin="bevel" stroke-width="3"/><line x1="50.9" y1="9.05" x2="55.74" y2="1.72" fill="none" stroke="#890050" stroke-linejoin="bevel" stroke-width="3"/><line x1="57.09" y1="9.05" x2="61.93" y2="1.72" fill="none" stroke="#890050" stroke-linejoin="bevel" stroke-width="3"/><line x1="63.28" y1="9.05" x2="68.11" y2="1.72" fill="none" stroke="#890050" stroke-linejoin="bevel" stroke-width="3"/><line x1="69.46" y1="9.05" x2="74.3" y2="1.72" fill="none" stroke="#890050" stroke-linejoin="bevel" stroke-width="3"/><line x1="75.65" y1="9.05" x2="80.49" y2="1.72" fill="none" stroke="#890050" stroke-linejoin="bevel" stroke-width="3"/><line x1="81.84" y1="9.05" x2="86.67" y2="1.72" fill="none" stroke="#890050" stroke-linejoin="bevel" stroke-width="3"/><line x1="88.02" y1="9.05" x2="92.86" y2="1.72" fill="none" stroke="#890050" stroke-linejoin="bevel" stroke-width="3"/><path d="M173.69,21.72H122.2v68H10.81V82.94H97.92s0-9.33,0-8.77V60H92.25V53.69H98V28l-5.71-.09v-6.2H98C98,13.54,102.5,10,113,10v5.22l261.61.06H917.54a12.11,12.11,0,0,1,12.11,12.1V802.2a8.67,8.67,0,0,1-8.66,8.67l-28.68,0-261.61,0" fill="none" stroke="#890050" stroke-miterlimit="10" stroke-width="3"/><rect x="89.24" y="114.15" width="8.48" height="5.97" fill="none" stroke="#890050" stroke-miterlimit="10" stroke-width="3"/><rect x="89.24" y="102.15" width="8.48" height="5.97" fill="none" stroke="#890050" stroke-miterlimit="10" stroke-width="3"/><path d="M162.45,647.73c-20.54-22.43-31.3-51-37-63.46H111.61c-2.81,0-2.81-6.14,0-6.14H130.1c-14.69-34.53-35-55.81-35-154.26,0-100.67,20.34-141.29,35-175.82H111.61c-2.81,0-2.81-6.14,0-6.14h13.86c5.68-12.42,16.44-41,37-63.47" fill="none" stroke="#890050" stroke-miterlimit="10" stroke-width="3"/><path d="M120.37,572.59H110.08a6.28,6.28,0,0,0-6.29,6.3l0,28.9c32.38,7.23,38.71,35.75,38.71,42,0,24.88-20.34,45.06-56.72,45.06V402.31" fill="none" stroke="#890050" stroke-miterlimit="10" stroke-width="3"/><path d="M159.1,643.91c11.61-.46,22.07,19.71,22.07,19.71-5.75-11.43-12.87-16.61-19.12-15.77-31.85,4.26-6.61,104.67,18.23,127.18l-1.52-1.45c24.69,21.33,125.29,34.25,125.88,3.15.12-6.1-5.71-12.36-17.49-16.6,0,0,20.72,7.27,20.72,20.9" fill="none" stroke="#890050" stroke-linejoin="bevel" stroke-width="3"/><path d="M304.4,779a389.43,389.43,0,0,0,70.2,31.84" fill="none" stroke="#890050" stroke-linejoin="bevel" stroke-width="3"/><line x1="98.94" y1="219.38" x2="107.11" y2="217.46" fill="none" stroke="#890050" stroke-linejoin="bevel" stroke-width="3"/><line x1="107.11" y1="608.71" x2="98.94" y2="606.79" fill="none" stroke="#890050" stroke-linejoin="bevel" stroke-width="3"/><path d="M109.35,682.75c14.67-3,25.73-16.5,25.73-32.63s-11.07-29.6-25.76-32.64Z" fill="none" stroke="#890050" stroke-miterlimit="10" stroke-width="3"/><path d="M10.81,754.15h77v63H28.57a17.76,17.76,0,0,1-17.76-17.77Z" fill="none" stroke="#890050" stroke-linejoin="bevel" stroke-width="3"/><line x1="7.39" y1="763.07" x2="13.71" y2="763.07" fill="none" stroke="#890050" stroke-linejoin="bevel" stroke-width="3"/><line x1="7.39" y1="768.1" x2="13.71" y2="768.1" fill="none" stroke="#890050" stroke-linejoin="bevel" stroke-width="3"/><line x1="7.39" y1="773.14" x2="13.71" y2="773.14" fill="none" stroke="#890050" stroke-linejoin="bevel" stroke-width="3"/><line x1="7.39" y1="778.18" x2="13.71" y2="778.18" fill="none" stroke="#890050" stroke-linejoin="bevel" stroke-width="3"/><line x1="7.39" y1="783.21" x2="13.71" y2="783.21" fill="none" stroke="#890050" stroke-linejoin="bevel" stroke-width="3"/><line x1="7.39" y1="788.25" x2="13.71" y2="788.25" fill="none" stroke="#890050" stroke-linejoin="bevel" stroke-width="3"/><line x1="7.39" y1="793.28" x2="13.71" y2="793.28" fill="none" stroke="#890050" stroke-linejoin="bevel" stroke-width="3"/><line x1="7.39" y1="798.32" x2="13.71" y2="798.32" fill="none" stroke="#890050" stroke-linejoin="bevel" stroke-width="3"/><line x1="26.16" y1="817.12" x2="30.99" y2="824.46" fill="none" stroke="#890050" stroke-linejoin="bevel" stroke-width="3"/><line x1="32.34" y1="817.12" x2="37.18" y2="824.46" fill="none" stroke="#890050" stroke-linejoin="bevel" stroke-width="3"/><line x1="38.53" y1="817.12" x2="43.37" y2="824.46" fill="none" stroke="#890050" stroke-linejoin="bevel" stroke-width="3"/><line x1="44.72" y1="817.12" x2="49.55" y2="824.46" fill="none" stroke="#890050" stroke-linejoin="bevel" stroke-width="3"/><line x1="50.9" y1="817.12" x2="55.74" y2="824.46" fill="none" stroke="#890050" stroke-linejoin="bevel" stroke-width="3"/><line x1="57.09" y1="817.12" x2="61.93" y2="824.46" fill="none" stroke="#890050" stroke-linejoin="bevel" stroke-width="3"/><line x1="63.28" y1="817.12" x2="68.11" y2="824.46" fill="none" stroke="#890050" stroke-linejoin="bevel" stroke-width="3"/><line x1="69.46" y1="817.12" x2="74.3" y2="824.46" fill="none" stroke="#890050" stroke-linejoin="bevel" stroke-width="3"/><line x1="75.65" y1="817.12" x2="80.49" y2="824.46" fill="none" stroke="#890050" stroke-linejoin="bevel" stroke-width="3"/><line x1="81.84" y1="817.12" x2="86.67" y2="824.46" fill="none" stroke="#890050" stroke-linejoin="bevel" stroke-width="3"/><line x1="88.02" y1="817.12" x2="92.86" y2="824.46" fill="none" stroke="#890050" stroke-linejoin="bevel" stroke-width="3"/><line x1="97.96" y1="772.48" x2="97.96" y2="798.19" fill="none" stroke="#890050" stroke-miterlimit="10" stroke-width="3"/><path d="M173.69,804.46H122.2v-68H10.81v6.75H97.92s0,9.33,0,8.77v14.21H92.25" fill="none" stroke="#890050" stroke-miterlimit="10" stroke-width="3"/><rect x="89.24" y="706.05" width="8.48" height="5.97" fill="none" stroke="#890050" stroke-miterlimit="10" stroke-width="3"/><rect x="89.24" y="718.06" width="8.48" height="5.97" fill="none" stroke="#890050" stroke-miterlimit="10" stroke-width="3"/><path d="M884.93,253.58h10.3a6.3,6.3,0,0,0,6.29-6.3l0-28.89c-32.38-7.23-38.7-35.75-38.7-42,0-24.89,20.33-45.07,56.72-45.07V423.87" fill="none" stroke="#890050" stroke-miterlimit="10" stroke-width="3"/><path d="M846.2,182.26c-11.61.47-22.07-19.71-22.07-19.71,5.75,11.44,12.87,16.61,19.12,15.78,31.86-4.27,6.61-104.68-18.23-127.19l1.53,1.45c-24.7-21.33-125.29-34.25-125.89-3.14-.12,6.1,5.72,12.36,17.49,16.59,0,0-20.72-7.27-20.72-20.89" fill="none" stroke="#890050" stroke-linejoin="bevel" stroke-width="3"/><path d="M700.9,47.15a389.22,389.22,0,0,0-70.2-31.83" fill="none" stroke="#890050" stroke-linejoin="bevel" stroke-width="3"/><line x1="906.37" y1="219.38" x2="898.19" y2="217.46" fill="none" stroke="#890050" stroke-linejoin="bevel" stroke-width="3"/><path d="M896,143.42c-14.68,3.05-25.74,16.5-25.74,32.64s11.07,29.6,25.77,32.63Z" fill="none" stroke="#890050" stroke-miterlimit="10" stroke-width="3"/><path d="M842.86,647.73c20.54-22.43,31.3-51,37-63.46H893.7c2.81,0,2.81-6.14,0-6.14H875.21c14.69-34.53,31.16-55.81,31.16-154.26,0-100.67-16.47-141.29-31.16-175.82H893.7c2.81,0,2.81-6.14,0-6.14H879.83c-5.67-12.42-16.43-41-37-63.47" fill="none" stroke="#890050" stroke-miterlimit="10" stroke-width="3"/><path d="M884.93,572.59h10.3a6.3,6.3,0,0,1,6.29,6.3l0,28.9c-32.38,7.23-38.7,35.75-38.7,42,0,24.88,20.33,45.06,56.72,45.06V402.31" fill="none" stroke="#890050" stroke-miterlimit="10" stroke-width="3"/><path d="M846.2,643.91c-11.61-.46-22.07,19.71-22.07,19.71,5.75-11.43,12.87-16.61,19.12-15.77C875.11,652.11,849.86,752.52,825,775l1.53-1.45c-24.7,21.33-125.29,34.25-125.89,3.15-.12-6.1,5.72-12.36,17.49-16.6,0,0-20.72,7.27-20.72,20.9" fill="none" stroke="#890050" stroke-linejoin="bevel" stroke-width="3"/><path d="M700.9,779a389.1,389.1,0,0,1-70.2,31.84" fill="none" stroke="#890050" stroke-linejoin="bevel" stroke-width="3"/><line x1="906.37" y1="606.79" x2="898.19" y2="608.71" fill="none" stroke="#890050" stroke-linejoin="bevel" stroke-width="3"/><path d="M896,682.75c-14.68-3-25.74-16.5-25.74-32.63s11.07-29.6,25.77-32.64Z" fill="none" stroke="#890050" stroke-miterlimit="10" stroke-width="3"/><polyline points="873.35 15.31 873.35 23.28 911.77 23.28 911.77 15.31" fill="none" stroke="#890050" stroke-miterlimit="10" stroke-width="3"/><polyline points="873.35 810.91 873.35 802.95 911.77 802.95 911.77 810.91" fill="none" stroke="#890050" stroke-miterlimit="10" stroke-width="3"/><path d="M894.37,699.77a62.92,62.92,0,0,0,25.12,3.37v15.17H894.37Z" fill="none" stroke="#890050" stroke-miterlimit="10" stroke-width="3"/><path d="M894.37,126.31a62.92,62.92,0,0,1,25.12-3.37V107.77H894.37Z" fill="none" stroke="#890050" stroke-miterlimit="10" stroke-width="3"/><path d="M487.83,468.28c-2.52,4.13-9.4,15.16-14.95,11-3.62-2.74,3-10.92,6.9-16.08a86.81,86.81,0,0,1-12.07-10.24,72.58,72.58,0,0,1-10.07-11.54c-5.15,3.93-13.34,10.52-16.08,6.9-4.19-5.56,6.83-12.43,11-14.95,8.82-5.88,22.42-12,28-12,10,0,19.31,8.13,19.31,18.12C499.86,445.52,493.3,458.73,487.83,468.28Z" fill="none" stroke="#890050" stroke-miterlimit="10" stroke-width="3"/><path d="M482.57,452.92a41.7,41.7,0,0,1-14.86-14.14" fill="none" stroke="#890050" stroke-miterlimit="10" stroke-width="3"/><path d="M441.08,478.83c-19.33-20.87-17.57-23.86-4.22-37,1-.92-1,2.54-1,4A8.19,8.19,0,0,0,444,454a7.51,7.51,0,0,0,2.77-.48l.12,0c22.81-10.52,29.74-29.42,39.17-19.64L487,435c9.77,9.43-9.13,16.35-19.64,39.17l0,.11a7.53,7.53,0,0,0-.48,2.78,8.18,8.18,0,0,0,8.18,8.18c1.45,0,4.92-2,4-1-13.16,13.35-16.15,15.11-37-4.21Z" fill="none" stroke="#890050" stroke-miterlimit="10" stroke-width="3"/><path d="M481.7,453.14a82.76,82.76,0,0,1-14.35-13.52" fill="none" stroke="#890050" stroke-miterlimit="10" stroke-width="3"/><path d="M519,468.28c2.52,4.13,9.39,15.16,14.95,11,3.62-2.74-3-10.92-6.9-16.08a86.41,86.41,0,0,0,12.06-10.24,72.38,72.38,0,0,0,10.08-11.54c5.15,3.93,13.34,10.52,16.08,6.9,4.19-5.56-6.84-12.43-11-14.95-8.83-5.88-22.42-12-28-12-10,0-19.3,8.13-19.3,18.12C506.93,445.52,513.49,458.73,519,468.28Z" fill="none" stroke="#890050" stroke-miterlimit="10" stroke-width="3"/><path d="M524.21,452.92a41.53,41.53,0,0,0,14.86-14.14" fill="none" stroke="#890050" stroke-miterlimit="10" stroke-width="3"/><path d="M565.71,478.83c19.32-20.87,17.57-23.86,4.22-37-1-.92,1,2.54,1,4a8.19,8.19,0,0,1-8.19,8.19,7.48,7.48,0,0,1-2.77-.48l-.12,0c-22.82-10.52-29.74-29.42-39.17-19.64l-.94,1.13c-9.78,9.43,9.13,16.35,19.64,39.17l0,.11a7.53,7.53,0,0,1,.48,2.78,8.18,8.18,0,0,1-8.18,8.18c-1.46,0-4.92-2-4-1,13.16,13.35,16.14,15.11,37-4.21Z" fill="none" stroke="#890050" stroke-miterlimit="10" stroke-width="3"/><path d="M525.09,453.14a82.76,82.76,0,0,0,14.35-13.52" fill="none" stroke="#890050" stroke-miterlimit="10" stroke-width="3"/><ellipse cx="503.58" cy="470.33" rx="2.68" ry="4.46" fill="none" stroke="#890050" stroke-miterlimit="10" stroke-width="3"/><path d="M497.36,471.7c0-5.72,2.78-10.35,6.22-10.35s6.21,4.63,6.21,10.35" fill="none" stroke="#890050" stroke-miterlimit="10" stroke-width="3"/><path d="M539.07,336.87a82.41,82.41,0,0,0-71.36.17" fill="none" stroke="#890050" stroke-miterlimit="10" stroke-width="3"/><path d="M423,452.9a82.36,82.36,0,0,1,.18-71.36" fill="none" stroke="#890050" stroke-miterlimit="10" stroke-width="3"/><path d="M583.75,452.9a82.36,82.36,0,0,0-.18-71.36" fill="none" stroke="#890050" stroke-miterlimit="10" stroke-width="3"/><path d="M487.83,366.16c-2.52-4.13-9.4-15.16-14.95-11-3.62,2.74,3,10.92,6.9,16.08a86.81,86.81,0,0,0-12.07,10.24,72.38,72.38,0,0,0-10.07,11.55c-5.15-3.94-13.34-10.53-16.08-6.91-4.19,5.56,6.83,12.43,11,14.95,8.82,5.89,22.42,12,28,12,10,0,19.31-8.13,19.31-18.12C499.86,388.92,493.3,375.71,487.83,366.16Z" fill="none" stroke="#890050" stroke-miterlimit="10" stroke-width="3"/><path d="M482.57,381.52a41.7,41.7,0,0,0-14.86,14.14" fill="none" stroke="#890050" stroke-miterlimit="10" stroke-width="3"/><path d="M441.08,355.61c-19.33,20.87-17.57,23.86-4.22,37,1,.92-1-2.54-1-4a8.19,8.19,0,0,1,8.19-8.19,7.72,7.72,0,0,1,2.77.48l.12.05c22.81,10.51,29.74,29.41,39.17,19.63l.94-1.12c9.77-9.43-9.13-16.36-19.64-39.18l0-.11a7.53,7.53,0,0,1-.48-2.78,8.18,8.18,0,0,1,8.18-8.18c1.45,0,4.92,2,4,1-13.16-13.35-16.15-15.11-37,4.21Z" fill="none" stroke="#890050" stroke-miterlimit="10" stroke-width="3"/><path d="M481.7,381.31a82,82,0,0,0-14.35,13.52" fill="none" stroke="#890050" stroke-miterlimit="10" stroke-width="3"/><path d="M519,366.16c2.52-4.13,9.39-15.16,14.95-11,3.62,2.74-3,10.92-6.9,16.08a86.41,86.41,0,0,1,12.06,10.24,72.18,72.18,0,0,1,10.08,11.55c5.15-3.94,13.34-10.53,16.08-6.91,4.19,5.56-6.84,12.43-11,14.95-8.83,5.89-22.42,12-28,12-10,0-19.3-8.13-19.3-18.12C506.93,388.92,513.49,375.71,519,366.16Z" fill="none" stroke="#890050" stroke-miterlimit="10" stroke-width="3"/><path d="M524.21,381.52a41.53,41.53,0,0,1,14.86,14.14" fill="none" stroke="#890050" stroke-miterlimit="10" stroke-width="3"/><path d="M565.71,355.61c19.32,20.87,17.57,23.86,4.22,37-1,.92,1-2.54,1-4a8.19,8.19,0,0,0-8.19-8.19,7.48,7.48,0,0,0-2.77.48l-.12.05c-22.82,10.51-29.74,29.41-39.17,19.63l-.94-1.12c-9.78-9.43,9.13-16.36,19.64-39.18l0-.11a7.53,7.53,0,0,0,.48-2.78,8.18,8.18,0,0,0-8.18-8.18c-1.46,0-4.92,2-4,1,13.16-13.35,16.14-15.11,37,4.21Z" fill="none" stroke="#890050" stroke-miterlimit="10" stroke-width="3"/><path d="M525.09,381.31a82,82,0,0,1,14.35,13.52" fill="none" stroke="#890050" stroke-miterlimit="10" stroke-width="3"/><ellipse cx="503.58" cy="364.11" rx="2.68" ry="4.46" fill="none" stroke="#890050" stroke-miterlimit="10" stroke-width="3"/><path d="M497.36,362.74c0,5.72,2.78,10.35,6.22,10.35s6.21-4.63,6.21-10.35" fill="none" stroke="#890050" stroke-miterlimit="10" stroke-width="3"/><ellipse cx="450.47" cy="417.22" rx="4.46" ry="2.68" fill="none" stroke="#890050" stroke-miterlimit="10" stroke-width="3"/><path d="M449.09,411c5.72,0,10.36,2.79,10.36,6.22s-4.64,6.22-10.36,6.22" fill="none" stroke="#890050" stroke-miterlimit="10" stroke-width="3"/><ellipse cx="556.68" cy="417.22" rx="4.46" ry="2.68" fill="none" stroke="#890050" stroke-miterlimit="10" stroke-width="3"/><path d="M558.06,411c-5.72,0-10.35,2.79-10.35,6.22s4.63,6.22,10.35,6.22" fill="none" stroke="#890050" stroke-miterlimit="10" stroke-width="3"/><ellipse cx="500.9" cy="415.42" rx="405.42" ry="405.37" fill="none" stroke="#890050" stroke-miterlimit="10" stroke-width="3"/><ellipse cx="500.9" cy="415.42" rx="394.14" ry="394.1" fill="none" stroke="#890050" stroke-miterlimit="10" stroke-width="3"/><circle cx="503.58" cy="417.72" r="103.66" fill="none" stroke="#890050" stroke-miterlimit="10" stroke-width="3"/><circle cx="503.58" cy="417.72" r="147.28" fill="none" stroke="#890050" stroke-miterlimit="10" stroke-width="3"/><circle cx="503.58" cy="417.72" r="129.01" fill="none" stroke="#890050" stroke-miterlimit="10" stroke-width="3"/></g></svg>