<svg xmlns="http://www.w3.org/2000/svg" viewBox="0 0 302.9 825.65"><g id="Layer_5" data-name="Layer 5"><path d="M192.35,822.42c0,.25.22.14.57-.22C192.55,822.27,192.35,822.34,192.35,822.42Z" fill="#d67fc5" stroke="#3e0079" stroke-miterlimit="10" stroke-width="2"/><path d="M287,763l12.66-15V246.72l-29.27-51H243.63V3.15H61.35L60,195.67H33.66L5.35,244V793.72l21.43,27.94H187.34l14-11.4s-6.44,9.93-8.4,11.94c7.4-1.3,85.43.22,85.43.22l23.47-26.59V753.9Zm-12.53,27.78-11.8,11.8H200.53V773.7a8.09,8.09,0,0,1,8.09-8.09h65.86Z" fill="#d67fc5" stroke="#3e0079" stroke-miterlimit="10" stroke-width="2"/><rect x="86.06" y="85" width="39.59" height="33.05" rx="3.78" fill="none" stroke="#3e0079" stroke-miterlimit="10" stroke-width="3"/><line x1="105.86" y1="85" x2="105.86" y2="118.05" fill="none" stroke="#3e0079" stroke-miterlimit="10" stroke-width="3"/><line x1="100.78" y1="118.05" x2="100.78" y2="85" fill="none" stroke="#3e0079" stroke-miterlimit="10" stroke-width="3"/><line x1="95.71" y1="85" x2="95.71" y2="118.05" fill="none" stroke="#3e0079" stroke-miterlimit="10" stroke-width="3"/><line x1="90.63" y1="85" x2="90.63" y2="118.05" fill="none" stroke="#3e0079" stroke-miterlimit="10" stroke-width="3"/><rect x="180.15" y="85" width="39.59" height="33.05" rx="3.78" fill="none" stroke="#3e0079" stroke-miterlimit="10" stroke-width="3"/><line x1="199.94" y1="85" x2="199.94" y2="118.05" fill="none" stroke="#3e0079" stroke-miterlimit="10" stroke-width="3"/><line x1="205.02" y1="118.05" x2="205.02" y2="85" fill="none" stroke="#3e0079" stroke-miterlimit="10" stroke-width="3"/><line x1="210.09" y1="85" x2="210.09" y2="118.05" fill="none" stroke="#3e0079" stroke-miterlimit="10" stroke-width="3"/><line x1="215.17" y1="85" x2="215.17" y2="118.05" fill="none" stroke="#3e0079" stroke-miterlimit="10" stroke-width="3"/><rect x="218.26" y="133.06" width="12.32" height="33.27" rx="6.16" fill="none" stroke="#3e0079" stroke-linejoin="bevel" stroke-width="3"/><rect x="73.74" y="133.06" width="12.32" height="33.27" rx="6.16" fill="none" stroke="#3e0079" stroke-linejoin="bevel" stroke-width="3"/><path d="M185.65,165.31a8,8,0,0,0-4.1-1.25c-3.22,0-4.22,2.2-4.19,3.84,0,2.77,2.37,4,4.79,4h1.39v2h-1.39c-1.83,0-4.13,1-4.13,3.35,0,1.58.94,3,3.24,3a6.48,6.48,0,0,0,3.7-1.31l.66,2a8.42,8.42,0,0,1-4.84,1.52c-3.64,0-5.29-2.31-5.29-4.72A4.85,4.85,0,0,1,178.9,173v-.07a5,5,0,0,1-4.13-5.08c0-3.17,2.31-5.94,6.75-5.94a8.93,8.93,0,0,1,4.81,1.34Z" fill="#3e0079"/><path d="M171.63,162.24v1.64l-2,2c-4.72,4.81-6.86,7.37-6.89,10.35,0,2,.91,3.87,3.67,3.87a6.09,6.09,0,0,0,3.93-1.67l.8,1.88a7.79,7.79,0,0,1-5.24,2c-4,0-5.66-2.92-5.66-5.75,0-3.66,2.48-6.61,6.37-10.63l1.48-1.46v-.06h-8.31v-2.22Z" fill="#3e0079"/><path d="M141.54,163.15a16.74,16.74,0,0,1,5.89-1.13,9.49,9.49,0,0,1,7.17,2.71,11,11,0,0,1,2.68,7.65c0,6.12-3.95,10.59-10.39,10.59a11.31,11.31,0,0,1-4.78-.94l.6-2.16a9.46,9.46,0,0,0,4.24.88c4.67,0,7.71-3.11,7.71-8.25s-2.93-8.28-7.4-8.28a7.71,7.71,0,0,0-3.3.54v6.12h3.9V173h-6.32Z" fill="#3e0079"/><path d="M137.75,182.49a22.89,22.89,0,0,1-4.53.42c-2.48,0-4.07-.46-5.27-1.49a4.43,4.43,0,0,1-1.59-3.62,4.84,4.84,0,0,1,3.24-4.51v-.06a5.2,5.2,0,0,1-3.95-5.15,5.73,5.73,0,0,1,1.62-4.11c1.34-1.31,3.5-1.92,6.63-1.92a27.3,27.3,0,0,1,3.85.25Zm-2.48-8.41H133c-2.62,0-4.15,1.46-4.15,3.44,0,2.41,1.7,3.35,4.21,3.35a10.07,10.07,0,0,0,2.19-.18Zm0-9.83a11.47,11.47,0,0,0-2.08-.13c-2.56,0-4.92,1-4.92,4,0,2.8,2.25,4,4.95,4h2.05Z" fill="#3e0079"/><line x1="59.96" y1="195.67" x2="243.63" y2="195.67" fill="none" stroke="#3e0079" stroke-miterlimit="10" stroke-width="3"/><polyline points="86.06 641.63 86.06 248.93 43.92 248.93 43.92 641.63 31.35 641.63 31.35 248.93 16.11 248.93 15.4 653.84 31.44 653.84 31.44 796.19 44.04 796.19 44.04 653.84 86.06 653.84 86.06 796.19 49.28 796.19" fill="none" stroke="#3e0079" stroke-linejoin="bevel" stroke-width="3"/><polyline points="220.22 641.63 220.22 248.93 262.36 248.93 262.36 641.63 274.92 641.63 274.92 248.93 289.23 248.93 289.45 654.29 274.95 654.16 274.95 748.16 262.4 747.89 262.4 653.89 220.22 653.84 220.22 747.33 254.1 747.33" fill="none" stroke="#3e0079" stroke-linejoin="bevel" stroke-width="3"/><rect x="98.35" y="248.93" width="109.56" height="392.69" fill="none" stroke="#3e0079" stroke-linejoin="bevel" stroke-width="3"/><path d="M207.53,653.84H98V796.19h89V753.91a6.79,6.79,0,0,1,6.62-6.93h13.91Z" fill="none" stroke="#3e0079" stroke-linejoin="bevel" stroke-width="3"/></g></svg>