<svg xmlns="http://www.w3.org/2000/svg" viewBox="0 0 408.36 825.65"><g id="Layer_6" data-name="Layer 6"><polyline points="8.02 147.14 1.69 147.14 1.69 175.56 8.02 175.56" fill="#ffec00" stroke="#0e5200" stroke-miterlimit="10" stroke-width="3"/><polyline points="8.02 203.34 1.69 203.34 1.69 258.49 8.02 258.49" fill="#ffec00" stroke="#0e5200" stroke-miterlimit="10" stroke-width="3"/><polyline points="8.02 275.54 1.69 275.54 1.69 331.11 8.02 331.11" fill="#ffec00" stroke="#0e5200" stroke-miterlimit="10" stroke-width="3"/><polyline points="400.47 241.21 406.52 241.21 406.52 332 400.47 332" fill="#ffec00" stroke="#0e5200" stroke-miterlimit="10" stroke-width="3"/><rect x="8.02" y="2.12" width="392.45" height="821.81" rx="61.31" transform="translate(408.49 826.05) rotate(180)" fill="#ffec00" stroke="#0e5200" stroke-miterlimit="10" stroke-width="3"/><rect x="17.93" y="11.05" width="372.33" height="802.78" rx="57.39" transform="translate(408.2 824.88) rotate(180)" fill="none" stroke="#0e5200" stroke-miterlimit="10" stroke-width="3"/><rect x="157.64" y="22.91" width="89.98" height="22.8" rx="9.95" fill="none" stroke="#0e5200" stroke-miterlimit="10" stroke-width="3"/><rect x="35.45" y="121.08" width="335.83" height="335.83" fill="none" stroke="#0e5200" stroke-miterlimit="10" stroke-width="3"/><path d="M231.25,232.61a4.51,4.51,0,0,1,5.32,4.68l-.5,79.8s.54,10.17-13.89,12.83c-13.39,2.47-25.38-22.61,3.4-26.43,6.16-.83,5.2-6.43,5.2-6.43l-.09-35.36a3.12,3.12,0,0,0-3.7-3.2l-38.2,9.12a3.31,3.31,0,0,0-2.44,3.28v55.82c0,16-28.93,20.23-28.71,2.91s20.39-13.75,22.14-17.42a11.25,11.25,0,0,0,.94-6.06V247.94a4.44,4.44,0,0,1,3.3-4.41Z" fill="none" stroke="#0e5200" stroke-miterlimit="10" stroke-width="3"/><circle cx="202.63" cy="675.94" r="35.72" fill="none" stroke="#0e5200" stroke-miterlimit="10" stroke-width="3"/><rect x="189.89" y="661.45" width="7.5" height="28.98" fill="none" stroke="#0e5200" stroke-miterlimit="10" stroke-width="3"/><rect x="207.88" y="661.45" width="7.5" height="28.98" fill="none" stroke="#0e5200" stroke-miterlimit="10" stroke-width="3"/><polygon points="296.87 661.45 296.87 675.15 275.92 661.45 275.22 689.97 296.87 675.81 296.87 675.94 296.87 690.43 302.87 690.43 302.87 661.45 296.87 661.45" fill="none" stroke="#0e5200" stroke-miterlimit="10" stroke-width="3"/><polygon points="108.39 661.45 108.39 675.15 129.34 661.45 130.04 689.97 108.39 675.81 108.39 675.94 108.39 690.43 102.39 690.43 102.39 661.45 108.39 661.45" fill="none" stroke="#0e5200" stroke-miterlimit="10" stroke-width="3"/><circle cx="42.19" cy="582.78" r="6.74" fill="none" stroke="#0e5200" stroke-miterlimit="10" stroke-width="3"/><line x1="48.93" y1="582.78" x2="371.28" y2="582.78" fill="#ffec00" stroke="#0e5200" stroke-miterlimit="10" stroke-width="3"/><path d="M41.83,683.57c10.52,0,9.27-15.16,18.53-15.16" fill="none" stroke="#0e5200" stroke-miterlimit="10" stroke-width="3"/><path d="M42,668.74c10.52,0,9.27,15.16,18.54,15.16" fill="none" stroke="#0e5200" stroke-miterlimit="10" stroke-width="3"/><polygon points="60.36 663.41 60.36 673.41 64.82 668.41 60.36 663.41" fill="#0e5200"/><polygon points="362.01 690.74 362.01 680.74 357.56 685.74 362.01 690.74" fill="#0e5200"/><polygon points="60.36 678.97 60.36 688.98 64.82 683.97 60.36 678.97" fill="#0e5200"/><path d="M359.79,685.74h4.56a6.93,6.93,0,0,0,6.93-6.93v-6a6.93,6.93,0,0,0-6.93-6.93h-9.13a6.93,6.93,0,0,0-6.93,6.93v6a6.94,6.94,0,0,0,6.93,6.93" fill="none" stroke="#0e5200" stroke-miterlimit="10" stroke-width="3"/><polyline points="35.45 72.89 44.32 81.75 53.45 72.62" fill="#ffec00" stroke="#0e5200" stroke-miterlimit="10" stroke-width="3"/><circle cx="364.61" cy="68.99" r="2.11" fill="#0e5200"/><circle cx="364.61" cy="76.07" r="2.11" fill="#0e5200"/><circle cx="364.61" cy="83.15" r="2.11" fill="#0e5200"/><circle cx="236.63" cy="34.31" r="4.85" fill="none" stroke="#0e5200" stroke-miterlimit="10" stroke-width="3"/></g></svg>